<svg id="call-calling" xmlns="http://www.w3.org/2000/svg" width="49.166" height="49.166" viewBox="0 0 49.166 49.166">
  <path id="Vector" d="M40.911,33.454a5.214,5.214,0,0,1-.512,2.233,8.453,8.453,0,0,1-1.393,2.09,9.236,9.236,0,0,1-3.36,2.417,10.287,10.287,0,0,1-3.995.778,17.072,17.072,0,0,1-6.678-1.5,35.982,35.982,0,0,1-7.047-4.056,58.9,58.9,0,0,1-6.719-5.736,58.208,58.208,0,0,1-5.716-6.7A36.522,36.522,0,0,1,1.475,16,17.255,17.255,0,0,1,0,9.3,10.6,10.6,0,0,1,.737,5.347,9.429,9.429,0,0,1,3.093,1.926,6,6,0,0,1,7.354,0,3.85,3.85,0,0,1,9.014.369a3.34,3.34,0,0,1,1.373,1.147l4.753,6.7a7.011,7.011,0,0,1,.819,1.434,3.238,3.238,0,0,1,.287,1.25,2.781,2.781,0,0,1-.43,1.455,6.968,6.968,0,0,1-1.147,1.455l-1.557,1.618a1.1,1.1,0,0,0-.328.819,1.86,1.86,0,0,0,.061.471c.061.164.123.287.164.41a17,17,0,0,0,1.905,2.622c.922,1.065,1.905,2.151,2.97,3.237,1.106,1.086,2.172,2.09,3.257,3.011a15.723,15.723,0,0,0,2.643,1.885c.1.041.225.1.369.164a1.414,1.414,0,0,0,.512.082,1.127,1.127,0,0,0,.84-.348l1.557-1.536A6.285,6.285,0,0,1,28.537,25.1a2.728,2.728,0,0,1,1.455-.43,3.269,3.269,0,0,1,1.25.266,7.923,7.923,0,0,1,1.434.8l6.781,4.814a3.107,3.107,0,0,1,1.127,1.311A4.2,4.2,0,0,1,40.911,33.454Z" transform="translate(4.097 4.097)" fill="none" stroke="#ecf3fe" stroke-width="3"/>
  <path id="Vector-2" data-name="Vector" d="M7.17,7.17a8.123,8.123,0,0,0-2.4-4.65A7,7,0,0,0,0,0" transform="translate(30.729 11.267)" fill="none" stroke="#a8fff1" stroke-linecap="round" stroke-linejoin="round" stroke-width="3" opacity="0.4"/>
  <path id="Vector-3" data-name="Vector" d="M14.34,14.34A14.33,14.33,0,0,0,0,0" transform="translate(30.729 4.097)" fill="none" stroke="#a8fff1" stroke-linecap="round" stroke-linejoin="round" stroke-width="3" opacity="0.4"/>
  <path id="Vector-4" data-name="Vector" d="M0,0H49.166V49.166H0Z" fill="none" opacity="0"/>
</svg>
