<svg xmlns="http://www.w3.org/2000/svg" width="66.78" height="66.78" viewBox="0 0 66.78 66.78">
  <g id="vuesax_twotone_messages-2" data-name="vuesax/twotone/messages-2" transform="translate(-428 -252)">
    <g id="messages-2" transform="translate(428 252)">
      <path id="Vector" d="M39.317,41.265,40.4,50.057a2.769,2.769,0,0,1-4.174,2.727L24.569,45.856a27.774,27.774,0,0,1-3.756-.25A13.526,13.526,0,0,0,24.1,36.812c0-7.9-6.845-14.3-15.3-14.3A15.814,15.814,0,0,0,.111,25.043,17.638,17.638,0,0,1,0,22.928C0,10.267,10.991,0,24.569,0S49.139,10.267,49.139,22.928A22.411,22.411,0,0,1,39.317,41.265Z" transform="translate(12.076 5.565)" fill="none" stroke="#a8fff1" stroke-linecap="round" stroke-linejoin="round" stroke-width="3" opacity="0.4"/>
      <path id="Vector-2" data-name="Vector" d="M30.608,14.3a13.526,13.526,0,0,1-3.283,8.793A15.538,15.538,0,0,1,15.3,28.576L8.041,32.889a1.74,1.74,0,0,1-2.616-1.7l.7-5.481A13.88,13.88,0,0,1,0,14.3,13.977,13.977,0,0,1,6.622,2.532,15.814,15.814,0,0,1,15.3,0C23.763,0,30.608,6.4,30.608,14.3Z" transform="translate(5.565 28.076)" fill="none" stroke="#ecf3fe" stroke-linecap="round" stroke-linejoin="round" stroke-width="3"/>
      <path id="Vector-3" data-name="Vector" d="M0,0H66.78V66.78H0Z" fill="none" opacity="0"/>
    </g>
  </g>
</svg>
