<svg xmlns="http://www.w3.org/2000/svg" width="64.349" height="64.349" viewBox="0 0 64.349 64.349">
  <g id="vuesax_twotone_user-tag" data-name="vuesax/twotone/user-tag" transform="translate(-556 -188)">
    <g id="user-tag" transform="translate(556 188)">
      <path id="Vector" d="M40.218,45.178H38.18A8.01,8.01,0,0,0,32.5,47.511l-4.585,4.531a5.422,5.422,0,0,1-7.588,0l-4.585-4.531a8.057,8.057,0,0,0-5.684-2.333H8.044A8,8,0,0,1,0,37.215V7.963A8,8,0,0,1,8.044,0H40.218a8,8,0,0,1,8.044,7.963V37.215A8.016,8.016,0,0,1,40.218,45.178Z" transform="translate(8.044 5.389)" fill="none" stroke="#ecf3fe" stroke-linecap="round" stroke-linejoin="round" stroke-width="3"/>
      <path id="Vector-2" data-name="Vector" d="M12.494,6.247A6.247,6.247,0,1,1,6.247,0,6.247,6.247,0,0,1,12.494,6.247Z" transform="translate(25.927 14.318)" fill="none" stroke="#a8fff1" stroke-linecap="round" stroke-linejoin="round" stroke-width="3" opacity="0.4"/>
      <path id="Vector-3" data-name="Vector" d="M21.45,8.741C21.45,3.914,16.65,0,10.725,0S0,3.914,0,8.741" transform="translate(21.45 33.247)" fill="none" stroke="#a8fff1" stroke-linecap="round" stroke-linejoin="round" stroke-width="3" opacity="0.4"/>
      <path id="Vector-4" data-name="Vector" d="M0,0H64.349V64.349H0Z" fill="none" opacity="0"/>
    </g>
  </g>
</svg>
