<svg xmlns="http://www.w3.org/2000/svg" width="28" height="28" viewBox="0 0 28 28">
  <g id="vuesax_outline_element-4" data-name="vuesax/outline/element-4" transform="translate(-684 -252)">
    <g id="element-4" transform="translate(684 252)">
      <path id="Vector" d="M8.19,14.583H3.477C1.132,14.583,0,13.5,0,11.258V3.325C0,1.085,1.143,0,3.477,0H8.19c2.345,0,3.477,1.085,3.477,3.325v7.933C11.667,13.5,10.523,14.583,8.19,14.583ZM3.477,1.75c-1.482,0-1.727.4-1.727,1.575v7.933c0,1.178.245,1.575,1.727,1.575H8.19c1.482,0,1.727-.4,1.727-1.575V3.325c0-1.178-.245-1.575-1.727-1.575Z" transform="translate(14.875 1.458)" fill="#fff"/>
      <path id="Vector-2" data-name="Vector" d="M8.19,8.75H3.477C1.132,8.75,0,7.665,0,5.425v-2.1C0,1.085,1.143,0,3.477,0H8.19c2.345,0,3.477,1.085,3.477,3.325v2.1C11.667,7.665,10.523,8.75,8.19,8.75Zm-4.713-7c-1.482,0-1.727.4-1.727,1.575v2.1C1.75,6.6,1.995,7,3.477,7H8.19c1.482,0,1.727-.4,1.727-1.575v-2.1c0-1.178-.245-1.575-1.727-1.575Z" transform="translate(14.875 17.792)" fill="#fff"/>
      <path id="Vector-3" data-name="Vector" d="M8.19,14.583H3.477C1.132,14.583,0,13.5,0,11.258V3.325C0,1.085,1.143,0,3.477,0H8.19c2.345,0,3.477,1.085,3.477,3.325v7.933C11.667,13.5,10.523,14.583,8.19,14.583ZM3.477,1.75C2,1.75,1.75,2.147,1.75,3.325v7.933c0,1.178.245,1.575,1.727,1.575H8.19c1.482,0,1.727-.4,1.727-1.575V3.325c0-1.178-.245-1.575-1.727-1.575Z" transform="translate(1.458 11.958)" fill="#fff"/>
      <path id="Vector-4" data-name="Vector" d="M8.19,8.75H3.477C1.132,8.75,0,7.665,0,5.425v-2.1C0,1.085,1.143,0,3.477,0H8.19c2.345,0,3.477,1.085,3.477,3.325v2.1C11.667,7.665,10.523,8.75,8.19,8.75Zm-4.713-7C2,1.75,1.75,2.147,1.75,3.325v2.1C1.75,6.6,2,7,3.477,7H8.19c1.482,0,1.727-.4,1.727-1.575v-2.1c0-1.178-.245-1.575-1.727-1.575Z" transform="translate(1.458 1.458)" fill="#fff"/>
      <path id="Vector-5" data-name="Vector" d="M0,0H28V28H0Z" fill="none" opacity="0"/>
    </g>
  </g>
</svg>
