<svg xmlns="http://www.w3.org/2000/svg" width="26" height="26" viewBox="0 0 26 26">
  <g id="vuesax_outline_bag-happy" data-name="vuesax/outline/bag-happy" transform="translate(-172 -188)">
    <g id="bag-happy" transform="translate(172 188)">
      <path id="Vector" d="M4.6,5.417A4.614,4.614,0,0,1,0,.813.818.818,0,0,1,.813,0a.818.818,0,0,1,.813.813,2.979,2.979,0,1,0,5.958,0,.812.812,0,1,1,1.625,0A4.614,4.614,0,0,1,4.6,5.417Z" transform="translate(8.396 14.625)" fill="#f9fcfb"/>
      <path id="Vector-2" data-name="Vector" d="M.81,5.555a.831.831,0,0,1-.574-.238.817.817,0,0,1,0-1.148L4.168.236A.812.812,0,1,1,5.316,1.384L1.384,5.316A.851.851,0,0,1,.81,5.555Z" transform="translate(4.813 1.357)" fill="#f9fcfb"/>
      <path id="Vector-3" data-name="Vector" d="M4.742,5.555a.8.8,0,0,1-.574-.238L.236,1.384A.812.812,0,0,1,1.384.236L5.316,4.168a.817.817,0,0,1,0,1.148A.831.831,0,0,1,4.742,5.555Z" transform="translate(15.635 1.357)" fill="#f9fcfb"/>
      <path id="Vector-4" data-name="Vector" d="M20.54,5.958H2.979A2.917,2.917,0,0,1,.726,5.341,3.149,3.149,0,0,1,0,2.979C0,0,2.177,0,3.217,0H20.074c1.04,0,3.217,0,3.217,2.979a3.132,3.132,0,0,1-.726,2.362A2.687,2.687,0,0,1,20.54,5.958ZM3.217,4.333H20.323c.488.011.943.011,1.094-.141.076-.076.238-.336.238-1.213,0-1.224-.3-1.354-1.592-1.354H3.217c-1.289,0-1.592.13-1.592,1.354,0,.877.173,1.138.238,1.213a2.18,2.18,0,0,0,1.094.141Z" transform="translate(1.354 5.525)" fill="#f9fcfb"/>
      <path id="Vector-5" data-name="Vector" d="M13.152,14.626H6.62c-3.878,0-4.745-2.307-5.081-4.312L.012.943a.812.812,0,0,1,1.6-.26l1.528,9.36C3.457,11.961,4.107,13,6.62,13h6.533c2.784,0,3.1-.975,3.456-2.86L18.428.662a.8.8,0,0,1,.953-.639.806.806,0,0,1,.639.953L18.2,10.455C17.778,12.654,17.074,14.626,13.152,14.626Z" transform="translate(2.978 10.02)" fill="#f9fcfb"/>
      <path id="Vector-6" data-name="Vector" d="M0,0H26V26H0Z" fill="none" opacity="0"/>
    </g>
  </g>
</svg>
