<svg xmlns="http://www.w3.org/2000/svg" xmlns:xlink="http://www.w3.org/1999/xlink" width="118" height="112.466" viewBox="0 0 118 112.466">
  <defs>
    <clipPath id="clip-path">
      <rect id="Rectangle_76" data-name="Rectangle 76" width="93.667" height="93.667" fill="none" stroke="#a8fff1" stroke-width="1"/>
    </clipPath>
    <clipPath id="clip-path-2">
      <rect id="Rectangle_76-2" data-name="Rectangle 76" width="102.747" height="102.747" fill="none"/>
    </clipPath>
  </defs>
  <g id="Group_363" data-name="Group 363" transform="translate(-1195 -8209)">
    <g id="Group_353" data-name="Group 353" transform="translate(1219.333 8227.799)" opacity="0.14">
      <g id="Group_328" data-name="Group 328">
        <g id="Group_327" data-name="Group 327" clip-path="url(#clip-path)">
          <path id="Path_1082" data-name="Path 1082" d="M112.957,45.3A45.3,45.3,0,1,1,67.655,0a45.3,45.3,0,0,1,45.3,45.3" transform="translate(-22.352 1)" fill="none" stroke="#a8fff1" stroke-width="2"/>
        </g>
      </g>
    </g>
    <g id="Group_352" data-name="Group 352" transform="translate(1195 8209)" opacity="0.14">
      <g id="Group_328-2" data-name="Group 328">
        <g id="Group_327-2" data-name="Group 327" clip-path="url(#clip-path-2)">
          <path id="Path_1082-2" data-name="Path 1082" d="M125.1,51.374A51.374,51.374,0,1,1,73.726,0,51.374,51.374,0,0,1,125.1,51.374" transform="translate(-22.352)" fill="#a8fff1"/>
        </g>
      </g>
    </g>
    <g id="vuesax_twotone_document-filter" data-name="vuesax/twotone/document-filter" transform="translate(600 7918)">
      <g id="document-filter" transform="translate(620 316)">
        <path id="Vector" d="M2.96,0H22.618A3,3,0,0,1,25.6,2.982V6.251a5.647,5.647,0,0,1-1.48,3.424l-6.405,5.654a4.886,4.886,0,0,0-1.48,3.424v6.405a3.365,3.365,0,0,1-1.347,2.54l-2.076,1.347A3.036,3.036,0,0,1,8.195,26.5V18.62A5.814,5.814,0,0,0,7,15.483L1.348,9.52A4.9,4.9,0,0,1,0,6.538V3.114A3,3,0,0,1,2.96,0Z" transform="translate(4.439 4.417)" fill="none" stroke="#a8fff1" stroke-linecap="round" stroke-linejoin="round" stroke-width="3" opacity="0.4"/>
        <path id="Vector-2" data-name="Vector" d="M0,21.557v6.626C0,39.227,4.417,43.645,15.461,43.645H28.714c11.044,0,15.461-4.417,15.461-15.461V14.931c0-6.891-1.723-11.22-5.721-13.473A19.442,19.442,0,0,0,33.021,0" transform="translate(4.417 4.948)" fill="none" stroke="#ecf3fe" stroke-linecap="round" stroke-linejoin="round" stroke-width="3"/>
        <path id="Vector-3" data-name="Vector" d="M0,0H11.044" transform="translate(28.714 28.714)" fill="none" stroke="#a8fff1" stroke-linecap="round" stroke-linejoin="round" stroke-width="3" opacity="0.4"/>
        <path id="Vector-4" data-name="Vector" d="M0,0H15.461" transform="translate(24.296 37.549)" fill="none" stroke="#a8fff1" stroke-linecap="round" stroke-linejoin="round" stroke-width="3" opacity="0.4"/>
        <path id="Vector-5" data-name="Vector" d="M0,0H53.01V53.01H0Z" transform="translate(53.01 53.01) rotate(180)" fill="none" opacity="0"/>
      </g>
    </g>
  </g>
</svg>
