<svg xmlns="http://www.w3.org/2000/svg" width="507.065" height="264.164" viewBox="0 0 507.065 264.164">
  <g id="Group_740" data-name="Group 740" transform="translate(-75.744 -90.275)">
    <g id="Group_692" data-name="Group 692" transform="translate(75.744 263.908)">
      <rect id="Rectangle_877" data-name="Rectangle 877" width="56.046" height="87.366" rx="6.573" fill="#ededed"/>
      <rect id="Rectangle_878" data-name="Rectangle 878" width="44.324" height="20.147" rx="3.067" transform="translate(5.861 9.341)" fill="none" stroke="#dfdfdf" stroke-width="0.931"/>
      <rect id="Rectangle_879" data-name="Rectangle 879" width="44.324" height="20.147" rx="3.067" transform="translate(5.861 32.785)" fill="none" stroke="#dfdfdf" stroke-width="0.931"/>
      <path id="Path_2110" data-name="Path 2110" d="M111.142,321.009a2.335,2.335,0,1,1-2.335-2.335A2.336,2.336,0,0,1,111.142,321.009Z" transform="translate(-80.784 -301.365)" fill="#bdbdbd"/>
      <path id="Path_2111" data-name="Path 2111" d="M111.142,349.107a2.335,2.335,0,1,1-2.335-2.335A2.335,2.335,0,0,1,111.142,349.107Z" transform="translate(-80.784 -305.974)" fill="#bdbdbd"/>
    </g>
    <g id="Group_698" data-name="Group 698" transform="translate(335.499 133.23)">
      <g id="Group_697" data-name="Group 697" transform="translate(0 0.992)">
        <path id="Path_2112" data-name="Path 2112" d="M389.428,268.341l-.346,3.287-1.384,2.249v1.038h13.839l-1.73-2.768-4.325-2.076Z" transform="translate(-386.66 -163.425)" fill="#fba894"/>
        <path id="Path_2113" data-name="Path 2113" d="M414.179,178.259a9.549,9.549,0,0,0-14.285-2.1,14.165,14.165,0,0,0-4.511,6.544c-1.607,5-5.671,19.828-8.05,28.591a6.766,6.766,0,0,0,4.923,8.344h0a6.76,6.76,0,0,0,7.49-3.229c4.812-8.483,14.831-26.645,15.617-32.149A8.927,8.927,0,0,0,414.179,178.259Z" transform="translate(-386.561 -147.93)" fill="#24adb2"/>
        <path id="Path_2114" data-name="Path 2114" d="M521.474,180.323l5.19-3.892,3.373-4.93,8.98-4.145a.845.845,0,0,1,1.193.89,4.594,4.594,0,0,1-.833,1.957A8.149,8.149,0,0,1,536,172.8l15.829-1.3-.519,2.854-7.784,1.817s-1.817,5.968-3.633,7.525-10.639-.519-10.639-.519l-2.335,3.633Z" transform="translate(-408.599 -146.85)" fill="#fba894"/>
        <g id="Group_693" data-name="Group 693" transform="translate(32.866 204.99)">
          <path id="Path_2115" data-name="Path 2115" d="M451.3,388.306V401.28l-8.044-.259,1.557-12.974Z" transform="translate(-428.638 -388.046)" fill="#fba894"/>
          <path id="Path_2116" data-name="Path 2116" d="M435.952,398.848a1.252,1.252,0,0,0,.726-.482,2.422,2.422,0,0,1,4.561.359,1.263,1.263,0,0,0,1.433.742h.005a1.277,1.277,0,0,1,1.078.261,3.622,3.622,0,0,0,3.489.776c.265-.089.5-.176.706-.263a1.261,1.261,0,0,1,1.744.962l.281,1.825a1.255,1.255,0,0,1-1.2,1.449c-5.1.151-22.271.6-22.94-.24C425.074,403.288,431.444,399.965,435.952,398.848Z" transform="translate(-425.77 -389.502)" fill="#464f6a"/>
        </g>
        <g id="Group_694" data-name="Group 694" transform="translate(14.625 196.685)">
          <path id="Path_2117" data-name="Path 2117" d="M419.655,378.113l5.709,11.651-7.338,3.306-4.31-12.336Z" transform="translate(-405.552 -378.113)" fill="#fba894"/>
          <path id="Path_2118" data-name="Path 2118" d="M410.844,393.567a1.259,1.259,0,0,0,.441-.753,2.422,2.422,0,0,1,4.254-1.685,1.261,1.261,0,0,0,1.613.036l0,0a1.278,1.278,0,0,1,1.083-.24,3.621,3.621,0,0,0,3.474-.839c.2-.2.37-.378.517-.546a1.262,1.262,0,0,1,1.99.1l1.055,1.515a1.255,1.255,0,0,1-.443,1.83c-4.518,2.383-19.738,10.335-20.706,9.878C403.029,402.339,407.287,396.553,410.844,393.567Z" transform="translate(-403.951 -379.914)" fill="#464f6a"/>
        </g>
        <g id="Group_695" data-name="Group 695" transform="translate(7.698 24.085)">
          <path id="Path_2119" data-name="Path 2119" d="M418.325,359.227c-4.843,5.882-8.13,2.854-8.13,2.854s-14.531-41.17-14.531-49.128,9-55.01,9-55.01c4.152-7.612,15.915-11.417,21.451-2.422s-.692,16.952-.692,17.991l-12.455,39.095s5.189,7.612,5.881,13.493S418.325,359.227,418.325,359.227Z" transform="translate(-395.664 -184.55)" fill="#464f6a"/>
          <path id="Path_2120" data-name="Path 2120" d="M441.465,367.384s-6.015-48-6.078-52.512-4.888-53.751-4.888-53.751c2.067-15.473,23.344-10.721,25.6-5.02s-3.562,46.789-3.781,55.841c0,0,2.561,10.971,2.937,17.971s-5.191,37.47-5.191,37.47S445.553,370.312,441.465,367.384Z" transform="translate(-401.377 -184.611)" fill="#464f6a"/>
          <path id="Path_2121" data-name="Path 2121" d="M411.625,173.056s-6.612-.548-9.643,4.934,2.571,68.525,2.571,68.525,20.008,6.366,47.357,1.644c0,0,5.962-63.591,5.457-67.977s-4.041-7.127-10.1-8.223S411.625,173.056,411.625,173.056Z" transform="translate(-396.553 -171.653)" fill="#24adb2"/>
        </g>
        <g id="Group_696" data-name="Group 696" transform="translate(34.425)">
          <path id="Path_2122" data-name="Path 2122" d="M446.532,149.253s1.287,10.02-.938,15.23c-1.69,2.292-8.8.005-12.2-3.921s-4.208-10.409-2.467-14.314,9.223-3.807,11.538-2.851S446.438,147.636,446.532,149.253Z" transform="translate(-428.029 -142.843)" fill="#fba894"/>
          <path id="Path_2123" data-name="Path 2123" d="M438.968,166.39l-.864,6.919s-.263,1.529-4.5,4.152c-1.144.708-2.054-1.647-2.944-2.969a35.728,35.728,0,0,1-3.027-5.8l3.9-11.13Z" transform="translate(-427.634 -145.258)" fill="#fba894"/>
        </g>
        <path id="Path_2124" data-name="Path 2124" d="M452.964,171.708s7.266.692,10.725,3.46,19.721,20.758,19.721,20.758,23.18-15.223,27.332-17.3l5.881,7.612s-23.873,23.872-31.484,26.986-37.366-21.8-37.366-21.8S438.779,178.628,452.964,171.708Z" transform="translate(-396.051 -147.577)" fill="#24adb2"/>
        <path id="Path_2125" data-name="Path 2125" d="M490.692,203.16s-2.076,3.114-1.038,9.688" transform="translate(-403.333 -152.735)" fill="none" stroke="#29456a" stroke-width="0.83"/>
        <path id="Path_2126" data-name="Path 2126" d="M522.764,179.985l5.882,7.612-3.46,3.806-6.919-10.033" transform="translate(-408.073 -148.934)" fill="none" stroke="#29456a" stroke-width="0.83"/>
        <line id="Line_13" data-name="Line 13" x1="0.519" y2="14.272" transform="translate(66.947 41.257)" fill="none" stroke="#29456a" stroke-width="0.83"/>
        <path id="Path_2127" data-name="Path 2127" d="M542.639,167.777a7.385,7.385,0,0,1-4.412,5.1s-.086,4.065-3.2,5.622" transform="translate(-410.822 -146.932)" fill="none" stroke="#29456a" stroke-width="0.83"/>
        <path id="Path_2128" data-name="Path 2128" d="M555.176,172.329l-.519,2.854-12.8,2.854" transform="translate(-411.942 -147.679)" fill="none" stroke="#29456a" stroke-width="0.83"/>
        <path id="Path_2129" data-name="Path 2129" d="M546.533,177.916l-1.211,2.768-5.536,1.038" transform="translate(-411.602 -148.595)" fill="none" stroke="#29456a" stroke-width="0.83"/>
        <line id="Line_14" data-name="Line 14" y1="0.692" x2="4.498" transform="translate(128.011 34.683)" fill="none" stroke="#29456a" stroke-width="0.83"/>
        <path id="Path_2130" data-name="Path 2130" d="M426.921,170.674s1.9,6.4,5.363,8.822l-6.747,4.671-2.249-11.417Z" transform="translate(-392.497 -147.407)" fill="none" stroke="#29456a" stroke-linecap="round" stroke-linejoin="round" stroke-width="0.83"/>
        <path id="Path_2131" data-name="Path 2131" d="M440.05,171.294s.352,6.284-5.273,8.419l5.273,4.728,2.076-10.9Z" transform="translate(-394.381 -147.509)" fill="none" stroke="#29456a" stroke-linecap="round" stroke-linejoin="round" stroke-width="0.83"/>
        <path id="Path_2132" data-name="Path 2132" d="M415.012,201.816s17.125,22.055,36.587,23.613" transform="translate(-391.139 -152.515)" fill="none" stroke="#29456a" stroke-linecap="round" stroke-linejoin="round" stroke-width="0.83"/>
        <path id="Path_2133" data-name="Path 2133" d="M413.149,253.96s23.094,5.19,35.549,3.114" transform="translate(-390.834 -161.066)" fill="none" stroke="#29456a" stroke-linecap="round" stroke-linejoin="round" stroke-width="0.83"/>
        <path id="Path_2134" data-name="Path 2134" d="M397.052,217.579c-4.192-2.788-9.844.185-10.284,5.2-.166,1.882-.312,4-.312,5.577,0,3.633,1.3,33.473,1.3,33.473h8.822s3.892-34.252,3.373-39.442A6.493,6.493,0,0,0,397.052,217.579Z" transform="translate(-386.456 -154.924)" fill="#24adb2"/>
        <path id="Path_2135" data-name="Path 2135" d="M390.181,219.094a11.394,11.394,0,0,1,9.6,1.3" transform="translate(-387.067 -155.262)" fill="none" stroke="#29456a" stroke-linecap="round" stroke-linejoin="round" stroke-width="0.83"/>
        <path id="Path_2136" data-name="Path 2136" d="M403.634,188.469s-.778,13.493-1.038,21.8" transform="translate(-389.103 -150.326)" fill="none" stroke="#29456a" stroke-linecap="round" stroke-linejoin="round" stroke-width="0.83"/>
        <path id="Path_2137" data-name="Path 2137" d="M388.008,270.025h8.822l.951-3.546-7.611.346" transform="translate(-386.711 -163.119)" fill="none" stroke="#29456a" stroke-linecap="round" stroke-linejoin="round" stroke-width="0.83"/>
      </g>
      <path id="Path_2138" data-name="Path 2138" d="M431.26,143.346s8.654-3.709,13.737-.137c2.884,2.884,1.1,5.769-5.22,7.83a14.794,14.794,0,0,1-5.083.823l.961,3.16-.961.412-1.923-2.2a2.367,2.367,0,0,0-.687,2.472,3.455,3.455,0,0,1,.275,2.2l-2.473,1.236-.549-3.3s-3.16-6.182-1.924-8.929a4.774,4.774,0,0,1,3.846-2.885" transform="translate(-393.126 -141.656)" fill="#ba792d"/>
      <path id="Path_2139" data-name="Path 2139" d="M435.8,163.122s.274,2.2,4.121,4.671" transform="translate(-394.548 -145.177)" fill="none" stroke="#29456a" stroke-linecap="round" stroke-linejoin="round" stroke-width="0.83"/>
    </g>
    <g id="Group_732" data-name="Group 732" transform="translate(107.415 128.591)">
      <g id="Group_706" data-name="Group 706" transform="translate(16.845)">
        <rect id="Rectangle_880" data-name="Rectangle 880" width="105.609" height="58.832" rx="2.695" fill="#ededed"/>
        <g id="Group_705" data-name="Group 705" transform="translate(11.028 12.809)">
          <g id="Group_699" data-name="Group 699">
            <rect id="Rectangle_881" data-name="Rectangle 881" width="4.844" height="38.057" fill="#dfdfdf"/>
            <rect id="Rectangle_882" data-name="Rectangle 882" width="4.844" height="20.759" transform="translate(6.919 17.299)" fill="#bdbdbd"/>
          </g>
          <g id="Group_700" data-name="Group 700" transform="translate(14.358 20.067)">
            <rect id="Rectangle_883" data-name="Rectangle 883" width="4.844" height="13.147" transform="translate(0 4.844)" fill="#dfdfdf"/>
            <rect id="Rectangle_884" data-name="Rectangle 884" width="4.844" height="17.991" transform="translate(6.919)" fill="#bdbdbd"/>
          </g>
          <g id="Group_701" data-name="Group 701" transform="translate(28.716 4.671)">
            <rect id="Rectangle_885" data-name="Rectangle 885" width="4.844" height="33.387" fill="#dfdfdf"/>
            <rect id="Rectangle_886" data-name="Rectangle 886" width="4.844" height="26.986" transform="translate(6.919 6.4)" fill="#bdbdbd"/>
          </g>
          <g id="Group_702" data-name="Group 702" transform="translate(43.074)">
            <rect id="Rectangle_887" data-name="Rectangle 887" width="4.844" height="38.057" fill="#dfdfdf"/>
            <rect id="Rectangle_888" data-name="Rectangle 888" width="4.844" height="14.531" transform="translate(6.92 23.526)" fill="#bdbdbd"/>
          </g>
          <g id="Group_703" data-name="Group 703" transform="translate(57.432 4.844)">
            <rect id="Rectangle_889" data-name="Rectangle 889" width="4.844" height="33.214" fill="#dfdfdf"/>
            <rect id="Rectangle_890" data-name="Rectangle 890" width="4.844" height="23.18" transform="translate(6.919 10.033)" fill="#bdbdbd"/>
          </g>
          <g id="Group_704" data-name="Group 704" transform="translate(71.79 1.557)">
            <rect id="Rectangle_891" data-name="Rectangle 891" width="4.844" height="30.965" transform="translate(0 5.536)" fill="#dfdfdf"/>
            <rect id="Rectangle_892" data-name="Rectangle 892" width="4.844" height="36.5" transform="translate(6.919)" fill="#bdbdbd"/>
          </g>
        </g>
      </g>
      <g id="Group_713" data-name="Group 713" transform="translate(105.703 43.369)">
        <g id="Group_707" data-name="Group 707" transform="translate(73.477 20.788)">
          <path id="Path_2140" data-name="Path 2140" d="M328.858,264.863s4.412,3.633,10.639-.778,22.835-36.846,22.835-36.846l9.341-6.358-.779-1.557s-2.076-2.336-3.632-2.595-7.525,1.946-7.525,1.946,3.373-2.595,3.632-4.671h0A1.021,1.021,0,0,0,361.832,213a63.666,63.666,0,0,0-7.025,4.638c-1.038,1.3-2.076,7.007-2.076,7.007s-20.5,23.613-23.354,29.84S328.858,264.863,328.858,264.863Z" transform="translate(-327.959 -212.851)" fill="#fba894"/>
          <path id="Path_2141" data-name="Path 2141" d="M369.075,228.865c0-.519,8.174-5.45,8.174-5.45a1.758,1.758,0,0,0-1.557-.649c-1.168,0-4.412,1.817-4.412,1.817" transform="translate(-334.702 -214.477)" fill="none" stroke="#29456a" stroke-width="0.83"/>
          <line id="Line_15" data-name="Line 15" y1="2.076" x2="6.357" transform="translate(36.059 6.214)" fill="none" stroke="#29456a" stroke-width="0.83"/>
          <line id="Line_16" data-name="Line 16" y1="1.816" x2="5.449" transform="translate(35.411 4.657)" fill="none" stroke="#29456a" stroke-width="0.83"/>
          <path id="Path_2142" data-name="Path 2142" d="M369.6,214.231s-1.816,3.762-3.632,4.671c0,0,1.686,2.854.259,4.8" transform="translate(-334.193 -213.077)" fill="none" stroke="#29456a" stroke-width="0.83"/>
        </g>
        <path id="Path_2143" data-name="Path 2143" d="M310.8,230.4s7.525-2.854,11.676,3.633,13.234,28.283,13.234,28.283a6.055,6.055,0,0,1-4.671,7.266c-5.968,1.557-9.081-4.411-9.081-4.411s-14.79-24.651-14.79-28.544S310.8,230.4,310.8,230.4Z" transform="translate(-251.072 -194.838)" fill="#fba894"/>
        <path id="Path_2144" data-name="Path 2144" d="M315.988,228.509s5.709,1.557,8.3,5.967,6.487,13.753,6.487,13.753-11.157,9.86-15.569,10.12C310.8,258.349,304.831,235,315.988,228.509Z" transform="translate(-251.472 -194.63)" fill="#6c98df"/>
        <g id="Group_709" data-name="Group 709" transform="translate(0 58.167)">
          <line id="Line_17" data-name="Line 17" x2="6.309" y2="60.64" transform="translate(57.948 60.641)" fill="none" stroke="#29456a" stroke-linecap="round" stroke-linejoin="round" stroke-width="1.627"/>
          <line id="Line_18" data-name="Line 18" x2="5.44" y2="60.8" transform="translate(42.748 60.481)" fill="none" stroke="#29456a" stroke-linecap="round" stroke-linejoin="round" stroke-width="1.627"/>
          <line id="Line_19" data-name="Line 19" x1="5.44" y2="60.8" transform="translate(9.788 60.481)" fill="none" stroke="#29456a" stroke-linecap="round" stroke-linejoin="round" stroke-width="1.627"/>
          <g id="Group_708" data-name="Group 708">
            <path id="Path_2145" data-name="Path 2145" d="M287.232,319H250.671a3.132,3.132,0,0,1-3.1-2.711L240.1,261.113a3.131,3.131,0,0,1,3.1-3.551H279.76a3.131,3.131,0,0,1,3.1,2.711l7.472,55.178A3.131,3.131,0,0,1,287.232,319Z" transform="translate(-240.068 -257.562)" fill="#ffc918"/>
            <path id="Path_2146" data-name="Path 2146" d="M310.759,330.124h-43.2v-4.96H305.8a4.96,4.96,0,0,1,4.96,4.96Z" transform="translate(-244.576 -268.649)" fill="#ffc918"/>
          </g>
        </g>
        <path id="Path_2147" data-name="Path 2147" d="M307.482,386.288l-1.038,6.054,2.595,3.632s8.476,5.017,8.3,5.536-21.1-.173-21.1-.173l3.805-14.358Z" transform="translate(-249.28 -220.506)" fill="#ba7f79"/>
        <path id="Path_2148" data-name="Path 2148" d="M367.22,386.288l2.076,6.66,2.855,3.027s8.476,5.017,8.3,5.536-21.1-.173-21.1-.173l.433-14.358Z" transform="translate(-259.63 -220.506)" fill="#ba7f79"/>
        <g id="Group_710" data-name="Group 710" transform="translate(22.669 86.813)">
          <path id="Path_2149" data-name="Path 2149" d="M303.509,293.846s20.529,4.033,38.115,11.436a11.374,11.374,0,0,1,6.778,8.288c2.327,11.911,7.293,39.787,6.947,59.163h-8.565l-15.778-52.967s-5.86,2.48-25.244.226-23.441-15.778-23.441-15.778Z" transform="translate(-269.666 -292.158)" fill="#464f6a"/>
          <path id="Path_2150" data-name="Path 2150" d="M272.185,291.827s-10.941,18.818-.46,25.241,28.4,3.043,28.4,3.043l-6.762,52.741,10.481.339s12.482-42.009,15.8-59.479a8.848,8.848,0,0,0-4.69-9.55l-19.229-9.745Z" transform="translate(-267.183 -291.827)" fill="#505e83"/>
        </g>
        <line id="Line_20" data-name="Line 20" x1="3.027" y2="2.292" transform="translate(56.732 175.469)" fill="none" stroke="#29456a" stroke-width="0.83"/>
        <line id="Line_21" data-name="Line 21" x1="3.114" y2="1.816" transform="translate(54.916 172.961)" fill="none" stroke="#29456a" stroke-width="0.83"/>
        <line id="Line_22" data-name="Line 22" x1="1.557" y2="2.811" transform="translate(110.964 175.469)" fill="none" stroke="#29456a" stroke-width="0.83"/>
        <line id="Line_23" data-name="Line 23" x1="2.076" y2="3.373" transform="translate(107.591 172.442)" fill="none" stroke="#29456a" stroke-width="0.83"/>
        <path id="Path_2151" data-name="Path 2151" d="M311.272,228.517s3.633,1.3,4.671,4.411-9.081,38.144-9.081,38.144,1.124,10.034.345,12.109-6.313,2.162-6.313,2.162-17.455-.494-26.26-1.482a5.584,5.584,0,0,1-4.947-5.211c-.4-6.467-.969-17.7-.969-17.7s.519-27.764,3.892-34.771c2.854-1.557,12.974-1.3,12.974-1.3S307.12,226.7,311.272,228.517Z" transform="translate(-244.766 -194.033)" fill="#6c98df"/>
        <path id="Path_2152" data-name="Path 2152" d="M306.587,323.929s.6-6.488,8.128-8.823" transform="translate(-250.977 -208.832)" fill="none" stroke="#29456a" stroke-width="0.83"/>
        <path id="Path_2153" data-name="Path 2153" d="M276.015,226.834s-7.525-2.855-11.676,3.632S251.1,258.75,251.1,258.75a6.056,6.056,0,0,0,4.671,7.266c5.968,1.557,9.082-4.412,9.082-4.412s14.79-24.65,14.79-28.543S276.015,226.834,276.015,226.834Z" transform="translate(-241.858 -194.253)" fill="#fba894"/>
        <path id="Path_2154" data-name="Path 2154" d="M252.418,262.7s4.152-2.076,11.158-1.037,31.4,8.044,31.4,8.044,9.341-4.412,11.157-4.412,10.639,4.671,10.639,4.671l-1.038,3.892-7.525-.26s-7.006,4.152-10.12,3.633l-3.113-.519s-26.62.42-39.356-4.205a6.778,6.778,0,0,1-4.293-8.116A2.48,2.48,0,0,1,252.418,262.7Z" transform="translate(-241.874 -200.02)" fill="#fba894"/>
        <path id="Path_2155" data-name="Path 2155" d="M276.955,225.274s-7.611-1.3-11.762,4.152-8.477,16.434-8.477,16.434,9.341,5.709,16.607,5.968c0,0,9.341-16.347,9.341-19.98S277.993,225.534,276.955,225.274Z" transform="translate(-242.798 -194.078)" fill="#6c98df"/>
        <path id="Path_2156" data-name="Path 2156" d="M268.679,262.744a13.521,13.521,0,0,0-9.687,2.941" transform="translate(-243.171 -200.236)" fill="none" stroke="#29456a" stroke-width="0.83"/>
        <line id="Line_24" data-name="Line 24" x1="0.778" y2="8.044" transform="translate(63.479 65.276)" fill="none" stroke="#29456a" stroke-width="0.83"/>
        <line id="Line_25" data-name="Line 25" x2="8.433" y2="3.373" transform="translate(63.998 66.962)" fill="none" stroke="#29456a" stroke-width="0.83"/>
        <line id="Line_26" data-name="Line 26" x2="6.876" y2="2.335" transform="translate(64.257 69.557)" fill="none" stroke="#29456a" stroke-width="0.83"/>
        <line id="Line_27" data-name="Line 27" x2="5.449" y2="1.168" transform="translate(63.738 71.893)" fill="none" stroke="#29456a" stroke-width="0.83"/>
        <path id="Path_2157" data-name="Path 2157" d="M275.132,253.465s6.92-13.493,7.438-17.818" transform="translate(-245.818 -195.801)" fill="none" stroke="#29456a" stroke-width="0.83"/>
        <path id="Path_2158" data-name="Path 2158" d="M310.975,200.877s-.242,10.1-3.229,14.913c-2.016,2.011-8.7-1.325-11.465-5.719s-2.587-10.925-.275-14.522,9.691-2.37,11.836-1.074S311.127,199.265,310.975,200.877Z" transform="translate(-248.952 -188.836)" fill="#fba894"/>
        <path id="Path_2159" data-name="Path 2159" d="M302.418,216.742l-.865,6.92s.865,3.979-4.5,4.152-7.439-5.363-7.439-5.363l5.363-14.531Z" transform="translate(-248.194 -191.254)" fill="#fba894"/>
        <path id="Path_2160" data-name="Path 2160" d="M291.822,197.212s.865-4.671,5.017-6.573,9.341-.346,10.379-.519,2.768-2.941,3.979-1.9a3.118,3.118,0,0,1,.691,2.941s1.9-2.076,3.114-.692-2.076,4.5-2.076,4.5,2.076-1.211,2.595-.173-2.219,5.974-5.175,5.063-8.318-3.333-10.221-3.16a4.205,4.205,0,0,0-2.941,2.076V204.3l-1.557.519v-3.46a1.427,1.427,0,0,0-1.86,1.254,8.726,8.726,0,0,0,.649,4.109l-1.384,3.459s-4.152-6.747-3.633-9.515A4.38,4.38,0,0,1,291.822,197.212Z" transform="translate(-248.151 -187.984)" fill="#414d75"/>
        <g id="Group_711" data-name="Group 711" transform="translate(51.629 13.206)">
          <path id="Path_2161" data-name="Path 2161" d="M307.533,206.636a2.854,2.854,0,1,1-2.854-2.855A2.854,2.854,0,0,1,307.533,206.636Z" transform="translate(-301.825 -203.781)" fill="none" stroke="#29456a" stroke-width="0.83"/>
          <path id="Path_2162" data-name="Path 2162" d="M316.638,206.636a2.855,2.855,0,1,1-2.854-2.855A2.855,2.855,0,0,1,316.638,206.636Z" transform="translate(-303.318 -203.781)" fill="none" stroke="#29456a" stroke-width="0.83"/>
        </g>
        <line id="Line_28" data-name="Line 28" x2="1.903" transform="translate(57.338 16.061)" fill="none" stroke="#29456a" stroke-width="0.83"/>
        <path id="Path_2163" data-name="Path 2163" d="M289.616,225.3a7.879,7.879,0,0,0,9.168,5.363" transform="translate(-248.194 -194.104)" fill="none" stroke="#29456a" stroke-width="0.83"/>
        <g id="Group_712" data-name="Group 712" transform="translate(67.141 40.365)">
          <path id="Path_2164" data-name="Path 2164" d="M365.394,269.481H322.382a2,2,0,0,1-1.984-2.271L324.353,238a2,2,0,0,1,1.984-1.734h43.012a2,2,0,0,1,1.984,2.271l-3.955,29.21A2,2,0,0,1,365.394,269.481Z" transform="translate(-320.38 -236.268)" fill="#dfdfdf"/>
          <circle id="Ellipse_1375" data-name="Ellipse 1375" cx="4.671" cy="4.671" r="4.671" transform="translate(22.372 14.012)" fill="#bdbdbd"/>
        </g>
        <path id="Path_2165" data-name="Path 2165" d="M281.236,260.768s16.606.778,27.245-9.6" transform="translate(-246.819 -198.346)" fill="none" stroke="#29456a" stroke-width="0.83"/>
        <path id="Path_2166" data-name="Path 2166" d="M319,239.993s.519,12.455-.519,18.164" transform="translate(-252.928 -196.514)" fill="none" stroke="#29456a" stroke-width="0.83"/>
        <path id="Path_2167" data-name="Path 2167" d="M297.99,214.06s.183,3.113,4.762,4.762" transform="translate(-249.567 -192.261)" fill="none" stroke="#29456a" stroke-linecap="round" stroke-linejoin="round" stroke-width="0.83"/>
      </g>
      <g id="Group_714" data-name="Group 714" transform="translate(93.616 83.734)">
        <path id="Path_2168" data-name="Path 2168" d="M270.623,269.481H227.611a2,2,0,0,1-1.984-2.271L229.582,238a2,2,0,0,1,1.984-1.734h43.012a2,2,0,0,1,1.984,2.271l-3.955,29.21A2,2,0,0,1,270.623,269.481Z" transform="translate(-225.609 -236.268)" fill="#dfdfdf"/>
        <path id="Path_2169" data-name="Path 2169" d="M270.563,265.412l3.594-26.537h-40.88l-3.594,26.537Z" transform="translate(-226.277 -236.695)" fill="#a9c9fc"/>
      </g>
      <g id="Group_715" data-name="Group 715" transform="translate(291.514 83.734)">
        <path id="Path_2170" data-name="Path 2170" d="M468.287,269.481H511.3a2,2,0,0,0,1.984-2.271L509.327,238a2,2,0,0,0-1.984-1.734H464.331a2,2,0,0,0-1.984,2.271l3.956,29.21A2,2,0,0,0,468.287,269.481Z" transform="translate(-462.329 -236.268)" fill="#dfdfdf"/>
        <path id="Path_2171" data-name="Path 2171" d="M469.622,265.412l-3.594-26.537h40.879l3.594,26.537Z" transform="translate(-462.936 -236.695)" fill="#a9c9fc"/>
      </g>
      <rect id="Rectangle_893" data-name="Rectangle 893" width="411.278" height="5.12" transform="translate(0 117.056)" fill="#dfdfdf"/>
      <g id="Group_721" data-name="Group 721" transform="translate(285.278 49.308)">
        <path id="Path_2172" data-name="Path 2172" d="M550.416,235.958s5.449,1.557,7.006,6.486,5.449,28.284,5.449,28.284l-19.98-.518Z" transform="translate(-469.305 -201.791)" fill="#ef6164"/>
        <g id="Group_717" data-name="Group 717" transform="translate(36.92 123.131)">
          <g id="Group_716" data-name="Group 716" transform="translate(1.379 38.098)">
            <path id="Path_2173" data-name="Path 2173" d="M509.9,388.119l1.384,4.842-6.571,5.707s4.323.692,6.571-.345,8.474-.865,8.474-.865l-2.594-9.511Z" transform="translate(-501.344 -387.946)" fill="#fba894"/>
            <path id="Path_2174" data-name="Path 2174" d="M518.322,395.151a7.3,7.3,0,0,0-5.447.908c-2.464,1.686-3.371,4.021-7.911,3.761-.649-.259,0-.648,0-.648s-3.632.389-4.28,2.2c-.13,1.3,16.342.778,18.936.13C520.527,400.469,518.322,395.151,518.322,395.151Z" transform="translate(-500.682 -389.098)" fill="#414d75"/>
          </g>
          <path id="Path_2175" data-name="Path 2175" d="M499.032,355.472l10.56,27.2,6.947-.645s1.693-17.594-3.428-33.915S499.032,355.472,499.032,355.472Z" transform="translate(-499.032 -342.374)" fill="#fba894"/>
        </g>
        <g id="Group_719" data-name="Group 719" transform="translate(70.425 122.093)">
          <g id="Group_718" data-name="Group 718" transform="translate(1.379 38.099)">
            <path id="Path_2176" data-name="Path 2176" d="M549.982,386.878l1.384,4.842-6.571,5.707s4.323.691,6.571-.346,8.474-.864,8.474-.864l-2.594-9.511Z" transform="translate(-541.422 -386.705)" fill="#fba894"/>
            <path id="Path_2177" data-name="Path 2177" d="M558.4,393.91a7.294,7.294,0,0,0-5.447.908c-2.464,1.686-3.372,4.02-7.911,3.761-.649-.259,0-.649,0-.649s-3.632.39-4.28,2.2c-.13,1.3,16.342.778,18.936.13C560.6,399.228,558.4,393.91,558.4,393.91Z" transform="translate(-540.76 -387.857)" fill="#414d75"/>
          </g>
          <path id="Path_2178" data-name="Path 2178" d="M539.11,354.23l10.56,27.2,7.044-.6s1.6-17.638-3.525-33.957S539.11,354.23,539.11,354.23Z" transform="translate(-539.11 -341.132)" fill="#fba894"/>
        </g>
        <path id="Path_2179" data-name="Path 2179" d="M515.7,292.492s-21.529,5.206-27.928,16.726c-6.08,12.16,6.4,40.64,8.96,41.6s39.416,7.49,51.9-4.67c-.64-6.721-8.571-23.181-7.612-23.181s7.216-6.416,7.536-14.736a25.623,25.623,0,0,0-3.519-14.081S520.61,291.794,515.7,292.492Z" transform="translate(-459.995 -211.041)" fill="#6c98df"/>
        <path id="Path_2180" data-name="Path 2180" d="M525.749,201.962s-3.056,9.553-1.28,14.88c.986,2.17,2.49,1.211,3.28,2s-1.421,13.058-1.421,13.058l12.231.592s5.524-16.769,4.932-23.083S530.483,197.819,525.749,201.962Z" transform="translate(-466.193 -195.974)" fill="#fba894"/>
        <path id="Path_2181" data-name="Path 2181" d="M517.99,247.017s1.959,21.062,6.368,27.43c0,0-3.429,6.858-3.429,10.287,0,0,19.593,2.939,33.8,1.469-8.327-32.492-7.348-41.145-7.348-41.145Z" transform="translate(-465.221 -203.283)" fill="#ef6164"/>
        <path id="Path_2182" data-name="Path 2182" d="M523.806,236.9s.319-2.88,4.479-2.88,17.6,0,20.48,2.56-.32,19.2-.32,19.2l-25.92-3.2Z" transform="translate(-465.965 -201.473)" fill="#ef6164"/>
        <g id="Group_720" data-name="Group 720" transform="translate(0 33.357)">
          <path id="Path_2183" data-name="Path 2183" d="M470.9,255.363s22.651,20.221,35.228,18c8.41-3.681,15.538-30.044,13.491-34.069a7.725,7.725,0,0,0-5.91-4.3s-3.626-.332-6.329,3.9-7.887,19.478-7.887,19.478-21.227-11.737-28.96-13.288L461.35,241.3a3.2,3.2,0,0,0,.72,3.6c1.68,1.44,5.52,2.4,5.52,2.4l-12.72,1.92s2.88,4.8,5.279,6S470.9,255.363,470.9,255.363Z" transform="translate(-454.87 -234.989)" fill="#fba894"/>
        </g>
        <path id="Path_2184" data-name="Path 2184" d="M521.922,234.367a9.71,9.71,0,0,0-10.553,5.017c-3.979,6.747-6.92,18.337-6.92,18.337s-9.341-5.19-11.59-6.228c0,0-6.228,7.785-4.844,13.666,0,0,15.742,11.417,23.872,8.822,6.573-2.94,13.666-23.353,13.666-23.353S530.745,237.481,521.922,234.367Z" transform="translate(-460.273 -201.497)" fill="#ef6164"/>
        <path id="Path_2185" data-name="Path 2185" d="M508.334,265.238s.173,4.843,2.422,8.13" transform="translate(-463.638 -206.593)" fill="none" stroke="#29456a" stroke-width="0.83"/>
        <line id="Line_29" data-name="Line 29" y1="0.778" x2="6.357" transform="translate(1.579 48.957)" fill="none" stroke="#29456a" stroke-width="0.83"/>
        <line id="Line_30" data-name="Line 30" y1="0.605" x2="5.103" transform="translate(3.352 51.293)" fill="none" stroke="#29456a" stroke-width="0.83"/>
        <line id="Line_31" data-name="Line 31" y1="0.951" x2="3.979" transform="translate(5.861 52.763)" fill="none" stroke="#29456a" stroke-width="0.83"/>
        <line id="Line_32" data-name="Line 32" x1="13.645" y2="2.004" transform="translate(0 45.584)" fill="none" stroke="#29456a" stroke-width="0.83"/>
        <path id="Path_2186" data-name="Path 2186" d="M474.037,258.551s-.313-2.7.466-4.125" transform="translate(-458.003 -204.82)" fill="none" stroke="#29456a" stroke-width="0.83"/>
        <path id="Path_2187" data-name="Path 2187" d="M525.256,233.872s.039-5.337,2.287-5.683,14.7,1.211,15.569,2.941c.692,1.557,0,5.017,0,5.017Z" transform="translate(-466.413 -200.509)" fill="#ef6164"/>
        <path id="Path_2188" data-name="Path 2188" d="M524.578,200.756s.008.329.073.9a22.935,22.935,0,0,0,5.891,12.858l-1.6,10.24s16.96,4.479,25.281-2.24c-.961-6.72-2.88-18.88-10.88-24.32S526.613,195,524.578,200.756Z" transform="translate(-466.302 -195.088)" fill="#6c98df"/>
        <path id="Path_2189" data-name="Path 2189" d="M531.741,248.684s-4.67,14.79-7.784,19.98" transform="translate(-466.2 -203.878)" fill="none" stroke="#29456a" stroke-width="0.83"/>
        <path id="Path_2190" data-name="Path 2190" d="M531.712,218.328" transform="translate(-467.472 -198.9)" fill="none" stroke="#29456a" stroke-width="0.83"/>
        <path id="Path_2191" data-name="Path 2191" d="M524.9,280.212s-3.143,8.009-3.429,10.287-.113.548-.113.548h3.806" transform="translate(-465.766 -209.049)" fill="none" stroke="#29456a" stroke-width="0.83"/>
        <path id="Path_2192" data-name="Path 2192" d="M525.256,234.884s9.9-1.185,15.261-.147" transform="translate(-466.413 -201.521)" fill="none" stroke="#29456a" stroke-width="0.83"/>
      </g>
      <g id="Group_723" data-name="Group 723" transform="translate(326.241 101.536)">
        <line id="Line_33" data-name="Line 33" x1="4.158" y2="57.872" transform="translate(4.077 60.641)" fill="none" stroke="#29456a" stroke-linecap="round" stroke-linejoin="round" stroke-width="1.627"/>
        <line id="Line_34" data-name="Line 34" x1="5.44" y2="60.8" transform="translate(17.995 60.481)" fill="none" stroke="#29456a" stroke-linecap="round" stroke-linejoin="round" stroke-width="1.627"/>
        <line id="Line_35" data-name="Line 35" x2="5.44" y2="60.8" transform="translate(50.956 60.481)" fill="none" stroke="#29456a" stroke-linecap="round" stroke-linejoin="round" stroke-width="1.627"/>
        <g id="Group_722" data-name="Group 722">
          <path id="Path_2193" data-name="Path 2193" d="M526,319h36.561a3.132,3.132,0,0,0,3.1-2.711l7.472-55.178a3.132,3.132,0,0,0-3.1-3.551H533.477a3.131,3.131,0,0,0-3.1,2.711L522.9,315.452A3.131,3.131,0,0,0,526,319Z" transform="translate(-506.986 -257.562)" fill="#ffc918"/>
          <path id="Path_2194" data-name="Path 2194" d="M503.869,330.124h43.2v-4.96h-38.24a4.961,4.961,0,0,0-4.96,4.96Z" transform="translate(-503.869 -268.649)" fill="#ffc918"/>
        </g>
      </g>
      <rect id="Rectangle_894" data-name="Rectangle 894" width="37.711" height="4.152" transform="translate(76.028 114.18)" fill="#dfdfdf"/>
      <g id="Group_730" data-name="Group 730" transform="translate(13.847 46.172)">
        <g id="Group_724" data-name="Group 724" transform="translate(30.648 164.365)">
          <path id="Path_2195" data-name="Path 2195" d="M177.592,388.119l-1.384,4.842,6.571,5.707s-4.323.692-6.571-.345-8.474-.865-8.474-.865l2.594-9.511Z" transform="translate(-166.997 -387.946)" fill="#fba894"/>
          <path id="Path_2196" data-name="Path 2196" d="M168.368,395.151a7.3,7.3,0,0,1,5.447.908c2.464,1.686,3.372,4.021,7.911,3.761.649-.259,0-.648,0-.648s3.632.389,4.28,2.2c.13,1.3-16.342.778-18.936.13C166.163,400.469,168.368,395.151,168.368,395.151Z" transform="translate(-166.852 -389.098)" fill="#414d75"/>
        </g>
        <path id="Path_2197" data-name="Path 2197" d="M195.334,308.924c-2.512-2.513-7.338-4.917-12.643-7-.4,1.749-.952,4.029-1.623,6.564,1.4,4.852-.056,9.506-3.561,11.86a55.016,55.016,0,0,1-4.269,9.871,62.92,62.92,0,0,0-3.157,13.851c-.576,8.069-1.578,29.032-1.578,30.185,6.34,1.73,9.667.986,9.667.986S201.674,316.993,195.334,308.924Z" transform="translate(-136.475 -209.473)" fill="#24adb2"/>
        <g id="Group_728" data-name="Group 728" transform="translate(9.399)">
          <g id="Group_725" data-name="Group 725" transform="translate(51.969 164.365)">
            <path id="Path_2198" data-name="Path 2198" d="M214.338,388.119l-1.384,4.842,6.572,5.707s-4.323.692-6.572-.345-8.473-.865-8.473-.865l2.593-9.511Z" transform="translate(-203.744 -387.946)" fill="#fba894"/>
            <path id="Path_2199" data-name="Path 2199" d="M205.115,395.151a7.3,7.3,0,0,1,5.447.908c2.465,1.686,3.372,4.021,7.912,3.761.649-.259,0-.648,0-.648s3.632.389,4.28,2.2c.13,1.3-16.342.778-18.936.13C202.91,400.469,205.115,395.151,205.115,395.151Z" transform="translate(-203.599 -389.098)" fill="#414d75"/>
          </g>
          <path id="Path_2200" data-name="Path 2200" d="M188.3,293.319s28.07,6.533,35.563,14.026c6.34,8.069-17.164,66.314-17.164,66.314s-3.326.743-9.667-.986c0-1.152,1-22.116,1.578-30.185s5.129-19.334,5.129-19.334a39.113,39.113,0,0,0-10.252-2.169c-6.34-.576-24.208.577-34.006-7.492s-5.187-20.173-5.187-20.173S180.811,291.013,188.3,293.319Z" transform="translate(-143.367 -207.894)" fill="#24adb2"/>
          <g id="Group_727" data-name="Group 727">
            <path id="Path_2201" data-name="Path 2201" d="M185.492,201.962s3.056,9.553,1.28,14.88c-.986,2.17-2.49,1.211-3.28,2s1.421,13.058,1.421,13.058l-12.232.592s-5.523-16.769-4.932-23.083S180.757,197.819,185.492,201.962Z" transform="translate(-145.743 -192.839)" fill="#fba894"/>
            <path id="Path_2202" data-name="Path 2202" d="M189.893,247.017s-1.96,21.062-6.368,27.43c0,0,3.429,6.858,3.429,10.287,0,0-19.593,2.939-33.8,1.469,8.327-32.492,7.348-41.145,7.348-41.145Z" transform="translate(-143.357 -200.148)" fill="#ff725e"/>
            <g id="Group_726" data-name="Group 726" transform="translate(32.429 32.364)">
              <path id="Path_2203" data-name="Path 2203" d="M187.839,230.784s3.626-.332,6.329,3.9,7.887,19.478,7.887,19.478,21.227-11.736,28.96-13.287c0,0,12.66-1.042,13.364.15s2.148,7.381-3.03,8.831c-5,.738-10.7,1.293-10.7,1.293s-22.651,20.221-35.228,18c-8.41-3.681-15.538-30.044-13.491-34.069A7.725,7.725,0,0,1,187.839,230.784Z" transform="translate(-180.447 -230.169)" fill="#fba894"/>
              <line id="Line_36" data-name="Line 36" y1="0.125" x2="7.872" transform="translate(56.529 11.991)" fill="none" stroke="#29456a" stroke-width="0.83"/>
              <line id="Line_37" data-name="Line 37" y1="0.327" x2="7.249" transform="translate(57.494 13.934)" fill="none" stroke="#29456a" stroke-width="0.83"/>
              <line id="Line_38" data-name="Line 38" x2="5.88" y2="0.08" transform="translate(58.59 16.228)" fill="none" stroke="#29456a" stroke-width="0.83"/>
              <line id="Line_39" data-name="Line 39" x1="3.644" y2="0.074" transform="translate(59.665 18.201)" fill="none" stroke="#29456a" stroke-width="0.83"/>
              <path id="Path_2204" data-name="Path 2204" d="M205.748,261.243s-.272,4.988-3.023,7.821" transform="translate(-183.915 -235.166)" fill="none" stroke="#29456a" stroke-width="0.83"/>
              <path id="Path_2205" data-name="Path 2205" d="M186.105,230.33a7.168,7.168,0,0,1,6.24,1.12c3.04,2.24,6.08,10.24,6.56,10.88.319.64-8,6.721-15.841,6.4C175.225,248.09,186.105,230.33,186.105,230.33Z" transform="translate(-180.225 -230.05)" fill="#ff725e"/>
            </g>
            <path id="Path_2206" data-name="Path 2206" d="M168.676,191.355s9.559-.683,12.746,6.373c2.959,6.828-7.511,9.786-6.828,16.386s7.966,7.056,6.6,15.021-4.779,9.331-.91,18.663,3.642,17.3-9.786,21.849-25.718-1.821-28.676-15.249,12.036-25.52,13.629-35.989.594-14.347,2.663-19.236A12.857,12.857,0,0,1,168.676,191.355Z" transform="translate(-141.435 -191.337)" fill="#414d75"/>
          </g>
          <path id="Path_2207" data-name="Path 2207" d="M205.633,388.441a70.806,70.806,0,0,0,9.667.986" transform="translate(-151.963 -223.663)" fill="none" stroke="#29456a" stroke-width="0.83"/>
          <path id="Path_2208" data-name="Path 2208" d="M213.656,327.582a15.315,15.315,0,0,0,12.232-8.286" transform="translate(-153.279 -212.323)" fill="none" stroke="#29456a" stroke-width="0.83"/>
        </g>
        <line id="Line_40" data-name="Line 40" x2="4.158" y2="57.872" transform="translate(57.948 116.004)" fill="none" stroke="#29456a" stroke-linecap="round" stroke-linejoin="round" stroke-width="1.627"/>
        <line id="Line_41" data-name="Line 41" x2="5.44" y2="60.8" transform="translate(42.748 115.844)" fill="none" stroke="#29456a" stroke-linecap="round" stroke-linejoin="round" stroke-width="1.627"/>
        <line id="Line_42" data-name="Line 42" x1="5.44" y2="60.8" transform="translate(9.788 115.844)" fill="none" stroke="#29456a" stroke-linecap="round" stroke-linejoin="round" stroke-width="1.627"/>
        <g id="Group_729" data-name="Group 729" transform="translate(0 55.364)">
          <path id="Path_2209" data-name="Path 2209" d="M177.356,319H140.795a3.131,3.131,0,0,1-3.1-2.711l-7.472-55.178a3.131,3.131,0,0,1,3.1-3.551h36.562a3.132,3.132,0,0,1,3.1,2.711l7.472,55.178A3.132,3.132,0,0,1,177.356,319Z" transform="translate(-130.191 -257.562)" fill="#ffc918"/>
          <path id="Path_2210" data-name="Path 2210" d="M200.883,330.124h-43.2v-4.96h38.24a4.96,4.96,0,0,1,4.96,4.96Z" transform="translate(-134.7 -268.649)" fill="#ffc918"/>
        </g>
        <path id="Path_2211" data-name="Path 2211" d="M190.895,302.826l33.177,11.059a2.333,2.333,0,0,1,1.511,2.837l-15.727,56.664" transform="translate(-140.147 -209.622)" fill="none" stroke="#29456a" stroke-width="0.407"/>
      </g>
      <g id="Group_731" data-name="Group 731" transform="translate(127.405 0.7)">
        <rect id="Rectangle_895" data-name="Rectangle 895" width="26.467" height="37.365" fill="#ededed"/>
        <rect id="Rectangle_896" data-name="Rectangle 896" width="18.164" height="2.076" transform="translate(4.152 7.006)" fill="#dfdfdf"/>
        <rect id="Rectangle_897" data-name="Rectangle 897" width="7.784" height="2.076" transform="translate(4.152 10.898)" fill="#dfdfdf"/>
      </g>
    </g>
    <g id="Group_733" data-name="Group 733" transform="translate(266.67 90.275)">
      <line id="Line_43" data-name="Line 43" y1="21.429" transform="translate(27.199)" fill="none" stroke="#ededed" stroke-width="0.931"/>
      <path id="Path_2212" data-name="Path 2212" d="M334.895,119.178h.366v-6.227h-7.326v6.227h.366l-24.177,12.455h54.947Z" transform="translate(-304.124 -93.994)" fill="#ededed"/>
    </g>
    <g id="Group_734" data-name="Group 734" transform="translate(334.876 90.275)">
      <line id="Line_44" data-name="Line 44" y1="21.429" transform="translate(27.199)" fill="none" stroke="#ededed" stroke-width="0.931"/>
      <path id="Path_2213" data-name="Path 2213" d="M416.481,119.178h.366v-6.227h-7.326v6.227h.366l-24.177,12.455h54.947Z" transform="translate(-385.711 -93.994)" fill="#ededed"/>
    </g>
    <g id="Group_735" data-name="Group 735" transform="translate(399.337 109.041)">
      <path id="Path_2214" data-name="Path 2214" d="M497.463,125.759l-13.741,15.727v-20.9a20.953,20.953,0,1,0,13.741,5.177Z" transform="translate(-462.818 -114.011)" fill="#ededed"/>
      <path id="Path_2215" data-name="Path 2215" d="M500.6,130.154,486.862,145.88v-20.9a20.954,20.954,0,1,0,13.741,5.178Z" transform="translate(-463.333 -114.732)" fill="none" stroke="#dfdfdf" stroke-width="0.931"/>
      <path id="Path_2216" data-name="Path 2216" d="M503.562,116.92a20.776,20.776,0,0,0-11.116-4.194,1.382,1.382,0,0,0-1.483,1.374v15.824a1.372,1.372,0,0,0,2.4.9l10.4-11.9A1.38,1.38,0,0,0,503.562,116.92Z" transform="translate(-467.433 -112.722)" fill="#24adb2"/>
    </g>
    <g id="Group_736" data-name="Group 736" transform="translate(284.965 174.338)">
      <rect id="Rectangle_898" data-name="Rectangle 898" width="3.487" height="7.814" transform="translate(0 9.632)" fill="#ededed"/>
      <rect id="Rectangle_899" data-name="Rectangle 899" width="3.487" height="3.907" transform="translate(5.691 13.539)" fill="#ededed"/>
      <rect id="Rectangle_900" data-name="Rectangle 900" width="3.487" height="11.417" transform="translate(11.383 6.029)" fill="#ededed"/>
      <rect id="Rectangle_901" data-name="Rectangle 901" width="3.487" height="17.446" transform="translate(17.074)" fill="#ededed"/>
    </g>
    <g id="Group_738" data-name="Group 738" transform="translate(499.84 127.84)">
      <g id="Group_737" data-name="Group 737">
        <path id="Path_2217" data-name="Path 2217" d="M649.522,241.658H583.036l16.484-106.45h66.486Z" transform="translate(-583.036 -135.209)" fill="#ededed"/>
        <rect id="Rectangle_902" data-name="Rectangle 902" width="3.77" height="119.004" transform="translate(12.439 105.365)" fill="#ededed"/>
        <rect id="Rectangle_903" data-name="Rectangle 903" width="3.77" height="119.004" transform="translate(56.17 105.365)" fill="#ededed"/>
      </g>
      <path id="Path_2218" data-name="Path 2218" d="M611.268,146.363l50.75-1.038-1.967,9.947-50.75.287Z" transform="translate(-587.344 -136.868)" fill="none" stroke="#dfdfdf" stroke-width="0.931"/>
      <path id="Path_2219" data-name="Path 2219" d="M608.692,162.574l34.212.458-1.362,6.832-35.954.346Z" transform="translate(-586.735 -139.697)" fill="none" stroke="#dfdfdf" stroke-width="0.931"/>
      <path id="Path_2220" data-name="Path 2220" d="M597.916,204.892l9.518-8.46,5.9,2.751,7.223-13.206,13.234,5.939,9.739-11.242,5.211,2.941,5.9-7.871" transform="translate(-585.476 -141.856)" fill="none" stroke="#24adb2" stroke-width="2"/>
    </g>
    <g id="Group_739" data-name="Group 739" transform="translate(101.432 195.329)">
      <path id="Path_2221" data-name="Path 2221" d="M110.363,217.884a1.946,1.946,0,1,1-1.946-1.946A1.946,1.946,0,0,1,110.363,217.884Z" transform="translate(-106.471 -215.938)" fill="none" stroke="#dfdfdf" stroke-width="0.931"/>
      <circle id="Ellipse_1376" data-name="Ellipse 1376" cx="1.946" cy="1.946" r="1.946" transform="translate(13.544)" fill="none" stroke="#dfdfdf" stroke-width="0.931"/>
      <path id="Path_2222" data-name="Path 2222" d="M142.765,217.884a1.946,1.946,0,1,1-1.946-1.946A1.946,1.946,0,0,1,142.765,217.884Z" transform="translate(-111.785 -215.938)" fill="none" stroke="#dfdfdf" stroke-width="0.931"/>
    </g>
  </g>
</svg>
