<svg xmlns="http://www.w3.org/2000/svg" width="147.495" height="146.59" viewBox="0 0 147.495 146.59">
  <g id="Group_206" data-name="Group 206" transform="translate(0 0)">
    <path id="Path_676" data-name="Path 676" d="M4993.463,3213.715c22.442-35.112,59.259-49.1,87.649-36.91,1.315.565,26.92,12.073,34.343,40.578,9.274,35.616-14.43,80.131-50.988,89.179-33.728,8.347-71.958-15.088-78.8-48.6C4981.695,3238.5,4989.452,3221.255,4993.463,3213.715Z" transform="translate(-4984.566 -3161.669)" fill="#52d1bd" opacity="0.14"/>
    <path id="Path_677" data-name="Path 677" d="M5298.072,3306.24l-66.915-7.187a3.258,3.258,0,0,0-3.588,2.892l-9.292,86.514a3.258,3.258,0,0,0,2.892,3.588l66.916,7.187a3.259,3.259,0,0,0,3.588-2.892l9.291-86.514A3.258,3.258,0,0,0,5298.072,3306.24Z" transform="translate(-5159.478 -3256.388)" fill="#52d1bd" opacity="0.14"/>
    <path id="Path_678" data-name="Path 678" d="M5278.762,3389.525l-66.915-7.186a3.257,3.257,0,0,1-2.892-3.587l9.291-86.514a3.258,3.258,0,0,1,3.587-2.891l66.916,7.186a3.259,3.259,0,0,1,2.892,3.588l-9.292,86.514A3.258,3.258,0,0,1,5278.762,3389.525Z" transform="translate(-5152.5 -3249.122)" fill="#52d1bd"/>
    <g id="Group_183" data-name="Group 183" transform="translate(67.778 58.447)">
      <path id="Path_679" data-name="Path 679" d="M5311.245,3407.983l-56.807-6.1a.462.462,0,0,1-.409-.509l4.2-39.108a.462.462,0,0,1,.508-.41l56.807,6.1a.461.461,0,0,1,.41.509l-4.2,39.108A.461.461,0,0,1,5311.245,3407.983Zm-56.248-6.97,55.889,6,4.1-38.19-55.889-6Z" transform="translate(-5254.026 -3361.853)" fill="#fff"/>
      <path id="Path_680" data-name="Path 680" d="M5314.028,3498.441l-56.807-6.1a.462.462,0,1,1,.1-.918l56.807,6.1a.462.462,0,1,1-.1.919Z" transform="translate(-5256.109 -3458.829)" fill="#fff"/>
      <path id="Path_681" data-name="Path 681" d="M5316.812,3472.528l-56.807-6.1a.462.462,0,1,1,.1-.918l56.807,6.1a.462.462,0,1,1-.1.918Z" transform="translate(-5258.192 -3439.435)" fill="#fff"/>
      <path id="Path_682" data-name="Path 682" d="M5319.595,3446.615l-56.807-6.1a.462.462,0,1,1,.1-.918l56.807,6.1a.462.462,0,0,1-.1.918Z" transform="translate(-5260.275 -3420.039)" fill="#fff"/>
      <path id="Path_683" data-name="Path 683" d="M5322.377,3420.7l-56.807-6.1a.462.462,0,0,1,.1-.919l56.807,6.1a.462.462,0,0,1-.1.918Z" transform="translate(-5262.358 -3400.643)" fill="#fff"/>
      <path id="Path_684" data-name="Path 684" d="M5325.161,3394.789l-56.807-6.1a.462.462,0,0,1,.1-.918l56.807,6.1a.462.462,0,0,1-.1.919Z" transform="translate(-5264.441 -3381.249)" fill="#fff"/>
      <path id="Path_685" data-name="Path 685" d="M5442.641,3422.094a.462.462,0,0,1-.41-.508l4.2-39.108a.462.462,0,1,1,.919.1l-4.2,39.108A.462.462,0,0,1,5442.641,3422.094Z" transform="translate(-5394.89 -3376.981)" fill="#fff"/>
      <path id="Path_686" data-name="Path 686" d="M5405,3418.052a.461.461,0,0,1-.41-.509l4.2-39.108a.462.462,0,0,1,.919.1l-4.2,39.108A.462.462,0,0,1,5405,3418.052Z" transform="translate(-5366.718 -3373.955)" fill="#fff"/>
      <path id="Path_687" data-name="Path 687" d="M5367.36,3414.01a.462.462,0,0,1-.41-.509l4.2-39.108a.462.462,0,0,1,.918.1l-4.2,39.108A.462.462,0,0,1,5367.36,3414.01Z" transform="translate(-5338.544 -3370.93)" fill="#fff"/>
      <path id="Path_688" data-name="Path 688" d="M5329.72,3409.967a.463.463,0,0,1-.41-.509l4.2-39.108a.462.462,0,1,1,.918.1l-4.2,39.108A.462.462,0,0,1,5329.72,3409.967Z" transform="translate(-5310.372 -3367.904)" fill="#fff"/>
      <path id="Path_689" data-name="Path 689" d="M5292.078,3405.925a.462.462,0,0,1-.409-.509l4.2-39.109a.462.462,0,1,1,.918.1l-4.2,39.108A.462.462,0,0,1,5292.078,3405.925Z" transform="translate(-5282.198 -3364.878)" fill="#fff"/>
    </g>
    <path id="Path_690" data-name="Path 690" d="M5301.957,3330.2l-25.927-2.784a2.02,2.02,0,0,1-1.793-2.225h0a2.02,2.02,0,0,1,2.225-1.793l25.927,2.784a2.021,2.021,0,0,1,1.793,2.225h0A2.02,2.02,0,0,1,5301.957,3330.2Z" transform="translate(-5201.367 -3274.611)" fill="#b3cef6"/>
    <path id="Path_691" data-name="Path 691" d="M5275.858,3557.92l-24.664-2.649a1.5,1.5,0,0,1-1.332-1.653h0a1.5,1.5,0,0,1,1.652-1.332l24.664,2.649a1.5,1.5,0,0,1,1.332,1.652h0A1.5,1.5,0,0,1,5275.858,3557.92Z" transform="translate(-5183.126 -3445.932)" fill="#b3cef6"/>
    <path id="Path_692" data-name="Path 692" d="M5302.9,3589.446l-54.74-5.879a1.5,1.5,0,0,1-1.332-1.653h0a1.5,1.5,0,0,1,1.652-1.333l54.741,5.879a1.5,1.5,0,0,1,1.332,1.652h0A1.5,1.5,0,0,1,5302.9,3589.446Z" transform="translate(-5180.851 -3467.111)" fill="#b3cef6"/>
    <path id="Path_693" data-name="Path 693" d="M5299.857,3617.742l-54.741-5.879a1.5,1.5,0,0,1-1.332-1.652h0a1.5,1.5,0,0,1,1.652-1.332l54.741,5.879a1.5,1.5,0,0,1,1.332,1.653h0A1.5,1.5,0,0,1,5299.857,3617.742Z" transform="translate(-5178.577 -3488.29)" fill="#b3cef6"/>
    <path id="Path_694" data-name="Path 694" d="M5085.611,3382.911a3.647,3.647,0,0,1-3.492-2.606l-24.753-83.417a3.641,3.641,0,0,1,2.455-4.526l64.519-19.145.109.367-.109-.367a3.644,3.644,0,0,1,4.527,2.455l24.753,83.416a3.642,3.642,0,0,1-2.455,4.527l-64.52,19.146A3.634,3.634,0,0,1,5085.611,3382.911Zm39.764-109.08a2.874,2.874,0,0,0-.817.119l-64.52,19.146a2.879,2.879,0,0,0-1.938,3.575l24.753,83.417a2.878,2.878,0,0,0,3.574,1.938l64.52-19.146a2.879,2.879,0,0,0,1.939-3.574l-24.753-83.417A2.881,2.881,0,0,0,5125.375,3273.832Z" transform="translate(-5038.941 -3236.951)" fill="#444"/>
    <g id="Group_184" data-name="Group 184" transform="translate(64.14 8.947)">
      <path id="Path_695" data-name="Path 695" d="M5249.3,3165.061l.863,15.215-9.734,9.566-.863-15.215Z" transform="translate(-5239.566 -3165.061)" fill="#e5a755"/>
    </g>
    <g id="Group_185" data-name="Group 185" transform="translate(54.063 9.566)">
      <path id="Path_696" data-name="Path 696" d="M5209.577,3176.469l.862,15.215-10.077-8.948-.863-15.215Z" transform="translate(-5199.499 -3167.521)" fill="#d89444"/>
    </g>
    <g id="Group_186" data-name="Group 186" transform="translate(54.063)">
      <path id="Path_697" data-name="Path 697" d="M5219.312,3138.436l-9.734,9.566-10.078-8.947,9.734-9.567Z" transform="translate(-5199.499 -3129.488)" fill="#f9c067"/>
    </g>
    <g id="Group_187" data-name="Group 187" transform="translate(25.416 17.649)">
      <path id="Path_698" data-name="Path 698" d="M5096.231,3199.654l.941,10.141-10.62,10.438-.942-10.141Z" transform="translate(-5085.61 -3199.654)" fill="#3eb59e"/>
    </g>
    <g id="Group_188" data-name="Group 188" transform="translate(14.42 18.324)">
      <path id="Path_699" data-name="Path 699" d="M5052.89,3212.1l.942,10.14-11-9.762-.941-10.14Z" transform="translate(-5041.895 -3202.339)" fill="#3eb59e"/>
    </g>
    <g id="Group_189" data-name="Group 189" transform="translate(14.42 7.887)">
      <path id="Path_700" data-name="Path 700" d="M5063.511,3170.6l-10.621,10.438-11-9.762,10.621-10.438Z" transform="translate(-5041.895 -3160.842)" fill="#52d1bd"/>
    </g>
    <path id="Path_701" data-name="Path 701" d="M5212.327,3360.393l-10.8-86.339a3.257,3.257,0,0,0-3.637-2.829l-66.78,8.354a3.258,3.258,0,0,0-2.828,3.637l10.8,86.339a3.257,3.257,0,0,0,3.637,2.828l66.78-8.354A3.259,3.259,0,0,0,5212.327,3360.393Z" transform="translate(-5092.112 -3235.555)" fill="#3a7ec1" opacity="0.2" style="mix-blend-mode: multiply;isolation: isolate"/>
    <g id="Group_191" data-name="Group 191" transform="translate(33.283 33.535)">
      <rect id="Rectangle_22" data-name="Rectangle 22" width="73.817" height="93.528" rx="12.954" transform="translate(0 9.164) rotate(-7.131)" fill="#fff"/>
      <g id="Group_190" data-name="Group 190" transform="translate(10.08 18.68)">
        <path id="Path_702" data-name="Path 702" d="M5219.055,3377.025l-56.692,7.093a.461.461,0,0,1-.515-.4l-4.884-39.029a.462.462,0,0,1,.4-.516l56.692-7.092a.462.462,0,0,1,.515.4l4.883,39.029A.461.461,0,0,1,5219.055,3377.025Zm-56.348,6.119,55.774-6.978-4.768-38.113-55.775,6.978Z" transform="translate(-5156.961 -3337.076)" fill="#e4ecf9"/>
        <path id="Path_703" data-name="Path 703" d="M5230.35,3467.3l-56.691,7.092a.462.462,0,1,1-.115-.916l56.691-7.093a.462.462,0,0,1,.115.917Z" transform="translate(-5169.07 -3433.855)" fill="#e4ecf9"/>
        <path id="Path_704" data-name="Path 704" d="M5227.114,3441.439l-56.691,7.093a.462.462,0,1,1-.115-.917l56.691-7.092a.462.462,0,1,1,.114.916Z" transform="translate(-5166.648 -3414.5)" fill="#e4ecf9"/>
        <path id="Path_705" data-name="Path 705" d="M5223.879,3415.578l-56.692,7.093a.462.462,0,1,1-.115-.916l56.691-7.093a.462.462,0,1,1,.115.916Z" transform="translate(-5164.227 -3395.144)" fill="#e4ecf9"/>
        <path id="Path_706" data-name="Path 706" d="M5220.644,3389.718l-56.691,7.093a.462.462,0,1,1-.114-.917l56.691-7.093a.462.462,0,0,1,.115.917Z" transform="translate(-5161.805 -3375.788)" fill="#e4ecf9"/>
        <path id="Path_707" data-name="Path 707" d="M5217.408,3363.857l-56.691,7.093a.462.462,0,0,1-.115-.917l56.691-7.092a.462.462,0,1,1,.114.916Z" transform="translate(-5159.384 -3356.432)" fill="#e4ecf9"/>
        <path id="Path_708" data-name="Path 708" d="M5350.184,3381.724a.461.461,0,0,1-.515-.4l-4.883-39.029a.462.462,0,1,1,.916-.115l4.883,39.029A.462.462,0,0,1,5350.184,3381.724Z" transform="translate(-5297.54 -3340.593)" fill="#e4ecf9"/>
        <path id="Path_709" data-name="Path 709" d="M5312.62,3386.424a.462.462,0,0,1-.515-.4l-4.883-39.029a.462.462,0,1,1,.917-.115l4.883,39.029A.462.462,0,0,1,5312.62,3386.424Z" transform="translate(-5269.424 -3344.111)" fill="#e4ecf9"/>
        <path id="Path_710" data-name="Path 710" d="M5275.055,3391.123a.461.461,0,0,1-.515-.4l-4.883-39.029a.462.462,0,1,1,.916-.115l4.883,39.029A.461.461,0,0,1,5275.055,3391.123Z" transform="translate(-5241.308 -3347.628)" fill="#e4ecf9"/>
        <path id="Path_711" data-name="Path 711" d="M5237.492,3395.823a.462.462,0,0,1-.515-.4l-4.883-39.029a.462.462,0,0,1,.917-.115l4.883,39.029A.462.462,0,0,1,5237.492,3395.823Z" transform="translate(-5213.193 -3351.145)" fill="#e4ecf9"/>
        <path id="Path_712" data-name="Path 712" d="M5199.927,3400.522a.461.461,0,0,1-.515-.4l-4.883-39.029a.462.462,0,1,1,.917-.115l4.883,39.029A.463.463,0,0,1,5199.927,3400.522Z" transform="translate(-5185.077 -3354.663)" fill="#e4ecf9"/>
      </g>
      <path id="Path_713" data-name="Path 713" d="M5180.946,3316.594l-25.874,3.237a2.021,2.021,0,0,1-2.256-1.754h0a2.021,2.021,0,0,1,1.754-2.256l25.875-3.237a2.021,2.021,0,0,1,2.255,1.754h0A2.02,2.02,0,0,1,5180.946,3316.594Z" transform="translate(-5143.767 -3300.053)" fill="#52d1bd"/>
      <path id="Path_714" data-name="Path 714" d="M5207.467,3545.1l-24.614,3.079a1.5,1.5,0,0,1-1.676-1.3h0a1.5,1.5,0,0,1,1.3-1.676l24.614-3.079a1.5,1.5,0,0,1,1.676,1.3h0A1.5,1.5,0,0,1,5207.467,3545.1Z" transform="translate(-5164.997 -3471.856)" fill="#e4ecf9"/>
      <path id="Path_715" data-name="Path 715" d="M5241.015,3558.406l-54.629,6.835a1.5,1.5,0,0,1-1.676-1.3h0a1.5,1.5,0,0,1,1.3-1.676l54.629-6.835a1.5,1.5,0,0,1,1.676,1.3h0A1.5,1.5,0,0,1,5241.015,3558.406Z" transform="translate(-5167.641 -3481.817)" fill="#e4ecf9"/>
      <path id="Path_716" data-name="Path 716" d="M5244.548,3586.646l-54.629,6.834a1.5,1.5,0,0,1-1.676-1.3h0a1.5,1.5,0,0,1,1.3-1.676l54.629-6.834a1.5,1.5,0,0,1,1.675,1.3h0A1.5,1.5,0,0,1,5244.548,3586.646Z" transform="translate(-5170.286 -3502.953)" fill="#e4ecf9"/>
      <path id="Path_717" data-name="Path 717" d="M5172.958,3396.3a.808.808,0,0,1-.541-1.409l8.537-7.675a.809.809,0,0,1,.913-.116l9.563,4.96,7.44-13.5a.818.818,0,0,1,.17-.214l8.635-7.687a.807.807,0,0,1,.91-.114l9.56,4.958,7.366-13.488a.808.808,0,0,1,1.418.775l-7.745,14.181a.808.808,0,0,1-1.082.33l-9.768-5.066-8.116,7.225-7.754,14.07a.808.808,0,0,1-1.08.327l-9.767-5.065-8.12,7.3A.807.807,0,0,1,5172.958,3396.3Z" transform="translate(-5158.25 -3336.75)" fill="#52d1bd"/>
    </g>
    <g id="Group_192" data-name="Group 192" transform="translate(12.235 46.505)">
      <path id="Path_718" data-name="Path 718" d="M5043.829,3314.377l3.784,24.633-10.621,10.438-3.785-24.633Z" transform="translate(-5033.208 -3314.377)" fill="#e5a755"/>
    </g>
    <g id="Group_193" data-name="Group 193" transform="translate(1.239 47.181)">
      <path id="Path_719" data-name="Path 719" d="M5000.488,3326.824l3.784,24.633-11-9.762-3.785-24.633Z" transform="translate(-4989.492 -3317.062)" fill="#d89444"/>
    </g>
    <g id="Group_194" data-name="Group 194" transform="translate(1.239 36.743)">
      <path id="Path_720" data-name="Path 720" d="M5011.109,3285.328l-10.621,10.438-11-9.762,10.621-10.438Z" transform="translate(-4989.492 -3275.565)" fill="#f9c067"/>
    </g>
    <path id="Path_721" data-name="Path 721" d="M5058.875,3412.307l35.62,11.493-10.791,11.494-35.45-12.55Z" transform="translate(-5032.235 -3341.169)" fill="#3a7ec1" opacity="0.2" style="mix-blend-mode: multiply;isolation: isolate"/>
    <path id="Path_722" data-name="Path 722" d="M5099.974,3239.969l17.713,6.264-10.011,9.886-18.323-5.713Z" transform="translate(-5062.996 -3212.179)" fill="#3a7ec1" opacity="0.2" style="mix-blend-mode: multiply;isolation: isolate"/>
    <path id="Path_723" data-name="Path 723" d="M5252.73,3225.55l20.1,6.839-7.871,9.083-21.96-6.355Z" transform="translate(-5177.993 -3201.388)" fill="#3a7ec1" opacity="0.2" style="mix-blend-mode: multiply;isolation: isolate"/>
    <g id="Group_195" data-name="Group 195" transform="translate(78.973 95.714)" opacity="0.2" style="mix-blend-mode: multiply;isolation: isolate">
      <path id="Path_724" data-name="Path 724" d="M5305.979,3511.929a14.729,14.729,0,0,1,20,5.391,14.42,14.42,0,0,1-3.25,18.208l11.593,20.183a2.056,2.056,0,0,1-.783,2.807l-.158.089a2.094,2.094,0,0,1-2.835-.766l-11.5-20.027a14.714,14.714,0,0,1-18.6-6.085A14.459,14.459,0,0,1,5305.979,3511.929Zm12.722,22.149a10.967,10.967,0,0,0,4.2-15.018,11.173,11.173,0,0,0-15.172-4.09,10.969,10.969,0,0,0-4.2,15.02,11.173,11.173,0,0,0,15.174,4.088" transform="translate(-5298.534 -3510.012)" fill="#3a7ec1"/>
    </g>
    <g id="Group_205" data-name="Group 205" transform="translate(76.491 94.017)">
      <g id="Group_204" data-name="Group 204" transform="translate(0)" style="mix-blend-mode: normal;isolation: isolate">
        <g id="Group_196" data-name="Group 196" transform="translate(3.545 3.505)">
          <path id="Path_725" data-name="Path 725" d="M5324.863,3526.269l.318,1.795a10.847,10.847,0,0,0-1.283-3.524,11.174,11.174,0,0,0-15.173-4.09,11.017,11.017,0,0,0-5.481,11.5l-.317-1.8a11.015,11.015,0,0,1,5.481-11.5,11.174,11.174,0,0,1,15.173,4.09A10.844,10.844,0,0,1,5324.863,3526.269Z" transform="translate(-5302.761 -3517.2)" fill="#e5a755"/>
        </g>
        <g id="Group_197" data-name="Group 197" transform="translate(24.197 11.954)">
          <path id="Path_726" data-name="Path 726" d="M5389.809,3550.792l.319,1.8a14.49,14.49,0,0,1-4.943,13.562l-.318-1.8A14.486,14.486,0,0,0,5389.809,3550.792Z" transform="translate(-5384.867 -3550.792)" fill="#e5a755"/>
        </g>
        <g id="Group_198" data-name="Group 198" transform="translate(0.218 17.071)">
          <path id="Path_727" data-name="Path 727" d="M5289.852,3572.93l-.317-1.8a14.321,14.321,0,0,0,1.692,4.647,14.715,14.715,0,0,0,18.6,6.085l.317,1.8a14.715,14.715,0,0,1-18.6-6.085A14.326,14.326,0,0,1,5289.852,3572.93Z" transform="translate(-5289.534 -3571.135)" fill="#e5a755"/>
        </g>
        <g id="Group_199" data-name="Group 199" transform="translate(20.512 27.803)">
          <path id="Path_728" data-name="Path 728" d="M5381.717,3633.828l.318,1.8-11.5-20.026-.318-1.8Z" transform="translate(-5370.214 -3613.802)" fill="#e5a755"/>
        </g>
        <g id="Group_200" data-name="Group 200" transform="translate(35.007 46.354)">
          <path id="Path_729" data-name="Path 729" d="M5428.865,3687.554l.317,1.8a2.064,2.064,0,0,1-1.021,2.152l-.317-1.8A2.064,2.064,0,0,0,5428.865,3687.554Z" transform="translate(-5427.843 -3687.554)" fill="#e5a755"/>
        </g>
        <g id="Group_201" data-name="Group 201" transform="translate(34.85 48.506)">
          <path id="Path_730" data-name="Path 730" d="M5427.375,3696.109l.318,1.8-.158.089-.317-1.8Z" transform="translate(-5427.218 -3696.109)" fill="#e5a755"/>
        </g>
        <g id="Group_202" data-name="Group 202" transform="translate(32.014 47.829)">
          <path id="Path_731" data-name="Path 731" d="M5418.782,3694.185l.317,1.8a2.093,2.093,0,0,1-2.835-.765l-.319-1.8A2.1,2.1,0,0,0,5418.782,3694.185Z" transform="translate(-5415.945 -3693.419)" fill="#e5a755"/>
        </g>
        <g id="Group_203" data-name="Group 203">
          <path id="Path_732" data-name="Path 732" d="M5296.113,3505.184a14.728,14.728,0,0,1,20,5.391,14.419,14.419,0,0,1-3.25,18.207l11.593,20.183a2.055,2.055,0,0,1-.784,2.807l-.157.089a2.093,2.093,0,0,1-2.835-.765l-11.5-20.027a14.714,14.714,0,0,1-18.6-6.084A14.46,14.46,0,0,1,5296.113,3505.184Zm12.722,22.149a10.969,10.969,0,0,0,4.2-15.019,11.174,11.174,0,0,0-15.173-4.089,10.968,10.968,0,0,0-4.2,15.019,11.173,11.173,0,0,0,15.174,4.089" transform="translate(-5288.668 -3503.267)" fill="#f9c067"/>
        </g>
      </g>
      <path id="Path_733" data-name="Path 733" d="M5319.385,3537.762a10.968,10.968,0,0,0,4.2-15.018,11.174,11.174,0,0,0-15.172-4.09,10.969,10.969,0,0,0-4.2,15.019,11.174,11.174,0,0,0,15.175,4.089" transform="translate(-5299.217 -3513.696)" fill="#3a7ec1" opacity="0.2" style="mix-blend-mode: multiply;isolation: isolate"/>
    </g>
    <circle id="Ellipse_25" data-name="Ellipse 25" cx="5.625" cy="5.625" r="5.625" transform="translate(0.796 105.463)" fill="#52d1bd"/>
    <circle id="Ellipse_26" data-name="Ellipse 26" cx="2.483" cy="2.483" r="2.483" transform="translate(142.528 126.326)" fill="#3eb59e"/>
    <circle id="Ellipse_27" data-name="Ellipse 27" cx="2.483" cy="2.483" r="2.483" transform="translate(99.309 21.679)" fill="#52d1bd"/>
  </g>
</svg>
