<svg id="Group_326" data-name="Group 326" xmlns="http://www.w3.org/2000/svg" xmlns:xlink="http://www.w3.org/1999/xlink" width="169.98" height="179.927" viewBox="0 0 169.98 179.927">
  <defs>
    <clipPath id="clip-path">
      <rect id="Rectangle_71" data-name="Rectangle 71" width="169.98" height="179.927" fill="none"/>
    </clipPath>
    <clipPath id="clip-path-3">
      <rect id="Rectangle_66" data-name="Rectangle 66" width="126.749" height="109.653" fill="none"/>
    </clipPath>
    <clipPath id="clip-path-4">
      <rect id="Rectangle_67" data-name="Rectangle 67" width="117.17" height="101.812" fill="none"/>
    </clipPath>
    <clipPath id="clip-path-5">
      <rect id="Rectangle_68" data-name="Rectangle 68" width="47.78" height="58.86" fill="none"/>
    </clipPath>
    <clipPath id="clip-path-6">
      <rect id="Rectangle_69" data-name="Rectangle 69" width="44.504" height="44.504" fill="none"/>
    </clipPath>
  </defs>
  <g id="Group_325" data-name="Group 325" clip-path="url(#clip-path)">
    <g id="Group_324" data-name="Group 324">
      <g id="Group_323" data-name="Group 323" clip-path="url(#clip-path)">
        <path id="Path_1052" data-name="Path 1052" d="M238.345,179.582A71.677,71.677,0,1,1,166.667,107.9a71.678,71.678,0,0,1,71.677,71.677" transform="translate(-68.365 -77.66)" fill="#ecf3fe"/>
        <g id="Group_313" data-name="Group 313" transform="translate(16.406 54.009)" opacity="0.25" style="mix-blend-mode: multiply;isolation: isolate">
          <g id="Group_312" data-name="Group 312">
            <g id="Group_311" data-name="Group 311" clip-path="url(#clip-path-3)">
              <path id="Path_1053" data-name="Path 1053" d="M185.267,277.54l-5.59-73.391a5.312,5.312,0,0,0-6.316-4.81l-4.626.9-.869-4.443a3.96,3.96,0,0,0-4.7-3.035L99.553,205.207a4.052,4.052,0,0,1-3.727-1.154l-6.575-6.88a4.078,4.078,0,0,0-3.727-1.154l-21.843,4.272a3.97,3.97,0,0,0-3.224,4.586l5.569,28.474-3.2.626a5.312,5.312,0,0,0-4.038,6.835L77.336,298.65a5.311,5.311,0,0,0,6.078,3.591l97.577-19.085a5.311,5.311,0,0,0,4.277-5.616" transform="translate(-58.533 -192.688)" fill="#3a7ec1"/>
            </g>
          </g>
        </g>
        <path id="Path_1054" data-name="Path 1054" d="M181.179,184.113,196.921,264.6a3.951,3.951,0,0,1-3.216,4.573L96.472,288.194a3.961,3.961,0,0,1-4.713-3.022L73.769,193.189a3.97,3.97,0,0,1,3.225-4.586l21.843-4.272a4.079,4.079,0,0,1,3.727,1.155l6.575,6.879a4.053,4.053,0,0,0,3.727,1.155l63.609-12.441a3.961,3.961,0,0,1,4.7,3.035" transform="translate(-53.042 -130.267)" fill="#dbe2ef"/>
        <path id="Path_1055" data-name="Path 1055" d="M93.275,286.817a4.855,4.855,0,0,1-4.814-3.852L70.47,190.982a4.7,4.7,0,0,1,.79-3.633,5.027,5.027,0,0,1,3.168-2.042l21.843-4.272a5.023,5.023,0,0,1,4.578,1.426l6.573,6.878a3.144,3.144,0,0,0,2.877.885l63.61-12.441a5.02,5.02,0,0,1,3.7.7,4.7,4.7,0,0,1,2.093,3.068l15.743,80.491A4.889,4.889,0,0,1,191.5,267.7L94.264,286.721a5.13,5.13,0,0,1-.989.1M97.246,182.8a3.222,3.222,0,0,0-.618.059L74.785,187.13a3.18,3.18,0,0,0-2.006,1.288,2.859,2.859,0,0,0-.486,2.208l17.991,91.983a3.04,3.04,0,0,0,3.623,2.289l97.233-19.017a3.031,3.031,0,0,0,2.483-3.483L177.88,181.907a2.861,2.861,0,0,0-1.278-1.864,3.165,3.165,0,0,0-2.336-.438l-63.61,12.441a5.019,5.019,0,0,1-4.581-1.429l-6.571-6.875a3.125,3.125,0,0,0-2.259-.944" transform="translate(-50.655 -127.882)" fill="#4d7393"/>
        <path id="Path_1056" data-name="Path 1056" d="M193.454,228.315l-89.971-19.278a2.6,2.6,0,0,1-2-3.093l16.9-78.9a2.606,2.606,0,0,1,3.093-2l89.971,19.278a2.6,2.6,0,0,1,2,3.093l-16.9,78.9a2.605,2.605,0,0,1-3.093,2" transform="translate(-72.995 -89.954)" fill="#52d1bd"/>
        <path id="Path_1057" data-name="Path 1057" d="M191.532,226.866a3.566,3.566,0,0,1-.748-.079l-89.971-19.278a3.572,3.572,0,0,1-2.74-4.235l16.9-78.9a3.567,3.567,0,0,1,4.235-2.74l89.971,19.277a3.571,3.571,0,0,1,2.74,4.235l-16.905,78.9a3.573,3.573,0,0,1-3.486,2.82m-.345-1.96a1.643,1.643,0,0,0,1.951-1.263l16.9-78.9a1.643,1.643,0,0,0-1.263-1.951l-89.971-19.278a1.644,1.644,0,0,0-1.951,1.263l-16.9,78.9a1.645,1.645,0,0,0,1.263,1.951Z" transform="translate(-70.526 -87.486)" fill="#4d7393"/>
        <path id="Path_1058" data-name="Path 1058" d="M214.374,255.552H122.361a2.605,2.605,0,0,1-2.605-2.605V172.26a2.6,2.6,0,0,1,2.605-2.6h92.013a2.6,2.6,0,0,1,2.605,2.6v80.687a2.605,2.605,0,0,1-2.605,2.605" transform="translate(-86.189 -122.102)" fill="#fff"/>
        <path id="Path_1059" data-name="Path 1059" d="M211.989,254.1H119.975a3.538,3.538,0,0,1-3.534-3.534V169.874a3.538,3.538,0,0,1,3.534-3.534h92.014a3.538,3.538,0,0,1,3.534,3.534v80.688a3.538,3.538,0,0,1-3.534,3.534m-92.014-85.9a1.678,1.678,0,0,0-1.676,1.676v80.688a1.678,1.678,0,0,0,1.676,1.676h92.014a1.678,1.678,0,0,0,1.676-1.676V169.874a1.678,1.678,0,0,0-1.676-1.676Z" transform="translate(-83.804 -119.716)" fill="#4d7393"/>
        <path id="Path_1060" data-name="Path 1060" d="M154.573,258.513h0a2.464,2.464,0,0,1-2.457-2.457v-45.3a2.457,2.457,0,0,1,4.915,0v45.3a2.464,2.464,0,0,1-2.457,2.457" transform="translate(-109.479 -149.912)" fill="#52d1bd"/>
        <path id="Path_1061" data-name="Path 1061" d="M202.031,258.513h0a2.464,2.464,0,0,1-2.457-2.457v-45.3a2.457,2.457,0,0,1,4.915,0v45.3a2.464,2.464,0,0,1-2.457,2.457" transform="translate(-143.635 -149.912)" fill="#e4ecf9"/>
        <path id="Path_1062" data-name="Path 1062" d="M249.489,258.513h0a2.464,2.464,0,0,1-2.457-2.457v-45.3a2.457,2.457,0,0,1,4.915,0v45.3a2.464,2.464,0,0,1-2.457,2.457" transform="translate(-177.791 -149.912)" fill="#e4ecf9"/>
        <path id="Path_1063" data-name="Path 1063" d="M296.947,258.513h0a2.464,2.464,0,0,1-2.457-2.457v-45.3a2.457,2.457,0,1,1,4.915,0v45.3a2.464,2.464,0,0,1-2.457,2.457" transform="translate(-211.947 -149.912)" fill="#e4ecf9"/>
        <path id="Path_1064" data-name="Path 1064" d="M344.4,258.513h0a2.464,2.464,0,0,1-2.457-2.457v-45.3a2.457,2.457,0,1,1,4.915,0v45.3a2.464,2.464,0,0,1-2.457,2.457" transform="translate(-246.102 -149.912)" fill="#e4ecf9"/>
        <path id="Path_1065" data-name="Path 1065" d="M391.862,258.513h0a2.464,2.464,0,0,1-2.457-2.457v-45.3a2.457,2.457,0,1,1,4.915,0v45.3a2.464,2.464,0,0,1-2.457,2.457" transform="translate(-280.258 -149.912)" fill="#e4ecf9"/>
        <g id="Group_316" data-name="Group 316" transform="translate(25.886 56.194)" opacity="0.25" style="mix-blend-mode: multiply;isolation: isolate">
          <g id="Group_315" data-name="Group 315">
            <g id="Group_314" data-name="Group 314" clip-path="url(#clip-path-4)">
              <path id="Path_1066" data-name="Path 1066" d="M195.064,200.485l13.964,71.4.481,6.31a5.286,5.286,0,0,1-2.837,5.1L109.9,302.218a3.961,3.961,0,0,1-4.713-3.023l-12.831-65.6,17.02-3.329a5.316,5.316,0,0,0,4.176-4.085l1.47-6.758a5.294,5.294,0,0,1,4.163-4.094Z" transform="translate(-92.355 -200.485)" fill="#3a7ec1"/>
            </g>
          </g>
        </g>
        <path id="Path_1067" data-name="Path 1067" d="M188.23,209.285l5.59,73.391a5.312,5.312,0,0,1-4.277,5.616L91.967,307.377a5.312,5.312,0,0,1-6.078-3.591L67.342,245.947a5.312,5.312,0,0,1,4.038-6.835l22.314-4.364a5.312,5.312,0,0,0,4.172-4.087l1.466-6.761a5.312,5.312,0,0,1,4.171-4.087l78.411-15.336a5.312,5.312,0,0,1,6.316,4.81" transform="translate(-48.283 -147.091)" fill="#fff"/>
        <path id="Path_1068" data-name="Path 1068" d="M88.565,306.026a6.244,6.244,0,0,1-5.939-4.336L64.078,243.851a6.24,6.24,0,0,1,4.745-8.03l22.314-4.364a4.378,4.378,0,0,0,3.442-3.372l1.466-6.762a6.236,6.236,0,0,1,4.9-4.8l78.411-15.336a6.24,6.24,0,0,1,7.42,5.65l5.59,73.391a6.242,6.242,0,0,1-5.025,6.6L89.766,305.909a6.252,6.252,0,0,1-1.2.117m91.989-103.1a4.388,4.388,0,0,0-.84.081L101.3,218.344a4.38,4.38,0,0,0-3.442,3.372l-1.466,6.762a6.233,6.233,0,0,1-4.9,4.8L69.18,237.644a4.383,4.383,0,0,0-3.332,5.64l18.547,57.839a4.389,4.389,0,0,0,5.014,2.963L186.986,285a4.386,4.386,0,0,0,3.53-4.635l-5.59-73.39a4.384,4.384,0,0,0-4.372-4.05" transform="translate(-45.904 -144.711)" fill="#4d7393"/>
        <path id="Path_1069" data-name="Path 1069" d="M394.515,47.953a5.77,5.77,0,1,1-5.77-5.77,5.77,5.77,0,0,1,5.77,5.77" transform="translate(-275.631 -30.359)" fill="#bacce5"/>
        <path id="Path_1070" data-name="Path 1070" d="M552.341,454.675a3.494,3.494,0,1,1-3.494-3.494,3.494,3.494,0,0,1,3.494,3.494" transform="translate(-392.495 -324.719)" fill="#bacce5"/>
        <path id="Path_1071" data-name="Path 1071" d="M241.555,620.491A3.494,3.494,0,1,1,238.061,617a3.494,3.494,0,0,1,3.494,3.494" transform="translate(-168.82 -444.058)" fill="#bacce5"/>
        <path id="Path_1072" data-name="Path 1072" d="M217.913,3.294A3.294,3.294,0,1,1,214.619,0a3.294,3.294,0,0,1,3.294,3.294" transform="translate(-152.092)" fill="#52d1bd"/>
        <path id="Path_1073" data-name="Path 1073" d="M11.539,289.025a5.77,5.77,0,1,1-5.77-5.77,5.77,5.77,0,0,1,5.77,5.77" transform="translate(0 -203.861)" fill="#52d1bd"/>
        <g id="Group_319" data-name="Group 319" transform="translate(116.705 64.226)" opacity="0.25" style="mix-blend-mode: multiply;isolation: isolate">
          <g id="Group_318" data-name="Group 318">
            <g id="Group_317" data-name="Group 317" clip-path="url(#clip-path-5)">
              <path id="Path_1074" data-name="Path 1074" d="M428.171,287.144a22.343,22.343,0,0,1-4.407-1.835.862.862,0,1,1,.828-1.512,20.575,20.575,0,0,0,4.066,1.694.862.862,0,0,1-.4,1.675c-.03-.006-.06-.013-.09-.022m3.9-.085a.863.863,0,0,1,.91-.811,17.237,17.237,0,0,0,4.357-.291.862.862,0,0,1,.337,1.691,18.961,18.961,0,0,1-4.793.322.884.884,0,0,1-.107-.013.862.862,0,0,1-.7-.9m-12.231-4.464a24.26,24.26,0,0,1-3.288-3.441.862.862,0,0,1,1.357-1.064,22.522,22.522,0,0,0,3.053,3.2.862.862,0,0,1-1.123,1.309m21.227,3.09a.862.862,0,0,1,.358-1.166,13.345,13.345,0,0,0,3.429-2.6.862.862,0,1,1,1.248,1.19,15.053,15.053,0,0,1-3.869,2.93.862.862,0,0,1-1.165-.357m6.654-6.146a.862.862,0,0,1-.376-1.16,17.9,17.9,0,0,0,1.486-4.115.852.852,0,0,1,1.033-.646.632.632,0,1,0,1.237-.02,20.627,20.627,0,0,0,3.975-1.9.862.862,0,1,1,.909,1.464,22.3,22.3,0,0,1-4.307,2.062.864.864,0,0,1-1.1-.524.116.116,0,1,0-.067-.047,19.591,19.591,0,0,1-1.629,4.511.862.862,0,0,1-.922.456.884.884,0,0,1-.238-.08m-6.235-4.069a.862.862,0,0,1,.954-.759,17.8,17.8,0,0,0,4.375-.071.862.862,0,0,1,.23,1.709,19.561,19.561,0,0,1-4.8.075l-.058-.009a.862.862,0,0,1-.7-.945m-3.933-.417a9.28,9.28,0,0,1-2.427-1.809,9.649,9.649,0,0,1-1.222-1.6.862.862,0,1,1,1.469-.9,7.936,7.936,0,0,0,1,1.316,7.56,7.56,0,0,0,1.979,1.471.862.862,0,1,1-.8,1.526M432.266,267a10.791,10.791,0,0,1,.062-3.376,9.41,9.41,0,0,1,.429-1.569.862.862,0,1,1,1.616.6,7.621,7.621,0,0,0-.35,1.279,9.05,9.05,0,0,0-.048,2.836.862.862,0,0,1-1.709.23m17.061,2.9a17.523,17.523,0,0,0-.386-3.686c-.044-.2-.094-.429-.151-.678a.862.862,0,0,1,1.681-.383c.057.253.108.486.154.694a19.2,19.2,0,0,1,.425,4.05.862.862,0,1,1-1.724,0m9.18.272a.863.863,0,0,1-.037-1.219q.318-.337.613-.695a13.861,13.861,0,0,0,1.826-2.862.862.862,0,0,1,1.556.743,15.565,15.565,0,0,1-2.052,3.216c-.219.266-.449.526-.687.779a.863.863,0,0,1-1.219.037m-11.175-8.734a7.092,7.092,0,0,0-2.782-2.935.862.862,0,0,1,.82-1.517,8.772,8.772,0,0,1,3.473,3.623.862.862,0,1,1-1.512.828m-11.722-2.181a.863.863,0,0,1,.172-1.207,9.937,9.937,0,0,1,4.6-1.907.862.862,0,1,1,.233,1.708,8.317,8.317,0,0,0-3.8,1.577.863.863,0,0,1-1.207-.172m26.576,1.994a19.749,19.749,0,0,0,.2-4.391.862.862,0,1,1,1.721-.105,21.508,21.508,0,0,1-.218,4.774.863.863,0,0,1-.99.712l-.016,0a.863.863,0,0,1-.7-.987m-.471-8.783a31.506,31.506,0,0,0-1.355-4.262.862.862,0,1,1,1.6-.636,33.091,33.091,0,0,1,1.43,4.5.861.861,0,0,1-.638,1.038.851.851,0,0,1-.354.01.863.863,0,0,1-.684-.648m-3.285-8.3a29.855,29.855,0,0,0-2.378-3.611l-.083-.106a.862.862,0,1,1,1.351-1.071l.1.121a31.626,31.626,0,0,1,2.518,3.823.862.862,0,1,1-1.5.845m-5.492-6.974a27.247,27.247,0,0,0-3.536-2.7.862.862,0,0,1,.934-1.45,29.03,29.03,0,0,1,3.76,2.876.862.862,0,1,1-1.157,1.278m-7.464-4.826a31.613,31.613,0,0,0-4.2-1.532.862.862,0,0,1,.474-1.657,33.378,33.378,0,0,1,4.434,1.616.862.862,0,0,1-.506,1.635.884.884,0,0,1-.2-.062" transform="translate(-416.371 -229.141)" fill="#3a7ec1"/>
            </g>
          </g>
        </g>
        <path id="Path_1075" data-name="Path 1075" d="M430.831,282.76a22.34,22.34,0,0,1-4.407-1.835.862.862,0,0,1,.828-1.512,20.579,20.579,0,0,0,4.066,1.694.862.862,0,0,1-.4,1.675c-.03-.006-.06-.013-.09-.022m3.9-.085a.863.863,0,0,1,.91-.811,17.239,17.239,0,0,0,4.357-.291.862.862,0,0,1,.337,1.691,18.944,18.944,0,0,1-4.793.322.9.9,0,0,1-.107-.013.862.862,0,0,1-.7-.9M422.5,278.21a24.26,24.26,0,0,1-3.288-3.441.862.862,0,1,1,1.357-1.063,22.518,22.518,0,0,0,3.054,3.2.862.862,0,0,1-1.123,1.309m21.227,3.09a.862.862,0,0,1,.358-1.166,13.33,13.33,0,0,0,3.429-2.6.862.862,0,0,1,1.248,1.19,15.054,15.054,0,0,1-3.869,2.93.862.862,0,0,1-1.165-.357m6.654-6.146a.862.862,0,0,1-.376-1.16,17.9,17.9,0,0,0,1.486-4.115.853.853,0,0,1,1.033-.646.632.632,0,1,0,1.237-.02,20.627,20.627,0,0,0,3.975-1.9.862.862,0,1,1,.909,1.465,22.3,22.3,0,0,1-4.307,2.061.864.864,0,0,1-1.1-.524.878.878,0,0,1-.045-.2.842.842,0,0,1-.022.154,19.6,19.6,0,0,1-1.629,4.512.862.862,0,0,1-.922.456.885.885,0,0,1-.238-.08m-6.235-4.069a.862.862,0,0,1,.954-.759,17.791,17.791,0,0,0,4.375-.072.862.862,0,0,1,.23,1.709,19.566,19.566,0,0,1-4.8.075l-.058-.009a.862.862,0,0,1-.7-.945m-3.933-.417a9.28,9.28,0,0,1-2.427-1.808,9.663,9.663,0,0,1-1.222-1.6.862.862,0,1,1,1.469-.9,7.938,7.938,0,0,0,1,1.316,7.561,7.561,0,0,0,1.979,1.471.862.862,0,1,1-.8,1.526m-5.29-8.054a10.794,10.794,0,0,1,.062-3.376,9.415,9.415,0,0,1,.429-1.569.862.862,0,0,1,1.616.6,7.614,7.614,0,0,0-.35,1.279,9.058,9.058,0,0,0-.049,2.836.862.862,0,0,1-1.709.229m17.061,2.9a17.5,17.5,0,0,0-.386-3.686c-.044-.2-.094-.429-.151-.678a.862.862,0,1,1,1.681-.383c.057.253.108.486.154.694a19.179,19.179,0,0,1,.425,4.05.862.862,0,1,1-1.724,0m9.18.272a.863.863,0,0,1-.037-1.219q.318-.337.613-.695a13.862,13.862,0,0,0,1.826-2.862.862.862,0,1,1,1.556.743,15.563,15.563,0,0,1-2.052,3.216c-.219.266-.449.526-.687.779a.863.863,0,0,1-1.219.037m-11.175-8.734a7.092,7.092,0,0,0-2.782-2.935.862.862,0,1,1,.82-1.517,8.772,8.772,0,0,1,3.473,3.623.862.862,0,1,1-1.512.828m-11.722-2.181a.863.863,0,0,1,.172-1.207,9.938,9.938,0,0,1,4.6-1.907.862.862,0,1,1,.233,1.708,8.32,8.32,0,0,0-3.8,1.577.862.862,0,0,1-1.207-.172m26.576,1.994a19.751,19.751,0,0,0,.2-4.391.862.862,0,1,1,1.721-.105,21.5,21.5,0,0,1-.218,4.774.863.863,0,0,1-.99.712l-.016,0a.863.863,0,0,1-.7-.987m-.471-8.783a31.449,31.449,0,0,0-1.356-4.262.862.862,0,0,1,1.6-.636,33.1,33.1,0,0,1,1.43,4.5.861.861,0,0,1-.638,1.038.852.852,0,0,1-.354.01.863.863,0,0,1-.684-.648m-3.285-8.3a29.827,29.827,0,0,0-2.378-3.611l-.083-.106a.862.862,0,0,1,1.351-1.071l.1.121a31.623,31.623,0,0,1,2.518,3.823.862.862,0,0,1-1.5.845m-5.492-6.974a27.23,27.23,0,0,0-3.536-2.7.862.862,0,0,1,.934-1.45,29.036,29.036,0,0,1,3.76,2.876.862.862,0,1,1-1.157,1.278m-7.464-4.827a31.613,31.613,0,0,0-4.2-1.531.862.862,0,0,1,.474-1.657,33.411,33.411,0,0,1,4.434,1.616.862.862,0,0,1-.506,1.635.882.882,0,0,1-.2-.062" transform="translate(-301.58 -161.759)" fill="#4d7393"/>
        <g id="Group_322" data-name="Group 322" transform="translate(111.848 35.033)" opacity="0.25" style="mix-blend-mode: multiply;isolation: isolate">
          <g id="Group_321" data-name="Group 321">
            <g id="Group_320" data-name="Group 320" clip-path="url(#clip-path-6)">
              <path id="Path_1076" data-name="Path 1076" d="M443.32,144.1a22.249,22.249,0,1,0-18.881,25.17A22.249,22.249,0,0,0,443.32,144.1" transform="translate(-399.042 -124.988)" fill="#3a7ec1"/>
            </g>
          </g>
        </g>
        <path id="Path_1077" data-name="Path 1077" d="M455.733,127.013a22.249,22.249,0,1,1-25.17-18.881,22.249,22.249,0,0,1,25.17,18.881" transform="translate(-296.128 -77.66)" fill="#fff"/>
        <path id="Path_1078" data-name="Path 1078" d="M431.186,150.909a23.271,23.271,0,1,1,3.329-.237,23.625,23.625,0,0,1-3.329.237m.094-44.506a21.589,21.589,0,0,0-3.053.218,21.2,21.2,0,1,0,3.053-.218" transform="translate(-293.655 -75.197)" fill="#4d7393"/>
        <path id="Path_1079" data-name="Path 1079" d="M482.3,137.271a7.033,7.033,0,0,0-3.92,9.129l4,10.013,2.188-.874-4-10.013a4.669,4.669,0,0,1,8.672-3.462l.509,1.276,2.188-.874-.509-1.276a7.033,7.033,0,0,0-9.129-3.919" transform="translate(-343.937 -98.434)" fill="#52d1bd"/>
        <path id="Path_1080" data-name="Path 1080" d="M449.626,182.824a10.205,10.205,0,1,0,17.707-7.073,1.428,1.428,0,0,0-1.579-.368l-15.236,6.083a1.431,1.431,0,0,0-.891,1.358" transform="translate(-323.599 -126.152)" fill="#52d1bd"/>
        <path id="Path_1081" data-name="Path 1081" d="M483.652,197.97a1.967,1.967,0,1,0-1.989,2.687l.767,1.921a.877.877,0,1,0,1.629-.65l-.767-1.921a1.966,1.966,0,0,0,.36-2.037" transform="translate(-345.358 -141.59)" fill="#fff"/>
      </g>
    </g>
  </g>
</svg>
