<svg xmlns="http://www.w3.org/2000/svg" xmlns:xlink="http://www.w3.org/1999/xlink" width="634.324" height="527.666" viewBox="0 0 634.324 527.666">
  <defs>
    <clipPath id="clip-path">
      <rect id="Rectangle_88" data-name="Rectangle 88" width="634.324" height="527.666" fill="none"/>
    </clipPath>
    <clipPath id="clip-path-2">
      <rect id="Rectangle_76" data-name="Rectangle 76" width="512.018" height="512.018" fill="none"/>
    </clipPath>
    <clipPath id="clip-path-3">
      <rect id="Rectangle_77" data-name="Rectangle 77" width="171.921" height="189.368" fill="none"/>
    </clipPath>
    <clipPath id="clip-path-4">
      <rect id="Rectangle_78" data-name="Rectangle 78" width="277.919" height="283.346" fill="none"/>
    </clipPath>
    <clipPath id="clip-path-5">
      <rect id="Rectangle_79" data-name="Rectangle 79" width="238.625" height="259.23" fill="none"/>
    </clipPath>
    <clipPath id="clip-path-6">
      <rect id="Rectangle_84" data-name="Rectangle 84" width="179.119" height="202.191" fill="none"/>
    </clipPath>
    <clipPath id="clip-path-7">
      <rect id="Rectangle_85" data-name="Rectangle 85" width="179.12" height="202.19" fill="none"/>
    </clipPath>
    <clipPath id="clip-path-8">
      <rect id="Rectangle_86" data-name="Rectangle 86" width="373.409" height="304.811" fill="none"/>
    </clipPath>
    <clipPath id="clip-path-9">
      <rect id="Rectangle_87" data-name="Rectangle 87" width="123.464" height="123.467" fill="none"/>
    </clipPath>
  </defs>
  <g id="Group_351" data-name="Group 351" clip-path="url(#clip-path)">
    <g id="Group_329" data-name="Group 329" transform="translate(21.91)" opacity="0.14">
      <g id="Group_328" data-name="Group 328">
        <g id="Group_327" data-name="Group 327" clip-path="url(#clip-path-2)">
          <path id="Path_1082" data-name="Path 1082" d="M534.37,256.009c0,141.39-114.619,256.009-256.009,256.009S22.352,397.4,22.352,256.009,136.971,0,278.361,0,534.37,114.619,534.37,256.009" transform="translate(-22.352)" fill="#a8fff1"/>
        </g>
      </g>
    </g>
    <g id="Group_332" data-name="Group 332" transform="translate(423.357 200.599)" opacity="0.25" style="mix-blend-mode: multiply;isolation: isolate">
      <g id="Group_331" data-name="Group 331">
        <g id="Group_330" data-name="Group 330" clip-path="url(#clip-path-3)">
          <path id="Path_1083" data-name="Path 1083" d="M593.987,227.565,472.926,204.857a12.073,12.073,0,0,0-14.076,9.63L432.112,357.025a12.073,12.073,0,0,0,9.631,14.075L562.8,393.809a12.072,12.072,0,0,0,14.076-9.629l26.738-142.539a12.074,12.074,0,0,0-9.631-14.076" transform="translate(-431.905 -204.649)" fill="#3a7ec1"/>
        </g>
      </g>
    </g>
    <path id="Path_1084" data-name="Path 1084" d="M444.168,166.277l45.669,233.5a11.463,11.463,0,0,1-9.329,13.267L198.435,468.214a11.491,11.491,0,0,1-13.671-8.769L132.574,192.6a11.518,11.518,0,0,1,9.355-13.3L205.3,166.907a11.832,11.832,0,0,1,10.812,3.349l19.073,19.957a11.761,11.761,0,0,0,10.812,3.349l184.529-36.091a11.49,11.49,0,0,1,13.646,8.805" transform="translate(-2.62 -3.112)" fill="#dbe2ef"/>
    <path id="Path_1085" data-name="Path 1085" d="M196,471.248a14.666,14.666,0,0,1-7.933-2.315,13.745,13.745,0,0,1-6.167-9L129.71,193.1a13.786,13.786,0,0,1,2.318-10.668,14.756,14.756,0,0,1,9.294-5.991l63.367-12.395a14.742,14.742,0,0,1,13.43,4.185l19.072,19.952a8.945,8.945,0,0,0,8.193,2.519l184.53-36.09a14.7,14.7,0,0,1,10.857,2.053,13.807,13.807,0,0,1,6.145,9.011l45.669,233.5a13.759,13.759,0,0,1-2.3,10.649A14.717,14.717,0,0,1,481,415.793l-282.073,55.17a15.207,15.207,0,0,1-2.926.285m11.547-301.763a9.21,9.21,0,0,0-1.759.17l-63.367,12.395a9.07,9.07,0,0,0-5.717,3.67A8.122,8.122,0,0,0,135.322,192l52.189,266.841a8.091,8.091,0,0,0,3.639,5.279,9.066,9.066,0,0,0,6.676,1.233L479.9,410.181a9.046,9.046,0,0,0,5.7-3.651,8.1,8.1,0,0,0,1.369-6.26l-45.67-233.5v0a8.138,8.138,0,0,0-3.636-5.3,9.023,9.023,0,0,0-6.655-1.247l-184.53,36.09a14.7,14.7,0,0,1-13.44-4.192L213.98,172.174a8.9,8.9,0,0,0-6.433-2.689" transform="translate(-2.562 -3.054)" fill="#4d7393"/>
    <g id="Group_335" data-name="Group 335" transform="translate(0 161.07)" opacity="0.25" style="mix-blend-mode: multiply;isolation: isolate">
      <g id="Group_334" data-name="Group 334">
        <g id="Group_333" data-name="Group 333" clip-path="url(#clip-path-4)">
          <path id="Path_1086" data-name="Path 1086" d="M274.813,323.663l-117.4-153.418a15.131,15.131,0,0,0-21.188-2.817L5.922,267.138a15.133,15.133,0,0,0-2.817,21.189l117.4,153.416a15.13,15.13,0,0,0,21.188,2.818L272,344.852a15.133,15.133,0,0,0,2.818-21.189" transform="translate(0 -164.322)" fill="#3a7ec1"/>
        </g>
      </g>
    </g>
    <path id="Path_1087" data-name="Path 1087" d="M270.582,329.959l-130.3,99.712a12.253,12.253,0,0,1-17.176-2.284L5.7,273.968a12.252,12.252,0,0,1,2.285-17.176l130.3-99.712a12.252,12.252,0,0,1,17.176,2.285l117.4,153.417a12.252,12.252,0,0,1-2.284,17.176" transform="translate(-0.063 -3.059)" fill="#fff"/>
    <path id="Path_1088" data-name="Path 1088" d="M272.263,332.173l-130.3,99.711a15.13,15.13,0,0,1-21.188-2.816L3.372,275.65A15.133,15.133,0,0,1,6.19,254.461l130.3-99.711a15.132,15.132,0,0,1,21.189,2.818l117.4,153.416a15.131,15.131,0,0,1-2.817,21.188M9.669,259.006a9.4,9.4,0,0,0-1.751,13.165l117.4,153.417a9.4,9.4,0,0,0,13.163,1.751l130.3-99.713a9.4,9.4,0,0,0,1.752-13.162l-117.4-153.417a9.4,9.4,0,0,0-13.164-1.751Z" transform="translate(-0.005 -3.001)" fill="#4d7393"/>
    <path id="Path_1089" data-name="Path 1089" d="M64.875,273.973,49.147,261.91l7.481,18.374q.84,2.1,1.129,3.07a4.153,4.153,0,0,1,.038,2.109,3.571,3.571,0,0,1-1.428,2.039,3.9,3.9,0,0,1-1.836.842,3.422,3.422,0,0,1-1.762-.241,7.959,7.959,0,0,1-1.8-1.063q-.923-.706-1.7-1.32L31.995,271.883a12.548,12.548,0,0,1-2.113-1.974,2.8,2.8,0,0,1-.579-2.189,2.963,2.963,0,0,1,1.2-1.984,2.444,2.444,0,0,1,2.573-.543,12.751,12.751,0,0,1,2.845,1.962l14.646,12.259-6.881-16.694a28.067,28.067,0,0,1-1.109-2.99,4.39,4.39,0,0,1-.026-2.255,3.924,3.924,0,0,1,1.56-2.154,3.719,3.719,0,0,1,2.5-.91,4.337,4.337,0,0,1,2.046.614q.845.532,2.623,1.886l14.35,10.978L57.616,250.55a22.186,22.186,0,0,1-.931-2.166,3.66,3.66,0,0,1-.156-1.744,2.632,2.632,0,0,1,1.133-1.69,3,3,0,0,1,2.212-.638,2.781,2.781,0,0,1,1.977,1.133A13.627,13.627,0,0,1,63.2,248l8.84,20.294q.891,2.06,1.221,3.083a4.256,4.256,0,0,1,.11,2.15,3.539,3.539,0,0,1-1.465,2.08,3.591,3.591,0,0,1-2.334.855,3.991,3.991,0,0,1-2-.569q-.84-.523-2.7-1.92" transform="translate(-0.579 -4.835)" fill="#52d1bd"/>
    <path id="Path_1090" data-name="Path 1090" d="M115.191,269.61,64.818,308.157a4.262,4.262,0,0,1-5.179-6.769l50.373-38.547a4.261,4.261,0,1,1,5.179,6.768" transform="translate(-1.147 -5.185)" fill="#bacce5"/>
    <path id="Path_1091" data-name="Path 1091" d="M183.155,243.621,77.786,324.254a4.262,4.262,0,1,1-5.18-6.768l105.37-80.633a4.261,4.261,0,1,1,5.179,6.768" transform="translate(-1.404 -4.67)" fill="#e4ecf9"/>
    <path id="Path_1092" data-name="Path 1092" d="M195.89,260.262,90.521,340.895a4.262,4.262,0,0,1-5.18-6.768l105.371-80.634a4.262,4.262,0,1,1,5.179,6.769" transform="translate(-1.656 -5)" fill="#e4ecf9"/>
    <path id="Path_1093" data-name="Path 1093" d="M208.624,276.9l-105.37,80.633a4.262,4.262,0,0,1-5.18-6.768l105.37-80.633a4.262,4.262,0,1,1,5.18,6.768" transform="translate(-1.908 -5.329)" fill="#e4ecf9"/>
    <path id="Path_1094" data-name="Path 1094" d="M221.359,293.544,115.99,374.177a4.262,4.262,0,0,1-5.18-6.768l105.37-80.634a4.262,4.262,0,1,1,5.179,6.769" transform="translate(-2.16 -5.658)" fill="#e4ecf9"/>
    <path id="Path_1095" data-name="Path 1095" d="M234.093,310.185l-105.37,80.633a4.262,4.262,0,1,1-5.18-6.768l105.37-80.634a4.262,4.262,0,1,1,5.179,6.769" transform="translate(-2.412 -5.988)" fill="#e4ecf9"/>
    <path id="Path_1096" data-name="Path 1096" d="M246.828,326.826l-105.37,80.633a4.262,4.262,0,1,1-5.18-6.768l105.371-80.634a4.262,4.262,0,0,1,5.179,6.769" transform="translate(-2.664 -6.317)" fill="#e4ecf9"/>
    <g id="Group_338" data-name="Group 338" transform="translate(129.752 59.239)" opacity="0.25" style="mix-blend-mode: multiply;isolation: isolate">
      <g id="Group_337" data-name="Group 337">
        <g id="Group_336" data-name="Group 336" clip-path="url(#clip-path-5)">
          <path id="Path_1097" data-name="Path 1097" d="M370.482,258.283,320.6,71.65a15.132,15.132,0,0,0-18.5-10.7L143.586,103.313a15.134,15.134,0,0,0-10.7,18.505l49.879,186.633a15.133,15.133,0,0,0,18.505,10.7l158.513-42.365a15.131,15.131,0,0,0,10.7-18.5" transform="translate(-132.372 -60.435)" fill="#3a7ec1"/>
        </g>
      </g>
    </g>
    <path id="Path_1098" data-name="Path 1098" d="M362.921,238.656,204.409,281.02a12.253,12.253,0,0,1-15-8.674L139.53,85.712a12.251,12.251,0,0,1,8.674-15L306.715,28.349a12.252,12.252,0,0,1,15,8.674l49.88,186.634a12.253,12.253,0,0,1-8.674,15" transform="translate(-2.753 -0.553)" fill="#fff"/>
    <path id="Path_1099" data-name="Path 1099" d="M363.6,241.364,205.09,283.727a15.132,15.132,0,0,1-18.5-10.7L136.706,86.394a15.132,15.132,0,0,1,10.7-18.5L305.919,25.526a15.132,15.132,0,0,1,18.5,10.7L374.3,222.858a15.133,15.133,0,0,1-10.7,18.505M148.884,73.42a9.4,9.4,0,0,0-6.648,11.5l49.88,186.634a9.4,9.4,0,0,0,11.5,6.648l158.514-42.364a9.4,9.4,0,0,0,6.647-11.5L318.893,37.7a9.4,9.4,0,0,0-11.5-6.647Z" transform="translate(-2.695 -0.495)" fill="#4d7393"/>
    <rect id="Rectangle_80" data-name="Rectangle 80" width="29.033" height="82.093" transform="matrix(0.966, -0.258, 0.258, 0.966, 161.965, 94.814)" fill="#bacce5"/>
    <rect id="Rectangle_81" data-name="Rectangle 81" width="29.033" height="58.111" transform="translate(205.468 108.012) rotate(-14.964)" fill="#e4ecf9"/>
    <rect id="Rectangle_82" data-name="Rectangle 82" width="29.033" height="41.456" transform="matrix(0.966, -0.258, 0.258, 0.966, 247.081, 114.129)" fill="#52d1bd"/>
    <rect id="Rectangle_83" data-name="Rectangle 83" width="29.033" height="70.906" transform="matrix(0.966, -0.258, 0.258, 0.966, 276.79, 75.706)" fill="#e4ecf9"/>
    <path id="Path_1100" data-name="Path 1100" d="M278.319,179.84,197.6,201.412a4.105,4.105,0,1,1-2.12-7.932L276.2,171.908a4.105,4.105,0,1,1,2.12,7.932" transform="translate(-3.809 -3.399)" fill="#e4ecf9"/>
    <path id="Path_1101" data-name="Path 1101" d="M334.6,184.35,202.549,219.642a4.105,4.105,0,0,1-2.12-7.932l132.053-35.292a4.105,4.105,0,1,1,2.12,7.932" transform="translate(-3.906 -3.489)" fill="#e4ecf9"/>
    <path id="Path_1102" data-name="Path 1102" d="M339.548,202.858,207.5,238.15a4.105,4.105,0,0,1-2.12-7.932l132.053-35.292a4.105,4.105,0,1,1,2.12,7.932" transform="translate(-4.004 -3.855)" fill="#e4ecf9"/>
    <path id="Path_1103" data-name="Path 1103" d="M344.495,221.366,212.442,256.658a4.105,4.105,0,0,1-2.12-7.932l132.053-35.292a4.105,4.105,0,1,1,2.12,7.932" transform="translate(-4.102 -4.221)" fill="#e4ecf9"/>
    <path id="Path_1104" data-name="Path 1104" d="M562.387,379.072,441.327,356.364a9.2,9.2,0,0,1-7.345-10.736l26.737-142.538a9.2,9.2,0,0,1,10.735-7.345l121.062,22.708a9.2,9.2,0,0,1,7.345,10.736L573.123,371.728a9.2,9.2,0,0,1-10.736,7.345" transform="translate(-8.586 -3.871)" fill="#fff"/>
    <path id="Path_1105" data-name="Path 1105" d="M561.8,381.828,440.74,359.119a12.075,12.075,0,0,1-9.63-14.077L457.848,202.5a12.075,12.075,0,0,1,14.077-9.63l121.062,22.709a12.074,12.074,0,0,1,9.63,14.077L575.879,372.2a12.073,12.073,0,0,1-14.076,9.63M470.869,198.5a6.341,6.341,0,0,0-7.395,5.059L436.737,346.1a6.341,6.341,0,0,0,5.059,7.395L562.858,376.2a6.343,6.343,0,0,0,7.4-5.059L596.99,228.6a6.34,6.34,0,0,0-5.059-7.395Z" transform="translate(-8.528 -3.813)" fill="#4d7393"/>
    <path id="Path_1106" data-name="Path 1106" d="M522.132,268.062l.215.04a10.793,10.793,0,0,0,12.6-8.618l3.517-18.749a10.793,10.793,0,0,0-8.619-12.6l-.214-.041a10.8,10.8,0,0,0-12.6,8.619l-3.516,18.748a10.793,10.793,0,0,0,8.618,12.6" transform="translate(-10.159 -4.511)" fill="#bacce5"/>
    <path id="Path_1107" data-name="Path 1107" d="M534.768,273.478a18.643,18.643,0,0,0,7.849-12.029,2,2,0,0,0-3.937-.738A14.761,14.761,0,0,1,521.451,272.5l-.215-.04a14.763,14.763,0,0,1-11.787-17.23,2,2,0,1,0-3.936-.738,18.769,18.769,0,0,0,13.142,21.462l-2.524,13.456-8.747-1.641a2,2,0,1,0-.738,3.936l21.43,4.02a2,2,0,1,0,.738-3.936l-8.746-1.641,2.524-13.456a18.619,18.619,0,0,0,12.177-3.211" transform="translate(-9.995 -5.004)" fill="#bacce5"/>
    <path id="Path_1108" data-name="Path 1108" d="M500.115,307.6l-35.615-6.68a3.2,3.2,0,0,1,1.179-6.289l35.615,6.68a3.2,3.2,0,1,1-1.179,6.289" transform="translate(-9.141 -5.83)" fill="#e4ecf9"/>
    <path id="Path_1109" data-name="Path 1109" d="M559.873,334.217,461.707,315.8a3.2,3.2,0,1,1,1.18-6.289l98.165,18.413a3.2,3.2,0,1,1-1.179,6.289" transform="translate(-9.086 -6.125)" fill="#e4ecf9"/>
    <path id="Path_1110" data-name="Path 1110" d="M557.419,347.3l-98.166-18.413a3.2,3.2,0,0,1,1.18-6.289L558.6,341.011a3.2,3.2,0,1,1-1.179,6.289" transform="translate(-9.038 -6.384)" fill="#e4ecf9"/>
    <path id="Path_1111" data-name="Path 1111" d="M554.965,360.382,456.8,341.969a3.2,3.2,0,0,1,1.18-6.289l98.165,18.413a3.2,3.2,0,1,1-1.179,6.289" transform="translate(-8.989 -6.642)" fill="#e4ecf9"/>
    <g id="Group_341" data-name="Group 341" transform="translate(324.23 76.095)" opacity="0.25" style="mix-blend-mode: multiply;isolation: isolate">
      <g id="Group_340" data-name="Group 340">
        <g id="Group_339" data-name="Group 339" clip-path="url(#clip-path-6)">
          <path id="Path_1112" data-name="Path 1112" d="M497.5,87.93,357.2,77.667a13.384,13.384,0,0,0-14.306,12.356L330.812,255.215a13.383,13.383,0,0,0,12.355,14.308l140.3,10.262a13.381,13.381,0,0,0,14.306-12.357l12.083-165.193A13.38,13.38,0,0,0,497.5,87.93" transform="translate(-330.776 -77.631)" fill="#3a7ec1"/>
        </g>
      </g>
    </g>
    <g id="Group_344" data-name="Group 344" transform="translate(342.633 63.429)" opacity="0.25" style="mix-blend-mode: multiply;isolation: isolate">
      <g id="Group_343" data-name="Group 343">
        <g id="Group_342" data-name="Group 342" clip-path="url(#clip-path-7)">
          <path id="Path_1113" data-name="Path 1113" d="M516.28,75.008l-140.3-10.263A13.382,13.382,0,0,0,361.67,77.1L349.587,242.293A13.384,13.384,0,0,0,361.943,256.6l140.3,10.263a13.384,13.384,0,0,0,14.306-12.358L528.635,89.314A13.381,13.381,0,0,0,516.28,75.008" transform="translate(-349.551 -64.71)" fill="#3a7ec1"/>
        </g>
      </g>
    </g>
    <path id="Path_1114" data-name="Path 1114" d="M495.665,260.1l-140.3-10.263a10.5,10.5,0,0,1-9.71-11.243L357.736,73.4a10.505,10.505,0,0,1,11.243-9.711l140.3,10.263A10.505,10.505,0,0,1,518.992,85.2L506.908,250.391a10.5,10.5,0,0,1-11.243,9.711" transform="translate(-6.84 -1.26)" fill="#fff"/>
    <path id="Path_1115" data-name="Path 1115" d="M495.4,262.9,355.1,252.637a13.383,13.383,0,0,1-12.356-14.307L354.823,73.137a13.382,13.382,0,0,1,14.306-12.356l140.3,10.262a13.382,13.382,0,0,1,12.355,14.306L509.705,250.542A13.383,13.383,0,0,1,495.4,262.9M368.712,66.49a7.65,7.65,0,0,0-8.179,7.064L348.45,238.747a7.652,7.652,0,0,0,7.063,8.181l140.3,10.263a7.653,7.653,0,0,0,8.18-7.066L516.079,84.932a7.651,7.651,0,0,0-7.064-8.179Z" transform="translate(-6.783 -1.202)" fill="#4d7393"/>
    <path id="Path_1116" data-name="Path 1116" d="M458.413,104.525,431.8,134.814,409.035,117.35l-37.472,39.162,122.8,8.982Z" transform="translate(-7.354 -2.069)" fill="#bacce5"/>
    <path id="Path_1117" data-name="Path 1117" d="M409.035,117.609,431.8,135.074l16.891,27.339-77.129-5.642Z" transform="translate(-7.354 -2.328)" fill="#e4ecf9"/>
    <path id="Path_1118" data-name="Path 1118" d="M436.171,108.019a7.022,7.022,0,1,1-6.491-7.516,7.024,7.024,0,0,1,6.491,7.516" transform="translate(-8.355 -1.989)" fill="#52d1bd"/>
    <path id="Path_1119" data-name="Path 1119" d="M410.775,183.532l-37.255-2.725a3.654,3.654,0,1,1,.533-7.289l37.255,2.725a3.654,3.654,0,0,1-.533,7.289" transform="translate(-7.325 -3.434)" fill="#bacce5"/>
    <path id="Path_1120" data-name="Path 1120" d="M487.718,207.147,372.212,198.7a3.654,3.654,0,0,1,.533-7.289l115.507,8.448a3.654,3.654,0,1,1-.533,7.289" transform="translate(-7.299 -3.788)" fill="#e4ecf9"/>
    <path id="Path_1121" data-name="Path 1121" d="M486.6,222.483l-115.507-8.448a3.654,3.654,0,0,1,.533-7.289l115.507,8.448a3.654,3.654,0,1,1-.533,7.289" transform="translate(-7.277 -4.092)" fill="#e4ecf9"/>
    <path id="Path_1122" data-name="Path 1122" d="M485.475,237.819l-115.507-8.448a3.654,3.654,0,1,1,.533-7.289l115.507,8.449a3.654,3.654,0,1,1-.533,7.288" transform="translate(-7.255 -4.395)" fill="#e4ecf9"/>
    <g id="Group_347" data-name="Group 347" transform="translate(111.152 170.28)" opacity="0.25" style="mix-blend-mode: multiply;isolation: isolate">
      <g id="Group_346" data-name="Group 346">
        <g id="Group_345" data-name="Group 345" clip-path="url(#clip-path-8)">
          <path id="Path_1123" data-name="Path 1123" d="M486.751,403.507,470.534,190.6a18.266,18.266,0,0,0-21.722-16.541L221.343,218.55A18.252,18.252,0,0,0,207,232.608l-4.251,19.613a12.542,12.542,0,0,1-9.857,9.658L128.155,274.54a18.27,18.27,0,0,0-13.889,23.506l53.8,167.79a18.258,18.258,0,0,0,20.9,12.351l283.07-55.364a18.266,18.266,0,0,0,14.708-19.316" transform="translate(-113.396 -173.718)" fill="#3a7ec1"/>
        </g>
      </g>
    </g>
    <path id="Path_1124" data-name="Path 1124" d="M478.322,190.877l16.217,212.906a15.41,15.41,0,0,1-12.407,16.293L199.064,475.44a15.409,15.409,0,0,1-17.631-10.417l-53.8-167.79a15.408,15.408,0,0,1,11.715-19.828l64.732-12.66a15.411,15.411,0,0,0,12.1-11.859l4.252-19.614a15.408,15.408,0,0,1,12.1-11.858L460,176.925a15.409,15.409,0,0,1,18.322,13.952" transform="translate(-2.511 -3.496)" fill="#dbe2ef"/>
    <path id="Path_1125" data-name="Path 1125" d="M196.039,478.531a18.273,18.273,0,0,1-17.387-12.693l-53.806-167.79a18.272,18.272,0,0,1,13.89-23.506l64.733-12.66a12.542,12.542,0,0,0,9.856-9.659l4.252-19.613a18.25,18.25,0,0,1,14.347-14.058l227.468-44.49A18.267,18.267,0,0,1,481.114,190.6l16.217,212.906a18.268,18.268,0,0,1-14.708,19.317L199.554,478.19a18.3,18.3,0,0,1-3.515.341m266.856-299.09a12.528,12.528,0,0,0-2.4.233l-227.468,44.49a12.539,12.539,0,0,0-9.857,9.656l-4.251,19.615a18.251,18.251,0,0,1-14.347,14.058l-64.733,12.661a12.548,12.548,0,0,0-9.541,16.148l53.8,167.789a12.553,12.553,0,0,0,14.357,8.486l283.07-55.364a12.552,12.552,0,0,0,10.105-13.268L475.413,191.037a12.551,12.551,0,0,0-12.518-11.6" transform="translate(-2.454 -3.438)" fill="#4d7393"/>
    <g id="Group_350" data-name="Group 350" transform="translate(420.526 341.388)" opacity="0.25" style="mix-blend-mode: multiply;isolation: isolate">
      <g id="Group_349" data-name="Group 349">
        <g id="Group_348" data-name="Group 348" clip-path="url(#clip-path-9)">
          <path id="Path_1126" data-name="Path 1126" d="M490.75,348.281a61.733,61.733,0,1,0,61.731,61.733,61.8,61.8,0,0,0-61.731-61.733" transform="translate(-429.017 -348.281)" fill="#3a7ec1"/>
        </g>
      </g>
    </g>
    <path id="Path_1127" data-name="Path 1127" d="M554.944,401.825a58.871,58.871,0,1,1-58.871-58.871,58.872,58.872,0,0,1,58.871,58.871" transform="translate(-8.653 -6.787)" fill="#fff"/>
    <path id="Path_1128" data-name="Path 1128" d="M496.015,463.5a61.734,61.734,0,1,1,61.733-61.734A61.805,61.805,0,0,1,496.015,463.5m0-117.743a56.009,56.009,0,1,0,56.009,56.009,56.072,56.072,0,0,0-56.009-56.009" transform="translate(-8.595 -6.73)" fill="#4d7393"/>
    <path id="Path_1129" data-name="Path 1129" d="M526.336,395.574H503.882V373.119a2.706,2.706,0,0,0-2.705-2.705H493a2.705,2.705,0,0,0-2.705,2.705v22.455H467.838a2.705,2.705,0,0,0-2.705,2.705v8.177a2.7,2.7,0,0,0,2.705,2.705h22.456v22.455A2.7,2.7,0,0,0,493,434.322h8.177a2.705,2.705,0,0,0,2.705-2.705V409.162h22.455a2.705,2.705,0,0,0,2.705-2.705v-8.177a2.706,2.706,0,0,0-2.705-2.705" transform="translate(-9.206 -7.331)" fill="#52d1bd"/>
    <path id="Path_1130" data-name="Path 1130" d="M617.015,135.284a16.9,16.9,0,1,1-16.9-16.9,16.9,16.9,0,0,1,16.9,16.9" transform="translate(-11.542 -2.343)" fill="#52d1bd"/>
    <path id="Path_1131" data-name="Path 1131" d="M646.648,417.646A11.951,11.951,0,1,1,634.7,405.7a11.951,11.951,0,0,1,11.951,11.951" transform="translate(-12.325 -8.029)" fill="#52d1bd"/>
    <path id="Path_1132" data-name="Path 1132" d="M273.246,522.04A15.648,15.648,0,1,1,257.6,506.392a15.648,15.648,0,0,1,15.648,15.648" transform="translate(-4.788 -10.022)" fill="#bacce5"/>
    <path id="Path_1133" data-name="Path 1133" d="M103.4,138.771a10.046,10.046,0,1,1-10.045-10.045A10.046,10.046,0,0,1,103.4,138.771" transform="translate(-1.649 -2.548)" fill="#bacce5"/>
  </g>
</svg>
