<svg xmlns="http://www.w3.org/2000/svg" width="70" height="70" viewBox="0 0 70 70">
  <g id="vuesax_twotone_presention-chart" data-name="vuesax/twotone/presention-chart" transform="translate(-364 -252)">
    <g id="presention-chart" transform="translate(364 252)">
      <path id="Vector" d="M8.488,43.75H44.042c5.542,0,8.458-2.917,8.458-8.458V0H0V35.292C.029,40.833,2.946,43.75,8.488,43.75Z" transform="translate(8.721 5.833)" fill="none" stroke="#5d5d5d" stroke-linecap="round" stroke-linejoin="round" stroke-width="3"/>
      <path id="Vector-2" data-name="Vector" d="M0,0H58.333" transform="translate(5.833 5.833)" fill="none" stroke="#5d5d5d" stroke-linecap="round" stroke-linejoin="round" stroke-width="3"/>
      <g id="Group_78" data-name="Group 78" transform="translate(23.333 49.583)" opacity="0.4">
        <path id="Vector-3" data-name="Vector" d="M0,14.583,11.667,8.75V0" fill="none" stroke="#09bb8b" stroke-linecap="round" stroke-linejoin="round" stroke-width="3"/>
        <path id="Vector-4" data-name="Vector" d="M4,3,15.667,8.833" transform="translate(7.667 5.75)" fill="none" stroke="#09bb8b" stroke-linecap="round" stroke-linejoin="round" stroke-width="3"/>
      </g>
      <path id="Vector-5" data-name="Vector" d="M0,8.75,9.187,1.079a1.406,1.406,0,0,1,2.187.379l3.5,5.833a1.424,1.424,0,0,0,2.188.379L26.25,0" transform="translate(21.875 23.333)" fill="none" stroke="#09bb8b" stroke-linecap="round" stroke-linejoin="round" stroke-width="3" opacity="0.4"/>
      <path id="Vector-6" data-name="Vector" d="M0,0H70V70H0Z" fill="none" opacity="0"/>
    </g>
  </g>
</svg>
