<svg id="document-favorite" xmlns="http://www.w3.org/2000/svg" width="59.106" height="59.106" viewBox="0 0 59.106 59.106">
  <path id="Vector" d="M49.255,19.7V32.016c0,12.314-4.925,17.239-17.239,17.239H17.239C4.925,49.255,0,44.329,0,32.016V17.239C0,4.925,4.925,0,17.239,0H29.553" transform="translate(4.925 4.925)" fill="none" stroke="#ecf3fe" stroke-linecap="round" stroke-linejoin="round" stroke-width="3"/>
  <path id="Vector-2" data-name="Vector" d="M19.7,19.7H9.851C2.463,19.7,0,17.239,0,9.851V0Z" transform="translate(34.478 4.925)" fill="none" stroke="#ecf3fe" stroke-linecap="round" stroke-linejoin="round" stroke-width="3"/>
  <path id="Vector-3" data-name="Vector" d="M.281,6.712C-.532,4.176.428,1.048,3.063.186A3.656,3.656,0,0,1,7.152,1.466,3.571,3.571,0,0,1,11.24.186c2.66.862,3.6,3.99,2.808,6.526-1.256,4.014-5.664,6.108-6.9,6.108C5.945,12.8,1.586,10.751.281,6.712Z" transform="translate(16.023 32.027)" fill="none" stroke="#a8fff1" stroke-linecap="round" stroke-linejoin="round" stroke-width="3" opacity="0.4"/>
  <path id="Vector-4" data-name="Vector" d="M0,0H59.106V59.106H0Z" fill="none" opacity="0"/>
</svg>
