<svg xmlns="http://www.w3.org/2000/svg" width="210.728" height="152.808" viewBox="0 0 210.728 152.808">
  <g id="Group_241" data-name="Group 241" transform="translate(0 0)">
    <path id="Path_800" data-name="Path 800" d="M6470.972,2197.567c-33.3-1.824-80.959,6.632-88.125,26.959-4.437,12.587,6.6,29.854,19.395,38.336,17.531,11.624,38.7,6.979,46.56,22.172,1.617,3.128.9,3.672,2.451,10.324,1.541,6.611,9.7,41.6,37.7,51.856,10.983,4.023,21.337,2.89,25.827,2.351,35-4.2,72.83-38.07,76.364-69.6C6596.4,2232.962,6524.445,2200.5,6470.972,2197.567Z" transform="translate(-6380.684 -2197.325)" fill="#52d1bd" opacity="0.14"/>
    <path id="Path_801" data-name="Path 801" d="M6510.48,2597.942l.513,3.981s.064,1.605,1.477,1.734,75.168,8.1,75.168,8.1Z" transform="translate(-6467.032 -2466.249)" fill="#3a7ec1" opacity="0.2" style="mix-blend-mode: multiply;isolation: isolate"/>
    <path id="Path_802" data-name="Path 802" d="M6389.9,2442.212l-.093-14.729.77,0,.086,13.444,24.966-13.527-25.118-10.353.027,4.338-.771,0-.035-5.5,27.689,11.412Z" transform="translate(-6385.975 -2344.042)" fill="#444"/>
    <circle id="Ellipse_31" data-name="Ellipse 31" cx="20.589" cy="20.589" r="20.589" transform="translate(6.199 108.088) rotate(-86.736)" fill="#3a7ec1" opacity="0.2" style="mix-blend-mode: multiply;isolation: isolate"/>
    <g id="Group_225" data-name="Group 225" transform="translate(0 56.81)">
      <circle id="Ellipse_32" data-name="Ellipse 32" cx="20.589" cy="20.589" r="20.589" transform="translate(0 29.118) rotate(-45)" fill="#52d1bd"/>
      <path id="Path_803" data-name="Path 803" d="M6443.109,2440.821l4.333,3.819a1.579,1.579,0,0,0,2.619-1.077l.4-5.763a1.579,1.579,0,0,1,.771-1.251l4.971-2.942a1.579,1.579,0,0,0-.214-2.823l-5.359-2.156a1.578,1.578,0,0,1-.951-1.12l-1.262-5.637a1.579,1.579,0,0,0-2.752-.668l-3.707,4.43a1.58,1.58,0,0,1-1.359.559l-5.75-.542a1.579,1.579,0,0,0-1.486,2.411l3.068,4.894a1.579,1.579,0,0,1,.112,1.465l-2.292,5.3a1.579,1.579,0,0,0,1.833,2.158l5.6-1.406A1.581,1.581,0,0,1,6443.109,2440.821Z" transform="translate(-6415.097 -2404.038)" fill="#fff"/>
    </g>
    <path id="Path_804" data-name="Path 804" d="M6645.588,2400.909c-3.576,8.834-15.231,37.607-21.207,52.07-.6,1.458-1.148,2.77-1.62,3.9a29.731,29.731,0,0,1-1.8,3.625,21.5,21.5,0,0,1-2.712,3.7,13.634,13.634,0,0,1-10.435,4.762.008.008,0,0,1-.01,0h-.019a8.41,8.41,0,0,1-1.6-.173l-1.954-.534-14.091-3.845-49.648-13.55,14.311-39.006,1.077-2.963,7.95-21.9a2.7,2.7,0,0,1,2.968-1.739l56.792,9.25,5.727.934,14.526,2.365A2.273,2.273,0,0,1,6645.588,2400.909Z" transform="translate(-6487.181 -2323.458)" fill="#3eb59e"/>
    <path id="Path_805" data-name="Path 805" d="M6532.371,2342.568l-16.43-81.185a4.156,4.156,0,0,0-4.9-3.248l-64.234,13a4.155,4.155,0,0,0-3.249,4.9l16.43,81.185a4.156,4.156,0,0,0,4.9,3.249l64.234-13A4.155,4.155,0,0,0,6532.371,2342.568Z" transform="translate(-6422.054 -2238.089)" fill="#3a7ec1" opacity="0.2" style="mix-blend-mode: multiply;isolation: isolate"/>
    <path id="Path_806" data-name="Path 806" d="M6479.4,2332.259a4.549,4.549,0,0,1-4.449-3.64l-16.43-81.185a4.541,4.541,0,0,1,3.55-5.351l64.233-13a4.547,4.547,0,0,1,5.351,3.55l16.43,81.185a4.546,4.546,0,0,1-3.55,5.351l-64.234,13A4.535,4.535,0,0,1,6479.4,2332.259Zm47.806-102.5a3.789,3.789,0,0,0-.748.075l-64.234,13a3.769,3.769,0,0,0-2.947,4.443l16.43,81.185a3.77,3.77,0,0,0,4.443,2.947l64.233-13a3.775,3.775,0,0,0,2.949-4.443l-16.431-81.185A3.777,3.777,0,0,0,6527.2,2229.763Z" transform="translate(-6432.088 -2218.583)" fill="#444"/>
    <g id="Group_230" data-name="Group 230" transform="translate(23.507 15.397)">
      <path id="Path_807" data-name="Path 807" d="M6535.459,2333.578l-64.234,13a4.155,4.155,0,0,1-4.9-3.249l-16.43-81.185a4.156,4.156,0,0,1,3.249-4.9l64.234-13a4.157,4.157,0,0,1,4.9,3.249l16.429,81.185A4.154,4.154,0,0,1,6535.459,2333.578Z" transform="translate(-6449.815 -2244.164)" fill="#fff"/>
      <g id="Group_229" data-name="Group 229" transform="translate(4.772 13.648)">
        <circle id="Ellipse_33" data-name="Ellipse 33" cx="12.09" cy="12.09" r="12.09" transform="translate(0 13.406) rotate(-33.672)" fill="#ecf3fe"/>
        <g id="Group_228" data-name="Group 228" transform="translate(10.009 7.164)">
          <path id="Path_808" data-name="Path 808" d="M6514.062,2352.4a9.518,9.518,0,0,1-1.86,1.655,9.3,9.3,0,0,1-1.107.65,9.4,9.4,0,0,1-1.279.527,9.705,9.705,0,0,1-2.259.458,9.573,9.573,0,0,1-5.014-.956,5.577,5.577,0,0,1,2.761-3.321h0a5.185,5.185,0,0,1,.72-.308l.03-.011a5.433,5.433,0,0,1,.68-.184l1.971-.4a5.369,5.369,0,0,1,.7-.095.155.155,0,0,1,.032,0,5.245,5.245,0,0,1,.784,0h0A5.571,5.571,0,0,1,6514.062,2352.4Z" transform="translate(-6499.99 -2336.289)" fill="#727272"/>
          <path id="Path_809" data-name="Path 809" d="M6506.752,2311.891l1.288,6.353a2.585,2.585,0,0,1-2.02,3.047l-5.971,1.21a2.585,2.585,0,0,1-3.046-2.021l-1.288-6.353c-1.144-5.642,4.426-6.506,4.426-6.506a6.7,6.7,0,0,1,2.969.043,4.79,4.79,0,0,1,3.513,3.692C6506.671,2311.526,6506.715,2311.7,6506.752,2311.891Z" transform="translate(-6495.305 -2307.475)" fill="#302f2f"/>
          <path id="Path_810" data-name="Path 810" d="M6515.9,2345.129l.379,1.868a1.765,1.765,0,0,1-3.41.691l-.378-1.868a1.314,1.314,0,0,1,.174-.943,1.562,1.562,0,0,1,.135-.193,1.721,1.721,0,0,1,.34-.32,2.012,2.012,0,0,1,1.6-.323,1.757,1.757,0,0,1,.437.161l.021.011a1.548,1.548,0,0,1,.179.115A1.316,1.316,0,0,1,6515.9,2345.129Z" transform="translate(-6506.649 -2331.989)" fill="#f4b698"/>
          <path id="Path_811" data-name="Path 811" d="M6508.709,2318.449l.551,2.721a4.553,4.553,0,0,1-2.078,4.769l.146.717a4.476,4.476,0,0,1-1.468.579l-.365.074a4.488,4.488,0,0,1-1.578.038l-.145-.718a4.555,4.555,0,0,1-3.77-3.583l-.551-2.72A4.553,4.553,0,0,1,6503,2315l.365-.074a4.515,4.515,0,0,1,2.961.41h0A4.538,4.538,0,0,1,6508.709,2318.449Z" transform="translate(-6497.858 -2312.415)" opacity="0.28"/>
          <path id="Path_812" data-name="Path 812" d="M6508.273,2316.287l.692,3.417a4.509,4.509,0,0,1-.276,2.68l0,0a4.68,4.68,0,0,1-.282.549,4.569,4.569,0,0,1-1.514,1.536,4.49,4.49,0,0,1-1.468.579l-.365.074a4.472,4.472,0,0,1-1.576.039,4.554,4.554,0,0,1-3.771-3.584l-.689-3.4c-.01-.047-.018-.094-.025-.142a4.547,4.547,0,0,1,3.567-5.224l.364-.074a4.5,4.5,0,0,1,2.869.366,4.548,4.548,0,0,1,1.241.882,4.5,4.5,0,0,1,1.237,2.3Z" transform="translate(-6497.564 -2310.95)" fill="#f4b698"/>
          <g id="Group_226" data-name="Group 226" transform="translate(10.713 5.319)">
            <path id="Path_813" data-name="Path 813" d="M6529.512,2325.113a1.817,1.817,0,0,1-1.419,2.142l-.723-3.562a1.814,1.814,0,0,1,.725,0h0A1.817,1.817,0,0,1,6529.512,2325.113Z" transform="translate(-6527.37 -2323.656)" fill="#f4b698"/>
            <path id="Path_814" data-name="Path 814" d="M6529.115,2326.664a1.126,1.126,0,0,1-.879,1.326l-.447-2.206A1.126,1.126,0,0,1,6529.115,2326.664Z" transform="translate(-6527.651 -2325.07)" fill="#e29586"/>
          </g>
          <path id="Path_815" data-name="Path 815" d="M6515.861,2350.447h0l-.409,4.816a9.705,9.705,0,0,1-2.259.458l-2.252-4.276h0l.941-.191.041.028,1.8,1.235,1.177-1.838.026-.041Z" transform="translate(-6505.627 -2336.321)" fill="#565656"/>
          <g id="Group_227" data-name="Group 227" transform="translate(0 7.232)">
            <path id="Path_816" data-name="Path 816" d="M6496.236,2329.475l.722,3.562a1.818,1.818,0,0,1-1.112-3.436c.026-.012.053-.024.08-.033l.044-.015A1.722,1.722,0,0,1,6496.236,2329.475Z" transform="translate(-6494.78 -2329.475)" fill="#f4b698"/>
            <path id="Path_817" data-name="Path 817" d="M6496.908,2332.864a1.126,1.126,0,0,0,1.326.88l-.447-2.206A1.124,1.124,0,0,0,6496.908,2332.864Z" transform="translate(-6496.194 -2330.86)" fill="#e29586"/>
          </g>
          <path id="Path_818" data-name="Path 818" d="M6529.495,2361.521a9.207,9.207,0,0,1-1.107.65l-.083-.409Z" transform="translate(-6517.285 -2343.755)" fill="#565656"/>
          <path id="Path_819" data-name="Path 819" d="M6519.393,2352.516l1.513.67.63-2.74Z" transform="translate(-6511.302 -2336.321)" fill="#363636" opacity="0.2"/>
          <path id="Path_820" data-name="Path 820" d="M6521.536,2350.336l-.67,2.657-1.473-.587,1.2-1.879.157-.244Z" transform="translate(-6511.302 -2336.211)" fill="#eee"/>
          <path id="Path_821" data-name="Path 821" d="M6510.941,2353.48l1.634,2.281,1.145-1.209Z" transform="translate(-6505.628 -2338.357)" fill="#363636" opacity="0.2"/>
          <path id="Path_822" data-name="Path 822" d="M6513.719,2353.828l-1.126,1.114-1.652-2.186.7-.354.239.164Z" transform="translate(-6505.628 -2337.633)" fill="#eee"/>
          <path id="Path_823" data-name="Path 823" d="M6522.348,2313.008c-3.27.912-3.562-2.155-3.514-3.691A4.789,4.789,0,0,1,6522.348,2313.008Z" transform="translate(-6510.924 -2308.711)" fill="#302f2f"/>
          <path id="Path_824" data-name="Path 824" d="M6504.974,2311.364c-.077.206-.8,2.5-2.862,2.914s-5.077,2.316-4.762,4.386-3.847-5.738,2.274-7.653S6504.974,2311.364,6504.974,2311.364Z" transform="translate(-6495.772 -2309.333)" fill="#302f2f"/>
        </g>
      </g>
      <path id="Path_825" data-name="Path 825" d="M6564.829,2298.057l-2.917-14.416,30.738-6.22,2.917,14.416Zm-1.21-13.284,2.343,11.576,27.9-5.646-2.342-11.576Z" transform="translate(-6525.063 -2266.489)" fill="#ecf3fe"/>
      <path id="Path_826" data-name="Path 826" d="M6577.546,2351.5h0a2.18,2.18,0,0,1-2.561-1.7h0a2.179,2.179,0,0,1,1.7-2.561h0a2.18,2.18,0,0,1,2.562,1.7h0A2.179,2.179,0,0,1,6577.546,2351.5Z" transform="translate(-6533.809 -2313.324)" fill="#52d1bd"/>
      <path id="Path_827" data-name="Path 827" d="M6597.074,2347.543h0a2.181,2.181,0,0,1-2.562-1.7h0a2.18,2.18,0,0,1,1.7-2.561h0a2.18,2.18,0,0,1,2.562,1.7h0A2.18,2.18,0,0,1,6597.074,2347.543Z" transform="translate(-6546.918 -2310.671)" fill="#52d1bd"/>
      <path id="Path_828" data-name="Path 828" d="M6616.6,2343.591h0a2.18,2.18,0,0,1-2.562-1.7h0a2.181,2.181,0,0,1,1.7-2.561h0a2.18,2.18,0,0,1,2.562,1.7h0A2.18,2.18,0,0,1,6616.6,2343.591Z" transform="translate(-6560.026 -2308.018)" fill="#52d1bd"/>
      <path id="Path_829" data-name="Path 829" d="M6636.129,2339.639h0a2.18,2.18,0,0,1-2.561-1.7h0a2.18,2.18,0,0,1,1.7-2.561h0a2.179,2.179,0,0,1,2.561,1.7h0A2.179,2.179,0,0,1,6636.129,2339.639Z" transform="translate(-6573.135 -2305.365)" fill="#52d1bd"/>
      <path id="Path_830" data-name="Path 830" d="M6655.657,2335.688h0a2.18,2.18,0,0,1-2.561-1.7h0a2.18,2.18,0,0,1,1.7-2.561h0a2.179,2.179,0,0,1,2.561,1.7h0A2.181,2.181,0,0,1,6655.657,2335.688Z" transform="translate(-6586.244 -2302.713)" fill="#ecf3fe"/>
      <path id="Path_831" data-name="Path 831" d="M6520.967,2383.514l-27.509,5.567a1.862,1.862,0,0,1-2.195-1.456h0a1.862,1.862,0,0,1,1.456-2.195l27.51-5.567a1.862,1.862,0,0,1,2.194,1.456h0A1.862,1.862,0,0,1,6520.967,2383.514Z" transform="translate(-6477.613 -2335.231)" fill="#ecf3fe"/>
      <path id="Path_832" data-name="Path 832" d="M6570.886,2390.2l-47.636,9.64a1.862,1.862,0,0,1-2.195-1.456h0a1.863,1.863,0,0,1,1.456-2.195l47.637-9.641a1.862,1.862,0,0,1,2.194,1.456h0A1.862,1.862,0,0,1,6570.886,2390.2Z" transform="translate(-6497.612 -2339.721)" fill="#ecf3fe"/>
      <path id="Path_833" data-name="Path 833" d="M6559.046,2414.327l-55.825,11.3a1.862,1.862,0,0,1-2.195-1.456h0a1.863,1.863,0,0,1,1.456-2.194l55.825-11.3a1.863,1.863,0,0,1,2.195,1.456h0A1.863,1.863,0,0,1,6559.046,2414.327Z" transform="translate(-6484.167 -2355.914)" fill="#ecf3fe"/>
      <path id="Path_834" data-name="Path 834" d="M6563.928,2438.45l-55.825,11.3a1.863,1.863,0,0,1-2.2-1.456h0a1.862,1.862,0,0,1,1.457-2.194l55.825-11.3a1.862,1.862,0,0,1,2.194,1.455h0A1.862,1.862,0,0,1,6563.928,2438.45Z" transform="translate(-6487.444 -2372.107)" fill="#ecf3fe"/>
      <path id="Path_835" data-name="Path 835" d="M6558.13,2469.147l-45.146,9.136a1.862,1.862,0,0,1-2.194-1.456h0a1.862,1.862,0,0,1,1.455-2.194l45.146-9.137a1.862,1.862,0,0,1,2.194,1.456h0A1.863,1.863,0,0,1,6558.13,2469.147Z" transform="translate(-6490.721 -2392.713)" fill="#ecf3fe"/>
      <path id="Path_836" data-name="Path 836" d="M6573.691,2486.695l-55.825,11.3a1.863,1.863,0,0,1-2.195-1.456h0a1.863,1.863,0,0,1,1.457-2.194l55.825-11.3a1.863,1.863,0,0,1,2.195,1.455h0A1.863,1.863,0,0,1,6573.691,2486.695Z" transform="translate(-6493.998 -2404.493)" fill="#ecf3fe"/>
    </g>
    <path id="Path_837" data-name="Path 837" d="M6747.1,2297.921l-58.1-30.312a4.155,4.155,0,0,0-5.606,1.762l-38.311,73.439a4.155,4.155,0,0,0,1.762,5.606l58.1,30.312a4.155,4.155,0,0,0,5.606-1.762l38.311-73.438A4.154,4.154,0,0,0,6747.1,2297.921Z" transform="translate(-6557.067 -2244.188)" fill="#3a7ec1" opacity="0.2" style="mix-blend-mode: multiply;isolation: isolate"/>
    <path id="Path_838" data-name="Path 838" d="M6672.839,2518.393a3.774,3.774,0,0,0,2.728,4.581l21.785,5.523-23.912-12.474Z" transform="translate(-6575.94 -2411.259)" fill="none"/>
    <path id="Path_839" data-name="Path 839" d="M6729.746,2270.447a3.821,3.821,0,0,0-.934-.117,3.775,3.775,0,0,0-3.647,2.845l-4.814,18.991,11.1-21.286Z" transform="translate(-6607.912 -2246.332)" fill="none"/>
    <path id="Path_840" data-name="Path 840" d="M6856.241,2478.927a3.773,3.773,0,0,0,4.581-2.728l12.622-49.786-26.205,50.231Z" transform="translate(-6693.088 -2351.106)" fill="none"/>
    <path id="Path_841" data-name="Path 841" d="M6886.769,2306.77a3.749,3.749,0,0,0-2.313-1.725l-28.269-7.167,30.007,15.654.991-3.906A3.751,3.751,0,0,0,6886.769,2306.77Z" transform="translate(-6699.095 -2264.823)" fill="none"/>
    <path id="Path_842" data-name="Path 842" d="M6878.4,2301.887a3.769,3.769,0,0,1,2.728,4.581l-.99,3.906.7.366,1.035-4.083a4.54,4.54,0,0,0-3.285-5.517l-31.422-7.966,2.964,1.546Z" transform="translate(-6693.042 -2261.666)" fill="#444"/>
    <path id="Path_843" data-name="Path 843" d="M6722.008,2271.6a3.774,3.774,0,0,1,3.647-2.845,3.815,3.815,0,0,1,.934.117l1.708.433.367-.7-1.886-.478a4.54,4.54,0,0,0-5.518,3.286l-5.614,22.144,1.546-2.963Z" transform="translate(-6604.754 -2244.757)" fill="#444"/>
    <path id="Path_844" data-name="Path 844" d="M6673.993,2522.227a3.775,3.775,0,0,1-2.728-4.581l.6-2.37-.7-.366-.646,2.547a4.546,4.546,0,0,0,3.285,5.517l24.938,6.323-2.964-1.547Z" transform="translate(-6574.366 -2410.511)" fill="#444"/>
    <path id="Path_845" data-name="Path 845" d="M6860.074,2470.146a3.774,3.774,0,0,1-4.581,2.728l-9-2.282-.367.7,9.179,2.327a4.539,4.539,0,0,0,5.517-3.285l13.421-52.939-1.545,2.964Z" transform="translate(-6692.341 -2345.053)" fill="#444"/>
    <path id="Path_846" data-name="Path 846" d="M6642,2391.574a4.156,4.156,0,0,0,1.763,5.606l8.036,4.192,14.1-55.6Z" transform="translate(-6554.998 -2296.974)" fill="#f4b545"/>
    <path id="Path_847" data-name="Path 847" d="M6762.251,2255.375a4.156,4.156,0,0,0-5.606,1.762l-1.4,2.686,30.218,7.661Z" transform="translate(-6631.335 -2235.976)" fill="#f4b545"/>
    <path id="Path_848" data-name="Path 848" d="M6779.152,2570.407a4.155,4.155,0,0,0,5.606-1.762l1.312-2.515-29.409-7.456Z" transform="translate(-6632.286 -2439.889)" fill="#f4b545"/>
    <path id="Path_849" data-name="Path 849" d="M6938.778,2347.248l-1.22-.637-5.9,23.269,8.882-17.026A4.155,4.155,0,0,0,6938.778,2347.248Z" transform="translate(-6749.757 -2297.537)" fill="#f4b545"/>
    <path id="Path_850" data-name="Path 850" d="M6764.5,2296.165l-6.742,26.6L6731.556,2373l-32.74-8.3-23.911-12.475,14.938-58.929,9.867-18.912.376-.719.862-1.655,21.319,5.4.005,0,9.242,2.344.01,0,2.972.753Z" transform="translate(-6577.406 -2247.456)" fill="#f4b545"/>
    <path id="Path_851" data-name="Path 851" d="M6933.7,2345.5l-6.743,26.6,1.546-2.964,5.9-23.269Z" transform="translate(-6746.6 -2296.789)" fill="#444"/>
    <path id="Path_852" data-name="Path 852" d="M6688.409,2336.756l-1.547,2.964-14.1,55.6.7.366Z" transform="translate(-6575.97 -2290.921)" fill="#f4b545"/>
    <path id="Path_853" data-name="Path 853" d="M6747.644,2553.97l2.964,1.546,29.409,7.456.367-.7Z" transform="translate(-6626.233 -2436.732)" fill="#f4b545"/>
    <path id="Path_854" data-name="Path 854" d="M6784.434,2283.515l-2.256-.38-.01,0-31.805-5.376.376-.719,22.181,3.749.006,0,9.291,1.57Z" transform="translate(-6628.059 -2250.835)" fill="#e09f36"/>
    <g id="Group_235" data-name="Group 235" transform="translate(95.279 29.17)">
      <path id="Path_855" data-name="Path 855" d="M6855.128,2357.661l-27.8-14.5,6.8-13.04,27.8,14.505Zm-25.851-15.119,25.236,13.165,5.462-10.472-25.235-13.165Z" transform="translate(-6774.999 -2315.634)" fill="#ffdca4"/>
      <path id="Path_856" data-name="Path 856" d="M6821.69,2384.625h0a2.179,2.179,0,0,1-.921-2.932h0a2.18,2.18,0,0,1,2.932-.922h0a2.18,2.18,0,0,1,.921,2.932h0A2.179,2.179,0,0,1,6821.69,2384.625Z" transform="translate(-6770.435 -2349.473)" fill="#e29d2d"/>
      <path id="Path_857" data-name="Path 857" d="M6839.354,2393.84h0a2.18,2.18,0,0,1-.922-2.932h0a2.18,2.18,0,0,1,2.932-.921h0a2.179,2.179,0,0,1,.921,2.932h0A2.179,2.179,0,0,1,6839.354,2393.84Z" transform="translate(-6782.292 -2355.659)" fill="#e29d2d"/>
      <path id="Path_858" data-name="Path 858" d="M6857.02,2403.055h0a2.18,2.18,0,0,1-.922-2.932h0a2.18,2.18,0,0,1,2.932-.921h0a2.179,2.179,0,0,1,.921,2.932h0A2.179,2.179,0,0,1,6857.02,2403.055Z" transform="translate(-6794.149 -2361.845)" fill="#e29d2d"/>
      <path id="Path_859" data-name="Path 859" d="M6750.954,2382.488l-24.885-12.982a1.861,1.861,0,0,1-.79-2.512h0a1.862,1.862,0,0,1,2.512-.79l24.885,12.982a1.862,1.862,0,0,1,.79,2.512h0A1.861,1.861,0,0,1,6750.954,2382.488Z" transform="translate(-6706.356 -2339.717)" fill="#e29d2d"/>
      <path id="Path_860" data-name="Path 860" d="M6780.31,2425.561l-43.091-22.479a1.863,1.863,0,0,1-.79-2.513h0a1.862,1.862,0,0,1,2.512-.79l43.091,22.48a1.862,1.862,0,0,1,.79,2.512h0A1.862,1.862,0,0,1,6780.31,2425.561Z" transform="translate(-6713.842 -2362.256)" fill="#ffdca4"/>
      <path id="Path_861" data-name="Path 861" d="M6753.8,2439.492l-50.5-26.344a1.861,1.861,0,0,1-.79-2.512h0a1.862,1.862,0,0,1,2.512-.79l50.5,26.344a1.862,1.862,0,0,1,.79,2.512h0A1.863,1.863,0,0,1,6753.8,2439.492Z" transform="translate(-6691.074 -2369.012)" fill="#ffdca4"/>
      <path id="Path_862" data-name="Path 862" d="M6742.417,2461.312l-50.5-26.344a1.862,1.862,0,0,1-.79-2.512h0a1.862,1.862,0,0,1,2.512-.79l50.5,26.344a1.862,1.862,0,0,1,.79,2.512h0A1.862,1.862,0,0,1,6742.417,2461.312Z" transform="translate(-6683.432 -2383.66)" fill="#ffdca4"/>
      <path id="Path_863" data-name="Path 863" d="M6721.373,2478.093l-40.838-21.3a1.862,1.862,0,0,1-.789-2.512h0a1.861,1.861,0,0,1,2.512-.79l40.838,21.3a1.862,1.862,0,0,1,.79,2.512h0A1.863,1.863,0,0,1,6721.373,2478.093Z" transform="translate(-6675.792 -2398.308)" fill="#ffdca4"/>
      <path id="Path_864" data-name="Path 864" d="M6719.65,2504.954l-50.5-26.344a1.862,1.862,0,0,1-.79-2.512h0a1.862,1.862,0,0,1,2.512-.79l50.5,26.344a1.862,1.862,0,0,1,.79,2.512h0A1.863,1.863,0,0,1,6719.65,2504.954Z" transform="translate(-6668.15 -2412.956)" fill="#ffdca4"/>
      <g id="Group_234" data-name="Group 234" transform="translate(23.783 0)">
        <circle id="Ellipse_34" data-name="Ellipse 34" cx="12.049" cy="12.049" r="12.049" transform="translate(0 7.253) rotate(-17.517)" fill="#ffdca4"/>
        <g id="Group_233" data-name="Group 233" transform="translate(5.682 5.807)">
          <path id="Path_865" data-name="Path 865" d="M6762.059,2350.2a1.777,1.777,0,0,1-.175-.1l0,0a10.26,10.26,0,0,1-4.1-4.216,5.672,5.672,0,0,1,4.446-.966l0,0a5.015,5.015,0,0,1,.764.216,5.465,5.465,0,0,1,.684.3l1.81.942a5.515,5.515,0,0,1,.633.387l0,0a5,5,0,0,1,.615.5,5.634,5.634,0,0,1,1.618,2.828,5.8,5.8,0,0,1,.146,1.245,10.326,10.326,0,0,1-5.727-.782c-.085-.036-.167-.074-.251-.118a.175.175,0,0,1-.042-.017h0a.151.151,0,0,1-.053-.027.137.137,0,0,1-.046-.023c-.064-.026-.129-.06-.195-.094l-.045-.024-.056-.029-.016-.008Z" transform="translate(-6757.784 -2331.304)" fill="#f4b545"/>
          <path id="Path_866" data-name="Path 866" d="M6775.211,2308.788s2.618-6.42,6.029-4.8,5.22,1.483,5.874,2.184-1.625,6.583-2.4,7.557S6775.211,2308.788,6775.211,2308.788Z" transform="translate(-6769.483 -2303.727)" fill="#e09f36"/>
          <path id="Path_867" data-name="Path 867" d="M6776.087,2343.191l-.891,1.713a1.788,1.788,0,0,1-3.128-1.627l.891-1.713a1.335,1.335,0,0,1,.738-.632,1.5,1.5,0,0,1,.23-.066,1.748,1.748,0,0,1,.471-.036,2.041,2.041,0,0,1,1.464.761,1.8,1.8,0,0,1,.242.406l.009.021a1.508,1.508,0,0,1,.068.205A1.336,1.336,0,0,1,6776.087,2343.191Z" transform="translate(-6767.276 -2328.632)" fill="#f4cb95"/>
          <path id="Path_868" data-name="Path 868" d="M6781.155,2320.06l-1.3,2.5a4.613,4.613,0,0,1-4.674,2.435l-.342.658a4.556,4.556,0,0,1-1.526-.478l-.334-.174a4.544,4.544,0,0,1-1.268-.974l.342-.658a4.613,4.613,0,0,1-.689-5.225l1.3-2.495a4.612,4.612,0,0,1,6.189-1.937l.334.174a4.569,4.569,0,0,1,2.072,2.208h0A4.6,4.6,0,0,1,6781.155,2320.06Z" transform="translate(-6766.556 -2310.079)" fill="#d8a471"/>
          <path id="Path_869" data-name="Path 869" d="M6781.487,2318.079l-1.63,3.135a4.55,4.55,0,0,1-1.726,1.824c-.111.067-.228.126-.343.181a4.1,4.1,0,0,1-.431.183,4.576,4.576,0,0,1-3.7-.232l-.332-.173a4.607,4.607,0,0,1-1.957-6.2l1.692-3.252a4.593,4.593,0,0,1,2.974-2.234,4.246,4.246,0,0,1,.587-.1,4.549,4.549,0,0,1,2.577.492l.332.173a4.463,4.463,0,0,1,1.567,1.347,3.61,3.61,0,0,1,.228.335,4.2,4.2,0,0,1,.234.434A4.586,4.586,0,0,1,6781.487,2318.079Z" transform="translate(-6766.558 -2308.737)" fill="#f4cb95"/>
          <g id="Group_231" data-name="Group 231" transform="translate(13.224 9.359)">
            <path id="Path_870" data-name="Path 870" d="M6800.495,2334.679a1.841,1.841,0,0,1-2.483.784l1.7-3.267a1.83,1.83,0,0,1,.571.462l0,0A1.841,1.841,0,0,1,6800.495,2334.679Z" transform="translate(-6798.012 -2332.196)" fill="#edc28e"/>
            <path id="Path_871" data-name="Path 871" d="M6800.533,2335.626a1.14,1.14,0,0,1-1.537.485l1.052-2.023A1.14,1.14,0,0,1,6800.533,2335.626Z" transform="translate(-6798.672 -2333.466)" fill="#d8a471"/>
          </g>
          <g id="Group_232" data-name="Group 232" transform="translate(3.742 4.734)">
            <path id="Path_872" data-name="Path 872" d="M6771.858,2318.336l-1.7,3.267a1.841,1.841,0,0,1,1.311-3.416c.029.007.056.015.085.025l.044.015A1.8,1.8,0,0,1,6771.858,2318.336Z" transform="translate(-6769.167 -2318.129)" fill="#edc28e"/>
            <path id="Path_873" data-name="Path 873" d="M6771.428,2320.876a1.141,1.141,0,0,0,.486,1.538l1.052-2.023A1.141,1.141,0,0,0,6771.428,2320.876Z" transform="translate(-6770.599 -2319.561)" fill="#d8a471"/>
          </g>
          <path id="Path_874" data-name="Path 874" d="M6795.646,2321.42l-1.63,3.135a4.549,4.549,0,0,1-1.727,1.825c-.111.067-.228.126-.343.181,3.886-5.49,3.339-6.862,1.931-7.581-1.513-.777-.891-2.812-.891-2.812l2.5.734a4.348,4.348,0,0,1,.235.434A4.59,4.59,0,0,1,6795.646,2321.42Z" transform="translate(-6780.717 -2312.078)" fill="#e5b67f"/>
          <path id="Path_875" data-name="Path 875" d="M6774.594,2352.95l.043.886-2.369.94c-.084-.036-.167-.074-.251-.119a.169.169,0,0,1-.041-.017l0,0a.163.163,0,0,1-.052-.027l2.7-2.26.007,0,.445-.372.005,0,.044-.038.439-.845.1,1.921-1.016-.058Z" transform="translate(-6767.274 -2335.521)" fill="#cc8e2b"/>
          <path id="Path_876" data-name="Path 876" d="M6770.549,2352.247l.045.024a2.146,2.146,0,0,0,.2.093.127.127,0,0,0,.045.024.173.173,0,0,0,.052.027l0,0,.37-.22,1.984-1.194.272-.523.566-.168.18-.806a1.918,1.918,0,0,1-.172.1l-.01,0,0,.006a3.8,3.8,0,0,1-1.735.5,2.234,2.234,0,0,1-.484-.053,2.377,2.377,0,0,1-.418-.523,3.71,3.71,0,0,1-.479-1.554v-.008a1.883,1.883,0,0,1-.017-.2l-.557.61.188.56-.272.523.14,1.989.049.753,0,0Z" transform="translate(-6766.188 -2333.297)" fill="#fff"/>
          <path id="Path_877" data-name="Path 877" d="M6774.557,2352.735l-.012.882-2.62.822a.179.179,0,0,1-.041-.017l0,0a.171.171,0,0,1-.052-.027.116.116,0,0,1-.045-.024l2.592-2.166,0,0,.694-.58,0-.006.01,0,.439-.845.048,2.028-1.016-.168Z" transform="translate(-6767.181 -2335.302)" fill="#e09f36"/>
          <path id="Path_878" data-name="Path 878" d="M6769.084,2351.1a1.772,1.772,0,0,1-.175-.1l0,0-.656-2.526.75-.473-.036-.043-.629-.8,1.632-1.018-.384.738-.055.107v.008l0,.031v.008l-.051.6,0,0-.3,3.515-.056-.029-.016-.008Z" transform="translate(-6764.81 -2332.197)" fill="#cc8e2b"/>
          <path id="Path_879" data-name="Path 879" d="M6769.084,2350.878l-.835-2.627.714-.516.091-.064-.721-.734,1.688-1.125-.056.107-.384.738v.008l-.077.91v0l-.289,3.373-.045-.023-.056-.029-.016-.009Z" transform="translate(-6764.809 -2331.977)" fill="#e09f36"/>
          <path id="Path_880" data-name="Path 880" d="M6788.486,2311.725a24.244,24.244,0,0,0-2.114-1.882,7.958,7.958,0,0,0-1.81-.642,8.689,8.689,0,0,0-2.5.018l-.441.306a1.587,1.587,0,0,0-.419.182c-.026.036-.121.149-.207.252l-.363.253c.03,0,.1.017.19.027l-.069.388a3.99,3.99,0,0,1,1.617-.394,3.666,3.666,0,0,1,2.823,1.752c.954,1.935,4.174,2.771,4.174,2.771Z" transform="translate(-6773.12 -2307.339)" fill="#e09f36"/>
        </g>
      </g>
      <path id="Path_881" data-name="Path 881" d="M6874.683,2412.271h0a2.18,2.18,0,0,1-.921-2.932h0a2.18,2.18,0,0,1,2.932-.921h0a2.179,2.179,0,0,1,.921,2.932h0A2.179,2.179,0,0,1,6874.683,2412.271Z" transform="translate(-6806.007 -2368.031)" fill="#e29d2d"/>
      <path id="Path_882" data-name="Path 882" d="M6892.349,2421.485h0a2.179,2.179,0,0,1-.922-2.932h0a2.18,2.18,0,0,1,2.933-.922h0a2.179,2.179,0,0,1,.921,2.932h0A2.18,2.18,0,0,1,6892.349,2421.485Z" transform="translate(-6817.865 -2374.217)" fill="#ffdca4"/>
    </g>
    <path id="Path_883" data-name="Path 883" d="M6634.282,2317.053l-68.081-9.533a4.335,4.335,0,0,0-4.956,3.48l-12.733,81.417a4.169,4.169,0,0,0,3.678,4.688l68.081,9.533a4.334,4.334,0,0,0,4.956-3.48l1.256-8.129,2.6,1.376,8.875-74.664A4.17,4.17,0,0,0,6634.282,2317.053Z" transform="translate(-6492.529 -2271.266)" fill="#3a7ec1" opacity="0.2" style="mix-blend-mode: multiply;isolation: isolate"/>
    <g id="Group_240" data-name="Group 240" transform="translate(59.022 33.117)">
      <path id="Path_884" data-name="Path 884" d="M6626.232,2397.866l-64.83-9.594a4.155,4.155,0,0,1-3.5-4.719l12.125-81.939a4.155,4.155,0,0,1,4.719-3.5l64.831,9.594a4.156,4.156,0,0,1,3.5,4.719l-12.126,81.938A4.155,4.155,0,0,1,6626.232,2397.866Z" transform="translate(-6557.855 -2298.067)" fill="#fff"/>
      <path id="Path_885" data-name="Path 885" d="M6725.4,2363.627l-31.023-4.591,2.152-14.549,31.023,4.591Zm-29.379-5.812,28.158,4.167,1.728-11.683-28.156-4.167Z" transform="translate(-6649.498 -2329.228)" fill="#ecf3fe"/>
      <path id="Path_886" data-name="Path 886" d="M6695.123,2402.913h0a2.179,2.179,0,0,1-1.831-2.468h0a2.179,2.179,0,0,1,2.468-1.832h0a2.18,2.18,0,0,1,1.832,2.468h0A2.181,2.181,0,0,1,6695.123,2402.913Z" transform="translate(-6648.754 -2365.546)" fill="#52d1bd"/>
      <path id="Path_887" data-name="Path 887" d="M6714.833,2405.829h0a2.18,2.18,0,0,1-1.833-2.468h0a2.18,2.18,0,0,1,2.468-1.832h0A2.179,2.179,0,0,1,6717.3,2404h0A2.179,2.179,0,0,1,6714.833,2405.829Z" transform="translate(-6661.984 -2367.503)" fill="#52d1bd"/>
      <path id="Path_888" data-name="Path 888" d="M6734.541,2408.746h0a2.18,2.18,0,0,1-1.832-2.468h0a2.18,2.18,0,0,1,2.469-1.832h0a2.179,2.179,0,0,1,1.831,2.468h0A2.18,2.18,0,0,1,6734.541,2408.746Z" transform="translate(-6675.214 -2369.461)" fill="#52d1bd"/>
      <path id="Path_889" data-name="Path 889" d="M6754.25,2411.663h0a2.18,2.18,0,0,1-1.832-2.468h0a2.18,2.18,0,0,1,2.468-1.832h0a2.178,2.178,0,0,1,1.831,2.468h0A2.179,2.179,0,0,1,6754.25,2411.663Z" transform="translate(-6688.444 -2371.419)" fill="#ecf3fe"/>
      <path id="Path_890" data-name="Path 890" d="M6773.959,2414.579h0a2.18,2.18,0,0,1-1.832-2.468h0a2.18,2.18,0,0,1,2.468-1.832h0a2.179,2.179,0,0,1,1.832,2.468h0A2.179,2.179,0,0,1,6773.959,2414.579Z" transform="translate(-6701.674 -2373.377)" fill="#ecf3fe"/>
      <path id="Path_891" data-name="Path 891" d="M6627.423,2424.323l-27.765-4.109a1.863,1.863,0,0,1-1.57-2.115h0a1.863,1.863,0,0,1,2.115-1.57l27.765,4.109a1.862,1.862,0,0,1,1.569,2.115h0A1.862,1.862,0,0,1,6627.423,2424.323Z" transform="translate(-6584.849 -2377.574)" fill="#52d1bd"/>
      <path id="Path_892" data-name="Path 892" d="M6669.276,2455.4l-48.079-7.115a1.862,1.862,0,0,1-1.569-2.114h0a1.863,1.863,0,0,1,2.115-1.57l48.078,7.115a1.862,1.862,0,0,1,1.569,2.115h0A1.862,1.862,0,0,1,6669.276,2455.4Z" transform="translate(-6599.308 -2396.415)" fill="#ecf3fe"/>
      <path id="Path_893" data-name="Path 893" d="M6648.8,2477.245l-56.343-8.338a1.861,1.861,0,0,1-1.569-2.115h0a1.861,1.861,0,0,1,2.114-1.569l56.343,8.338a1.862,1.862,0,0,1,1.57,2.115h0A1.863,1.863,0,0,1,6648.8,2477.245Z" transform="translate(-6580.012 -2410.261)" fill="#ecf3fe"/>
      <path id="Path_894" data-name="Path 894" d="M6645.193,2501.591l-56.343-8.338a1.862,1.862,0,0,1-1.57-2.115h0a1.862,1.862,0,0,1,2.114-1.569l56.344,8.338a1.861,1.861,0,0,1,1.569,2.115h0A1.861,1.861,0,0,1,6645.193,2501.591Z" transform="translate(-6577.594 -2426.604)" fill="#ecf3fe"/>
      <path id="Path_895" data-name="Path 895" d="M6630.812,2524.343l-45.564-6.743a1.862,1.862,0,0,1-1.569-2.115h0a1.862,1.862,0,0,1,2.114-1.569l45.565,6.743a1.862,1.862,0,0,1,1.569,2.115h0A1.862,1.862,0,0,1,6630.812,2524.343Z" transform="translate(-6575.176 -2442.947)" fill="#ecf3fe"/>
      <path id="Path_896" data-name="Path 896" d="M6637.987,2550.284l-56.343-8.338a1.862,1.862,0,0,1-1.569-2.115h0a1.862,1.862,0,0,1,2.114-1.57l56.343,8.338a1.862,1.862,0,0,1,1.57,2.115h0A1.863,1.863,0,0,1,6637.987,2550.284Z" transform="translate(-6572.757 -2459.29)" fill="#ecf3fe"/>
      <g id="Group_239" data-name="Group 239" transform="translate(13.272 7.675)">
        <circle id="Ellipse_35" data-name="Ellipse 35" cx="12.008" cy="12.008" r="12.008" transform="translate(0 6.627) rotate(-16.019)" fill="#ecf3fe"/>
        <g id="Group_238" data-name="Group 238" transform="translate(7.694 5.56)">
          <path id="Path_897" data-name="Path 897" d="M6627.069,2388.833a1.831,1.831,0,0,1-.2-.036h0a10.234,10.234,0,0,1-5.234-2.632,5.652,5.652,0,0,1,3.871-2.362h0a5.068,5.068,0,0,1,.79-.046,5.489,5.489,0,0,1,.741.057l2.012.3a5.5,5.5,0,0,1,.723.158h0a5.006,5.006,0,0,1,.743.271,5.619,5.619,0,0,1,2.447,2.134,5.751,5.751,0,0,1,.543,1.125,10.291,10.291,0,0,1-5.646,1.134c-.092-.006-.183-.016-.276-.03a.169.169,0,0,1-.044,0h0a.169.169,0,0,1-.059-.008.13.13,0,0,1-.05-.008c-.07,0-.142-.014-.214-.024l-.051-.007-.062-.009-.018,0Z" transform="translate(-6621.634 -2368.823)" fill="#727272"/>
          <path id="Path_898" data-name="Path 898" d="M6628.582,2344.833s.368-6.9,4.109-6.487,5.4-.308,6.245.137.62,6.729.207,7.9S6628.582,2344.833,6628.582,2344.833Z" transform="translate(-6626.298 -2338.328)" fill="#302f2f"/>
          <path id="Path_899" data-name="Path 899" d="M6639.15,2378.7l-.279,1.9a1.782,1.782,0,0,1-3.477-.51l.28-1.9a1.33,1.33,0,0,1,.489-.836,1.489,1.489,0,0,1,.194-.137,1.723,1.723,0,0,1,.432-.187,2.033,2.033,0,0,1,1.626.239,1.738,1.738,0,0,1,.361.3l.016.018a1.414,1.414,0,0,1,.13.17A1.334,1.334,0,0,1,6639.15,2378.7Z" transform="translate(-6630.862 -2364.256)" fill="#f4b698"/>
          <path id="Path_900" data-name="Path 900" d="M6638.678,2352.613l-.407,2.773a4.6,4.6,0,0,1-3.605,3.819l-.107.731a4.524,4.524,0,0,1-1.592.048l-.373-.054a4.529,4.529,0,0,1-1.511-.5l.107-.731a4.6,4.6,0,0,1-2.356-4.694l.407-2.773a4.6,4.6,0,0,1,5.194-3.846l.372.055a4.556,4.556,0,0,1,2.672,1.4h0A4.584,4.584,0,0,1,6638.678,2352.613Z" transform="translate(-6626.434 -2344.373)" opacity="0.28"/>
          <path id="Path_901" data-name="Path 901" d="M6638.781,2350.412l-.512,3.484a4.533,4.533,0,0,1-1.029,2.282c-.083.1-.174.193-.264.282a3.953,3.953,0,0,1-.346.313,4.562,4.562,0,0,1-3.558.99l-.37-.054a4.59,4.59,0,0,1-3.867-5.2l.53-3.614a4.579,4.579,0,0,1,2.07-3.076,4.228,4.228,0,0,1,.521-.283,4.532,4.532,0,0,1,2.586-.378l.37.054a4.452,4.452,0,0,1,1.915.757,3.6,3.6,0,0,1,.325.24,4.178,4.178,0,0,1,.362.332A4.573,4.573,0,0,1,6638.781,2350.412Z" transform="translate(-6626.436 -2342.881)" fill="#f4b698"/>
          <g id="Group_236" data-name="Group 236" transform="translate(11.811 7.548)">
            <path id="Path_902" data-name="Path 902" d="M6659.646,2363.374a1.835,1.835,0,0,1-2.082,1.549l.533-3.631a1.824,1.824,0,0,1,.688.248l0,0A1.835,1.835,0,0,1,6659.646,2363.374Z" transform="translate(-6657.564 -2361.291)" fill="#f4b698"/>
            <path id="Path_903" data-name="Path 903" d="M6659.163,2364.683a1.136,1.136,0,0,1-1.289.959l.33-2.249A1.136,1.136,0,0,1,6659.163,2364.683Z" transform="translate(-6657.772 -2362.703)" fill="#e29586"/>
          </g>
          <g id="Group_237" data-name="Group 237" transform="translate(0.807 6.145)">
            <path id="Path_904" data-name="Path 904" d="M6626.189,2357.04l-.533,3.631a1.835,1.835,0,0,1,.119-3.645c.029,0,.059,0,.088,0h.046A1.84,1.84,0,0,1,6626.189,2357.04Z" transform="translate(-6624.088 -2357.022)" fill="#f4b698"/>
            <path id="Path_905" data-name="Path 905" d="M6626.225,2360.115a1.137,1.137,0,0,0,.959,1.29l.331-2.248A1.137,1.137,0,0,0,6626.225,2360.115Z" transform="translate(-6625.514 -2358.447)" fill="#e29586"/>
          </g>
          <path id="Path_906" data-name="Path 906" d="M6650.571,2352.658l-.512,3.484a4.531,4.531,0,0,1-1.028,2.281c-.083.1-.174.193-.264.283,1.866-6.438.9-7.551-.659-7.768-1.679-.238-1.757-2.357-1.757-2.357l2.593-.125a4.583,4.583,0,0,1,1.627,4.2Z" transform="translate(-6638.227 -2345.127)" fill="#eaa78c"/>
          <path id="Path_907" data-name="Path 907" d="M6635.581,2390.4l.05.007c.073.01.145.021.214.024a.125.125,0,0,0,.051.007.155.155,0,0,0,.058.008h0l.278-.328,1.478-1.772.085-.582.479-.344-.094-.818a1.788,1.788,0,0,1-.129.151l-.008.006v.007a3.8,3.8,0,0,1-1.47,1.039,2.2,2.2,0,0,1-.474.107,2.36,2.36,0,0,1-.563-.356,3.7,3.7,0,0,1-.96-1.307l0-.008a1.734,1.734,0,0,1-.081-.181l-.325.757.359.466-.086.582.781,1.827.293.693,0,0Z" transform="translate(-6630.049 -2370.372)" fill="#fff"/>
          <path id="Path_908" data-name="Path 908" d="M6641.348,2387.484l.276.834-2.2,1.629a.181.181,0,0,1-.044,0h0a.165.165,0,0,1-.058-.008.126.126,0,0,1-.05-.008l1.733-2.886v0l.464-.773v-.007l.008-.006.138-.939.708,1.894-1.011.173Z" transform="translate(-6633.472 -2369.867)" fill="#565656"/>
          <path id="Path_909" data-name="Path 909" d="M6634.1,2388.835l-1.644-2.2.5-.719.065-.09-.918-.456,1.222-1.61-.018.119-.12.82,0,.008.225.882v0l.83,3.27-.051-.008-.061-.009-.018,0Z" transform="translate(-6628.663 -2368.824)" fill="#565656"/>
          <path id="Path_910" data-name="Path 910" d="M6639.4,2344.271a24.082,24.082,0,0,0-2.6-1.081,7.93,7.93,0,0,0-1.913-.013,8.658,8.658,0,0,0-2.35.833l-.315.432a1.589,1.589,0,0,0-.336.308c-.013.042-.064.18-.112.305l-.259.356c.029-.007.1-.017.187-.036l.063.387a3.972,3.972,0,0,1,1.393-.9,3.652,3.652,0,0,1,3.231.728c1.53,1.509,4.835,1.245,4.835,1.245Z" transform="translate(-6628.263 -2341.55)" fill="#302f2f"/>
        </g>
      </g>
    </g>
    <path id="Path_911" data-name="Path 911" d="M6581,2508.11s0-.006,0-.009c-.546-4.812.315-18.614,14.124-54.9a1.925,1.925,0,0,0-1.489-2.583l-20.4-3.323a3.021,3.021,0,0,0-2.864,1.12l-4.352,5.556a4.232,4.232,0,0,1-4.012,1.567l-44.324-7.221a2.8,2.8,0,0,0-3.067,1.752c-1.673,4.322-5.486,15.492-9.075,35.413l-1.65,10.133a2.127,2.127,0,0,0,1.759,2.443l73.914,12.042,2.031.331a8.329,8.329,0,0,0,1.6.173C6581.729,2510.546,6581.2,2509.2,6581,2508.11Z" transform="translate(-6462.591 -2365.1)" fill="#3a7ec1"/>
    <path id="Path_912" data-name="Path 912" d="M6581,2508.11s0-.006,0-.009c-.546-4.812.315-18.614,14.124-54.9a1.925,1.925,0,0,0-1.489-2.583l-20.4-3.323a3.021,3.021,0,0,0-2.864,1.12l-4.352,5.556a4.232,4.232,0,0,1-4.012,1.567l-44.324-7.221a2.8,2.8,0,0,0-3.067,1.752c-1.673,4.322-5.486,15.492-9.075,35.413l-1.65,10.133a2.127,2.127,0,0,0,1.759,2.443l73.914,12.042,2.031.331a8.329,8.329,0,0,0,1.6.173C6581.729,2510.546,6581.2,2509.2,6581,2508.11Z" transform="translate(-6462.591 -2365.1)" fill="#3a7ec1"/>
    <path id="Path_913" data-name="Path 913" d="M6720.841,2465.352c-.189.645-17.746,60.867-1.464,52.638l0,0a13.631,13.631,0,0,1-10.435,4.762.01.01,0,0,1-.01,0h-.019a8.376,8.376,0,0,1-1.6-.174l-2.033-.332-14.136-2.3q.061-.861.125-1.743c1.018-14.272,2.259-32.164,2.259-32.164l27.309-20.688S6720.841,2465.35,6720.841,2465.352Z" transform="translate(-6588.31 -2377.241)" fill="#3eb59e"/>
    <path id="Path_914" data-name="Path 914" d="M6595.126,2453.206s0,0,0,.006c-13.806,36.278-14.665,50.078-14.122,54.89,0,0,0,.006,0,.01.19,1.085.724,2.435,2.194,2.5a8.37,8.37,0,0,1-1.6-.174l-2.032-.332-14.137-2.3-59.777-9.738a2.126,2.126,0,0,1-1.759-2.442l1.651-10.134c3.589-19.92,7.4-31.09,9.075-35.413a2.8,2.8,0,0,1,3.067-1.751l13.606,2.217,30.717,5a4.231,4.231,0,0,0,4.011-1.566l4.351-5.557a3.026,3.026,0,0,1,2.866-1.119l20.4,3.323A1.924,1.924,0,0,1,6595.126,2453.206Z" transform="translate(-6462.592 -2365.1)" fill="#52d1bd"/>
    <path id="Path_915" data-name="Path 915" d="M6670.25,2254.3l6.827,18.411-3.2-.473Z" transform="translate(-6574.281 -2235.571)" fill="#3a7ec1" opacity="0.2" style="mix-blend-mode: multiply;isolation: isolate"/>
    <path id="Path_916" data-name="Path 916" d="M6787.678,2279.076l-2.964-1.546-30.219-7.661-.366.7Z" transform="translate(-6630.587 -2246.022)" fill="#444"/>
    <circle id="Ellipse_36" data-name="Ellipse 36" cx="3.381" cy="3.381" r="3.381" transform="translate(188.888 94.428)" fill="#52d1bd"/>
    <circle id="Ellipse_37" data-name="Ellipse 37" cx="3.381" cy="3.381" r="3.381" transform="matrix(0.16, -0.987, 0.987, 0.16, 145.679, 7.654)" fill="#52d1bd"/>
    <rect id="Rectangle_29" data-name="Rectangle 29" width="27.234" height="3.477" rx="1.738" transform="translate(55.565 88.829) rotate(8.418)" fill="#f2f4f7"/>
    <circle id="Ellipse_38" data-name="Ellipse 38" cx="3.275" cy="3.275" r="3.275" transform="translate(25.917 116.809) rotate(-45)" fill="#52d1bd"/>
    <path id="Path_917" data-name="Path 917" d="M6443.567,2535.581a1.417,1.417,0,1,1-1.417-1.417A1.417,1.417,0,0,1,6443.567,2535.581Z" transform="translate(-6420.212 -2423.437)" fill="#52d1bd"/>
  </g>
</svg>
