<svg xmlns="http://www.w3.org/2000/svg" width="163" height="144.729" viewBox="0 0 163 144.729">
  <g id="Group_254" data-name="Group 254" transform="translate(-6412.992 -1450.783)">
    <path id="Path_918" data-name="Path 918" d="M6475.763,1473.338c3.371-2.933,34.242-28.939,73.735-21.082,9.723,1.934,30.735,6.115,39.271,21.95,15.743,29.2-19.332,82.476-62.679,105.051-6.577,3.425-52.1,26.328-74.069,7.468C6428.289,1566.347,6440.25,1504.245,6475.763,1473.338Z" transform="translate(-19.644)" fill="#52d1bd" opacity="0.14"/>
    <g id="Group_253" data-name="Group 253" transform="translate(6412.992 1459.533)">
      <path id="Path_919" data-name="Path 919" d="M6773.88,1519.244l-.14,14.183v0l-.2,20.422-.011,1.187-.009.883a2.645,2.645,0,0,1-2.362,2.606l-32.517,3.5-1.265.137-2.894-2.921-1.061-1.071-5.39-5.442-3.56-3.593-.287-.29h0l-.9-.9-.419-.423-.409-.412-.458-.463-.61-.616h0l-1.786-1.8-1.062-1.071-4.9-4.943-.419-1.837-.935-4.094a2.647,2.647,0,0,1,2.3-3.22l.717-.077,4.2-.453,2.461-.265,3.889-.419A2.647,2.647,0,0,0,6728.1,1526l.519-1.679.5-1.616a.018.018,0,0,0,0,0h0a2.648,2.648,0,0,1,2.244-1.846l.192-.021,37.9-4.082,1.493-.161a2.641,2.641,0,0,1,.984.078h0a2.642,2.642,0,0,1,1.946,2.578Z" transform="translate(-6633.094 -1507.923)" fill="#3a7ec1" opacity="0.2" style="mix-blend-mode: multiply;isolation: isolate"/>
      <rect id="Rectangle_30" data-name="Rectangle 30" width="33.308" height="23.38" rx="4.736" transform="translate(105.344 70.548) rotate(-23.408)" fill="#3a7ec1" opacity="0.2" style="mix-blend-mode: multiply;isolation: isolate"/>
      <path id="Path_920" data-name="Path 920" d="M6757.53,1522.946l-.14,14.183v0l-.2,20.422-.011,1.186-.009.883a2.644,2.644,0,0,1-2.362,2.605l-32.517,3.5-1.265.137-2.893-2.921-1.061-1.071-5.391-5.442-3.56-3.593-.286-.29h0l-.9-.9-.419-.424-.409-.412-.458-.463-.611-.616h0l-1.787-1.8-1.061-1.071-4.9-4.943-.418-1.837-.935-4.094a2.647,2.647,0,0,1,2.3-3.22l.717-.077,4.2-.453,2.461-.265,3.889-.419a2.649,2.649,0,0,0,2.245-1.851l.518-1.679.5-1.616s0,0,0,0h0a2.646,2.646,0,0,1,2.243-1.846l.192-.021,37.9-4.082,1.495-.161a2.636,2.636,0,0,1,.984.078h0a2.646,2.646,0,0,1,1.418.967,2.686,2.686,0,0,1,.333.589A2.617,2.617,0,0,1,6757.53,1522.946Z" transform="translate(-6621.068 -1510.646)" fill="#e29d2d"/>
      <path id="Path_921" data-name="Path 921" d="M6652.568,1509.907a8.976,8.976,0,0,1-6.456,10.929c-.183.047-.365.088-.549.123a8.976,8.976,0,0,1-1.251.151l-1.492-1.506-7.908-7.984a8.739,8.739,0,0,1,.161-1.251,8.98,8.98,0,0,1,16.2-3.32s0,0,0,0A8.945,8.945,0,0,1,6652.568,1509.907Z" transform="translate(-6576.226 -1498.061)" fill="#3a7ec1" opacity="0.2" style="mix-blend-mode: multiply;isolation: isolate"/>
      <path id="Path_922" data-name="Path 922" d="M6649.353,1504.177a8.977,8.977,0,0,1-6.456,10.93,9.3,9.3,0,0,1-1.119.215,9.138,9.138,0,0,1-1.334.068l-7.908-7.984-.853-.862a8.767,8.767,0,0,1,.079-1.334,8.979,8.979,0,0,1,17.132-2.375s0,0,0,0A9.012,9.012,0,0,1,6649.353,1504.177Z" transform="translate(-6573.85 -1493.848)" fill="#52d1bd"/>
      <path id="Path_923" data-name="Path 923" d="M6769.933,1489.854l.127,1.184.114,1.058.363,3.378h0l.121,1.107h0l.068.618h0l1.621,15.036v0l1.6,14.845.368,3.4a1.969,1.969,0,0,1-1.793,2.133l-.231.025-.144.015-38.854,4.186-1.264.137-5.39-5.442-3.56-3.593-.286-.29h0l-.9-.9-.42-.424-.409-.412-.458-.463-.611-.616h0l-.17-1.585-.564-5.234-.57-5.289h0l-.2-1.892h0l-.131-1.213h0l-.246-2.281-.345-3.2-.114-1.058-1.435-13.317a1.979,1.979,0,0,1,1.8-2.139l11.027-1.188a2.033,2.033,0,0,1,1.8.732l1.688,2.1,1.282,1.6a2.021,2.021,0,0,0,1.8.732l31.652-3.41.462-.05A1.973,1.973,0,0,1,6769.933,1489.854Z" transform="translate(-6636.022 -1485.754)" fill="#e29d2d"/>
      <path id="Path_924" data-name="Path 924" d="M6521.683,1591.762l17.653,68.62a4.672,4.672,0,0,1-3.352,5.673l-61.163,15.735a4.672,4.672,0,0,1-5.673-3.351l-19.309-75.055a4.672,4.672,0,0,1,3.351-5.672l59.278-15.25Z" transform="translate(-6439.988 -1556.389)" fill="#3a7ec1" opacity="0.2" style="mix-blend-mode: multiply;isolation: isolate"/>
      <rect id="Rectangle_31" data-name="Rectangle 31" width="33.967" height="14.441" rx="6.233" transform="matrix(0.968, -0.249, 0.249, 0.968, 3.547, 90.649)" fill="#3a7ec1" opacity="0.2" style="mix-blend-mode: multiply;isolation: isolate"/>
      <path id="Path_925" data-name="Path 925" d="M6447.919,1808.58l-29.7,7.642a1.962,1.962,0,0,1-2.386-1.409l-2.776-10.793a1.962,1.962,0,0,1,1.409-2.385l29.7-7.642a1.961,1.961,0,0,1,2.386,1.409l2.777,10.793A1.963,1.963,0,0,1,6447.919,1808.58Zm-33.3-6.344a1.338,1.338,0,0,0-.962,1.628l2.776,10.793a1.339,1.339,0,0,0,1.629.962l29.7-7.641a1.339,1.339,0,0,0,.962-1.628l-2.777-10.793a1.338,1.338,0,0,0-1.628-.962Z" transform="translate(-6412.992 -1711.936)" fill="#444"/>
      <path id="Path_926" data-name="Path 926" d="M6698.43,1812.78a13.671,13.671,0,0,0,27.026,3.376l2.471.09a1.509,1.509,0,0,0,1.39,1.073l19.08.695a1.511,1.511,0,0,0,1.565-1.455l.138-3.8a1.511,1.511,0,0,0-1.455-1.565l-19.08-.695a1.51,1.51,0,0,0-1.465.969l-2.471-.09a13.671,13.671,0,0,0-27.2,1.4Zm14.031-9.588a10.092,10.092,0,1,1-10.453,9.718A10.1,10.1,0,0,1,6712.46,1803.192Z" transform="translate(-6622.94 -1716.11)" fill="#3a7ec1" opacity="0.2" style="mix-blend-mode: multiply;isolation: isolate"/>
      <path id="Path_927" data-name="Path 927" d="M6505.7,1619.8l-67.3,17.313a1.5,1.5,0,0,1-1.816-1.073l-1.487-5.78a1.5,1.5,0,0,1,1.073-1.817l67.3-17.313a1.5,1.5,0,0,1,1.817,1.073l1.487,5.78A1.5,1.5,0,0,1,6505.7,1619.8Z" transform="translate(-6429.219 -1577.438)" fill="#3a7ec1" opacity="0.2" style="mix-blend-mode: multiply;isolation: isolate"/>
      <path id="Path_928" data-name="Path 928" d="M6535.948,1596.674l16.166,62.839a4.672,4.672,0,0,1-3.351,5.673l-61.164,15.735a4.672,4.672,0,0,1-5.673-3.351l-19.309-75.055a4.672,4.672,0,0,1,3.352-5.672l55.9-14.381,11.611,11.721.867.875Z" transform="translate(-6449.386 -1556.389)" fill="#fff"/>
      <path id="Path_929" data-name="Path 929" d="M6526.606,1586.626l16.176,62.876a4.353,4.353,0,0,1-3.128,5.294l-61.163,15.735a4.354,4.354,0,0,1-5.295-3.128l-19.308-75.055a4.353,4.353,0,0,1,3.127-5.294l55.8-14.354-.507-.511-55.445,14.264a4.976,4.976,0,0,0-3.575,6.051l19.31,75.055a4.975,4.975,0,0,0,6.051,3.575l61.164-15.735a4.976,4.976,0,0,0,3.575-6.051l-15.911-61.846Z" transform="translate(-6442.514 -1548.833)" fill="#444"/>
      <path id="Path_930" data-name="Path 930" d="M6528.052,1612.2l1.487,5.78a1.5,1.5,0,0,1-1.073,1.817l-60.234,15.5-2.231-8.67,60.234-15.5A1.5,1.5,0,0,1,6528.052,1612.2Z" transform="translate(-6451.983 -1577.437)" fill="#3a7ec1" opacity="0.2" style="mix-blend-mode: multiply;isolation: isolate"/>
      <path id="Path_931" data-name="Path 931" d="M6497.937,1614.772l-67.3,17.313a1.5,1.5,0,0,1-1.816-1.073l-1.486-5.78a1.5,1.5,0,0,1,1.073-1.817l67.3-17.313a1.5,1.5,0,0,1,1.816,1.073l1.486,5.78A1.5,1.5,0,0,1,6497.937,1614.772Z" transform="translate(-6423.507 -1573.744)" fill="#f9c067"/>
      <path id="Path_932" data-name="Path 932" d="M6442.331,1681.969h0a1.8,1.8,0,0,1-2.189-1.293h0a1.8,1.8,0,0,1,1.293-2.189h0a1.8,1.8,0,0,1,2.189,1.293h0A1.8,1.8,0,0,1,6442.331,1681.969Z" transform="translate(-6432.92 -1626.979)" fill="#fff"/>
      <path id="Path_933" data-name="Path 933" d="M6462.252,1676.844h0a1.8,1.8,0,0,1-2.189-1.293h0a1.8,1.8,0,0,1,1.293-2.189h0a1.8,1.8,0,0,1,2.189,1.293h0A1.8,1.8,0,0,1,6462.252,1676.844Z" transform="translate(-6447.574 -1623.209)" fill="#fff"/>
      <path id="Path_934" data-name="Path 934" d="M6482.174,1671.718h0a1.8,1.8,0,0,1-2.189-1.293h0a1.8,1.8,0,0,1,1.293-2.189h0a1.8,1.8,0,0,1,2.189,1.293h0A1.8,1.8,0,0,1,6482.174,1671.718Z" transform="translate(-6462.227 -1619.439)" fill="#e29d2d"/>
      <g id="Group_245" data-name="Group 245" transform="translate(24.124 53.138)">
        <circle id="Ellipse_39" data-name="Ellipse 39" cx="11.451" cy="11.451" r="11.451" transform="translate(0 5.766) rotate(-14.582)" fill="#ecf3fe"/>
        <g id="Group_244" data-name="Group 244" transform="translate(8.278 5.161)">
          <path id="Path_935" data-name="Path 935" d="M6551.857,1740.93a6.955,6.955,0,0,1,.177.883,10.018,10.018,0,0,1-11.923,3.149,7.319,7.319,0,0,1-.282-.855,6.241,6.241,0,1,1,12.028-3.177Z" transform="translate(-6538.511 -1727.48)" fill="#52d1bd"/>
          <ellipse id="Ellipse_40" data-name="Ellipse 40" cx="2.594" cy="4.76" rx="2.594" ry="4.76" transform="matrix(0.967, -0.255, 0.255, 0.967, 1.443, 2.894)" fill="#7e89fd" opacity="0.3" style="mix-blend-mode: multiply;isolation: isolate"/>
          <ellipse id="Ellipse_41" data-name="Ellipse 41" cx="3.738" cy="4.659" rx="3.738" ry="4.659" transform="translate(0 1.909) rotate(-14.793)" fill="#52d1bd"/>
        </g>
      </g>
      <path id="Path_936" data-name="Path 936" d="M6625.895,1670.189l-17.139,4.409a1.414,1.414,0,0,1-1.717-1.014h0a1.414,1.414,0,0,1,1.014-1.716l17.141-4.409a1.413,1.413,0,0,1,1.715,1.014h0A1.413,1.413,0,0,1,6625.895,1670.189Z" transform="translate(-6555.692 -1618.877)" fill="#52d1bd"/>
      <path id="Path_937" data-name="Path 937" d="M6639.93,1683.293l-25.669,6.6a1.413,1.413,0,0,1-1.716-1.014h0a1.413,1.413,0,0,1,1.014-1.716l25.669-6.6a1.413,1.413,0,0,1,1.716,1.014h0A1.413,1.413,0,0,1,6639.93,1683.293Z" transform="translate(-6559.742 -1628.516)" fill="#e4ecf9"/>
      <path id="Path_938" data-name="Path 938" d="M6645.437,1704.695l-25.669,6.6a1.414,1.414,0,0,1-1.716-1.014h0a1.413,1.413,0,0,1,1.014-1.716l25.669-6.6a1.413,1.413,0,0,1,1.716,1.014h0A1.413,1.413,0,0,1,6645.437,1704.695Z" transform="translate(-6563.792 -1644.258)" fill="#e4ecf9"/>
      <path id="Path_939" data-name="Path 939" d="M6650.708,1725.186l-25.669,6.6a1.414,1.414,0,0,1-1.716-1.014h0a1.413,1.413,0,0,1,1.014-1.716l25.669-6.6a1.413,1.413,0,0,1,1.716,1.014h0A1.413,1.413,0,0,1,6650.708,1725.186Z" transform="translate(-6567.669 -1659.331)" fill="#e4ecf9"/>
      <path id="Path_940" data-name="Path 940" d="M6586.354,1849.22l-34.184,8.794a1.413,1.413,0,0,1-1.716-1.014h0a1.415,1.415,0,0,1,1.014-1.716l34.183-8.794a1.414,1.414,0,0,1,1.717,1.014h0A1.414,1.414,0,0,1,6586.354,1849.22Z" transform="translate(-6514.07 -1750.565)" fill="#e4ecf9"/>
      <path id="Path_941" data-name="Path 941" d="M6610.057,1853.867l-52.186,13.425a1.413,1.413,0,0,1-1.716-1.013h0a1.413,1.413,0,0,1,1.013-1.716l52.186-13.425a1.414,1.414,0,0,1,1.716,1.013h0A1.413,1.413,0,0,1,6610.057,1853.867Z" transform="translate(-6518.264 -1753.983)" fill="#e4ecf9"/>
      <g id="Group_246" data-name="Group 246" transform="translate(41.507 72.334)">
        <path id="Path_942" data-name="Path 942" d="M6628,1760.172l-37.068,9.536a1.414,1.414,0,0,1-1.717-1.014h0a1.414,1.414,0,0,1,1.014-1.716l37.068-9.536a1.414,1.414,0,0,1,1.717,1.014h0A1.413,1.413,0,0,1,6628,1760.172Z" transform="translate(-6584.089 -1757.398)" fill="#e4ecf9"/>
        <path id="Path_943" data-name="Path 943" d="M6572.715,1799.482a1.4,1.4,0,1,1-1.709-1.01A1.4,1.4,0,0,1,6572.715,1799.482Z" transform="translate(-6569.951 -1787.578)" fill="#e4ecf9"/>
      </g>
      <g id="Group_247" data-name="Group 247" transform="translate(42.414 77.873)">
        <path id="Path_944" data-name="Path 944" d="M6633.389,1781.119l-37.068,9.536a1.414,1.414,0,0,1-1.716-1.014h0a1.413,1.413,0,0,1,1.014-1.716l37.068-9.536a1.413,1.413,0,0,1,1.716,1.014h0A1.413,1.413,0,0,1,6633.389,1781.119Z" transform="translate(-6588.959 -1778.346)" fill="#e4ecf9"/>
        <circle id="Ellipse_42" data-name="Ellipse 42" cx="1.404" cy="1.404" r="1.404" transform="translate(0 12.749) rotate(-59.427)" fill="#e4ecf9"/>
      </g>
      <g id="Group_248" data-name="Group 248" transform="translate(44.357 83.412)">
        <path id="Path_945" data-name="Path 945" d="M6638.778,1802.066l-37.068,9.536a1.413,1.413,0,0,1-1.716-1.014h0a1.413,1.413,0,0,1,1.014-1.716l37.068-9.536a1.413,1.413,0,0,1,1.716,1.013h0A1.413,1.413,0,0,1,6638.778,1802.066Z" transform="translate(-6594.867 -1799.292)" fill="#e4ecf9"/>
        <path id="Path_946" data-name="Path 946" d="M6583.493,1841.375a1.4,1.4,0,1,1-1.71-1.01A1.405,1.405,0,0,1,6583.493,1841.375Z" transform="translate(-6580.729 -1829.471)" fill="#e4ecf9"/>
      </g>
      <path id="Path_947" data-name="Path 947" d="M6712.591,1799.613a13.673,13.673,0,1,0,12.573,17.663l-3.55-13.8A13.609,13.609,0,0,0,6712.591,1799.613Zm9.588,14.031a10.092,10.092,0,1,1-9.719-10.453A10.1,10.1,0,0,1,6722.179,1813.644Z" transform="translate(-6622.94 -1716.109)" fill="#3a7ec1" opacity="0.2" style="mix-blend-mode: multiply;isolation: isolate"/>
      <path id="Path_948" data-name="Path 948" d="M6687.5,1815.591a13.671,13.671,0,0,0,27.026,3.376l2.47.09a1.512,1.512,0,0,0,1.391,1.073l19.08.695a1.512,1.512,0,0,0,1.565-1.455l.138-3.8a1.511,1.511,0,0,0-1.455-1.565l-19.08-.695a1.51,1.51,0,0,0-1.464.969l-2.471-.09a13.671,13.671,0,0,0-27.2,1.4Zm14.03-9.588a10.092,10.092,0,1,1-10.452,9.719A10.1,10.1,0,0,1,6701.531,1806Z" transform="translate(-6614.901 -1718.178)" fill="#52d1bd"/>
      <path id="Path_949" data-name="Path 949" d="M6514.857,1797.249l2.776,10.792a1.647,1.647,0,0,1-1.185,2.007L6504.975,1813l-3.6-13.985,11.474-2.951A1.647,1.647,0,0,1,6514.857,1797.249Z" transform="translate(-6478.004 -1713.466)" fill="#3a7ec1" opacity="0.2" style="mix-blend-mode: multiply;isolation: isolate"/>
      <g id="Group_250" data-name="Group 250" transform="translate(0.899 80.377)">
        <rect id="Rectangle_32" data-name="Rectangle 32" width="33.967" height="14.441" rx="6.233" transform="translate(0 8.463) rotate(-14.427)" fill="#52d1bd"/>
        <g id="Group_249" data-name="Group 249" transform="translate(4.099 9.461)">
          <path id="Path_950" data-name="Path 950" d="M6435.161,1829.275l.781,3.038-1.947.5-2.1-8.179,3.223-.829a4.754,4.754,0,0,1,1.71-.194,2.517,2.517,0,0,1,1.233.561,2.413,2.413,0,0,1,.824,1.34,3.121,3.121,0,0,1,.064,1.242,2.195,2.195,0,0,1-.444,1.079,2.564,2.564,0,0,1-.735.656,5.719,5.719,0,0,1-1.258.438Zm-.448-1.469,1.246-.321a1.319,1.319,0,0,0,.917-.587,1.153,1.153,0,0,0,.093-.829,1.055,1.055,0,0,0-.524-.708,1.447,1.447,0,0,0-1.049-.043l-1.24.319Z" transform="translate(-6431.892 -1823.592)" fill="#b3cef6"/>
          <path id="Path_951" data-name="Path 951" d="M6464.937,1831.408l-1.731.446-1.557-6.052,1.636-.421.289,1.126q.054-1.355.983-1.594.132-.034.328-.065l.453,1.761a1.829,1.829,0,0,0-.8.386,1.258,1.258,0,0,0-.34.729,3.067,3.067,0,0,0,.109,1.221Z" transform="translate(-6453.779 -1824.516)" fill="#b3cef6"/>
        </g>
        <path id="Path_952" data-name="Path 952" d="M6487.5,1810.185l-6.073,1.562a.9.9,0,0,1-1.1-.651h0a.905.905,0,0,1,.651-1.1l6.073-1.562a.905.905,0,0,1,1.1.651h0A.9.9,0,0,1,6487.5,1810.185Z" transform="translate(-6463.399 -1802.958)" fill="#b3cef6"/>
        <path id="Path_953" data-name="Path 953" d="M6496.459,1816.661l-11.9,3.062a.9.9,0,0,1-1.1-.651h0a.905.905,0,0,1,.651-1.1l11.9-3.062a.906.906,0,0,1,1.1.651h0A.906.906,0,0,1,6496.459,1816.661Z" transform="translate(-6465.698 -1807.722)" fill="#b3cef6"/>
        <path id="Path_954" data-name="Path 954" d="M6499.584,1828.81l-11.9,3.063a.905.905,0,0,1-1.1-.651h0a.905.905,0,0,1,.651-1.1l11.9-3.062a.906.906,0,0,1,1.1.651h0A.906.906,0,0,1,6499.584,1828.81Z" transform="translate(-6467.996 -1816.658)" fill="#b3cef6"/>
      </g>
      <path id="Path_955" data-name="Path 955" d="M6774.08,1503.851l.115,1.058.363,3.378h0l.119,1.107.067.618,1.62,15.036v0l1.6,14.845-.031,3.153a2.632,2.632,0,0,1-1.626,2.408l-.144.015-38.854,4.186-1.264.137-5.391-5.442-3.56-3.593-.286-.29h0l-.9-.9-.419-.424-.409-.412-.458-.462-.61-.616h0l-.17-1.585-.564-5.234-.57-5.289h0l-.2-1.892h0l-.131-1.213h0l-.246-2.281-.345-3.2-.114-1.058,2.461-.265,6.132-.661a2.651,2.651,0,0,0,1.416-.6l.031-.027a.336.336,0,0,0,.032-.026s0,0,0,0a2.759,2.759,0,0,0,.34-.366,2.444,2.444,0,0,0,.188-.279c.029-.048.055-.1.081-.149a2.793,2.793,0,0,0,.158-.4.015.015,0,0,1,0,0l1.019-3.292a2.626,2.626,0,0,1,.283-.622c.014-.024.03-.049.046-.072a2.565,2.565,0,0,1,.317-.39c.039-.039.08-.078.121-.114a2.521,2.521,0,0,1,.33-.252,2.744,2.744,0,0,1,.424-.221.223.223,0,0,1,.039-.015l.076-.029a2.6,2.6,0,0,1,.605-.139l24.88-2.681,10.968-1.181Z" transform="translate(-6640.042 -1498.567)" fill="#3a7ec1" opacity="0.2" style="mix-blend-mode: multiply;isolation: isolate"/>
      <path id="Path_956" data-name="Path 956" d="M6774.959,1485.536l.083.773.335,3.109.114,1.057.345,3.2.139,1.289.067.616v0l.254,2.359h0l.081.737,2.638,24.493,0,.023.041.378c.073.666-.549,1.286-1.4,1.425-.042.007-.081.013-.122.017l-41.855,4.509-1.264.136-3.56-3.593-.287-.29-.172-1.586h0l-1.841-17.087-.067-.618-.138-1.289L6728,1502l-.115-1.058-.493-4.576-.606-5.637a1.866,1.866,0,0,1,1.656-2.055l11.861-1.279,32.6-3.512A1.866,1.866,0,0,1,6774.959,1485.536Z" transform="translate(-6643.799 -1483.869)" fill="#fff"/>
      <path id="Path_957" data-name="Path 957" d="M6778.467,1504.856l.114,1.057.345,3.2.138,1.289.067.616v0l.255,2.358.079.737,2.638,24.493,0,.023a1.673,1.673,0,0,1-1.3,1.792l-.06.011c-.041.007-.08.013-.121.017l-41.855,4.509-1.265.137-3.56-3.593-.287-.29h0l-.17-1.585h0l-1.841-17.087-.067-.618-.138-1.289-.344-3.2-.114-1.058,6.132-.661a2.653,2.653,0,0,0,1.416-.6l.031-.027c.011-.008.021-.018.032-.027h0a2.792,2.792,0,0,0,.34-.366,2.675,2.675,0,0,0,.187-.279c.029-.048.055-.1.081-.149a2.737,2.737,0,0,0,.158-.4.015.015,0,0,0,0,0l1.019-3.292a2.648,2.648,0,0,1,.283-.622c.014-.024.03-.049.046-.072a2.588,2.588,0,0,1,.317-.39c.039-.039.08-.078.121-.115a2.59,2.59,0,0,1,.755-.473.233.233,0,0,1,.039-.015l.076-.029a2.541,2.541,0,0,1,.606-.14l24.88-2.68Z" transform="translate(-6646.889 -1499.306)" fill="#3a7ec1" opacity="0.2" style="mix-blend-mode: multiply;isolation: isolate"/>
      <path id="Path_958" data-name="Path 958" d="M6768.711,1509.514l-.015,1.567-.006.625-.338,34.486a2.647,2.647,0,0,1-2.364,2.606l-.584.063-37.782,4.071-1.265.136L6725.3,1552l-5.39-5.442-3.561-3.593-.286-.29h0l-.9-.9-.42-.424-.409-.412-.458-.463-.611-.615h0l-1.786-1.8-1.061-1.071-.42-1.837-2.816-12.334-.058-.255a2.647,2.647,0,0,1,2.3-3.22l1.614-.174,2.461-.265,7-.754.192-.021a2.647,2.647,0,0,0,2.246-1.851l.5-1.616.518-1.678a2.646,2.646,0,0,1,2.247-1.851l34.79-3.749,2.46-.264,2.336-.252A2.647,2.647,0,0,1,6768.711,1509.514Z" transform="translate(-6629.292 -1500.766)" fill="#f9c067"/>
      <path id="Path_959" data-name="Path 959" d="M6783.574,1523.011a2.959,2.959,0,0,0-2.3-.75l-1.384.149-3.469.374-1.3.14h0l-2.459.264h0l-30.974,3.337a2.955,2.955,0,0,0-2.509,2.068l-1.017,3.294a2.335,2.335,0,0,1-1.981,1.635l-11.007,1.186-.259.028a2.962,2.962,0,0,0-2.091,1.224l0,0h0a2.955,2.955,0,0,0-.472,2.369l1.376,6.027,1.385,6.062.419,1.837.409.412.419.424-.42-1.837-2.782-12.187h0l-.2-.875a2.292,2.292,0,0,1,0-1.017h0a2.329,2.329,0,0,1,1.7-1.765,2.382,2.382,0,0,1,.332-.06l.259-.028,11.007-1.186a2.954,2.954,0,0,0,2.51-2.069l1.017-3.294a2.331,2.331,0,0,1,1.982-1.633l30.973-3.337h0l2.459-.264h0l1.565-.169,3.129-.338,1.456-.156a2.337,2.337,0,0,1,2.587,2.345l-.36,36.678a2.335,2.335,0,0,1-2.085,2.3l-38.605,4.159-1.264.136.56.565,1.265-.135,38.112-4.107a2.912,2.912,0,0,0,.422-.076,2.958,2.958,0,0,0,2.218-2.835l.36-36.677A2.96,2.96,0,0,0,6783.574,1523.011Z" transform="translate(-6640.483 -1512.096)" fill="#444"/>
      <path id="Path_960" data-name="Path 960" d="M6649.035,1518.478l3.277,1.455a.275.275,0,0,0,.379-.316l-.838-3.486a.277.277,0,0,1,.063-.249l2.4-2.667a.275.275,0,0,0-.183-.459l-3.574-.28a.276.276,0,0,1-.217-.137l-1.8-3.1a.276.276,0,0,0-.493.033l-1.371,3.313a.277.277,0,0,1-.2.164l-3.506.749a.276.276,0,0,0-.121.479l2.727,2.327a.277.277,0,0,1,.1.238l-.372,3.566a.276.276,0,0,0,.418.264l3.056-1.875A.276.276,0,0,1,6649.035,1518.478Z" transform="translate(-6581.996 -1502.427)" fill="#fff"/>
      <path id="Path_961" data-name="Path 961" d="M6682.67,1580l-.706.7-11.221-11.328-.56-.565-1.168-1.178-2.893-2.921-1.062-1.071-5.39-5.442-3.56-3.593-.287-.29h0l-.9-.9-.419-.424-.409-.412-.458-.463-.61-.616h0l-1.786-1.8-1.062-1.071-4.9-4.942-4.863-4.91-2.184-2.205-.506-.511-.589-.594-1.492-1.506-7.908-7.983-.854-.862-1.724-1.739.707-.7,1.1,1.106.935.944,4.543,4.585.771.78,3.766,3.8,1.41,1.423.455.458.506.512,2.184,2.2,3.328,3.36,4.9,4.943.99,1,2.107,2.127.29.292.531.535.336.34.492.5,1.111,1.121.033.032h0l5.282,5.333,5.391,5.442,1.062,1.071,2.894,2.921,1.167,1.179.561.566Z" transform="translate(-6569.058 -1512.401)" fill="#444"/>
      <g id="Group_252" data-name="Group 252" transform="translate(105.218 57.057)">
        <g id="Group_251" data-name="Group 251">
          <path id="Path_962" data-name="Path 962" d="M6890.917,1702.706a1.186,1.186,0,0,0-1.545-.635l-11.044,4.614,12.868-3.311Z" transform="translate(-6860.49 -1701.359)" fill="none"/>
          <path id="Path_963" data-name="Path 963" d="M6841.035,1808.2a1.183,1.183,0,0,0,1.545.635l11.044-4.614-12.869,3.311Z" transform="translate(-6832.854 -1776.558)" fill="none"/>
          <path id="Path_964" data-name="Path 964" d="M6813.317,1746.568a1.175,1.175,0,0,0,0,.9l2.451,5.867-1.9-7.374A1.169,1.169,0,0,0,6813.317,1746.568Z" transform="translate(-6812.605 -1733.712)" fill="none"/>
          <path id="Path_965" data-name="Path 965" d="M6947.354,1756.005l-2.452-5.867,1.9,7.374A1.182,1.182,0,0,0,6947.354,1756.005Z" transform="translate(-6909.459 -1736.781)" fill="none"/>
          <path id="Path_966" data-name="Path 966" d="M6832.236,1710.563l-16.489,6.889c-.028.011-.055.025-.081.038l1.9,7.374,4.738,11.341,12.868-3.311,16.489-6.888c.028-.012.055-.025.081-.039l-1.9-7.374-4.737-11.341Z" transform="translate(-6814.399 -1705.236)" fill="#fff"/>
          <path id="Path_967" data-name="Path 967" d="M6815.583,1726.831a1.5,1.5,0,0,0-1.073,1.817l.113.441,12.53-5.234Z" transform="translate(-6813.515 -1717.448)" fill="#fff"/>
          <path id="Path_968" data-name="Path 968" d="M6916.863,1782.6a1.5,1.5,0,0,0,1.073-1.817l-.114-.441-12.53,5.234Z" transform="translate(-6880.324 -1758.996)" fill="#fff"/>
          <path id="Path_969" data-name="Path 969" d="M6930.811,1707.945a1.5,1.5,0,0,0-1.452-1.118l3.03,7.254Z" transform="translate(-6898.026 -1704.923)" fill="#fff"/>
          <path id="Path_970" data-name="Path 970" d="M6828.5,1795.863a1.5,1.5,0,0,0,1.452,1.118l-3.031-7.255Z" transform="translate(-6822.68 -1765.9)" fill="#fff"/>
          <path id="Path_971" data-name="Path 971" d="M6840.835,1805.826a1.182,1.182,0,0,1-1.545-.635l-.279-.668-.262.068a1.478,1.478,0,0,1-.365.045l.333.8a1.806,1.806,0,0,0,2.111,1.052,1.837,1.837,0,0,0,.247-.083l15-6.267-4.2,1.08Z" transform="translate(-6831.109 -1773.554)" fill="#444"/>
          <path id="Path_972" data-name="Path 972" d="M6944.923,1744.086l-4.1-9.827,1.081,4.2,2.451,5.867a1.181,1.181,0,0,1-.554,1.507l.158.613h0A1.8,1.8,0,0,0,6944.923,1744.086Z" transform="translate(-6906.456 -1725.101)" fill="#444"/>
          <path id="Path_973" data-name="Path 973" d="M6811.588,1745.768a1.185,1.185,0,0,1,.554-1.507l-.158-.613h0a1.806,1.806,0,0,0-.969,2.359l4.1,9.826-1.08-4.2Z" transform="translate(-6810.875 -1732.007)" fill="#444"/>
          <path id="Path_974" data-name="Path 974" d="M6877.693,1700.342a1.187,1.187,0,0,1,1.545.635l.279.668.262-.067a1.46,1.46,0,0,1,.365-.045l-.333-.8a1.807,1.807,0,0,0-2.358-.969l-15,6.267,4.2-1.08Z" transform="translate(-6848.812 -1699.629)" fill="#444"/>
          <path id="Path_975" data-name="Path 975" d="M6815.308,1726.659l16.49-6.888-4.2,1.08-12.53,5.234.158.613C6815.254,1726.684,6815.28,1726.671,6815.308,1726.659Z" transform="translate(-6813.96 -1714.444)" fill="#fff"/>
          <path id="Path_976" data-name="Path 976" d="M6905.907,1778.061l-16.489,6.888,4.2-1.08,12.53-5.234-.158-.613C6905.961,1778.036,6905.936,1778.049,6905.907,1778.061Z" transform="translate(-6868.647 -1757.291)" fill="#fff"/>
          <path id="Path_977" data-name="Path 977" d="M6827.577,1785.189l-4.738-11.341,1.08,4.2,3.031,7.255a1.478,1.478,0,0,0,.365-.045Z" transform="translate(-6819.675 -1754.221)" fill="#fff"/>
          <path id="Path_978" data-name="Path 978" d="M6926.988,1706.939l4.737,11.341-1.08-4.2-3.03-7.254a1.469,1.469,0,0,0-.365.045Z" transform="translate(-6896.283 -1704.923)" fill="#fff"/>
        </g>
        <path id="Path_979" data-name="Path 979" d="M6844.3,1734.02l-14.149,3.64a.994.994,0,0,1-1.211-.716h0a.994.994,0,0,1,.715-1.211l14.149-3.64a.994.994,0,0,1,1.211.715h0A1,1,0,0,1,6844.3,1734.02Z" transform="translate(-6824.136 -1723.485)" fill="#52d1bd"/>
        <path id="Path_980" data-name="Path 980" d="M6857.745,1738.016l-24.083,6.2a1,1,0,0,1-1.211-.716h0a.994.994,0,0,1,.715-1.211l24.083-6.2a1,1,0,0,1,1.211.716h0A1,1,0,0,1,6857.745,1738.016Z" transform="translate(-6826.722 -1726.424)" fill="#e4ecf9"/>
        <path id="Path_981" data-name="Path 981" d="M6861.26,1751.677l-24.083,6.2a1,1,0,0,1-1.211-.716h0a.994.994,0,0,1,.715-1.211l24.083-6.2a1,1,0,0,1,1.211.715h0A1,1,0,0,1,6861.26,1751.677Z" transform="translate(-6829.307 -1736.472)" fill="#e4ecf9"/>
        <path id="Path_982" data-name="Path 982" d="M6846.765,1789.57l1.269.3a.1.1,0,0,0,.115-.139l-.532-1.191a.1.1,0,0,1,.006-.093l.68-1.113a.1.1,0,0,0-.1-.152l-1.3.138a.1.1,0,0,1-.087-.034l-.849-.99a.1.1,0,0,0-.174.045l-.27,1.276a.1.1,0,0,1-.06.072l-1.2.5a.1.1,0,0,0-.012.179l1.13.651a.1.1,0,0,1,.05.079l.1,1.3a.1.1,0,0,0,.167.066l.968-.874A.1.1,0,0,1,6846.765,1789.57Z" transform="translate(-6835.39 -1763.353)" fill="#e4ecf9"/>
        <path id="Path_983" data-name="Path 983" d="M6865.595,1784.726l1.269.3a.1.1,0,0,0,.115-.139l-.532-1.19a.1.1,0,0,1,.006-.093l.679-1.113a.1.1,0,0,0-.1-.152l-1.3.138a.1.1,0,0,1-.086-.034l-.849-.99a.1.1,0,0,0-.174.045l-.269,1.276a.1.1,0,0,1-.061.072l-1.2.5a.1.1,0,0,0-.012.18l1.13.651a.1.1,0,0,1,.05.079l.1,1.3a.1.1,0,0,0,.167.066l.968-.874A.1.1,0,0,1,6865.595,1784.726Z" transform="translate(-6849.241 -1759.79)" fill="#e4ecf9"/>
        <path id="Path_984" data-name="Path 984" d="M6884.424,1779.881l1.269.3a.1.1,0,0,0,.115-.138l-.532-1.191a.1.1,0,0,1,.006-.093l.679-1.113a.1.1,0,0,0-.1-.152l-1.3.138a.1.1,0,0,1-.086-.034l-.849-.99a.1.1,0,0,0-.174.044l-.27,1.276a.1.1,0,0,1-.06.072l-1.2.5a.1.1,0,0,0-.012.179l1.13.651a.1.1,0,0,1,.049.079l.105,1.3a.1.1,0,0,0,.167.066l.968-.874A.1.1,0,0,1,6884.424,1779.881Z" transform="translate(-6863.091 -1756.226)" fill="#e4ecf9"/>
        <path id="Path_985" data-name="Path 985" d="M6903.254,1775.037l1.269.3a.1.1,0,0,0,.115-.138l-.532-1.191a.1.1,0,0,1,.006-.093l.679-1.113a.1.1,0,0,0-.1-.152l-1.3.138a.1.1,0,0,1-.087-.035l-.849-.99a.1.1,0,0,0-.174.044l-.27,1.276a.1.1,0,0,1-.06.072l-1.2.5a.1.1,0,0,0-.012.179l1.13.651a.1.1,0,0,1,.05.079l.1,1.3a.1.1,0,0,0,.167.066l.968-.874A.1.1,0,0,1,6903.254,1775.037Z" transform="translate(-6876.941 -1752.663)" fill="#e4ecf9"/>
        <path id="Path_986" data-name="Path 986" d="M6922.085,1770.193l1.269.3a.1.1,0,0,0,.115-.139l-.532-1.19a.1.1,0,0,1,.006-.093l.679-1.113a.1.1,0,0,0-.1-.152l-1.3.138a.1.1,0,0,1-.087-.034l-.848-.99a.1.1,0,0,0-.174.045l-.27,1.276a.1.1,0,0,1-.059.072l-1.2.5a.1.1,0,0,0-.012.179l1.13.651a.1.1,0,0,1,.05.079l.1,1.3a.1.1,0,0,0,.167.066l.968-.874A.1.1,0,0,1,6922.085,1770.193Z" transform="translate(-6890.792 -1749.1)" fill="#fff"/>
      </g>
    </g>
    <circle id="Ellipse_43" data-name="Ellipse 43" cx="4.387" cy="4.387" r="4.387" transform="matrix(0.996, -0.088, 0.088, 0.996, 6566.476, 1494.827)" fill="#52d1bd"/>
    <circle id="Ellipse_44" data-name="Ellipse 44" cx="3.103" cy="3.103" r="3.103" transform="translate(6457.75 1482.91) rotate(-69.682)" fill="#52d1bd"/>
    <path id="Path_987" data-name="Path 987" d="M6733.381,1976.411a3.1,3.1,0,1,1-4.115-1.524A3.1,3.1,0,0,1,6733.381,1976.411Z" transform="translate(-231.308 -385.298)" fill="#52d1bd"/>
  </g>
</svg>
