<svg xmlns="http://www.w3.org/2000/svg" width="177.502" height="143.667" viewBox="0 0 177.502 143.667">
  <g id="Group_272" data-name="Group 272" transform="translate(-6302.064 -633.234)">
    <path id="Path_988" data-name="Path 988" d="M6313.933,743.944c-4.7-7.038-15.944-23.857-10.338-40.244,3.012-8.8,11.07-18.026,38.383-27.819,21.242-7.616,100.955-36.2,128.642-.587,16.489,21.207,5.7,53.827,2.748,62.754-2.613,7.9-11.385,34.424-36.686,47.8C6394.808,807.982,6337.066,778.558,6313.933,743.944Z" transform="translate(0 -18.237)" fill="#52d1bd" opacity="0.14"/>
    <path id="Path_989" data-name="Path 989" d="M6454.57,828.827a3.635,3.635,0,0,1-3.63-3.579l-1.082-75.235a3.635,3.635,0,0,1,3.579-3.683l107.857-1.551a3.631,3.631,0,0,1,3.683,3.578l1.082,75.236a3.636,3.636,0,0,1-3.579,3.683l-107.856,1.551Zm106.777-83.316h-.043l-107.857,1.551a2.9,2.9,0,0,0-2.856,2.939l1.082,75.235a2.894,2.894,0,0,0,2.939,2.856l107.857-1.551a2.9,2.9,0,0,0,2.856-2.939l-1.083-75.235a2.9,2.9,0,0,0-2.9-2.856Z" transform="translate(-109.652 -82.758)" fill="#444"/>
    <g id="Group_257" data-name="Group 257" transform="translate(6333.792 650.772)">
      <path id="Path_990" data-name="Path 990" d="M6550.88,781l-105.174,23.954a3.265,3.265,0,0,1-3.908-2.458l-16.709-73.365a3.265,3.265,0,0,1,2.458-3.908l105.175-23.954a3.264,3.264,0,0,1,3.908,2.458l16.709,73.365A3.265,3.265,0,0,1,6550.88,781Z" transform="translate(-6425.006 -701.192)" fill="#52d1bd"/>
      <path id="Path_991" data-name="Path 991" d="M6462.518,847.863h-.007a2.831,2.831,0,0,1-2.5-1.605.442.442,0,0,1,.8-.38,1.941,1.941,0,0,0,1.712,1.1.442.442,0,0,1-.006.885Zm2.579-.518a.443.443,0,0,1-.1-.874l2.57-.585a.443.443,0,0,1,.2.863l-2.57.585A.445.445,0,0,1,6465.1,847.345Zm5.14-1.171a.443.443,0,0,1-.1-.874l2.57-.585a.443.443,0,1,1,.2.863l-2.57.585A.448.448,0,0,1,6470.237,846.174Zm5.14-1.171a.443.443,0,0,1-.1-.874l2.57-.585a.443.443,0,0,1,.2.863l-2.57.585A.451.451,0,0,1,6475.377,845Zm-15.6-1.046a.443.443,0,0,1-.431-.344l-.585-2.57a.442.442,0,1,1,.863-.2l.586,2.57a.444.444,0,0,1-.333.53A.468.468,0,0,1,6459.772,843.958Zm20.745-.125a.443.443,0,0,1-.1-.874l2.57-.585a.443.443,0,0,1,.2.863l-2.57.585A.445.445,0,0,1,6480.517,843.833Zm5.14-1.171a.443.443,0,0,1-.1-.874l2.57-.585a.443.443,0,1,1,.2.863l-2.57.585A.468.468,0,0,1,6485.657,842.662Zm5.14-1.171a.442.442,0,0,1-.1-.874l2.57-.585a.442.442,0,1,1,.2.863l-2.57.585A.448.448,0,0,1,6490.8,841.491Zm5.14-1.171a.443.443,0,0,1-.1-.874l2.57-.585a.443.443,0,0,1,.2.863l-2.57.585A.442.442,0,0,1,6495.938,840.321Zm5.14-1.171a.443.443,0,0,1-.1-.874l2.57-.585a.443.443,0,0,1,.2.863l-2.569.585A.475.475,0,0,1,6501.078,839.15Zm-42.476-.333a.443.443,0,0,1-.431-.344l-.585-2.57a.443.443,0,0,1,.863-.2l.585,2.57a.443.443,0,0,1-.432.541Zm47.616-.838a.443.443,0,0,1-.1-.874l2.57-.585a.445.445,0,0,1,.532.328.439.439,0,0,1-.319.531l-.028.006-2.559.583A.459.459,0,0,1,6506.218,837.979Zm4.352-2.351a.435.435,0,0,1-.1-.012.443.443,0,0,1-.329-.533,1.9,1.9,0,0,0,.052-.443,1.951,1.951,0,0,0-.049-.43l-.345-1.514a.442.442,0,0,1,.863-.2l.345,1.514a2.836,2.836,0,0,1,.071.627,2.779,2.779,0,0,1-.076.647A.443.443,0,0,1,6510.57,835.628Zm-53.139-1.951a.443.443,0,0,1-.431-.344l-.585-2.57a.442.442,0,1,1,.863-.2l.585,2.57a.443.443,0,0,1-.432.541Zm52.212-3.206a.443.443,0,0,1-.432-.344l-.585-2.57a.442.442,0,1,1,.863-.2l.585,2.57a.443.443,0,0,1-.333.53A.448.448,0,0,1,6509.644,830.471Zm-53.383-1.933a.443.443,0,0,1-.431-.344l-.585-2.57a.442.442,0,1,1,.863-.2l.585,2.57a.442.442,0,0,1-.333.53A.448.448,0,0,1,6456.261,828.537Zm52.212-3.207a.443.443,0,0,1-.432-.344l-.585-2.57a.443.443,0,0,1,.863-.2l.585,2.57a.442.442,0,0,1-.333.53A.451.451,0,0,1,6508.473,825.331ZM6455.09,823.4a.443.443,0,0,1-.432-.344l-.585-2.57a.443.443,0,0,1,.863-.2l.585,2.57a.443.443,0,0,1-.333.53A.459.459,0,0,1,6455.09,823.4Zm52.212-3.207a.443.443,0,0,1-.431-.344l-.585-2.57a.442.442,0,1,1,.863-.2l.585,2.57a.443.443,0,0,1-.333.53A.448.448,0,0,1,6507.3,820.191Zm-53.383-1.933a.443.443,0,0,1-.431-.344l-.585-2.57a.442.442,0,1,1,.863-.2l.585,2.57a.442.442,0,0,1-.333.53A.467.467,0,0,1,6453.919,818.257Zm52.212-3.207a.443.443,0,0,1-.431-.344l-.585-2.57a.442.442,0,1,1,.863-.2l.586,2.57a.443.443,0,0,1-.432.541Zm-53.383-1.933a.443.443,0,0,1-.431-.344l-.585-2.57a.442.442,0,1,1,.863-.2l.585,2.57a.443.443,0,0,1-.333.53A.468.468,0,0,1,6452.749,813.117Zm52.212-3.207a.443.443,0,0,1-.431-.344l-.585-2.57a.443.443,0,0,1,.864-.2l.584,2.57a.442.442,0,0,1-.432.541Zm-53.382-1.933a.443.443,0,0,1-.431-.344l-.585-2.57a.443.443,0,0,1,.863-.2l.585,2.57a.443.443,0,0,1-.432.541Zm52.212-3.207a.443.443,0,0,1-.431-.344l-.585-2.57a.442.442,0,1,1,.863-.2l.585,2.57a.442.442,0,0,1-.432.541Zm-53.382-1.933a.443.443,0,0,1-.432-.344l-.585-2.57a.443.443,0,0,1,.863-.2l.585,2.57a.443.443,0,0,1-.432.541Zm52.211-3.207a.443.443,0,0,1-.431-.344l-.585-2.57a.442.442,0,0,1,.863-.2l.585,2.57a.443.443,0,0,1-.333.529A.449.449,0,0,1,6502.619,799.63Zm-53.383-1.933a.442.442,0,0,1-.43-.344l-.586-2.57a.442.442,0,0,1,.863-.2l.586,2.57a.443.443,0,0,1-.333.53A.449.449,0,0,1,6449.236,797.7Zm52.212-3.206a.442.442,0,0,1-.431-.344l-.585-2.57a.443.443,0,0,1,.863-.2l.585,2.57a.443.443,0,0,1-.432.541Zm-53.383-1.934a.443.443,0,0,1-.431-.344l-.585-2.57a.442.442,0,1,1,.863-.2l.585,2.57a.442.442,0,0,1-.333.53A.456.456,0,0,1,6448.066,792.557Zm52.212-3.207a.443.443,0,0,1-.432-.344l-.585-2.57a.443.443,0,0,1,.863-.2l.585,2.57a.443.443,0,0,1-.431.541Zm-53.383-1.933a.443.443,0,0,1-.431-.344l-.585-2.57a.443.443,0,0,1,.863-.2l.585,2.57a.443.443,0,0,1-.333.53A.448.448,0,0,1,6446.9,787.417Zm52.212-3.206a.443.443,0,0,1-.431-.344l-.585-2.57a.442.442,0,1,1,.863-.2l.585,2.57a.443.443,0,0,1-.333.53A.452.452,0,0,1,6499.107,784.21Zm-53.383-1.933a.443.443,0,0,1-.431-.344l-.344-1.51a2.836,2.836,0,0,1-.07-.627,2.793,2.793,0,0,1,.077-.652.442.442,0,1,1,.86.206,1.908,1.908,0,0,0-.053.446,1.948,1.948,0,0,0,.049.43l.344,1.51a.443.443,0,0,1-.432.541Zm52.212-3.207a.443.443,0,0,1-.432-.344l-.585-2.57a.442.442,0,1,1,.863-.2l.585,2.57a.443.443,0,0,1-.333.53A.455.455,0,0,1,6497.937,779.07Zm-50.672-1.154-.1-.431-.087-.434h0l2.555-.582a.443.443,0,1,1,.2.863Zm5.038-1.159a.443.443,0,0,1-.1-.874l2.57-.586a.443.443,0,0,1,.2.863l-2.57.586A.459.459,0,0,1,6452.3,776.758Zm5.14-1.171a.443.443,0,0,1-.1-.874l2.57-.585a.443.443,0,0,1,.2.863l-2.57.585A.445.445,0,0,1,6457.443,775.587Zm5.14-1.171a.443.443,0,0,1-.1-.874l2.57-.585a.443.443,0,0,1,.2.863l-2.57.585A.448.448,0,0,1,6462.583,774.416Zm34.183-.486a.442.442,0,0,1-.431-.344l-.585-2.57a.443.443,0,0,1,.863-.2l.585,2.57a.443.443,0,0,1-.432.541Zm-29.043-.685a.443.443,0,0,1-.1-.874l2.57-.585a.443.443,0,0,1,.2.863l-2.57.585A.46.46,0,0,1,6467.723,773.245Zm5.14-1.171a.442.442,0,0,1-.1-.874l2.57-.585a.442.442,0,1,1,.2.863l-2.57.586A.467.467,0,0,1,6472.863,772.075ZM6478,770.9a.442.442,0,0,1-.1-.874l2.57-.586a.443.443,0,0,1,.2.863l-2.57.585A.456.456,0,0,1,6478,770.9Zm5.141-1.171a.443.443,0,0,1-.1-.874l2.57-.585a.443.443,0,0,1,.2.863l-2.57.585A.441.441,0,0,1,6483.144,769.733Zm12.4-.926a.443.443,0,0,1-.4-.252,1.94,1.94,0,0,0-1.713-1.1.442.442,0,1,1,.012-.885,2.83,2.83,0,0,1,2.5,1.6.443.443,0,0,1-.4.633Zm-7.258-.245a.443.443,0,0,1-.1-.874l2.57-.585a.443.443,0,1,1,.2.863l-2.57.585A.464.464,0,0,1,6488.283,768.563Z" transform="translate(-6439.751 -749.7)" fill="#c9dcf7"/>
      <path id="Path_992" data-name="Path 992" d="M6672.163,771.927a2.8,2.8,0,0,1-1.832-.683.443.443,0,1,1,.579-.67,1.928,1.928,0,0,0,1.681.42l.432-.1a.442.442,0,0,1,.2.863l-.431.1A2.822,2.822,0,0,1,6672.163,771.927Zm3.545-.747a.442.442,0,0,1-.1-.874l2.588-.59a.443.443,0,0,1,.2.863l-2.588.589A.441.441,0,0,1,6675.708,771.18Zm5.177-1.179a.442.442,0,0,1-.1-.874l2.588-.59a.443.443,0,1,1,.2.863l-2.588.589A.448.448,0,0,1,6680.885,770Zm-11.279-1.04a.443.443,0,0,1-.432-.344l-.589-2.589a.443.443,0,0,1,.863-.2l.589,2.588a.442.442,0,0,1-.333.53A.463.463,0,0,1,6669.606,768.961Zm16.456-.139a.443.443,0,0,1-.1-.874l2.588-.589a.442.442,0,1,1,.2.863l-2.589.59A.46.46,0,0,1,6686.062,768.822Zm5.177-1.179a.443.443,0,0,1-.1-.874l2.588-.589a.443.443,0,0,1,.2.863l-2.588.589A.452.452,0,0,1,6691.239,767.643Zm5.177-1.179a.443.443,0,0,1-.1-.874l2.588-.589a.443.443,0,1,1,.2.863l-2.588.589A.448.448,0,0,1,6696.416,766.464Zm5.177-1.179a.443.443,0,0,1-.1-.874l2.589-.589a.443.443,0,0,1,.2.863l-2.588.589A.453.453,0,0,1,6701.592,765.285Zm5.177-1.179a.443.443,0,0,1-.1-.874l2.589-.589a.443.443,0,0,1,.2.863l-2.588.589A.448.448,0,0,1,6706.77,764.106Zm-38.343-.322a.442.442,0,0,1-.431-.344l-.59-2.589a.442.442,0,0,1,.863-.2l.59,2.588a.443.443,0,0,1-.333.53A.463.463,0,0,1,6668.427,763.784Zm43.52-.858a.442.442,0,0,1-.1-.874l2.589-.59a.443.443,0,0,1,.2.863l-2.589.589A.444.444,0,0,1,6711.946,762.927Zm3.889-1.394a.442.442,0,0,1-.342-.723,1.92,1.92,0,0,0,.436-1.214,1.952,1.952,0,0,0-.048-.428l-.112-.492a.442.442,0,1,1,.863-.2l.112.492a2.8,2.8,0,0,1-.566,2.4A.442.442,0,0,1,6715.835,761.533Zm-48.588-2.926a.443.443,0,0,1-.431-.344l-.589-2.588a.442.442,0,0,1,.863-.2l.589,2.588a.443.443,0,0,1-.333.53A.449.449,0,0,1,6667.247,758.607Zm48.363-2.175a.443.443,0,0,1-.431-.344l-.59-2.588a.443.443,0,0,1,.863-.2l.589,2.588a.443.443,0,0,1-.432.541Zm-49.542-3a.443.443,0,0,1-.432-.344l-.589-2.589a.442.442,0,1,1,.863-.2l.589,2.588a.443.443,0,0,1-.431.541Zm48.362-2.175a.443.443,0,0,1-.431-.344l-.589-2.589a.442.442,0,1,1,.863-.2l.59,2.588a.443.443,0,0,1-.333.53A.452.452,0,0,1,6714.431,751.255Zm-49.542-3a.442.442,0,0,1-.431-.344l-.59-2.589a.442.442,0,1,1,.863-.2l.59,2.589a.443.443,0,0,1-.333.53A.451.451,0,0,1,6664.89,748.253Zm48.362-2.175a.443.443,0,0,1-.431-.344l-.589-2.589a.442.442,0,0,1,.863-.2l.59,2.589a.443.443,0,0,1-.333.53A.452.452,0,0,1,6713.252,746.078Zm-49.542-3a.443.443,0,0,1-.431-.344l-.59-2.589a.443.443,0,0,1,.863-.2l.589,2.588a.443.443,0,0,1-.432.541Zm48.363-2.175a.442.442,0,0,1-.431-.344l-.59-2.589a.443.443,0,0,1,.863-.2l.589,2.589a.443.443,0,0,1-.333.53A.456.456,0,0,1,6712.073,740.9Zm-49.542-3a.443.443,0,0,1-.431-.344l-.589-2.588a.442.442,0,1,1,.863-.2l.589,2.588a.442.442,0,0,1-.333.53A.452.452,0,0,1,6662.531,737.9Zm48.363-2.175a.443.443,0,0,1-.432-.344l-.589-2.589a.442.442,0,1,1,.862-.2l.59,2.588a.443.443,0,0,1-.333.53A.455.455,0,0,1,6710.894,735.725Zm-49.005-3a.443.443,0,0,1-.4-.637,2.791,2.791,0,0,1,1.9-1.5l.535-.122a.443.443,0,1,1,.2.863l-.535.122a1.91,1.91,0,0,0-1.3,1.028A.443.443,0,0,1,6661.889,732.724Zm4.719-1.976a.442.442,0,0,1-.1-.874l2.588-.59a.443.443,0,0,1,.2.863l-2.589.589A.442.442,0,0,1,6666.608,730.748Zm43.107-.2a.443.443,0,0,1-.431-.344l-.59-2.588a.442.442,0,0,1,.863-.2l.59,2.588a.443.443,0,0,1-.432.541Zm-37.929-.979a.443.443,0,0,1-.1-.874l2.588-.589a.442.442,0,0,1,.2.863l-2.588.59A.463.463,0,0,1,6671.786,729.569Zm5.176-1.179a.443.443,0,0,1-.1-.874l2.588-.589a.443.443,0,1,1,.2.863l-2.588.589A.449.449,0,0,1,6676.962,728.39Zm5.177-1.179a.442.442,0,0,1-.1-.874l2.588-.59a.443.443,0,1,1,.2.863l-2.588.589A.446.446,0,0,1,6682.139,727.211Zm5.177-1.179a.442.442,0,0,1-.1-.874l2.588-.59a.443.443,0,1,1,.2.863l-2.589.59A.463.463,0,0,1,6687.316,726.031Zm21.22-.661a.442.442,0,0,1-.431-.344l-.379-1.665a1.912,1.912,0,0,0-.314-.7.442.442,0,0,1,.717-.518,2.777,2.777,0,0,1,.459,1.018l.379,1.665a.442.442,0,0,1-.432.541Zm-16.042-.518a.443.443,0,0,1-.1-.874l2.588-.59a.443.443,0,0,1,.2.863l-2.588.59A.471.471,0,0,1,6692.493,724.853Zm5.177-1.179a.443.443,0,0,1-.1-.874l2.588-.589a.442.442,0,1,1,.2.863l-2.588.589A.445.445,0,0,1,6697.67,723.674Zm5.177-1.179a.443.443,0,0,1-.1-.874l2.485-.566.124-.025a.442.442,0,1,1,.158.871l-.085.017-2.485.566A.442.442,0,0,1,6702.847,722.494Z" transform="translate(-6600.428 -715.904)" fill="#c9dcf7"/>
      <path id="Path_993" data-name="Path 993" d="M6708.483,932.837a3.04,3.04,0,0,1-2.176-.926.442.442,0,1,1,.637-.614,2.162,2.162,0,0,0,2.016.6.442.442,0,1,1,.2.862A3.032,3.032,0,0,1,6708.483,932.837Zm3.164-.654a.443.443,0,0,1-.1-.874l2.588-.59a.443.443,0,0,1,.2.863l-2.588.59A.448.448,0,0,1,6711.647,932.183Zm5.177-1.179a.443.443,0,0,1-.1-.874l2.588-.589a.442.442,0,1,1,.2.863l-2.588.59A.444.444,0,0,1,6716.824,931Zm5.177-1.179a.443.443,0,0,1-.1-.874l2.589-.589a.442.442,0,1,1,.2.863l-2.589.59A.44.44,0,0,1,6722,929.824Zm-16.311-.219a.443.443,0,0,1-.431-.344l-.589-2.588a.442.442,0,1,1,.863-.2l.59,2.589a.443.443,0,0,1-.333.53A.449.449,0,0,1,6705.69,929.606Zm21.488-.961a.443.443,0,0,1-.1-.874l2.588-.589a.443.443,0,0,1,.2.863l-2.589.589A.445.445,0,0,1,6727.178,928.645Zm5.177-1.179a.442.442,0,0,1-.1-.874l2.588-.59a.443.443,0,1,1,.2.863l-2.589.589A.445.445,0,0,1,6732.354,927.466Zm5.177-1.179a.442.442,0,0,1-.1-.874l2.588-.589a.442.442,0,1,1,.2.863l-2.589.59A.464.464,0,0,1,6737.532,926.287Zm5.177-1.179a.442.442,0,0,1-.1-.874l2.588-.589a.443.443,0,0,1,.2.863l-2.588.589A.445.445,0,0,1,6742.708,925.108Zm-38.2-.679a.442.442,0,0,1-.431-.344l-.589-2.588a.443.443,0,0,1,.863-.2l.589,2.589a.442.442,0,0,1-.333.53A.452.452,0,0,1,6704.511,924.429Zm43.375-.5a.443.443,0,0,1-.1-.874l2.589-.589a2.128,2.128,0,0,0,1.457-1.169.443.443,0,0,1,.8.38,3.009,3.009,0,0,1-2.061,1.651l-2.588.59A.451.451,0,0,1,6747.886,923.929Zm4.325-4.589a.442.442,0,0,1-.431-.344l-.589-2.589a.442.442,0,1,1,.863-.2l.589,2.588a.442.442,0,0,1-.333.53A.455.455,0,0,1,6752.21,919.34Zm-48.878-.088a.443.443,0,0,1-.431-.344l-.589-2.588a.442.442,0,1,1,.863-.2l.59,2.589a.443.443,0,0,1-.333.53A.449.449,0,0,1,6703.332,919.252Zm47.7-5.089a.442.442,0,0,1-.431-.344l-.59-2.589a.443.443,0,0,1,.863-.2l.59,2.589a.443.443,0,0,1-.333.53A.467.467,0,0,1,6751.031,914.163Zm-48.878-.088a.442.442,0,0,1-.431-.344l-.538-2.36c-.021-.09-.037-.179-.049-.269a.443.443,0,0,1,.877-.12q.013.1.035.192l.538,2.361a.443.443,0,0,1-.333.529A.449.449,0,0,1,6702.153,914.075Zm.365-4.948a.442.442,0,0,1-.277-.787,2.993,2.993,0,0,1,1.221-.589l1.45-.33a.442.442,0,1,1,.2.863l-1.451.331a2.113,2.113,0,0,0-.863.416A.442.442,0,0,1,6702.518,909.127Zm47.335-.141a.443.443,0,0,1-.432-.344l-.589-2.588a.442.442,0,1,1,.863-.2l.589,2.589a.443.443,0,0,1-.431.541Zm-42.254-1.281a.443.443,0,0,1-.1-.874l2.589-.589a.442.442,0,0,1,.2.863l-2.588.59A.448.448,0,0,1,6707.6,907.705Zm5.177-1.179a.442.442,0,0,1-.1-.874l2.588-.59a.442.442,0,0,1,.2.863l-2.588.589A.444.444,0,0,1,6712.775,906.526Zm5.177-1.179a.442.442,0,0,1-.1-.874l2.588-.59a.442.442,0,1,1,.2.863l-2.589.589A.444.444,0,0,1,6717.952,905.347Zm5.177-1.179a.443.443,0,0,1-.1-.874l2.588-.59a.443.443,0,0,1,.2.863l-2.589.59A.46.46,0,0,1,6723.129,904.168Zm25.544-.359a.442.442,0,0,1-.431-.344l-.59-2.588a.442.442,0,1,1,.863-.2l.59,2.588a.443.443,0,0,1-.333.53A.448.448,0,0,1,6748.673,903.809Zm-20.368-.82a.443.443,0,0,1-.1-.874l2.588-.59a.443.443,0,0,1,.2.863l-2.589.59A.445.445,0,0,1,6728.306,902.989Zm5.177-1.179a.443.443,0,0,1-.1-.874l2.588-.589a.443.443,0,1,1,.2.863l-2.588.589A.445.445,0,0,1,6733.483,901.81Zm5.177-1.179a.443.443,0,0,1-.1-.874l2.589-.589a.443.443,0,0,1,.2.863l-2.588.589A.449.449,0,0,1,6738.66,900.631Zm5.177-1.179a.443.443,0,0,1-.1-.874l1.138-.259a3.02,3.02,0,0,1,1.715.11.443.443,0,0,1-.307.83,2.132,2.132,0,0,0-1.213-.078l-1.138.259A.441.441,0,0,1,6743.837,899.451Z" transform="translate(-6629.872 -847.39)" fill="#c9dcf7"/>
    </g>
    <path id="Path_994" data-name="Path 994" d="M6766.48,761.378l-3.607-42.419a2.292,2.292,0,0,0-2.478-2.089l-42.42,3.607a2.291,2.291,0,0,0-2.088,2.478l3.607,42.419a2.291,2.291,0,0,0,2.477,2.089l42.42-3.607A2.292,2.292,0,0,0,6766.48,761.378Z" transform="translate(-307.022 -62.046)" fill="#3a7ec1" opacity="0.2" style="mix-blend-mode: multiply;isolation: isolate"/>
    <path id="Path_995" data-name="Path 995" d="M6708.587,747.261a2.667,2.667,0,0,1-2.466-1.668l-15.883-39.5a2.662,2.662,0,0,1,1.475-3.458l39.5-15.883a2.661,2.661,0,0,1,3.458,1.474l15.883,39.5a2.658,2.658,0,0,1-1.475,3.458l-39.5,15.884A2.658,2.658,0,0,1,6708.587,747.261Zm23.613-59.966a1.919,1.919,0,0,0-.716.139l-39.5,15.884a1.928,1.928,0,0,0-1.068,2.5l15.884,39.5a1.926,1.926,0,0,0,2.5,1.068l39.5-15.884a1.925,1.925,0,0,0,1.068-2.5l-15.884-39.5A1.928,1.928,0,0,0,6732.2,687.294Z" transform="translate(-287.855 -39.565)" fill="#444"/>
    <g id="Group_259" data-name="Group 259" transform="translate(6407.235 653.043)">
      <path id="Path_996" data-name="Path 996" d="M6758.1,756.988l-42.419,3.607a2.291,2.291,0,0,1-2.478-2.089l-3.607-42.419a2.291,2.291,0,0,1,2.089-2.477L6754.109,710a2.291,2.291,0,0,1,2.477,2.089l3.607,42.419A2.292,2.292,0,0,1,6758.1,756.988Z" transform="translate(-6709.593 -709.994)" fill="#fff"/>
      <g id="Group_258" data-name="Group 258" transform="translate(6.581 11.861)">
        <rect id="Rectangle_33" data-name="Rectangle 33" width="1.415" height="2.593" rx="0.707" transform="matrix(0.88, -0.476, 0.476, 0.88, 15.123, 11.803)" fill="#216ddb"/>
        <path id="Path_997" data-name="Path 997" d="M6754.833,784.941l-4.128,2.232h0l-4.129,2.232a25.973,25.973,0,0,0,6.615,12.237l4.128-2.232h0l4.128-2.232A25.968,25.968,0,0,0,6754.833,784.941Z" transform="translate(-6743.612 -777.461)" fill="#3b82f4"/>
        <path id="Path_998" data-name="Path 998" d="M6753.79,787.133h0a4.008,4.008,0,0,1-5.432-1.62l-12.781-23.644a4.007,4.007,0,0,1,1.62-5.432h0a4.008,4.008,0,0,1,5.432,1.62L6755.41,781.7A4.008,4.008,0,0,1,6753.79,787.133Z" transform="translate(-6735.095 -755.955)" fill="#f9c067"/>
        <circle id="Ellipse_45" data-name="Ellipse 45" cx="6.778" cy="6.778" r="6.778" transform="translate(2.922 21.829) rotate(-83.741)" fill="#52d1bd"/>
        <circle id="Ellipse_46" data-name="Ellipse 46" cx="5.312" cy="5.312" r="5.312" transform="matrix(0.912, -0.41, 0.41, 0.912, 3.376, 13.164)" fill="#fff"/>
        <rect id="Rectangle_34" data-name="Rectangle 34" width="1.528" height="0.707" rx="0.354" transform="translate(14.053 24.196) rotate(-28.393)" fill="#fff"/>
        <rect id="Rectangle_35" data-name="Rectangle 35" width="1.528" height="0.707" rx="0.354" transform="translate(15.272 26.452) rotate(-28.394)" fill="#fff"/>
        <path id="Path_999" data-name="Path 999" d="M6766.89,802.211h0a.256.256,0,0,1,.347.1l.451.828a.256.256,0,0,1-.1.347h0a.256.256,0,0,1-.347-.1l-.451-.828A.256.256,0,0,1,6766.89,802.211Z" transform="translate(-6758.585 -790.25)" fill="#3b82f4"/>
        <path id="Path_1000" data-name="Path 1000" d="M6771.92,811.542h0a.256.256,0,0,1,.347.1l.679,1.246a.255.255,0,0,1-.1.346h0a.255.255,0,0,1-.346-.1l-.679-1.247A.255.255,0,0,1,6771.92,811.542Z" transform="translate(-6762.318 -797.173)" fill="#3b82f4"/>
        <path id="Path_1001" data-name="Path 1001" d="M6776.333,813.75h0a.255.255,0,0,1-.1.347l-1.247.679a.255.255,0,0,1-.346-.1h0a.255.255,0,0,1,.1-.347l1.247-.679A.255.255,0,0,1,6776.333,813.75Z" transform="translate(-6764.411 -798.736)" fill="#3b82f4"/>
        <path id="Path_1002" data-name="Path 1002" d="M6786.627,808.8h0a.255.255,0,0,1-.1.346l-.827.451a.256.256,0,0,1-.347-.1h0a.256.256,0,0,1,.1-.346l.828-.451A.256.256,0,0,1,6786.627,808.8Z" transform="translate(-6772.358 -795.061)" fill="#3b82f4"/>
        <path id="Path_1003" data-name="Path 1003" d="M6781.124,828.534h0a.255.255,0,0,1-.346-.1l-.452-.828a.256.256,0,0,1,.1-.347h0a.255.255,0,0,1,.346.1l.452.828A.255.255,0,0,1,6781.124,828.534Z" transform="translate(-6768.63 -808.833)" fill="#3b82f4"/>
        <path id="Path_1004" data-name="Path 1004" d="M6760.3,823.032h0a.255.255,0,0,1,.1-.347l.828-.451a.255.255,0,0,1,.347.1h0a.255.255,0,0,1-.1.347l-.828.451A.255.255,0,0,1,6760.3,823.032Z" transform="translate(-6753.774 -805.106)" fill="#3b82f4"/>
      </g>
      <path id="Path_1005" data-name="Path 1005" d="M6808.347,755.14l-10.1.859a1.4,1.4,0,0,1-1.517-1.28h0a1.4,1.4,0,0,1,1.279-1.517l10.1-.859a1.4,1.4,0,0,1,1.517,1.279h0A1.4,1.4,0,0,1,6808.347,755.14Z" transform="translate(-6774.236 -741.41)" fill="#52d1bd"/>
      <path id="Path_1006" data-name="Path 1006" d="M6829.284,776.589l-14.453,1.229a1.009,1.009,0,0,1-1.091-.92h0a1.009,1.009,0,0,1,.919-1.091l14.454-1.229a1.009,1.009,0,0,1,1.09.92h0A1.008,1.008,0,0,1,6829.284,776.589Z" transform="translate(-6786.859 -757.908)" fill="#e4ecf9"/>
      <path id="Path_1007" data-name="Path 1007" d="M6830.735,793.656l-14.453,1.229a1.008,1.008,0,0,1-1.09-.919h0a1.008,1.008,0,0,1,.919-1.091l14.453-1.229a1.009,1.009,0,0,1,1.091.92h0A1.009,1.009,0,0,1,6830.735,793.656Z" transform="translate(-6787.937 -770.571)" fill="#e4ecf9"/>
      <path id="Path_1008" data-name="Path 1008" d="M6832.186,810.723l-14.453,1.229a1.01,1.01,0,0,1-1.091-.92h0a1.009,1.009,0,0,1,.92-1.091l14.453-1.229a1.009,1.009,0,0,1,1.091.92h0A1.009,1.009,0,0,1,6832.186,810.723Z" transform="translate(-6789.013 -783.233)" fill="#e4ecf9"/>
    </g>
    <path id="Path_1009" data-name="Path 1009" d="M6522.59,833.55l-44.875-4a3.356,3.356,0,0,0-3.641,3.045l-5.427,60.936a3.356,3.356,0,0,0,3.045,3.641l44.875,4a3.356,3.356,0,0,0,3.641-3.045l5.427-60.936A3.356,3.356,0,0,0,6522.59,833.55Z" transform="translate(-123.582 -145.645)" fill="#3a7ec1" opacity="0.2" style="mix-blend-mode: multiply;isolation: isolate"/>
    <path id="Path_1010" data-name="Path 1010" d="M6510.129,892.709l-44.875-4a3.357,3.357,0,0,1-3.045-3.641l5.427-60.936a3.356,3.356,0,0,1,3.641-3.045l44.875,4a3.356,3.356,0,0,1,3.045,3.641l-5.427,60.936A3.356,3.356,0,0,1,6510.129,892.709Z" transform="translate(-118.806 -139.366)" fill="#fff"/>
    <rect id="Rectangle_36" data-name="Rectangle 36" width="26.853" height="15.19" transform="matrix(0.996, 0.089, -0.089, 0.996, 6365.567, 690.967)" fill="#e4ecf9"/>
    <rect id="Rectangle_37" data-name="Rectangle 37" width="26.853" height="14.07" transform="matrix(0.996, 0.089, -0.089, 0.996, 6353.661, 717.82)" fill="#e4ecf9"/>
    <g id="Group_262" data-name="Group 262" transform="translate(6356.625 693.091)">
      <g id="Group_261" data-name="Group 261" transform="translate(0 0)">
        <g id="Group_260" data-name="Group 260">
          <path id="Path_1011" data-name="Path 1011" d="M6546.287,896.71a.766.766,0,0,1-.694-.832c.1-1.091-1.656-1.368-1.674-1.371l-24.178-2.188a.766.766,0,0,1,.138-1.526l24.223,2.193c1.152.172,3.2,1.019,3.017,3.03A.766.766,0,0,1,6546.287,896.71Z" transform="translate(-6517.61 -884.179)" fill="#52d1bd"/>
          <path id="Path_1012" data-name="Path 1012" d="M6529.469,895.942a.766.766,0,0,0,.832-.694c.1-1.091,1.875-1.049,1.893-1.048l24.178,2.191a.766.766,0,0,0,.138-1.526l-24.223-2.194c-1.165-.038-3.33.428-3.512,2.438A.766.766,0,0,0,6529.469,895.942Z" transform="translate(-6524.827 -885.574)" fill="#52d1bd"/>
          <circle id="Ellipse_47" data-name="Ellipse 47" cx="5.714" cy="5.714" r="5.714" transform="matrix(0.843, -0.539, 0.539, 0.843, 0, 6.154)" fill="#52d1bd" opacity="0.28"/>
          <circle id="Ellipse_48" data-name="Ellipse 48" cx="5.714" cy="5.714" r="5.714" transform="matrix(0.864, -0.503, 0.503, 0.864, 18.218, 7.469)" fill="#52d1bd" opacity="0.28"/>
          <path id="Path_1013" data-name="Path 1013" d="M6543.712,871.7a6.653,6.653,0,0,0-6.753,4.127,5.053,5.053,0,0,0-5.483-.5,6.614,6.614,0,1,0,.112,1.939c.006-.071.014-.148.015-.219.126-.091.252-.177.382-.258a3.485,3.485,0,0,1,4.212.381,3.921,3.921,0,0,1,.329.327c-.011.071-.018.142-.024.213a6.64,6.64,0,1,0,7.211-6.014Zm-15.858,9.185a5.106,5.106,0,1,1-2.419-9.3,5.116,5.116,0,0,1,4.635,4.764v0a4.835,4.835,0,0,1-.009.779c-.014.153-.033.3-.062.451a5,5,0,0,1-1.2,2.461A5.122,5.122,0,0,1,6527.854,880.881Zm14.8,2.514a5.064,5.064,0,0,1-3.129-1.458,5.12,5.12,0,0,1-.782-1,4.993,4.993,0,0,1-.735-2.636,4.209,4.209,0,0,1,.021-.455,4.746,4.746,0,0,1,.131-.767v0a5.107,5.107,0,1,1,4.495,6.32Z" transform="translate(-6517.083 -868.774)" fill="#52d1bd"/>
        </g>
      </g>
      <rect id="Rectangle_38" data-name="Rectangle 38" width="0.503" height="8.161" transform="matrix(0.85, 0.526, -0.526, 0.85, 29.125, 6.432)" fill="#52d1bd" opacity="0.42"/>
      <rect id="Rectangle_39" data-name="Rectangle 39" width="0.503" height="6.614" transform="matrix(0.85, 0.526, -0.526, 0.85, 29.859, 8.008)" fill="#52d1bd" opacity="0.42"/>
      <rect id="Rectangle_40" data-name="Rectangle 40" width="0.503" height="8.161" transform="translate(10.766 4.736) rotate(31.737)" fill="#52d1bd" opacity="0.42"/>
      <rect id="Rectangle_41" data-name="Rectangle 41" width="0.503" height="6.614" transform="matrix(0.851, 0.526, -0.526, 0.851, 11.499, 6.312)" fill="#52d1bd" opacity="0.42"/>
    </g>
    <g id="Group_264" data-name="Group 264" transform="translate(6354.549 721.847)">
      <path id="Path_1014" data-name="Path 1014" d="M6505.7,1009.422s-2.413,4.23,7.5,5.7,21.486,2.126,23.976,1.02c0,0,.742-3.254-1.4-4.216S6505.7,1009.422,6505.7,1009.422Z" transform="translate(-6505.438 -1000.952)" fill="#52d1bd"/>
      <path id="Path_1015" data-name="Path 1015" d="M6536.081,990.155s-6.948.746-13.775.938a59.606,59.606,0,0,1-9.444-.313c-7.342-1.079-7.479-2.331-7.33-3.593.058-.5.525-.729,1.37-.837,1.29-.166,3.462-.047,6.405-.17,4.871-.2,12.112-6.749,12.112-6.749,3.687,1.958,1.622,2.872,1.82,3.421s2.28,1.443,3.858,1.619,2.889-2.612,2.889-2.612a6.219,6.219,0,0,1,.844.829,7.545,7.545,0,0,1,1.582,5.139A10.157,10.157,0,0,1,6536.081,990.155Z" transform="translate(-6505.485 -978.7)" fill="#f9c067"/>
      <path id="Path_1016" data-name="Path 1016" d="M6611.1,997.188a.35.35,0,0,1-.23-.194,1.348,1.348,0,0,0-.458-.489.451.451,0,0,0-.3-.081c-.739.068-3.857.324-3.937-.167-.078-.466,1.992-1.728,2.676-2.131a.4.4,0,0,0,.2-.367,3.12,3.12,0,0,1,.475-1.71A7.542,7.542,0,0,1,6611.1,997.188Z" transform="translate(-6580.172 -988.062)" fill="#52d1bd"/>
      <path id="Path_1017" data-name="Path 1017" d="M6522.305,1010.984a59.606,59.606,0,0,1-9.444-.313c-7.342-1.079-7.479-2.331-7.33-3.593.058-.5.525-.729,1.37-.837C6507.271,1007.453,6509.625,1009.94,6522.305,1010.984Z" transform="translate(-6505.485 -998.592)" fill="#f7ae4d"/>
      <path id="Path_1018" data-name="Path 1018" d="M6561.213,990.033a1.022,1.022,0,0,1,1.181.459c.325.516.8,1.408,1.043,1.861a.244.244,0,0,1-.163.352c-1.412.321-7.18,1.629-7.222,1.579s-.3-.445-.475-.711a.259.259,0,0,1,.089-.367Z" transform="translate(-6542.607 -986.534)" fill="#52d1bd"/>
      <path id="Path_1019" data-name="Path 1019" d="M6584.11,1020.223c-.154.017.423,1.513.641,2.061a.342.342,0,0,0,.292.216c1.116.089,6.321.471,8.321.1a.16.16,0,0,0,.115-.23l-1.038-2.072a.509.509,0,0,0-.43-.282A51.088,51.088,0,0,0,6584.11,1020.223Z" transform="translate(-6563.788 -1008.762)" fill="#fff"/>
      <g id="Group_263" data-name="Group 263" transform="translate(12.562 0)">
        <path id="Path_1020" data-name="Path 1020" d="M6566.161,976.667a.371.371,0,0,0-.422.609c.654.453,2.216,1.783,2.466,3.023l-1.526-.4a.364.364,0,0,0-.44-.114l-.036-.009a.37.37,0,0,0-.221.7l-.065.735a.371.371,0,0,0,.738.066l.054-.609,1.8.468a.359.359,0,0,0,.06.01.371.371,0,0,0,.4-.336C6569.155,978.764,6566.284,976.751,6566.161,976.667Z" transform="translate(-6562.621 -976.601)" fill="#4c5772"/>
        <path id="Path_1021" data-name="Path 1021" d="M6561.185,993.088a9.09,9.09,0,0,0-1.243-.457.856.856,0,0,1,.189-.183.37.37,0,0,0-.415-.613,1.833,1.833,0,0,0-.546.623,4.221,4.221,0,0,0-.509-.05.37.37,0,0,0-.023.74c.078,0,.158.009.238.018a3.769,3.769,0,0,0-.112.476.37.37,0,0,0,.307.424l.026,0a.371.371,0,0,0,.4-.31,3.309,3.309,0,0,1,.113-.45,8.638,8.638,0,0,1,1.261.451.361.361,0,0,0,.125.034.37.37,0,0,0,.19-.7Z" transform="translate(-6557.205 -987.856)" fill="#4c5772"/>
        <path id="Path_1022" data-name="Path 1022" d="M6555.776,997.839c-.076-.072-.667-.677-1.024-1.046a.371.371,0,0,0-.532.516c1.014,1.044,1.059,1.081,1.081,1.1a.37.37,0,0,0,.475-.568Z" transform="translate(-6554.116 -991.499)" fill="#4c5772"/>
      </g>
    </g>
    <path id="Path_1023" data-name="Path 1023" d="M6522.022,929,6509.4,927.88a.627.627,0,0,1-.569-.68h0a.627.627,0,0,1,.68-.568l12.622,1.124a.626.626,0,0,1,.569.68h0A.627.627,0,0,1,6522.022,929Z" transform="translate(-153.405 -217.679)" fill="#e4ecf9"/>
    <path id="Path_1024" data-name="Path 1024" d="M6558.113,942.11l-27.026-2.407a.627.627,0,0,1-.569-.68h0a.627.627,0,0,1,.68-.569l27.026,2.407a.627.627,0,0,1,.568.68h0A.627.627,0,0,1,6558.113,942.11Z" transform="translate(-169.495 -226.451)" fill="#e4ecf9"/>
    <path id="Path_1025" data-name="Path 1025" d="M6557.251,951.787l-27.025-2.407a.627.627,0,0,1-.569-.68h0a.627.627,0,0,1,.68-.569l27.026,2.407a.628.628,0,0,1,.569.68h0A.627.627,0,0,1,6557.251,951.787Z" transform="translate(-168.856 -233.63)" fill="#e4ecf9"/>
    <path id="Path_1026" data-name="Path 1026" d="M6515.814,1040.483l-12.623-1.124a.627.627,0,0,1-.568-.68h0a.627.627,0,0,1,.68-.569l12.623,1.124a.627.627,0,0,1,.569.68h0A.627.627,0,0,1,6515.814,1040.483Z" transform="translate(-148.798 -300.387)" fill="#52d1bd"/>
    <path id="Path_1027" data-name="Path 1027" d="M6551.9,1053.589l-27.025-2.407a.627.627,0,0,1-.569-.68h0a.627.627,0,0,1,.68-.569l27.025,2.407a.626.626,0,0,1,.569.68h0A.627.627,0,0,1,6551.9,1053.589Z" transform="translate(-164.889 -309.16)" fill="#e4ecf9"/>
    <path id="Path_1028" data-name="Path 1028" d="M6551.042,1063.266l-27.025-2.407a.627.627,0,0,1-.569-.68h0a.627.627,0,0,1,.68-.568l27.026,2.407a.627.627,0,0,1,.569.68h0A.627.627,0,0,1,6551.042,1063.266Z" transform="translate(-164.249 -316.34)" fill="#e4ecf9"/>
    <path id="Path_1029" data-name="Path 1029" d="M6421.3,715.409l-3.14-5.819a2.335,2.335,0,0,0-3.164-.946L6333.544,752.6a2.336,2.336,0,0,0-.946,3.164l3.14,5.819a2.335,2.335,0,0,0,3.164.946l81.454-43.953A2.335,2.335,0,0,0,6421.3,715.409Z" transform="translate(-22.446 -55.741)" fill="#3a7ec1" opacity="0.2" style="mix-blend-mode: multiply;isolation: isolate"/>
    <path id="Path_1030" data-name="Path 1030" d="M6409.549,712.777,6328.1,756.73a2.335,2.335,0,0,1-3.164-.946l-3.14-5.819a2.335,2.335,0,0,1,.946-3.164l81.453-43.953a2.336,2.336,0,0,1,3.164.946l3.14,5.819A2.335,2.335,0,0,1,6409.549,712.777Z" transform="translate(-14.429 -51.441)" fill="#fff"/>
    <g id="Group_266" data-name="Group 266" transform="translate(6322.002 661.088)">
      <path id="Path_1031" data-name="Path 1031" d="M6383.573,852.629l.95,3.74-.758.409-1.717-1.886.653,2.461-.751.406-2.625-2.836.787-.425,1.539,1.765c.007.009.035.039.084.092l.081.087-.657-2.508.712-.384,1.75,1.918c-.012-.048-.033-.126-.064-.234l-.618-2.262Z" transform="translate(-6379.324 -823.864)" fill="#52d1bd"/>
      <path id="Path_1032" data-name="Path 1032" d="M6400.29,843.609l.95,3.74-.758.409-1.717-1.886.652,2.461-.751.406-2.625-2.836.788-.425,1.539,1.765c.007.009.035.039.084.092.019.019.046.048.081.087l-.657-2.508.712-.384,1.75,1.918q-.018-.072-.064-.234l-.617-2.262Z" transform="translate(-6391.726 -817.172)" fill="#52d1bd"/>
      <path id="Path_1033" data-name="Path 1033" d="M6417.006,834.589l.95,3.74-.758.409-1.717-1.887.653,2.461-.751.406-2.625-2.836.788-.425,1.539,1.765q.01.013.083.092c.019.019.046.048.081.087l-.657-2.508.712-.384,1.75,1.918c-.012-.048-.033-.126-.064-.233l-.617-2.262Z" transform="translate(-6404.129 -810.479)" fill="#52d1bd"/>
      <path id="Path_1034" data-name="Path 1034" d="M6436.219,843.366l-.746.4-.4-.746.746-.4Z" transform="translate(-6420.684 -816.438)" fill="#52d1bd"/>
      <g id="Group_265" data-name="Group 265" transform="translate(17.155 9.014)">
        <rect id="Rectangle_42" data-name="Rectangle 42" width="2.807" height="0.655" transform="matrix(0.88, -0.475, 0.475, 0.88, 0, 17.332)" fill="#52d1bd"/>
        <path id="Path_1035" data-name="Path 1035" d="M6455.373,830.423l.312.577,2.471-1.333,2.471-1.333-.312-.577-2.47,1.333Z" transform="translate(-6452.902 -814.425)" fill="#52d1bd"/>
        <path id="Path_1036" data-name="Path 1036" d="M6474.521,820.091l.311.577,2.471-1.333,2.47-1.333-.311-.577-2.47,1.333Z" transform="translate(-6467.109 -806.759)" fill="#52d1bd"/>
        <path id="Path_1037" data-name="Path 1037" d="M6496.139,804.593l-2.47,1.333.311.577,2.47-1.333,2.471-1.333,2.471-1.333-.311-.577-2.471,1.333Z" transform="translate(-6481.315 -795.261)" fill="#52d1bd"/>
        <path id="Path_1038" data-name="Path 1038" d="M6522.389,794.261l.311.577,2.471-1.333,2.471-1.333-.311-.577-2.471,1.333Z" transform="translate(-6502.624 -787.595)" fill="#52d1bd"/>
        <path id="Path_1039" data-name="Path 1039" d="M6541.536,783.929l.311.577,2.471-1.333,2.47-1.333-.311-.577-2.47,1.333Z" transform="translate(-6516.83 -779.93)" fill="#52d1bd"/>
        <rect id="Rectangle_43" data-name="Rectangle 43" width="2.807" height="0.655" transform="translate(29.648 1.333) rotate(-28.351)" fill="#52d1bd"/>
      </g>
      <path id="Path_1040" data-name="Path 1040" d="M6568.737,758.721l-.781.487q-.393-.688-.92-.4-.6.326-.025,1.4a1.707,1.707,0,0,0,.618.752.612.612,0,0,0,.578-.027q.479-.259.249-.938l.772-.358a1.505,1.505,0,0,1,.045,1.136,1.676,1.676,0,0,1-2.041.916,2.031,2.031,0,0,1-1.082-1.027,2.1,2.1,0,0,1-.264-1.434,1.514,1.514,0,0,1,.825-1.059A1.415,1.415,0,0,1,6568.737,758.721Z" transform="translate(-6517.714 -753.614)" fill="#52d1bd"/>
      <path id="Path_1041" data-name="Path 1041" d="M6580.442,755.284a1.361,1.361,0,0,1-1.3.056,2.271,2.271,0,0,1-1.017-1.012,2.185,2.185,0,0,1-.28-1.4,1.412,1.412,0,0,1,.791-1.05,1.336,1.336,0,0,1,1.318-.046,2.321,2.321,0,0,1,.987.989,2.257,2.257,0,0,1,.291,1.4A1.394,1.394,0,0,1,6580.442,755.284Zm-1.47-2.777q-.606.327-.031,1.394t1.184.741q.587-.317.012-1.384T6578.972,752.507Z" transform="translate(-6526.596 -748.964)" fill="#52d1bd"/>
      <path id="Path_1042" data-name="Path 1042" d="M6591.665,745.612l-2.261-2.247,1.449,2.686-.646.349-1.777-3.294,1.2-.648,1.642,1.659-.456-2.3,1.205-.65,1.777,3.293-.776.419-1.449-2.686.62,3.133Z" transform="translate(-6534.464 -741.167)" fill="#52d1bd"/>
    </g>
    <path id="Rectangle_44" data-name="Rectangle 44" d="M3.334,0h.216A3.333,3.333,0,0,1,6.883,3.333v.215A3.334,3.334,0,0,1,3.549,6.883H3.334A3.334,3.334,0,0,1,0,3.549V3.334A3.334,3.334,0,0,1,3.334,0Z" transform="matrix(0.879, -0.477, 0.477, 0.879, 6378.971, 652.458)" fill="#3a7ec1" opacity="0.2" style="mix-blend-mode: multiply;isolation: isolate"/>
    <rect id="Rectangle_45" data-name="Rectangle 45" width="6.883" height="6.883" rx="3.334" transform="matrix(0.879, -0.477, 0.477, 0.879, 6387.488, 648.099)" fill="#3a7ec1" opacity="0.2" style="mix-blend-mode: multiply;isolation: isolate"/>
    <g id="Group_267" data-name="Group 267" transform="translate(6377.94 648.847)">
      <rect id="Rectangle_46" data-name="Rectangle 46" width="6.883" height="6.883" rx="3.334" transform="translate(0 3.28) rotate(-28.459)" fill="#52d1bd"/>
      <path id="Path_1043" data-name="Path 1043" d="M6608.577,704.534l-3.355,1.819a.3.3,0,0,1-.412-.122l-1.819-3.355a.305.305,0,0,1,.123-.412l3.355-1.819a.3.3,0,0,1,.412.122l1.818,3.355A.3.3,0,0,1,6608.577,704.534Zm-3.378,1.139,2.821-1.529-1.529-2.821-2.821,1.529Z" transform="translate(-6601.18 -698.833)" fill="#fff"/>
    </g>
    <g id="Group_268" data-name="Group 268" transform="translate(6386.421 644.381)">
      <rect id="Rectangle_47" data-name="Rectangle 47" width="6.883" height="6.883" rx="3.334" transform="translate(0 3.28) rotate(-28.459)" fill="#f9c067"/>
      <path id="Path_1044" data-name="Path 1044" d="M6639.182,686.09l.672-2.261a.3.3,0,1,0-.583-.173l-.671,2.261-2.261-.671a.3.3,0,1,0-.173.583l2.261.671-.671,2.261a.3.3,0,1,0,.583.173l.671-2.261,2.261.672a.3.3,0,0,0,.173-.583Z" transform="translate(-6634.139 -681.629)" fill="#fff"/>
    </g>
    <g id="Group_271" data-name="Group 271" transform="translate(6410.179 706.625)">
      <rect id="Rectangle_48" data-name="Rectangle 48" width="26.531" height="22.761" rx="6.739" transform="translate(11.091 17.606) rotate(-33.798)" fill="#3a7ec1" opacity="0.2" style="mix-blend-mode: multiply;isolation: isolate"/>
      <rect id="Rectangle_49" data-name="Rectangle 49" width="26.53" height="22.761" rx="6.739" transform="translate(9.676 17.024) rotate(-33.798)" fill="#fff"/>
      <path id="Path_1045" data-name="Path 1045" d="M6783.459,967.391a1.742,1.742,0,0,1-1.45-.774l-.3-.449a.341.341,0,1,1,.566-.379l.3.449a1.062,1.062,0,0,0,.939.47.341.341,0,1,1,.035.68Zm1.808-.926a.341.341,0,0,1-.189-.624l1.654-1.108a.341.341,0,1,1,.379.566l-1.655,1.108A.336.336,0,0,1,6785.267,966.465Zm-4.382-1.8a.341.341,0,0,1-.284-.151l-1.107-1.655a.341.341,0,1,1,.566-.379l1.108,1.655a.341.341,0,0,1-.283.53Zm7.691-.415a.341.341,0,0,1-.19-.624l1.655-1.108a.341.341,0,1,1,.379.567l-1.654,1.108A.342.342,0,0,1,6788.576,964.25Zm3.309-2.215a.341.341,0,0,1-.189-.624l1.654-1.108a.341.341,0,1,1,.379.566l-1.654,1.108A.339.339,0,0,1,6791.885,962.034Zm-13.216-.679a.342.342,0,0,1-.284-.151l-1.107-1.655a.341.341,0,1,1,.566-.379l1.107,1.654a.341.341,0,0,1-.283.53Zm16.525-1.536a.341.341,0,0,1-.19-.624l1.655-1.107a.341.341,0,1,1,.379.566l-1.654,1.107A.341.341,0,0,1,6795.195,959.819Zm-18.741-1.773a.339.339,0,0,1-.283-.151l-1.108-1.654a.341.341,0,0,1,.566-.379l1.107,1.655a.341.341,0,0,1-.283.53Zm22.05-.442a.341.341,0,0,1-.19-.624l1.655-1.107a1.061,1.061,0,0,0,.471-.883,1.083,1.083,0,0,0-.011-.154.341.341,0,1,1,.674-.1,1.743,1.743,0,0,1-.755,1.7l-1.654,1.107A.337.337,0,0,1,6798.5,957.6Zm-24.265-2.867a.341.341,0,0,1-.284-.151l-.321-.481a1.734,1.734,0,0,1-.295-.968,1.772,1.772,0,0,1,.149-.708.341.341,0,0,1,.624.276,1.075,1.075,0,0,0-.091.432,1.054,1.054,0,0,0,.179.589l.322.481a.341.341,0,0,1-.094.473A.336.336,0,0,1,6774.239,954.737Zm25.543-1.323a.339.339,0,0,1-.283-.151l-1.108-1.655a.341.341,0,0,1,.566-.379l1.107,1.655a.341.341,0,0,1-.283.531Zm-24.482-1.77a.341.341,0,0,1-.19-.624l1.654-1.107a.341.341,0,1,1,.379.566l-1.655,1.108A.341.341,0,0,1,6775.3,951.643Zm22.267-1.539a.341.341,0,0,1-.284-.151l-1.107-1.654a.341.341,0,0,1,.566-.379l1.107,1.655a.34.34,0,0,1-.094.473A.337.337,0,0,1,6797.567,950.1Zm-18.958-.676a.341.341,0,0,1-.19-.624l1.655-1.108a.341.341,0,0,1,.379.566l-1.654,1.108A.341.341,0,0,1,6778.609,949.428Zm3.309-2.215a.341.341,0,0,1-.19-.624l1.655-1.108a.341.341,0,0,1,.379.566l-1.655,1.108A.339.339,0,0,1,6781.918,947.213Zm13.434-.418a.341.341,0,0,1-.284-.151l-1.107-1.655a.341.341,0,0,1,.566-.379l1.107,1.655a.34.34,0,0,1-.094.472A.336.336,0,0,1,6795.352,946.8Zm-10.125-1.8a.341.341,0,0,1-.189-.624l1.654-1.107a.341.341,0,1,1,.379.566l-1.654,1.108A.342.342,0,0,1,6785.228,945Zm7.91-1.512a.341.341,0,0,1-.284-.151l-.968-1.446a1.076,1.076,0,0,0-.119-.148.341.341,0,1,1,.49-.473,1.737,1.737,0,0,1,.195.241l.968,1.447a.341.341,0,0,1-.282.53Zm-4.6-.7a.341.341,0,0,1-.19-.624l1.655-1.108a.341.341,0,1,1,.379.567l-1.655,1.107A.336.336,0,0,1,6788.537,942.783Z" transform="translate(-6759.831 -934.961)" fill="#e4ecf9"/>
      <path id="Path_1046" data-name="Path 1046" d="M6754.621,935.7a11.419,11.419,0,1,0,5.922,15.024A11.418,11.418,0,0,0,6754.621,935.7Z" transform="translate(-6734.093 -930.328)" fill="#3a7ec1" opacity="0.2" style="mix-blend-mode: multiply;isolation: isolate"/>
      <g id="Group_270" data-name="Group 270" transform="translate(0 0)">
        <circle id="Ellipse_49" data-name="Ellipse 49" cx="11.419" cy="11.419" r="11.419" transform="translate(0 8.375) rotate(-21.513)" fill="#f9c067"/>
        <g id="Group_269" data-name="Group 269" transform="translate(10.772 7.452)">
          <path id="Path_1047" data-name="Path 1047" d="M6763.566,948.79a3.589,3.589,0,0,1,1.316-1.511,4.661,4.661,0,0,1,2.259-.766,5.554,5.554,0,0,1,2.738.5,5.779,5.779,0,0,1,2.118,1.5,4.122,4.122,0,0,1,.986,2,3.545,3.545,0,0,1-.24,2.059,3.073,3.073,0,0,1-.9,1.22,4.534,4.534,0,0,1-1.183.682q-.617.235-2.171.75a6.911,6.911,0,0,0-.711.281,2.177,2.177,0,0,0-.448.271,2.079,2.079,0,0,0-.3.294q-.127.156-.421.558a1.1,1.1,0,0,1-1.494.476,1.2,1.2,0,0,1-.662-.655,1.325,1.325,0,0,1,.076-1.059,3.522,3.522,0,0,1,1.868-1.932,15.6,15.6,0,0,1,1.493-.547q.8-.257,1.175-.4a2.862,2.862,0,0,0,.688-.388,1.527,1.527,0,0,0,.478-.615,1.756,1.756,0,0,0-.008-1.464,2.156,2.156,0,0,0-1.18-1.108,2.106,2.106,0,0,0-1.694-.135,4.4,4.4,0,0,0-1.448,1.14,1.314,1.314,0,0,1-1.621.518,1.257,1.257,0,0,1-.7-.733A1.2,1.2,0,0,1,6763.566,948.79Zm.107,11.905a1.564,1.564,0,0,1-.813-.781,1.376,1.376,0,0,1,.023-1.186,1.412,1.412,0,0,1,.82-.79,1.473,1.473,0,0,1,1.153.036,1.457,1.457,0,0,1,.767,1.945,1.387,1.387,0,0,1-.845.823A1.508,1.508,0,0,1,6763.673,960.7Z" transform="translate(-6762.737 -946.494)" fill="#fff"/>
        </g>
      </g>
    </g>
    <circle id="Ellipse_50" data-name="Ellipse 50" cx="2.752" cy="2.752" r="2.752" transform="translate(6324.284 717.177) rotate(-22.5)" fill="#52d1bd"/>
    <circle id="Ellipse_51" data-name="Ellipse 51" cx="4.897" cy="4.897" r="4.897" transform="translate(6421.71 767.852) rotate(-22.5)" fill="#52d1bd"/>
    <circle id="Ellipse_52" data-name="Ellipse 52" cx="2.628" cy="2.628" r="2.628" transform="translate(6461.435 636.95) rotate(-45)" fill="#52d1bd"/>
  </g>
</svg>
