<svg id="Group_222" data-name="Group 222" xmlns="http://www.w3.org/2000/svg" width="171.314" height="156.112" viewBox="0 0 171.314 156.112">
  <path id="Path_734" data-name="Path 734" d="M6489.373,3082.476c39.271-32.7,96.129-26.436,120.715,4.236,24.2,30.187,11.04,76.415-18.635,98.79-39.663,29.906-109.6,17.776-127.341-21.761C6453.06,3139.117,6463.457,3106.549,6489.373,3082.476Z" transform="translate(-6451.356 -3047.483)" fill="#52d1bd" opacity="0.14"/>
  <rect id="Rectangle_24" data-name="Rectangle 24" width="31.478" height="30.879" rx="9.241" transform="translate(92.106 15.48) rotate(-27.076)" fill="#3a7ec1" opacity="0.2" style="mix-blend-mode: multiply;isolation: isolate"/>
  <circle id="Ellipse_28" data-name="Ellipse 28" cx="11.238" cy="11.238" r="11.238" transform="translate(2.252 88.818) rotate(-81.147)" fill="#3a7ec1" opacity="0.2" style="mix-blend-mode: multiply;isolation: isolate"/>
  <g id="Group_209" data-name="Group 209" transform="translate(36.045 65.011)" opacity="0.2" style="mix-blend-mode: multiply;isolation: isolate">
    <path id="Path_735" data-name="Path 735" d="M6905.466,3335.017l-14.1-33.046-13.918,5.94,14.105,33.046a7.566,7.566,0,1,0,13.917-5.941Z" transform="translate(-6791.433 -3288.127)" fill="#3a7ec1"/>
    <path id="Path_736" data-name="Path 736" d="M6661.511,3303.93l-18.734-43.892a2.929,2.929,0,0,0-3.846-1.545l-2.246.959-3.563-8.352-19.612,8.371a4.013,4.013,0,0,1-3.454-.18l-11.543-6.056a4.013,4.013,0,0,0-3.454-.18l-26.069,11.127a4.363,4.363,0,0,0-2.041,5.812l1.78,4.173-4.892,2.088a4.364,4.364,0,0,0-2.043,5.812l24.449,57.28a4.367,4.367,0,0,0,5.61,2.547l79.59-33.971A7.568,7.568,0,0,1,6661.511,3303.93Z" transform="translate(-6561.397 -3251.1)" fill="#3a7ec1"/>
  </g>
  <path id="Path_737" data-name="Path 737" d="M6946.874,3243.044h0l-.024-.036c-.01-.016-.02-.029-.032-.045a.729.729,0,0,0-.071-.087v0c-.01-.012-.02-.021-.031-.032l-.012-.019h0c-.008-.013-.015-.023-.023-.035s-.02-.027-.032-.042a.694.694,0,0,0-.069-.081v0l-.048-.047a1.069,1.069,0,0,0-.19-.145c-.017-.01-.034-.02-.051-.029a1.072,1.072,0,0,0-.118-.055l-.039-.014-.055-.018h-.009l-.072-.019a.743.743,0,0,0-.1-.017.4.4,0,0,0-.057,0,.843.843,0,0,0-.106,0c-.023,0-.049,0-.075.005a.687.687,0,0,0-.079.01.08.08,0,0,0-.016,0l-.065.013-.016,0a.6.6,0,0,0-.074.022.028.028,0,0,0-.014,0,.756.756,0,0,0-.075.028l-.235.1h0l-25.224,10.722a1.109,1.109,0,0,0-.515.442l-.035.064a.013.013,0,0,0,0,.007,1.114,1.114,0,0,0-.126.577,1.132,1.132,0,0,0,.028.2.257.257,0,0,0,.009.025c0,.015,0,.03,0,.045a1.2,1.2,0,0,0,.032.208l.067.017,6.077,14.3c0,.011.011.021.016.033s.024.051.037.075l.024.039c.013.022.027.043.042.064l.023.031c.018.022.036.045.054.066l.02.021c.022.023.044.045.067.066l.008.008.03.025.018.015c.012.009.023.018.037.027l.011.007a1.119,1.119,0,0,0,.135.082l.039.019.021.009c.027.012.056.022.083.032l.035.012a1.234,1.234,0,0,0,.12.03l.029,0c.032.005.064.01.1.012l.042,0c.032,0,.064,0,.1,0h.02l.019,0a1.135,1.135,0,0,0,.167-.028l.037-.009a1.113,1.113,0,0,0,.127-.043l.012,0,.058-.025h0l25.344-10.773h0l.057-.024c.018-.008.037-.017.054-.026l.037-.018.01-.005.005,0a.081.081,0,0,0,.013-.008l.01-.005a.155.155,0,0,0,.02-.012h0l.024-.016.02-.012.03-.022.026-.021.05-.042.009-.008.01-.008.007-.007a.108.108,0,0,0,.01-.011,1.107,1.107,0,0,0,.107-.118h0c.006-.006.011-.013.016-.02a.115.115,0,0,0,.014-.019l.017-.023,0-.008.015-.024.019-.03,0-.006.011-.021c.005-.01.011-.02.016-.03a.085.085,0,0,1,.006-.01s0-.005,0-.008.009-.017.012-.025a.1.1,0,0,0,.01-.021l0-.01.014-.035c0-.01.008-.019.011-.029l.009-.029c0-.016.01-.032.014-.048s.009-.031.013-.047,0-.02.006-.031v0c0-.017.005-.035.009-.052s0-.018,0-.026,0-.017,0-.027,0-.019,0-.027a.535.535,0,0,0,0-.062c0-.007,0-.014,0-.021v-.006a.251.251,0,0,0,0-.027c0-.011,0-.02,0-.03v0s0-.01,0-.014,0-.025,0-.037v-.01a.013.013,0,0,0,0-.006c0-.012,0-.024,0-.035s0-.014,0-.02,0-.01,0-.013v-.014l0,0a.1.1,0,0,0,0-.017.106.106,0,0,0-.006-.025.272.272,0,0,0-.01-.039l0-.017s0-.008,0-.011a.175.175,0,0,0-.009-.026.2.2,0,0,0-.008-.025c-.006-.016-.012-.03-.019-.045s0-.006,0-.01l-.019-.045h0l-.064-.15h0l-5.993-14.1Z" transform="translate(-6785.767 -3179.688)" fill="#3a7ec1" opacity="0.2" style="mix-blend-mode: multiply;isolation: isolate"/>
  <rect id="Rectangle_25" data-name="Rectangle 25" width="28.498" height="28.498" rx="12.305" transform="matrix(0.92, -0.393, 0.393, 0.92, 24.581, 112.526)" fill="#3a7ec1" opacity="0.2" style="mix-blend-mode: multiply;isolation: isolate"/>
  <path id="Path_738" data-name="Path 738" d="M6802.231,3170.035l-42.876,18.3a1.585,1.585,0,0,0-.835,2.079l22.346,52.354a1.584,1.584,0,0,0,2.079.835l42.876-18.3a1.583,1.583,0,0,0,.835-2.079l-22.346-52.353A1.585,1.585,0,0,0,6802.231,3170.035Z" transform="translate(-6668.737 -3126.993)" fill="#3a7ec1" opacity="0.2" style="mix-blend-mode: multiply;isolation: isolate"/>
  <path id="Path_739" data-name="Path 739" d="M6813.721,3211.476l-42.876,18.3a1.839,1.839,0,0,1-2.411-.968l-22.346-52.354a1.84,1.84,0,0,1,.969-2.411l42.876-18.3a1.84,1.84,0,0,1,2.411.968l22.346,52.354A1.839,1.839,0,0,1,6813.721,3211.476Zm-66.466-36.967a1.332,1.332,0,0,0-.7,1.747l22.346,52.354a1.334,1.334,0,0,0,1.748.7l42.876-18.3a1.333,1.333,0,0,0,.7-1.747l-22.346-52.353a1.333,1.333,0,0,0-1.748-.7Z" transform="translate(-6659.673 -3116.576)" fill="#444"/>
  <path id="Path_740" data-name="Path 740" d="M6628.443,3149.573h0l-5.219-2.1-5.358-2.153-.595-.239-4.422-1.776,0,0h0l-41.258,17.61a1.61,1.61,0,0,0-.849,2.113l27.274,63.9a1.615,1.615,0,0,0,2.113.849l50.708-21.644a1.615,1.615,0,0,0,.849-2.113l-22.644-53.051h0l-.6-1.4Z" transform="translate(-6532.059 -3107.633)" fill="#3a7ec1" opacity="0.2" style="mix-blend-mode: multiply;isolation: isolate"/>
  <path id="Path_741" data-name="Path 741" d="M6641.241,3272.6l-10.785-25.266-19.611,8.371a4.015,4.015,0,0,1-3.455-.18l-11.542-6.057a4.011,4.011,0,0,0-3.454-.18l-26.07,11.127a4.365,4.365,0,0,0-2.042,5.812l14.162,33.177Z" transform="translate(-6527.164 -3183.349)" fill="#3eb59e"/>
  <path id="Path_742" data-name="Path 742" d="M6861,3304.147l14.105,33.046a7.566,7.566,0,1,0,13.917-5.94l-14.1-33.046Z" transform="translate(-6743.417 -3220.376)" fill="#3eb59e"/>
  <g id="Group_212" data-name="Group 212" transform="translate(85.113 41.365)">
    <path id="Rectangle_26" data-name="Rectangle 26" d="M5.823,0H43.964a5.823,5.823,0,0,1,5.823,5.823V54.27a5.822,5.822,0,0,1-5.822,5.822H5.822A5.822,5.822,0,0,1,0,54.27V5.823A5.823,5.823,0,0,1,5.823,0Z" transform="translate(0 19.545) rotate(-23.114)" fill="#fff"/>
    <g id="Group_210" data-name="Group 210" transform="translate(18.919 15.218)">
      <path id="Path_743" data-name="Path 743" d="M6833.078,3234.012c-.04.138-.082.272-.127.406a7.318,7.318,0,0,1-1.448,2.477,11.751,11.751,0,0,1-3.03,2.342,15.916,15.916,0,0,1-4.311,1.66c-.1.023-.209.045-.313.064a10.086,10.086,0,0,1-3.447.069c-.205-.034-.41-.076-.611-.124a7.936,7.936,0,0,1-1.158-.381,7.379,7.379,0,0,1-1.625-.93c-.16-.121-.318-.249-.47-.386a7.981,7.981,0,0,1-1.4-1.638,9.2,9.2,0,0,1-.774-1.474,11.946,11.946,0,0,1-.8-2.9,10.536,10.536,0,0,1-.1-1.92v0s0-.006,0-.008a9,9,0,0,1,.088-.952,8.1,8.1,0,0,1,.977-2.922,8.967,8.967,0,0,1,2.047-2.417,10.153,10.153,0,0,1,.844-.637,12.549,12.549,0,0,1,2.215-1.185,12.142,12.142,0,0,1,1.335-.471,9.316,9.316,0,0,1,1.984-.355,7.193,7.193,0,0,1,2.868.361,6.218,6.218,0,0,1,2.27,1.4q.242.237.459.494a6.734,6.734,0,0,1,1.063,1.759,6.647,6.647,0,0,1,.517,3.179,7.191,7.191,0,0,1-.746,2.767,2.946,2.946,0,0,1-1.2,1.4.422.422,0,0,1-.358-.016.624.624,0,0,1-.289-.341,6.528,6.528,0,0,1-.256-1.044l-1.6-8.427-.013-.067-.095.04-2.778,1.162.234,1.32a3.4,3.4,0,0,0-3.488-.268,5.285,5.285,0,0,0-2.624,2.338,7.532,7.532,0,0,0-.956,3.584,8.884,8.884,0,0,0,.672,3.67,6.67,6.67,0,0,0,.544,1.053,4.857,4.857,0,0,0,1.324,1.415,4.307,4.307,0,0,0,2.533.813,4.374,4.374,0,0,0,2.069-.523,4.22,4.22,0,0,0,.41-.245,4.574,4.574,0,0,0,1.683-2.092,1.6,1.6,0,0,0,1.052.678,2.837,2.837,0,0,0,1.5-.274,6.876,6.876,0,0,0,2.57-1.835,7.9,7.9,0,0,0,1.555-2.721,8.912,8.912,0,0,0-.229-6.216c-.053-.129-.109-.255-.166-.377a9.359,9.359,0,0,0-1.912-2.775,8.215,8.215,0,0,0-3-1.9,9.1,9.1,0,0,0-3.679-.5,12.435,12.435,0,0,0-4.047.982,13.4,13.4,0,0,0-4.269,2.771,11,11,0,0,0-2.577,3.807c-.008.021-.017.042-.023.063a10.986,10.986,0,0,0-.74,4.368,12.362,12.362,0,0,0,.328,2.473,13.808,13.808,0,0,0,.712,2.182,12.977,12.977,0,0,0,.826,1.647,10.774,10.774,0,0,0,1.621,2.093,9.364,9.364,0,0,0,1.316,1.1,9.117,9.117,0,0,0,1.245.725,9.576,9.576,0,0,0,.972.4l.139.047a10.766,10.766,0,0,0,4.316.469,14.69,14.69,0,0,0,2.321-.38,18.771,18.771,0,0,0,2.793-.936,16.9,16.9,0,0,0,3.162-1.705,11.888,11.888,0,0,0,2.332-2.094,9.077,9.077,0,0,0,1.486-2.43,8.509,8.509,0,0,0,.331-.99,8.25,8.25,0,0,0,.247-1.363c.011-.114.021-.229.027-.344Zm-8.775-1.81a5.736,5.736,0,0,1-.318,2.555,2.627,2.627,0,0,1-1.459,1.57,2.1,2.1,0,0,1-.556.15,1.865,1.865,0,0,1-1.161-.25,2.431,2.431,0,0,1-.6-.483,4.4,4.4,0,0,1-.785-1.293,8.061,8.061,0,0,1-.618-2.637,5.283,5.283,0,0,1,.371-2.43,2.615,2.615,0,0,1,1.413-1.467,2.107,2.107,0,0,1,.931-.177,1.9,1.9,0,0,1,.861.259,2.7,2.7,0,0,1,.743.643,3.976,3.976,0,0,1,.569.983A8.512,8.512,0,0,1,6824.3,3232.2Z" transform="translate(-6811.216 -3220.133)" fill="#52d1bd"/>
    </g>
    <g id="Group_211" data-name="Group 211" transform="translate(21.005 38.217)">
      <path id="Path_744" data-name="Path 744" d="M6863.215,3306.865l-12.877,5.5a1.108,1.108,0,0,1-1.455-.585h0a1.108,1.108,0,0,1,.584-1.455l12.875-5.5a1.109,1.109,0,0,1,1.456.585h0A1.109,1.109,0,0,1,6863.215,3306.865Z" transform="translate(-6840.653 -3304.709)" fill="#3a7ec1" opacity="0.2" style="mix-blend-mode: multiply;isolation: isolate"/>
      <path id="Path_745" data-name="Path 745" d="M6853.184,3306.772l-32.755,13.981a1.11,1.11,0,0,1-1.456-.585h0a1.11,1.11,0,0,1,.584-1.456l32.757-13.982a1.109,1.109,0,0,1,1.456.585h0A1.109,1.109,0,0,1,6853.184,3306.772Z" transform="translate(-6818.883 -3304.642)" fill="#3a7ec1" opacity="0.2" style="mix-blend-mode: multiply;isolation: isolate"/>
      <path id="Path_746" data-name="Path 746" d="M6859.8,3322.27l-32.757,13.981a1.11,1.11,0,0,1-1.456-.585h0a1.109,1.109,0,0,1,.585-1.456l32.755-13.981a1.109,1.109,0,0,1,1.456.585h0A1.109,1.109,0,0,1,6859.8,3322.27Z" transform="translate(-6823.697 -3315.922)" fill="#3a7ec1" opacity="0.2" style="mix-blend-mode: multiply;isolation: isolate"/>
      <path id="Path_747" data-name="Path 747" d="M6866.414,3337.767l-32.756,13.981a1.109,1.109,0,0,1-1.455-.585h0a1.108,1.108,0,0,1,.584-1.456l32.755-13.981a1.11,1.11,0,0,1,1.457.585h0A1.109,1.109,0,0,1,6866.414,3337.767Z" transform="translate(-6828.512 -3327.202)" fill="#3a7ec1" opacity="0.2" style="mix-blend-mode: multiply;isolation: isolate"/>
      <path id="Path_748" data-name="Path 748" d="M6873.028,3353.263l-32.756,13.982a1.109,1.109,0,0,1-1.456-.585h0a1.109,1.109,0,0,1,.584-1.456l32.756-13.981a1.11,1.11,0,0,1,1.456.585h0A1.109,1.109,0,0,1,6873.028,3353.263Z" transform="translate(-6833.328 -3338.481)" fill="#3a7ec1" opacity="0.2" style="mix-blend-mode: multiply;isolation: isolate"/>
    </g>
  </g>
  <path id="Path_749" data-name="Path 749" d="M6761.939,3210.333l19.8,46.387a1.616,1.616,0,0,1-.849,2.114l-13.954,5.956-19.81-46.411a1.584,1.584,0,0,1,.836-2.079Z" transform="translate(-6660.442 -3156.417)" fill="#3a7ec1" opacity="0.2" style="mix-blend-mode: multiply;isolation: isolate"/>
  <g id="Group_215" data-name="Group 215" transform="translate(35.142 35.777)">
    <g id="Group_213" data-name="Group 213" transform="translate(0)">
      <path id="Path_750" data-name="Path 750" d="M6615.91,3149.95l23.243,54.456a1.615,1.615,0,0,1-.849,2.113l-50.708,21.644a1.615,1.615,0,0,1-2.113-.848l-27.275-63.9a1.612,1.612,0,0,1,.849-2.113l41.259-17.61,5.018,2.012,5.359,2.153Z" transform="translate(-6558.079 -3143.687)" fill="#fff"/>
      <path id="Path_751" data-name="Path 751" d="M6731.228,3170.395c.267.108,1.135,1.27,11.31-2.294l-.6-1.4Z" transform="translate(-6684.106 -3160.433)" fill="#3a7ec1" opacity="0.25" style="mix-blend-mode: multiply;isolation: isolate"/>
      <path id="Path_752" data-name="Path 752" d="M6717.029,3152.459a2.346,2.346,0,0,0,3.069,1.233l8.779-3.748-15.595-6.264Z" transform="translate(-6671.044 -3143.68)" fill="#ecf3fe"/>
    </g>
    <g id="Group_214" data-name="Group 214" transform="translate(9.444 18.409)">
      <path id="Path_753" data-name="Path 753" d="M6617.819,3212.3l8.03,18.813a1.626,1.626,0,0,1-.863,2.127l-21.923,9.358a1.624,1.624,0,0,1-2.123-.852l-8.03-18.813a1.616,1.616,0,0,1,.853-2.122l21.924-9.358A1.618,1.618,0,0,1,6617.819,3212.3Z" transform="translate(-6592.78 -3211.323)" fill="#ecf3fe"/>
      <path id="Path_754" data-name="Path 754" d="M6637.466,3257.788l2.866,6.715a1.626,1.626,0,0,1-.863,2.126l-21.923,9.358a1.621,1.621,0,0,1-2.122-.852l-2.746-6.432,3.764-9.072a1.432,1.432,0,0,1,2.038-.693l7.626,4.391a1.163,1.163,0,0,0,1.63-.508l2.293-4.812a1.432,1.432,0,0,1,1.433-.81Z" transform="translate(-6607.262 -3244.709)" fill="#52d1bd" opacity="0.56"/>
    </g>
    <path id="Path_755" data-name="Path 755" d="M6706.231,3199.444l-10.348,4.417a1.011,1.011,0,0,1-1.326-.533h0a1.012,1.012,0,0,1,.533-1.326l10.348-4.417a1.01,1.01,0,0,1,1.326.533h0A1.01,1.01,0,0,1,6706.231,3199.444Z" transform="translate(-6657.356 -3182.856)" fill="#ecf3fe"/>
    <path id="Path_756" data-name="Path 756" d="M6600.034,3207.619l-14.425,6.157a1.011,1.011,0,0,1-1.326-.532h0a1.011,1.011,0,0,1,.532-1.326l14.425-6.157a1.012,1.012,0,0,1,1.327.533h0A1.011,1.011,0,0,1,6600.034,3207.619Z" transform="translate(-6577.092 -3188.806)" fill="#52d1bd"/>
    <path id="Path_757" data-name="Path 757" d="M6645.893,3320.329l-13.077,5.582a1.011,1.011,0,0,1-1.326-.533h0a1.011,1.011,0,0,1,.533-1.326l13.077-5.582a1.01,1.01,0,0,1,1.325.533h0A1.011,1.011,0,0,1,6645.893,3320.329Z" transform="translate(-6611.452 -3270.843)" fill="#e6e6ff"/>
    <path id="Path_758" data-name="Path 758" d="M6697.593,3287.779l-38.293,16.345a1.011,1.011,0,0,1-1.326-.532h0a1.011,1.011,0,0,1,.533-1.326l38.293-16.345a1.011,1.011,0,0,1,1.326.532h0A1.01,1.01,0,0,1,6697.593,3287.779Z" transform="translate(-6630.729 -3247.151)" fill="#e6e6ff"/>
    <path id="Path_759" data-name="Path 759" d="M6689.734,3303.261l-43.7,18.653a1.011,1.011,0,0,1-1.326-.533h0a1.011,1.011,0,0,1,.532-1.326l43.7-18.654a1.011,1.011,0,0,1,1.326.533h0A1.011,1.011,0,0,1,6689.734,3303.261Z" transform="translate(-6621.072 -3258.42)" fill="#e6e6ff"/>
    <path id="Path_760" data-name="Path 760" d="M6696.343,3318.744l-43.7,18.653a1.01,1.01,0,0,1-1.326-.533h0a1.01,1.01,0,0,1,.533-1.326l43.7-18.653a1.01,1.01,0,0,1,1.326.533h0A1.011,1.011,0,0,1,6696.343,3318.744Z" transform="translate(-6625.882 -3269.689)" fill="#e6e6ff"/>
    <path id="Path_761" data-name="Path 761" d="M6702.951,3334.227l-43.7,18.653a1.01,1.01,0,0,1-1.326-.533h0a1.009,1.009,0,0,1,.532-1.326l43.7-18.653a1.009,1.009,0,0,1,1.326.532h0A1.01,1.01,0,0,1,6702.951,3334.227Z" transform="translate(-6630.691 -3280.958)" fill="#e6e6ff"/>
    <path id="Path_762" data-name="Path 762" d="M6709.56,3349.709l-43.7,18.654a1.011,1.011,0,0,1-1.326-.533h0a1.011,1.011,0,0,1,.532-1.326l43.7-18.653a1.01,1.01,0,0,1,1.326.533h0A1.011,1.011,0,0,1,6709.56,3349.709Z" transform="translate(-6635.502 -3292.228)" fill="#e6e6ff"/>
    <path id="Path_763" data-name="Path 763" d="M6718.892,3203.536l-16.885,7.207a1.01,1.01,0,0,1-1.326-.533h0a1.01,1.01,0,0,1,.532-1.326l16.886-7.207a1.01,1.01,0,0,1,1.325.533h0A1.01,1.01,0,0,1,6718.892,3203.536Z" transform="translate(-6661.813 -3185.834)" fill="#ecf3fe"/>
    <path id="Path_764" data-name="Path 764" d="M6725.014,3217.88l-16.886,7.207a1.01,1.01,0,0,1-1.326-.533h0a1.01,1.01,0,0,1,.533-1.326l16.885-7.207a1.01,1.01,0,0,1,1.326.533h0A1.011,1.011,0,0,1,6725.014,3217.88Z" transform="translate(-6666.268 -3196.275)" fill="#ecf3fe"/>
    <path id="Path_765" data-name="Path 765" d="M6731.136,3232.224l-16.885,7.207a1.01,1.01,0,0,1-1.326-.533h0a1.01,1.01,0,0,1,.533-1.326l16.885-7.207a1.011,1.011,0,0,1,1.326.533h0A1.011,1.011,0,0,1,6731.136,3232.224Z" transform="translate(-6670.726 -3206.715)" fill="#ecf3fe"/>
    <path id="Path_766" data-name="Path 766" d="M6737.259,3246.569l-16.885,7.207a1.011,1.011,0,0,1-1.327-.533h0a1.011,1.011,0,0,1,.533-1.326l16.885-7.207a1.011,1.011,0,0,1,1.327.533h0A1.012,1.012,0,0,1,6737.259,3246.569Z" transform="translate(-6675.182 -3217.156)" fill="#ecf3fe"/>
  </g>
  <path id="Path_767" data-name="Path 767" d="M6794.193,3279.257l14.187,33.237-19.562,8.349a1.584,1.584,0,0,1-2.079-.835l-14.715-34.475,18.323-7.821a2.929,2.929,0,0,1,3.846,1.545Z" transform="translate(-6678.658 -3205.287)" fill="#3a7ec1" opacity="0.2" style="mix-blend-mode: multiply;isolation: isolate"/>
  <path id="Path_768" data-name="Path 768" d="M6654.995,3323.3l-79.59,33.972a4.368,4.368,0,0,1-5.61-2.548l-24.448-57.28a4.364,4.364,0,0,1,2.042-5.812l26.069-11.127a4.014,4.014,0,0,1,3.454.181l11.542,6.056a4.014,4.014,0,0,0,3.455.181l30.575-13.051a2.93,2.93,0,0,1,3.846,1.545l18.734,43.892A7.569,7.569,0,0,0,6654.995,3323.3Z" transform="translate(-6513.381 -3202.491)" fill="#52d1bd"/>
  <path id="Path_769" data-name="Path 769" d="M6580.475,3390.46l8.559,20.05a3.35,3.35,0,0,1-1.766,4.4l-10.54,4.5-11.187-26.21,10.541-4.5A3.348,3.348,0,0,1,6580.475,3390.46Z" transform="translate(-6528.368 -3286.042)" fill="#3a7ec1" opacity="0.2" style="mix-blend-mode: multiply;isolation: isolate"/>
  <g id="Group_217" data-name="Group 217" transform="translate(21.939 100.126)">
    <rect id="Rectangle_27" data-name="Rectangle 27" width="28.498" height="28.498" rx="12.305" transform="matrix(0.92, -0.393, 0.393, 0.92, 0, 11.187)" fill="#fff"/>
    <g id="Group_216" data-name="Group 216" transform="translate(12.13 8.789)">
      <path id="Rectangle_28" data-name="Rectangle 28" d="M3.11,0h0A3.11,3.11,0,0,1,6.22,3.11v5.38A3.11,3.11,0,0,1,3.11,11.6h0A3.11,3.11,0,0,1,0,8.489V3.11A3.11,3.11,0,0,1,3.11,0Z" transform="translate(0 2.442) rotate(-23.12)" fill="#52d1bd"/>
      <path id="Path_770" data-name="Path 770" d="M6568.568,3441.11a5.321,5.321,0,0,0-.045-4.1.571.571,0,0,0-1.051.448,4.21,4.21,0,0,1-2.22,5.526l-.057.024a4.21,4.21,0,0,1-5.526-2.22.571.571,0,0,0-1.051.448,5.353,5.353,0,0,0,6.518,3.01l1.533,3.592-2.335,1a.571.571,0,0,0,.448,1.051l5.722-2.442a.571.571,0,0,0-.449-1.051l-2.335,1-1.533-3.592A5.315,5.315,0,0,0,6568.568,3441.11Z" transform="translate(-6557.366 -3430.07)" fill="#52d1bd"/>
    </g>
  </g>
  <g id="Group_220" data-name="Group 220" transform="translate(90.396)">
    <g id="Group_218" data-name="Group 218">
      <path id="Path_771" data-name="Path 771" d="M6819.521,3145.952a1.59,1.59,0,0,0,2.211.384l8.739-6.149-11.536,4.931Z" transform="translate(-6803.199 -3105.361)" fill="none"/>
      <path id="Path_772" data-name="Path 772" d="M6763.254,3074.636l2.946,4.187-2.692-6.3A1.589,1.589,0,0,0,6763.254,3074.636Z" transform="translate(-6762.461 -3056.114)" fill="none"/>
      <path id="Path_773" data-name="Path 773" d="M6886.234,3064.266a1.588,1.588,0,0,0,.385-2.211l-9.362-13.305,7.175,16.784Z" transform="translate(-6845.648 -3038.808)" fill="none"/>
      <path id="Path_774" data-name="Path 774" d="M6825.322,3014.745h0a1.585,1.585,0,0,0-2.21-.385l-8.734,6.146,11.53-4.929Z" transform="translate(-6799.882 -3013.566)" fill="none"/>
      <path id="Path_775" data-name="Path 775" d="M6860.646,3019.927a1.845,1.845,0,0,0-2.08-1.074l4.13,5.869Z" transform="translate(-6832.044 -3017.017)" fill="#f9c067"/>
      <path id="Path_776" data-name="Path 776" d="M6778.41,3024.532l-13.318,9.372a1.445,1.445,0,0,0-.13.1l2.692,6.3,12,17.049,11.537-4.931,11.51-8.1-7.175-16.784-5.582-7.932Z" transform="translate(-6763.914 -3017.593)" fill="#f9c067"/>
      <path id="Path_777" data-name="Path 777" d="M6784.7,3118.7a1.844,1.844,0,0,0,2.414.968l1.814-.775-10.565-15.015Z" transform="translate(-6773.671 -3078.936)" fill="#f9c067"/>
      <path id="Path_778" data-name="Path 778" d="M6878.278,3115.106a1.846,1.846,0,0,0,.968-2.415l-.223-.521-9.477,6.668Z" transform="translate(-6840.037 -3084.968)" fill="#f9c067"/>
      <path id="Path_779" data-name="Path 779" d="M6774.113,3041.229l-10.866,4.646a1.844,1.844,0,0,0-.968,2.414l.418.978c.015-.011.028-.023.044-.035Z" transform="translate(-6761.854 -3033.333)" fill="#f9c067"/>
      <path id="Path_780" data-name="Path 780" d="M6761.905,3073.35a1.589,1.589,0,0,1,.254-2.109l-.205-.481a2.094,2.094,0,0,0-.463,2.88l4.317,6.134-.957-2.238Z" transform="translate(-6761.112 -3054.828)" fill="#444"/>
      <path id="Path_781" data-name="Path 781" d="M6817.128,3013.01a1.587,1.587,0,0,1,2.211.384h0l.585.833.161-.069a1.789,1.789,0,0,1,.334-.105l-.668-.949h0a2.094,2.094,0,0,0-2.914-.507l-10.681,7.516,2.237-.957Z" transform="translate(-6793.898 -3012.216)" fill="#444"/>
      <path id="Path_782" data-name="Path 782" d="M6884.474,3055.781l-10.732-15.252.957,2.237,9.362,13.305a1.588,1.588,0,0,1-.385,2.21l-1.8,1.269.2.475,1.891-1.33A2.094,2.094,0,0,0,6884.474,3055.781Z" transform="translate(-6843.09 -3032.824)" fill="#444"/>
      <path id="Path_783" data-name="Path 783" d="M6820.462,3143.778a1.589,1.589,0,0,1-2.211-.384l-.586-.833-.476.2.649.921a2.1,2.1,0,0,0,2.532.72,2.13,2.13,0,0,0,.383-.213l10.685-7.52-2.237.957Z" transform="translate(-6801.928 -3102.802)" fill="#444"/>
      <path id="Path_784" data-name="Path 784" d="M6856.748,3019.136l5.581,7.932-.956-2.237-4.13-5.869a1.79,1.79,0,0,0-.334.106Z" transform="translate(-6830.721 -3017.126)" fill="#444"/>
      <path id="Path_785" data-name="Path 785" d="M6861.325,3118.524l2.238-.956,9.477-6.668-.2-.476Z" transform="translate(-6834.053 -3083.697)" fill="#f9c067"/>
      <path id="Path_786" data-name="Path 786" d="M6764.543,3047.087l13.318-9.372-2.237.956-11.372,8c-.016.011-.029.024-.044.035l.205.481A1.447,1.447,0,0,1,6764.543,3047.087Z" transform="translate(-6763.366 -3030.776)" fill="#f9c067"/>
      <path id="Path_787" data-name="Path 787" d="M6774.853,3095.661l.956,2.237,10.565,15.015.476-.2Z" transform="translate(-6771.113 -3072.952)" fill="#444"/>
    </g>
    <g id="Group_219" data-name="Group 219" transform="translate(13.971 10.936)">
      <path id="Path_788" data-name="Path 788" d="M6820.556,3052.756l0,.009-8.042,5.563a.16.16,0,0,0-.057.2l.5,1.16.5,1.176,3.751,8.776a3.2,3.2,0,0,0-2.461,1.313c-1,1.221-1.162,2.745-.359,3.405s2.267.205,3.268-1.016a3.236,3.236,0,0,0,.792-3.06l-4.2-9.826a.143.143,0,0,1,.049-.172l7.171-4.951a.142.142,0,0,1,.21.061l3.5,8.2a3.2,3.2,0,0,0-2.461,1.313c-1,1.221-1.162,2.746-.359,3.406s2.267.2,3.268-1.016a2.923,2.923,0,0,0,.676-3.011l.006,0-5.034-11.776a.161.161,0,0,0-.238-.07Z" transform="translate(-6812.448 -3052.4)" fill="#fff"/>
    </g>
  </g>
  <path id="Path_789" data-name="Path 789" d="M6928.78,3268.467l7.026,16.462-5.513,2.344-3.373,1.433-.068.03a.973.973,0,0,1-.127.043l-.038.009a1.075,1.075,0,0,1-.167.027h-.041a.865.865,0,0,1-.094,0h-.043l-.1-.011-.031,0a1.106,1.106,0,0,1-.118-.031l-.036-.011-.083-.032c-.006,0-.013-.006-.02-.01a.416.416,0,0,1-.039-.019,1.2,1.2,0,0,1-.136-.083s-.008,0-.011-.006a.39.39,0,0,1-.037-.029l-.017-.015a.34.34,0,0,1-.031-.026s0,0-.008-.008a.59.59,0,0,1-.067-.066.108.108,0,0,1-.02-.02.6.6,0,0,1-.055-.067c-.008-.009-.015-.02-.023-.03s-.021-.033-.032-.05-.007-.01-.009-.016l-.025-.038c-.013-.025-.026-.051-.037-.076s-.01-.02-.016-.032l-.854-2.01-.87-2.042-.925-2.178-.868-2.04-2.562-6.027-.066-.016a1.106,1.106,0,0,1-.032-.208c0-.014,0-.031,0-.045a.226.226,0,0,0-.007-.026,1.142,1.142,0,0,1-.029-.2,1.122,1.122,0,0,1,.125-.578l.005-.007.037-.064a1.109,1.109,0,0,1,.512-.443Z" transform="translate(-6785.767 -3198.73)" fill="#3a7ec1" opacity="0.2" style="mix-blend-mode: multiply;isolation: isolate"/>
  <g id="Group_221" data-name="Group 221" transform="translate(131.192 61.85)">
    <path id="Path_790" data-name="Path 790" d="M6928.094,3282.524h0a.756.756,0,0,1-.092.177l-.98,1.385-8.264,11.674-.058.024a1.087,1.087,0,0,1-.317.082l-.045,0a1.118,1.118,0,0,1-.545-.1l-.048-.024a1.029,1.029,0,0,1-.137-.084l-.043-.032-.042-.035a1.109,1.109,0,0,1-.292-.4l-6.126-14.41a1.1,1.1,0,0,1-.059-.181,1.008,1.008,0,0,1-.028-.2,1.122,1.122,0,0,1,.125-.578l0-.007.036-.064a1.11,1.11,0,0,1,.514-.442l.235-.1,1.39.211,12.8,1.947.481.074.919.14a.733.733,0,0,1,.19.056h0A.719.719,0,0,1,6928.094,3282.524Z" transform="translate(-6911.016 -3268.401)" fill="#f9c067"/>
    <path id="Path_791" data-name="Path 791" d="M6983.19,3240.168l6.125,14.41c.007.017.015.035.021.053a.128.128,0,0,1,.008.026c0,.008.006.016.01.025a.075.075,0,0,0,0,.01c0,.006,0,.011,0,.017s.007.026.011.04a.225.225,0,0,1,.008.039l0,.006a.055.055,0,0,1,0,.012.029.029,0,0,1,0,.015.138.138,0,0,1,0,.02c0,.011,0,.022,0,.035s0,0,0,.006c0,.02,0,.042.005.062v.033a.129.129,0,0,1,0,.028v.009c0,.027,0,.054,0,.081,0,.008,0,.017,0,.028s0,.018,0,.027a.242.242,0,0,0,0,.026c0,.018-.006.036-.01.053a.275.275,0,0,1-.006.032c-.006.026-.012.049-.02.073a.514.514,0,0,1-.016.052c-.005.016-.013.033-.02.049a.078.078,0,0,1-.01.024.1.1,0,0,1-.009.021l-.012.025s0,.005,0,.008c-.01.02-.021.041-.033.061l0,.006c-.009.015-.019.031-.03.046l-.009.016a.217.217,0,0,1-.017.023.112.112,0,0,1-.013.019l-.016.019a.942.942,0,0,1-.117.13l-.008.007-.01.008a.2.2,0,0,1-.031.027c-.017.015-.037.03-.055.043l-.03.021-.02.012-.024.016h0a.105.105,0,0,1-.02.012l-.01.006a.056.056,0,0,1-.017.01l-.011.006-.037.018-.055.025-.056.024-14.14-2.15-1.678-.255a.731.731,0,0,1-.191-.057h0a.713.713,0,0,1-.375-.883h0a.644.644,0,0,1,.091-.176l.536-.759.281-.4,7.483-10.57.812-1.147.235-.1c.025-.01.05-.02.075-.028a.027.027,0,0,1,.013,0c.024-.009.049-.016.074-.022a.073.073,0,0,1,.017,0l.064-.013.016,0a.73.73,0,0,1,.08-.01c.026,0,.052,0,.075-.005a.8.8,0,0,1,.106,0,.39.39,0,0,1,.056.005.724.724,0,0,1,.1.017l.072.019.009,0,.054.018.04.014a1.233,1.233,0,0,1,.118.055.48.48,0,0,1,.051.029,1.043,1.043,0,0,1,.19.145c.016.015.032.031.048.048v0a.727.727,0,0,1,.069.081c.012.015.021.028.031.042l.022.034h0c.007.011.014.022.021.034l.025.043c.006.012.013.025.019.037Z" transform="translate(-6955.58 -3239.485)" fill="#f9c067"/>
    <path id="Path_792" data-name="Path 792" d="M6961.069,3286.015l.063.15a1.145,1.145,0,0,1-.573,1.514L6935.1,3298.5a1.146,1.146,0,0,1-1.488-.638l-.064-.15,9.433-14.181a1.308,1.308,0,0,1,1.331-.565Z" transform="translate(-6927.416 -3271.117)" fill="#e29d2d"/>
    <path id="Path_793" data-name="Path 793" d="M6961.149,3287.183l.061.144a1.12,1.12,0,0,1-.592,1.469l-25.459,10.822a1.12,1.12,0,0,1-1.469-.593l-.061-.144,9.586-13.82a1.355,1.355,0,0,1,1.331-.565Z" transform="translate(-6927.476 -3272.234)" fill="#f9c067"/>
    <path id="Path_794" data-name="Path 794" d="M6938.78,3240.668l-.032-.045a.807.807,0,0,0-.072-.087v0l-.049-.051a1.151,1.151,0,0,0-.2-.155.578.578,0,0,0-.053-.031,1.179,1.179,0,0,0-.119-.06.315.315,0,0,0-.041-.015.436.436,0,0,0-.054-.021l-.01,0-.072-.021a.95.95,0,0,0-.1-.019.386.386,0,0,0-.057-.006.861.861,0,0,0-.107-.007c-.023,0-.051,0-.076,0a.79.79,0,0,0-.08.009.058.058,0,0,0-.016,0c-.021,0-.044.007-.066.012a.056.056,0,0,0-.017,0c-.024.006-.05.014-.074.022a.029.029,0,0,0-.014,0c-.024.008-.05.018-.075.028l-25.581,10.874a1.083,1.083,0,0,0-.514.454l-.034.066a.02.02,0,0,0,0,.007,1.17,1.17,0,0,0-.117.6,1.152,1.152,0,0,0,.032.208l.164.041,16.071,3.892,1.05.256a1.241,1.241,0,0,0,1.358-.578l.546-.935,8.35-14.272.084-.144h0Z" transform="translate(-6911.111 -3239.968)" fill="#e29d2d"/>
    <path id="Path_795" data-name="Path 795" d="M6938.537,3240h0l-8.576,13.92-.555.9a1.283,1.283,0,0,1-1.353.574l-1.033-.225-15.975-3.486a1.008,1.008,0,0,1-.028-.2,1.121,1.121,0,0,1,.125-.577l0-.008.036-.064a1.11,1.11,0,0,1,.514-.442l25.459-10.822c.025-.01.05-.02.075-.028a.028.028,0,0,1,.014,0c.024-.009.049-.016.073-.022a.073.073,0,0,1,.017,0l.064-.013.016,0a.736.736,0,0,1,.08-.01c.026,0,.051,0,.075-.005a.8.8,0,0,1,.105,0,.384.384,0,0,1,.056.005.731.731,0,0,1,.1.017l.071.019.009,0,.054.018.039.014a1.18,1.18,0,0,1,.118.055.486.486,0,0,1,.051.029,1.043,1.043,0,0,1,.19.145l.048.048v0a.783.783,0,0,1,.069.081l.031.042Z" transform="translate(-6911.016 -3239.485)" fill="#f9c067"/>
  </g>
  <circle id="Ellipse_29" data-name="Ellipse 29" cx="11.238" cy="11.238" r="11.238" transform="translate(0 70.341) rotate(-10.057)" fill="#f9c067"/>
  <path id="Path_796" data-name="Path 796" d="M6457.24,3287.214q-.431.184-.879.334a11.469,11.469,0,1,1,.879-.334Zm-8.848-20.662a10.986,10.986,0,1,0,14.736,6.612h0a10.985,10.985,0,0,0-13.9-6.928Q6448.8,3266.379,6448.392,3266.552Z" transform="translate(-6437.881 -3196.32)" fill="#444"/>
  <path id="Path_797" data-name="Path 797" d="M6463.885,3294.226a.882.882,0,0,1-.416.035l-2.985-.462a.885.885,0,1,1,.271-1.749l2.242.347,3.512-10.748a.885.885,0,0,1,1.683.55l-3.745,11.463A.887.887,0,0,1,6463.885,3294.226Z" transform="translate(-6451.356 -3207.88)" fill="#fff"/>
  <circle id="Ellipse_30" data-name="Ellipse 30" cx="4.269" cy="4.269" r="4.269" transform="translate(52.755 24.912) rotate(-66.394)" fill="#52d1bd"/>
  <path id="Path_798" data-name="Path 798" d="M7022.538,3476.162a3.019,3.019,0,1,1-3.962-1.591A3.019,3.019,0,0,1,7022.538,3476.162Z" transform="translate(-6856.777 -3348.567)" fill="#52d1bd"/>
  <path id="Path_799" data-name="Path 799" d="M6437.779,3417.6a3.019,3.019,0,1,1-3.962-1.591A3.019,3.019,0,0,1,6437.779,3417.6Z" transform="translate(-6431.157 -3305.94)" fill="#52d1bd"/>
</svg>
