<svg xmlns="http://www.w3.org/2000/svg" width="41" height="41" viewBox="0 0 41 41">
  <g id="vuesax_bold_search-normal" data-name="vuesax/bold/search-normal" transform="translate(-108 -188)">
    <g id="search-normal" transform="translate(108 188)">
      <path id="Vector" d="M30.784,15.392A15.392,15.392,0,1,1,15.392,0,15.392,15.392,0,0,1,30.784,15.392Z" transform="translate(3.417 3.417)" fill="#09bb8b"/>
      <path id="Vector-2" data-name="Vector" d="M6.82,1.623A3.578,3.578,0,0,0,3.454,0,3.451,3.451,0,0,0,.584,1.35,3.467,3.467,0,0,0,.208,4.493c.735,2.221,2.016,2.716,2.716,2.8a1.962,1.962,0,0,0,.325.017C4,7.312,5.163,6.987,6.29,5.3A3.519,3.519,0,0,0,6.82,1.623Z" transform="translate(30.747 30.75)" fill="#09bb8b"/>
      <path id="Vector-3" data-name="Vector" d="M0,0H41V41H0Z" transform="translate(41 41) rotate(180)" fill="none" opacity="0"/>
    </g>
  </g>
</svg>
