<svg xmlns="http://www.w3.org/2000/svg" width="747.871" height="557.253" viewBox="0 0 747.871 557.253">
  <g id="Mobile_login-rafiki" data-name="Mobile login-rafiki" transform="translate(0 -55)">
    <g id="freepik--background-complete--inject-2" transform="translate(0 55)">
      <rect id="Rectangle_124" data-name="Rectangle 124" width="747.871" height="0.374" transform="translate(0 489.706)" fill="#e6e6e6"/>
      <rect id="Rectangle_125" data-name="Rectangle 125" width="49.539" height="0.374" transform="translate(137.159 512.336)" fill="#e6e6e6"/>
      <rect id="Rectangle_126" data-name="Rectangle 126" width="28.703" height="0.374" transform="translate(92.781 512.336)" fill="#e6e6e6"/>
      <rect id="Rectangle_127" data-name="Rectangle 127" width="28.703" height="0.374" transform="translate(286.225 517.841)" fill="#e6e6e6"/>
      <rect id="Rectangle_128" data-name="Rectangle 128" width="64.601" height="0.374" transform="translate(399.991 526.187)" fill="#e6e6e6"/>
      <rect id="Rectangle_129" data-name="Rectangle 129" width="9.468" height="0.374" transform="translate(377.211 526.187)" fill="#e6e6e6"/>
      <rect id="Rectangle_130" data-name="Rectangle 130" width="140.121" height="0.374" transform="translate(537.973 517.841)" fill="#e6e6e6"/>
      <path id="Path_1193" data-name="Path 1193" d="M335.548,478H46.736a8.541,8.541,0,0,1-8.526-8.541V63.466A8.541,8.541,0,0,1,46.736,55H335.548a8.541,8.541,0,0,1,8.541,8.541V469.455A8.541,8.541,0,0,1,335.548,478ZM46.736,55.3a8.167,8.167,0,0,0-8.152,8.167V469.455a8.167,8.167,0,0,0,8.152,8.167H335.548a8.182,8.182,0,0,0,8.167-8.167V63.466a8.182,8.182,0,0,0-8.167-8.167Z" transform="translate(18.942 -55)" fill="#e6e6e6"/>
      <path id="Path_1194" data-name="Path 1194" d="M551.868,478H263.041a8.556,8.556,0,0,1-8.541-8.541V63.466A8.556,8.556,0,0,1,263.041,55H551.868a8.541,8.541,0,0,1,8.511,8.466V469.455A8.541,8.541,0,0,1,551.868,478ZM263.041,55.3a8.182,8.182,0,0,0-8.167,8.167V469.455a8.182,8.182,0,0,0,8.167,8.167H551.868a8.182,8.182,0,0,0,8.167-8.167V63.466a8.182,8.182,0,0,0-8.167-8.167Z" transform="translate(126.166 -55)" fill="#e6e6e6"/>
      <rect id="Rectangle_131" data-name="Rectangle 131" width="32.891" height="130.473" transform="translate(367.07 361.939)" fill="#e0e0e0"/>
      <path id="Path_1195" data-name="Path 1195" d="M265.391,390.1h6.252V372.33h-12.8Z" transform="translate(128.318 102.314)" fill="#fafafa"/>
      <rect id="Rectangle_132" data-name="Rectangle 132" width="32.891" height="130.473" transform="translate(222.94 361.939)" fill="#e0e0e0"/>
      <rect id="Rectangle_133" data-name="Rectangle 133" width="149.574" height="119.57" transform="translate(250.387 361.939)" fill="#fafafa"/>
      <path id="Path_1196" data-name="Path 1196" d="M309.938,301.1v31.635H171.178V301.1H309.894m.583-.583H170.64v32.787H310.522V300.52Z" transform="translate(84.593 66.714)" fill="#e0e0e0"/>
      <path id="Path_1197" data-name="Path 1197" d="M173.637,390.1H167.4V372.33h12.789Z" transform="translate(82.987 102.314)" fill="#fafafa"/>
      <path id="Path_1198" data-name="Path 1198" d="M215.19,312.576a3.306,3.306,0,1,0,3.306-3.306A3.306,3.306,0,0,0,215.19,312.576Z" transform="translate(106.679 71.052)" fill="#e6e6e6"/>
      <path id="Path_1199" data-name="Path 1199" d="M309.938,326.558v31.635H171.178V326.558H309.894m.583-.568H170.64v32.787H310.522V326Z" transform="translate(84.593 79.341)" fill="#e0e0e0"/>
      <path id="Path_1200" data-name="Path 1200" d="M215.19,338.1a3.306,3.306,0,1,0,3.306-3.305,3.306,3.306,0,0,0-3.306,3.305Z" transform="translate(106.679 83.703)" fill="#e6e6e6"/>
      <path id="Path_1201" data-name="Path 1201" d="M309.938,352.033v31.65H171.178v-31.65H309.894m.583-.583H170.64v32.8H310.522v-32.8Z" transform="translate(84.593 91.962)" fill="#e0e0e0"/>
      <path id="Path_1202" data-name="Path 1202" d="M215.19,363.521a3.306,3.306,0,1,0,.963-2.347A3.306,3.306,0,0,0,215.19,363.521Z" transform="translate(106.679 96.3)" fill="#e6e6e6"/>
      <rect id="Rectangle_134" data-name="Rectangle 134" width="32.891" height="206.263" transform="translate(202.852 286.165)" fill="#e0e0e0"/>
      <path id="Path_1203" data-name="Path 1203" d="M155.6,390.1h6.252V372.33H149.06Z" transform="translate(73.895 102.314)" fill="#fafafa"/>
      <rect id="Rectangle_135" data-name="Rectangle 135" width="32.891" height="206.263" transform="translate(79.932 286.165)" fill="#e0e0e0"/>
      <rect id="Rectangle_136" data-name="Rectangle 136" width="128.379" height="195.359" transform="translate(107.364 286.165)" fill="#fafafa"/>
      <path id="Path_1204" data-name="Path 1204" d="M193.029,250.223v44.229H75.718V250.223H193.029m.688-.673H75V295.1H193.687v-45.53Z" transform="translate(37.181 41.446)" fill="#e0e0e0"/>
      <path id="Path_1205" data-name="Path 1205" d="M172.654,283.408V400.719H116.773V283.408h55.881m.688-.688H116.1V401.407h57.242V282.72Z" transform="translate(57.556 57.89)" fill="#e0e0e0"/>
      <path id="Path_1206" data-name="Path 1206" d="M131.6,283.408V400.719H75.718V283.408H131.6m.673-.688H75V401.407h57.242V282.72Z" transform="translate(37.181 57.89)" fill="#e0e0e0"/>
      <path id="Path_1207" data-name="Path 1207" d="M78.032,390.1H71.78V372.33h12.8Z" transform="translate(35.584 102.314)" fill="#fafafa"/>
      <path id="Path_1208" data-name="Path 1208" d="M112.48,265.9a3.321,3.321,0,1,0,3.321-3.306,3.321,3.321,0,0,0-3.321,3.306Z" transform="translate(55.761 47.911)" fill="#e6e6e6"/>
      <path id="Path_1209" data-name="Path 1209" d="M120.4,321.631a3.306,3.306,0,1,0,.963-2.347A3.321,3.321,0,0,0,120.4,321.631Z" transform="translate(59.687 75.533)" fill="#e6e6e6"/>
      <path id="Path_1210" data-name="Path 1210" d="M104.57,321.631a3.306,3.306,0,1,0,.963-2.347A3.306,3.306,0,0,0,104.57,321.631Z" transform="translate(51.84 75.534)" fill="#e6e6e6"/>
      <path id="Path_1211" data-name="Path 1211" d="M107.061,207.87H93.2A146.493,146.493,0,0,1,95.6,228.242c0,7.479-10.56,37.139,4.487,37.139s4.487-29.586,4.487-37.139a146.489,146.489,0,0,1,2.483-20.372Z" transform="translate(45.609 20.784)" fill="#e0e0e0"/>
      <path id="Path_1212" data-name="Path 1212" d="M66.8,228.15v8.974a18.218,18.218,0,0,0,18.158,18.158h8.974a18.218,18.218,0,0,0,18.158-18.158V228.15Z" transform="translate(33.116 30.838)" fill="#f5f5f5"/>
      <path id="Path_1213" data-name="Path 1213" d="M195.67,284.26c0,10.47,11.712,19.026,26.026,19.026h12.923c14.314,0,26.026-8.556,26.026-19.026Z" transform="translate(97.002 58.654)" fill="#e0e0e0"/>
      <path id="Path_1214" data-name="Path 1214" d="M454.662,334.9c-7.838,6.4-18.667,18.113-28.569,34.6-6.611,10.979-10.59,22.436-12.34,37.663,0-17.2.1-35.673.165-53.114,1.989-4.487,6.536-14.838,9.8-23,10.874-27.267,14.957-33.983,24.725-57.5,13.058-31.411,26.43-68.595,22.6-65.618-7.808,6.058-37.723,62.073-40.953,70.09A224.36,224.36,0,0,0,413.947,345.1c0-16.453.12-31.411.179-43.017.209-37.857.853-50.077,1.167-53.847,1.212-1.915,2.633-4.143,3.47-5.34,7.03-10.171,9.737-18.816,16.348-33.983,9.393-21.464,17.47-59.59,15.107-57.676-9.842,8.017-17.59,25.218-27.791,47.161s-7.284,34.552-9.3,53.278c-.419,3.68-.748,17.56-.987,36.78-2.633-20.492-7.6-33.983-16.648-46.248-11.128-15.092-21.9-25.278-29.8-30.6s13.641,31.74,23.932,47.864c9.169,14.419,17.62,27.118,22.436,39.637-.254,26.071-.374,59.067-.374,89.745-2.363-13.97-6.222-29.032-11.368-40.684-6.192-14-15.705-35.479-23.289-42.763-1.81-1.75,7.927,40.026,14.18,51.124s10.844,21.584,14.778,27.881c.912,1.5,3.964,7.135,5.7,10.4,0,37.5.209,70.584.538,81.847h1.615c-.1-2.9-.135-21.987-.09-47.236,3.9-13.7,12.818-29.346,20.177-43.616C441.948,370.344,462.5,328.538,454.662,334.9Z" transform="translate(180.445 -7.328)" fill="#e0e0e0"/>
      <path id="Path_1215" data-name="Path 1215" d="M429.151,399.439H382.275L378.73,353.49H432.7Z" transform="translate(187.752 92.974)" fill="#f0f0f0"/>
      <path id="Path_1216" data-name="Path 1216" d="M437.917,362.211H376.965L375.23,346.7h64.436Z" transform="translate(186.017 89.608)" fill="#f5f5f5"/>
      <rect id="Rectangle_137" data-name="Rectangle 137" width="83.836" height="92.063" transform="translate(102.024 30.663)" fill="#e0e0e0"/>
      <rect id="Rectangle_138" data-name="Rectangle 138" width="86.603" height="92.063" transform="translate(108.337 30.663)" fill="#f5f5f5"/>
      <rect id="Rectangle_139" data-name="Rectangle 139" width="77.554" height="72.095" transform="translate(187.686 37.917) rotate(90)" fill="#fff"/>
      <rect id="Rectangle_140" data-name="Rectangle 140" width="39.951" height="37.139" transform="translate(170.2 56.704) rotate(90)" fill="#f5f5f5"/>
      <rect id="Rectangle_141" data-name="Rectangle 141" width="77.883" height="85.526" transform="translate(535.445 41.387)" fill="#e0e0e0"/>
      <rect id="Rectangle_142" data-name="Rectangle 142" width="80.441" height="85.526" transform="translate(541.324 41.387)" fill="#f5f5f5"/>
      <rect id="Rectangle_143" data-name="Rectangle 143" width="72.035" height="66.964" transform="translate(615.034 48.133) rotate(90)" fill="#fff"/>
      <circle id="Ellipse_1354" data-name="Ellipse 1354" cx="20.896" cy="20.896" r="20.896" transform="translate(560.649 63.255)" fill="#f5f5f5"/>
      <rect id="Rectangle_144" data-name="Rectangle 144" width="62.193" height="68.296" transform="translate(210.765 85.556)" fill="#e0e0e0"/>
      <rect id="Rectangle_145" data-name="Rectangle 145" width="64.242" height="68.296" transform="translate(215.447 85.556)" fill="#f5f5f5"/>
      <rect id="Rectangle_146" data-name="Rectangle 146" width="57.526" height="53.473" transform="translate(274.304 90.941) rotate(90)" fill="#fff"/>
      <path id="Path_1217" data-name="Path 1217" d="M170.368,125.3,155.74,150.638H185Z" transform="translate(77.207 -20.149)" fill="#f5f5f5"/>
    </g>
    <g id="freepik--Shadow--inject-2" transform="translate(83.926 578.39)">
      <ellipse id="Ellipse_1355" data-name="Ellipse 1355" cx="290.009" cy="16.932" rx="290.009" ry="16.932" fill="#f5f5f5"/>
    </g>
    <g id="freepik--character-2--inject-2" transform="translate(429.532 118.626)">
      <path id="Path_1218" data-name="Path 1218" d="M374.433,165.413,359.6,159.43s-19.579,35.7-25.188,37.513c-7.628,2.453-23.423,9.274-32.787,10.47-1.271,1.5-3.35,6.147-3.156,7.838,12.579,4.2,40.22-1.376,46.144-5.774C358.084,199.5,374.433,165.413,374.433,165.413Z" transform="translate(-281.577 -66.856)" fill="#e58a7b"/>
      <path id="Path_1219" data-name="Path 1219" d="M362.859,160.739c2.767,10.216-12.22,30.767-12.22,30.767L331,180.5s3.68-8.451,8.167-17.051C346.361,149.551,359.7,149.087,362.859,160.739Z" transform="translate(-265.442 -70.304)" fill="#09bb8b"/>
      <path id="Path_1220" data-name="Path 1220" d="M362.859,160.739c2.767,10.216-12.22,30.767-12.22,30.767L331,180.5s3.68-8.451,8.167-17.051C346.361,149.551,359.7,149.087,362.859,160.739Z" transform="translate(-265.442 -70.304)" opacity="0.2"/>
      <path id="Path_1221" data-name="Path 1221" d="M336.21,180.58l7.733,4.338L345.3,161.18C340.8,164.635,337.631,175.046,336.21,180.58Z" transform="translate(-262.859 -65.988)" opacity="0.2"/>
      <path id="Path_1222" data-name="Path 1222" d="M346.7,154.019s-15.286,34.013-6.372,97.343h60.233c.957-9.244-2.214-54.355,9.259-97.911a153.215,153.215,0,0,0-20.013-2.558,221.181,221.181,0,0,0-25.592,0,118.055,118.055,0,0,0-17.515,3.126Z" transform="translate(-262.203 -71.272)" fill="#09bb8b"/>
      <path id="Path_1223" data-name="Path 1223" d="M346.7,154.019s-15.286,34.013-6.372,97.343h60.233c.957-9.244-2.214-54.355,9.259-97.911a153.215,153.215,0,0,0-20.013-2.558,221.181,221.181,0,0,0-25.592,0,118.055,118.055,0,0,0-17.515,3.126Z" transform="translate(-262.203 -71.272)" opacity="0.2"/>
      <path id="Path_1224" data-name="Path 1224" d="M334.32,418.1c-.09,1.615,22.75,2.917,51,2.917s51.259-1.3,51.349-2.917-22.735-2.9-51-2.9S334.425,416.5,334.32,418.1Z" transform="translate(-263.796 59.94)" fill="#e8ecf1"/>
      <rect id="Rectangle_147" data-name="Rectangle 147" width="11.456" height="25.492" transform="translate(100.047 439.732) rotate(-21.161)" fill="#e58a7b"/>
      <path id="Path_1225" data-name="Path 1225" d="M398.151,418.091H386.888L382.76,392.02h11.263Z" transform="translate(-239.782 48.449)" fill="#e58a7b"/>
      <path id="Path_1226" data-name="Path 1226" d="M391.012,408.58h12.654a.927.927,0,0,1,.912.778l1.63,10.007a1.765,1.765,0,0,1-1.765,2c-4.412-.075-6.536-.344-12.1-.344-3.425,0-10.47.359-15.227.359s-5.071-4.667-3.111-5.1c8.795-1.9,12.205-4.487,15.137-7A2.827,2.827,0,0,1,391.012,408.58Z" transform="translate(-244.683 56.658)" fill="#263238"/>
      <path id="Path_1227" data-name="Path 1227" d="M367.929,407.172l11.966-3.5a.972.972,0,0,1,1.122.479l4.487,8.974a1.72,1.72,0,0,1-1.122,2.378c-4.353,1.2-7.269,1.929-12.714,3.515-3.754,1.092-7.583,2.872-11.293,4.053-2.573.823-8.615.853-11.742.853-4.622,0-5.654-4.876-3.665-5.1,5.011-.553,5.684-.3,8.451-1.69a38.425,38.425,0,0,0,12.086-8.346,5.61,5.61,0,0,1,2.423-1.615Z" transform="translate(-258.994 54.207)" fill="#263238"/>
      <path id="Path_1228" data-name="Path 1228" d="M307.625,193.19,295.241,188l-5.1,13.731a50.854,50.854,0,0,0,15.316,0Z" transform="translate(-285.698 -52.693)" fill="#e58a7b"/>
      <path id="Path_1229" data-name="Path 1229" d="M287.5,187.76l-.329,9.124,4.442,4.936,5.1-13.731Z" transform="translate(-287.17 -52.812)" fill="#e58a7b"/>
      <rect id="Rectangle_148" data-name="Rectangle 148" width="11.487" height="13.177" transform="translate(101.48 441.752) rotate(-21.11)" fill="#cf6f64"/>
      <path id="Path_1230" data-name="Path 1230" d="M394.023,392.02H382.76l2.139,13.447h11.263Z" transform="translate(-239.782 48.449)" fill="#cf6f64"/>
      <path id="Path_1231" data-name="Path 1231" d="M338.12,221.342c.224,2.707.479,5.474.808,8.316L383.71,215.12a32.068,32.068,0,0,0,17.231-12.46c.18-3.994.4-8.2.748-12.579.15-2.124.329-4.308.523-6.521s.464-4.667.748-7.03Z" transform="translate(-261.912 -58.379)" opacity="0.2"/>
      <path id="Path_1232" data-name="Path 1232" d="M348.4,178.133l-1.5-.179c.882-7.479,6.462-13.372,12.34-13.222v1.5C354.095,166.122,349.189,171.432,348.4,178.133Z" transform="translate(-257.559 -64.229)" fill="#fff"/>
      <path id="Path_1233" data-name="Path 1233" d="M353.314,187.347h-.254v-1.5c5.145.194,9.977-5.175,10.769-11.861l1.5.179C364.532,181.484,359.133,187.347,353.314,187.347Z" transform="translate(-254.506 -59.638)" fill="#fff"/>
      <path id="Path_1234" data-name="Path 1234" d="M380.789,131.5c-2.109,8.242-4.592,23.334.838,28.823,0,0-3.8,8.361-19.1,8.361-13.985,0-6.492-8.361-6.492-8.361,9.3-2.184,9.468-8.974,8.242-15.406Z" transform="translate(-254.025 -80.702)" fill="#e58a7b"/>
      <path id="Path_1235" data-name="Path 1235" d="M370.657,135.16,360.89,143.1a26.327,26.327,0,0,1,.524,4.487c2.857,2.842,8.586-4.353,9.169-8.032A11.967,11.967,0,0,0,370.657,135.16Z" transform="translate(-250.624 -78.887)" fill="#cf6f64"/>
      <path id="Path_1236" data-name="Path 1236" d="M349.9,133.93a9.887,9.887,0,0,0,6.357,4.7c3.59.793,5.385-2.513,4.4-5.833-.883-2.991-3.829-7.015-7.479-6.327a5,5,0,0,0-3.276,7.464Z" transform="translate(-256.427 -83.236)" fill="#cf6f64"/>
      <path id="Path_1237" data-name="Path 1237" d="M355.3,113.949c-5.594,2.558-7.568,24.784-.538,28.075S365.893,109.088,355.3,113.949Z" transform="translate(-255.897 -89.626)" fill="#263238"/>
      <path id="Path_1238" data-name="Path 1238" d="M383.826,128.658c-1.346,11.158-1.5,17.725-7.479,23.438a14.389,14.389,0,0,1-24.47-7.628c-1.81-10.021.688-26.579,11.876-31.022a14.4,14.4,0,0,1,20.073,15.212Z" transform="translate(-255.357 -90.259)" fill="#e58a7b"/>
      <path id="Path_1239" data-name="Path 1239" d="M368.279,127.635c8.286-2.109,14.374-3.545,12.19,3.35-2.887,9.214-6.357,18.128-1.705,18.532,2.842.254,15.406-5.071,13.806-10.47-1.391-4.7,4.487-5.983,5.534-8.361,3.874-8.615-7.21-7.479-5.235-12.714s-8.974-13.671-14.957-9.468c-9.737,6.791-26.445,6.686-17.665-4.487,6.3-7.972-4.936-6.342-4.936-6.342s6.791,4.024-4.637,10.246C338.588,114.562,349.672,132.407,368.279,127.635Z" transform="translate(-258.192 -97.538)" fill="#263238"/>
      <path id="Path_1240" data-name="Path 1240" d="M379.694,133.93a11.592,11.592,0,0,1-6.9,4.7c-3.694.793-5.115-2.513-3.724-5.833,1.241-2.991,4.652-7.015,8.182-6.327S381.593,131,379.694,133.93Z" transform="translate(-246.827 -83.236)" fill="#e58a7b"/>
      <path id="Path_1241" data-name="Path 1241" d="M343.018,217.94s-10.111,90.492-10.9,124.835c-.808,35.718,34.267,147.166,34.267,147.166l17.949-7.479s-20.94-101.83-17.949-136.905C369.553,307.311,382.656,218,382.656,218Z" transform="translate(-264.896 -37.85)" fill="#09bb8b"/>
      <path id="Path_1242" data-name="Path 1242" d="M357.574,235.751c-8.062,16.722-2.633,49.793,1.735,69.387,1.66-13.836,3.635-28.853,5.5-42.748C364.634,241.031,362.974,224.533,357.574,235.751Z" transform="translate(-254.323 -30.817)" opacity="0.2"/>
      <path id="Path_1243" data-name="Path 1243" d="M373.728,390.83c.09,0,2.124,5.714,2.124,5.714l-20.7,8.705-3.261-6.073Z" transform="translate(-255.086 47.859)" fill="#09bb8b"/>
      <path id="Path_1244" data-name="Path 1244" d="M353.69,217.94s7.733,86.065,12.848,118.3c5.624,35.315,27.671,152.925,27.671,152.925h20.626S402.481,374.41,400.148,339.439c-2.543-37.932-7.6-121.5-7.6-121.5Z" transform="translate(-254.193 -37.85)" fill="#09bb8b"/>
      <path id="Path_1245" data-name="Path 1245" d="M402.6,395.963c.09,0,.688,5.759.688,5.759H380.615L379,395.11Z" transform="translate(-241.646 49.98)" fill="#09bb8b"/>
      <path id="Path_1246" data-name="Path 1246" d="M396.277,472.947a.2.2,0,0,1-.194-.165c-.12-1.047-11.263-104.7-13.357-136.112-2.274-34.073-6.85-109.653-6.9-110.416a.18.18,0,0,1,.18-.194h0a.194.194,0,0,1,.194.179c0,.763,4.622,76.283,6.9,110.416,2.094,31.411,13.237,134.991,13.342,136.112a.179.179,0,0,1-.164.209Z" transform="translate(-243.218 -33.825)" opacity="0.2"/>
      <path id="Path_1247" data-name="Path 1247" d="M362.331,125.835c0,.912-.568,1.645-1.167,1.645s-1.032-.733-.972-1.645.568-1.645,1.167-1.645S362.391,124.938,362.331,125.835Z" transform="translate(-250.973 -84.326)" fill="#263238"/>
      <path id="Path_1248" data-name="Path 1248" d="M355.475,125.835c0,.912-.583,1.645-1.167,1.645s-1.032-.733-.987-1.645.583-1.645,1.182-1.645S355.535,124.938,355.475,125.835Z" transform="translate(-254.378 -84.326)" fill="#263238"/>
      <path id="Path_1249" data-name="Path 1249" d="M358.506,125.6a34.85,34.85,0,0,1-4.786,7.763c1.5,1.5,4.293.808,4.293.808Z" transform="translate(-254.178 -83.627)" fill="#df5753"/>
      <path id="Path_1250" data-name="Path 1250" d="M357.184,135.014a.254.254,0,0,1-.254-.269.284.284,0,0,1,.284-.269,7.658,7.658,0,0,0,5.983-2.812.284.284,0,0,1,.374,0,.269.269,0,0,1,0,.374A8.167,8.167,0,0,1,357.184,135.014Z" transform="translate(-252.587 -80.656)" fill="#263238"/>
      <path id="Path_1251" data-name="Path 1251" d="M364.5,124.03a.509.509,0,0,1-.464,0,4.248,4.248,0,0,0-3.814-.4.509.509,0,0,1-.688-.239.554.554,0,0,1,.284-.718,5.25,5.25,0,0,1,4.831.449.524.524,0,0,1,.135.733.6.6,0,0,1-.284.179Z" transform="translate(-251.317 -85.273)" fill="#263238"/>
      <path id="Path_1252" data-name="Path 1252" d="M352.231,122.358a.433.433,0,0,1-.209-.12.524.524,0,0,1,0-.748,5.594,5.594,0,0,1,4.607-1.855.509.509,0,0,1,.419.613.583.583,0,0,1-.628.449h0a4.487,4.487,0,0,0-3.635,1.5.554.554,0,0,1-.553.165Z" transform="translate(-255.098 -86.592)" fill="#263238"/>
      <path id="Path_1253" data-name="Path 1253" d="M412.992,163.693l-15.556-4.143s-15.257,37.558-20.656,40c-7.329,3.35-25.891,14.957-33.789,20.447-.434,1.87-.09,6.821.9,8.182,13.462-2.453,39.233-12.37,44.618-17.41C400.787,199.262,412.992,163.693,412.992,163.693Z" transform="translate(-259.589 -66.796)" fill="#e58a7b"/>
      <path id="Path_1254" data-name="Path 1254" d="M383.342,410.846a3.275,3.275,0,0,1-2.139-.583,1.5,1.5,0,0,1-.464-1.406.882.882,0,0,1,.509-.748c1.256-.643,4.771,1.585,5.175,1.84a.239.239,0,0,1,.1.269.314.314,0,0,1-.209.224,14.17,14.17,0,0,1-2.976.4Zm-1.5-2.333a.792.792,0,0,0-.344,0,.329.329,0,0,0-.18.314,1.017,1.017,0,0,0,.3.972c.583.524,2.049.583,3.979.21a9.917,9.917,0,0,0-3.8-1.5Z" transform="translate(-240.798 56.367)" fill="#09bb8b"/>
      <path id="Path_1255" data-name="Path 1255" d="M385.427,411.31a.194.194,0,0,1-.12,0c-1.122-.628-3.231-3.1-2.917-4.353a.912.912,0,0,1,.882-.7,1.406,1.406,0,0,1,1.122.344c1.241,1.062,1.316,4.323,1.316,4.487a.224.224,0,0,1-.135.239.255.255,0,0,1-.15-.015Zm-2-4.562h-.1c-.344,0-.389.194-.4.269-.179.733,1.152,2.6,2.259,3.485a6.192,6.192,0,0,0-1.122-3.53.912.912,0,0,0-.628-.224Z" transform="translate(-239.981 55.499)" fill="#09bb8b"/>
      <path id="Path_1256" data-name="Path 1256" d="M357.1,409.446a4.292,4.292,0,0,1-2.827,0,1.406,1.406,0,0,1-.733-1.137.883.883,0,0,1,.314-.793c1.2-1.077,6.088,0,6.641.209a.239.239,0,0,1,.179.239.284.284,0,0,1-.164.269,21.9,21.9,0,0,1-3.41,1.211Zm-2.438-1.78a1.031,1.031,0,0,0-.464.224.314.314,0,0,0-.12.314.943.943,0,0,0,.479.763c.793.419,2.632.09,5.011-.912a14.718,14.718,0,0,0-4.906-.389Z" transform="translate(-254.27 55.897)" fill="#09bb8b"/>
      <path id="Path_1257" data-name="Path 1257" d="M359.727,409.28h-.12c-1.5-.269-4.487-1.989-4.577-3.276,0-.3.135-.718.853-.957a1.914,1.914,0,0,1,1.5.09c1.615.793,2.468,3.665,2.513,3.8a.4.4,0,0,1-.165.344Zm-3.545-3.784h-.15c-.464.165-.464.359-.464.419,0,.778,2.169,2.2,3.68,2.677a5.654,5.654,0,0,0-2.094-2.991,1.376,1.376,0,0,0-.972-.1Z" transform="translate(-253.529 54.851)" fill="#09bb8b"/>
      <path id="Path_1258" data-name="Path 1258" d="M349.55,199.37l-15.6,7.18-1.81,4.487,5.759,3.874s10.769-1.167,13.836-8.092Z" transform="translate(-264.877 -47.056)" fill="#e58a7b"/>
      <path id="Path_1259" data-name="Path 1259" d="M345.182,209.021a21.029,21.029,0,0,0-2.9-8.466l2.468-1.855a24.066,24.066,0,0,1,3.47,9.8Z" transform="translate(-259.85 -47.388)" fill="#263238"/>
      <path id="Path_1260" data-name="Path 1260" d="M347.828,201.275a2.991,2.991,0,1,1-3.65-1.167,2.722,2.722,0,0,1,3.65,1.167Z" transform="translate(-259.834 -46.837)" fill="#263238"/>
      <path id="Path_1261" data-name="Path 1261" d="M326.3,209.973l2.079,2.094,14-5.983-5.534-1.915Z" transform="translate(-267.772 -44.676)" fill="#e58a7b"/>
      <path id="Path_1262" data-name="Path 1262" d="M373.728,390.83c.09,0,2.124,5.714,2.124,5.714l-20.7,8.705-3.261-6.073Z" transform="translate(-255.086 47.859)" opacity="0.2"/>
      <path id="Path_1263" data-name="Path 1263" d="M402.6,395.963c.09,0,.688,5.759.688,5.759H380.615L379,395.11Z" transform="translate(-241.646 49.98)" opacity="0.2"/>
      <path id="Path_1264" data-name="Path 1264" d="M403.768,162.967c4.113,13.267-11.966,31.411-11.966,31.411l-22.212-9.064a230.469,230.469,0,0,1,9.094-22.541C385.5,148.069,399.61,149.58,403.768,162.967Z" transform="translate(-246.311 -70.378)" fill="#09bb8b"/>
      <path id="Path_1265" data-name="Path 1265" d="M403.768,162.967c4.113,13.267-11.966,31.411-11.966,31.411l-22.212-9.064a230.469,230.469,0,0,1,9.094-22.541C385.5,148.069,399.61,149.58,403.768,162.967Z" transform="translate(-246.311 -70.378)" opacity="0.2"/>
    </g>
    <g id="freepik--Screen--inject-2" transform="translate(283.563 78.289)">
      <rect id="Rectangle_149" data-name="Rectangle 149" width="9.558" height="1.541" transform="translate(73.157)" fill="#09bb8b"/>
      <rect id="Rectangle_150" data-name="Rectangle 150" width="25.697" height="1.541" transform="translate(205.281 86.644) rotate(-87.42)" fill="#09bb8b"/>
      <path id="Path_1266" data-name="Path 1266" d="M389.551,75.19h-176.5L196.63,442.724h176.5Z" transform="translate(-186.085 -68.28)" fill="#09bb8b"/>
      <path id="Path_1267" data-name="Path 1267" d="M386.031,78.57h-176.5L193.11,446.1h176.5Z" transform="translate(-187.83 -66.604)" fill="#fafafa" opacity="0.56"/>
      <path id="Path_1268" data-name="Path 1268" d="M382.516,81.94h-176.5L189.58,449.474h176.5Z" transform="translate(-189.58 -64.933)" fill="#09bb8b" opacity="0.07"/>
      <path id="Path_1269" data-name="Path 1269" d="M355.487,189.11H204.836l-1.256,28.12H354.231Z" transform="translate(-182.64 -11.805)" fill="#fff"/>
      <path id="Path_1270" data-name="Path 1270" d="M287.15,175.39H205.213l-.553,12.579H286.6Z" transform="translate(-182.104 -18.606)" fill="#09bb8b"/>
      <path id="Path_1271" data-name="Path 1271" d="M353.217,239.85H202.566l-1.256,28.12H351.961Z" transform="translate(-183.765 13.349)" fill="#fff"/>
      <path id="Path_1272" data-name="Path 1272" d="M318.477,284.04H217.171l-1.511,33.7H316.967Z" transform="translate(-176.651 35.256)" fill="#09bb8b" opacity="0.47"/>
      <path id="Path_1273" data-name="Path 1273" d="M313.495,321.348H212.188a.27.27,0,0,1-.135,0,.21.21,0,0,1,0-.135l1.5-33.714a.165.165,0,0,1,.179-.165H315.035a.134.134,0,0,1,.12,0,.12.12,0,0,1,0,.12l-1.466,33.789A.2.2,0,0,1,313.495,321.348Zm-101.127-.359H313.315l1.5-33.355H213.864Z" transform="translate(-178.444 36.882)" fill="#fff"/>
      <path id="Path_1274" data-name="Path 1274" d="M270.581,226.13H202.943l-.553,12.594h67.622Z" transform="translate(-183.23 6.547)" fill="#09bb8b"/>
      <path id="Path_1275" data-name="Path 1275" d="M308.524,141.081a39.682,39.682,0,0,1-8.331,22.511,40.206,40.206,0,0,1-31.71,15.81A36.361,36.361,0,0,1,231.9,141.081a40.385,40.385,0,0,1,40.011-38.321,36.332,36.332,0,0,1,36.616,38.321Z" transform="translate(-168.628 -54.613)" fill="#fff"/>
      <path id="Path_1276" data-name="Path 1276" d="M292.276,111.491a10.47,10.47,0,0,1-2.214,5.983,10.724,10.724,0,0,1-8.436,4.2,9.692,9.692,0,0,1-8.047-4.2,9.887,9.887,0,0,1-1.675-5.983,10.739,10.739,0,0,1,10.635-10.171,9.663,9.663,0,0,1,9.737,10.171Z" transform="translate(-148.774 -55.326)" fill="#09bb8b"/>
      <path id="Path_1277" data-name="Path 1277" d="M218.261,200a4.771,4.771,0,0,1-4.712,4.487A4.263,4.263,0,0,1,209.242,200a4.742,4.742,0,0,1,4.712-4.487A4.278,4.278,0,0,1,218.261,200Z" transform="translate(-179.836 -8.632)" fill="#263238"/>
      <path id="Path_1278" data-name="Path 1278" d="M231.736,200a4.757,4.757,0,0,1-4.712,4.487A4.263,4.263,0,0,1,222.732,200a4.742,4.742,0,0,1,4.7-4.487A4.263,4.263,0,0,1,231.736,200Z" transform="translate(-173.148 -8.632)" fill="#263238"/>
      <path id="Path_1279" data-name="Path 1279" d="M245.231,200a4.757,4.757,0,0,1-4.712,4.487A4.278,4.278,0,0,1,236.212,200a4.757,4.757,0,0,1,4.712-4.487A4.263,4.263,0,0,1,245.231,200Z" transform="translate(-166.465 -8.632)" fill="#263238"/>
      <path id="Path_1280" data-name="Path 1280" d="M215.991,250.737a4.771,4.771,0,0,1-4.712,4.487,4.278,4.278,0,0,1-4.308-4.487,4.756,4.756,0,0,1,4.712-4.487,4.278,4.278,0,0,1,4.308,4.487Z" transform="translate(-180.961 16.522)" fill="#263238"/>
      <path id="Path_1281" data-name="Path 1281" d="M229.466,250.737a4.756,4.756,0,0,1-4.7,4.487,4.263,4.263,0,0,1-4.308-4.487,4.757,4.757,0,0,1,4.712-4.487,4.263,4.263,0,0,1,4.293,4.487Z" transform="translate(-174.273 16.522)" fill="#263238"/>
      <path id="Path_1282" data-name="Path 1282" d="M242.991,250.737a4.757,4.757,0,0,1-4.712,4.487,4.293,4.293,0,0,1-4.308-4.487,4.771,4.771,0,0,1,4.712-4.487,4.263,4.263,0,0,1,4.308,4.487Z" transform="translate(-167.576 16.522)" fill="#263238"/>
      <path id="Path_1283" data-name="Path 1283" d="M256.451,250.737a4.771,4.771,0,0,1-4.712,4.487,4.293,4.293,0,0,1-4.308-4.487,4.771,4.771,0,0,1,4.712-4.487,4.278,4.278,0,0,1,4.308,4.487Z" transform="translate(-160.903 16.522)" fill="#263238"/>
      <path id="Path_1284" data-name="Path 1284" d="M269.991,250.737a4.771,4.771,0,0,1-4.712,4.487,4.263,4.263,0,0,1-4.308-4.487,4.757,4.757,0,0,1,4.712-4.487,4.278,4.278,0,0,1,4.308,4.487Z" transform="translate(-154.191 16.522)" fill="#263238"/>
      <ellipse id="Ellipse_1356" data-name="Ellipse 1356" cx="15.855" cy="15.152" rx="15.855" ry="15.152" transform="translate(80.215 73.894) rotate(-44.36)" fill="#09bb8b"/>
      <path id="Path_1285" data-name="Path 1285" d="M298.084,147.4a40.206,40.206,0,0,1-31.71,15.81A36.3,36.3,0,0,1,236.1,147.4c7.269-7.239,18.771-11.966,31.515-11.966S291.457,140.157,298.084,147.4Z" transform="translate(-166.518 -38.416)" fill="#09bb8b"/>
      <ellipse id="Ellipse_1357" data-name="Ellipse 1357" cx="15.855" cy="15.152" rx="15.855" ry="15.152" transform="translate(80.215 73.894) rotate(-44.36)" fill="#fff" opacity="0.1"/>
      <path id="Path_1286" data-name="Path 1286" d="M298.084,147.4a40.206,40.206,0,0,1-31.71,15.81A36.3,36.3,0,0,1,236.1,147.4c7.269-7.239,18.771-11.966,31.515-11.966S291.457,140.157,298.084,147.4Z" transform="translate(-166.518 -38.416)" fill="#fff" opacity="0.1"/>
    </g>
    <g id="freepik--character-1--inject-2" transform="translate(162.677 208.823)">
      <path id="Path_1287" data-name="Path 1287" d="M138.481,214.22c-1.421,3.111-2.917,6.536-4.218,9.857s-2.633,6.746-3.784,10.156a128.992,128.992,0,0,0-5.355,20.641l-.329,2.2a3.216,3.216,0,0,0,.1,1.122,11.667,11.667,0,0,0,1.645,3.47,43.8,43.8,0,0,0,6.641,7.479,100.734,100.734,0,0,0,8.257,6.9c2.872,2.214,5.893,4.368,8.87,6.4l-2.8,5.25A106,106,0,0,1,127.4,276.158a48.446,48.446,0,0,1-8.974-8.5,21.315,21.315,0,0,1-3.575-6.387,14.508,14.508,0,0,1-.718-4.487v-1.87l.15-1.5a117,117,0,0,1,4.891-22.945c1.167-3.68,2.408-7.344,3.829-10.919s2.887-7.075,4.7-10.71Z" transform="translate(-106.098 -132.554)" fill="#e58a7b"/>
      <path id="Path_1288" data-name="Path 1288" d="M137.832,259.2l10.575-5.355-2.737,11.607s-7.254,2.034-10.62-1.5Z" transform="translate(-95.727 -110.245)" fill="#e58a7b"/>
      <path id="Path_1289" data-name="Path 1289" d="M154.565,255.75l-2.812,9.6-9.6.1,2.737-11.607Z" transform="translate(-92.207 -110.245)" fill="#e58a7b"/>
      <path id="Path_1290" data-name="Path 1290" d="M160.44,175a29.914,29.914,0,0,0,2.348,5.983,2.438,2.438,0,0,1-2.378.763Z" transform="translate(-83.155 -149.335)" fill="#df5753"/>
      <ellipse id="Ellipse_1358" data-name="Ellipse 1358" cx="1.122" cy="1.72" rx="1.122" ry="1.72" transform="translate(75.849 22.315)" fill="#263238"/>
      <path id="Path_1291" data-name="Path 1291" d="M160,173.013l2.274-.643S161.167,174.135,160,173.013Z" transform="translate(-83.358 -150.638)" fill="#263238"/>
      <path id="Path_1292" data-name="Path 1292" d="M141.614,182.34c1.361,6.955,2.722,19.714-2.154,24.366,0,0,1.915,7.06,14.853,7.06,14.224,0,6.791-7.06,6.791-7.06-7.763-1.855-7.568-7.613-6.207-13.028Z" transform="translate(-93.541 -145.696)" fill="#e58a7b"/>
      <path id="Path_1293" data-name="Path 1293" d="M138.382,177.367c.718,11.622.778,16.558,6.641,22.526,8.84,8.974,22.96,5.564,25.727-5.983,2.5-10.47.912-27.7-10.47-32.323a15.885,15.885,0,0,0-21.9,15.78Z" transform="translate(-94.094 -156.578)" fill="#e58a7b"/>
      <path id="Path_1294" data-name="Path 1294" d="M143.215,163.181c-5.833,2.124-13.611.538-10.56,18.532,3.231,19.056-1.735,25.323-1.735,25.323s22.122,4.712,44.708-.284c0,0-6.9-12.056-4.966-20.94,2.468-11.218.524-15.361.524-15.361S151.412,160.19,143.215,163.181Z" transform="translate(-97.774 -155.465)" fill="#263238"/>
      <path id="Path_1295" data-name="Path 1295" d="M155.64,176.874a11.682,11.682,0,0,0,1.825,6.237c1.586,2.423,3.455,1.5,3.919-1.077.419-2.259.1-6.252-1.915-7.808S155.67,174.2,155.64,176.874Z" transform="translate(-85.52 -150.027)" fill="#e58a7b"/>
      <path id="Path_1296" data-name="Path 1296" d="M135.822,167.517c-1.675-4.712,6.312-11.966,23.214-8.974s17.635,17.066,17.635,17.066l-3.41-4.068.15,4.278-17.366,3.336Z" transform="translate(-95.452 -157.841)" fill="#263238"/>
      <path id="Path_1297" data-name="Path 1297" d="M136.719,200.819h0a2.647,2.647,0,0,1,2.169-2.991c5.265-.868,17.231-2.633,23.244-1.795,4.487.628,5.654,3.231,5.848,5.37a2.633,2.633,0,0,1-2.767,2.842l-26-1.167a2.662,2.662,0,0,1-2.5-2.259Z" transform="translate(-94.913 -139.017)" fill="#09bb8b"/>
      <path id="Path_1298" data-name="Path 1298" d="M136.719,200.819h0a2.647,2.647,0,0,1,2.169-2.991c5.265-.868,17.231-2.633,23.244-1.795,4.487.628,5.654,3.231,5.848,5.37a2.633,2.633,0,0,1-2.767,2.842l-26-1.167a2.662,2.662,0,0,1-2.5-2.259Z" transform="translate(-94.913 -139.017)" opacity="0.6"/>
      <path id="Path_1299" data-name="Path 1299" d="M146.76,381.108l9.648,6.7,16.139-21.883L162.9,359.24Z" transform="translate(-89.922 -57.999)" fill="#e58a7b"/>
      <path id="Path_1300" data-name="Path 1300" d="M131.72,381.239l10.186,5.8L156.19,363.9,146,358.1Z" transform="translate(-97.378 -58.564)" fill="#e58a7b"/>
      <path id="Path_1301" data-name="Path 1301" d="M169.944,365.926,161.628,377.2l-9.648-6.686L160.3,359.24Z" transform="translate(-87.334 -57.999)" fill="#cf6f64"/>
      <path id="Path_1302" data-name="Path 1302" d="M143.7,358.1l10.2,5.818-7.359,11.921-10.2-5.818Z" transform="translate(-95.087 -58.564)" fill="#cf6f64"/>
      <path id="Path_1303" data-name="Path 1303" d="M164.679,248s37.663,47.46,30.588,92.856c-5.7,36.661-38.755,86.3-38.755,86.3l-15.541-7.718a507.448,507.448,0,0,0,27.97-67.966,50.242,50.242,0,0,0-5.983-43.526C143.873,280.084,113.3,296.671,133.867,248Z" transform="translate(-99.704 -113.145)" fill="#09bb8b"/>
      <path id="Path_1304" data-name="Path 1304" d="M164.679,248s37.663,47.46,30.588,92.856c-5.7,36.661-38.755,86.3-38.755,86.3l-15.541-7.718a507.448,507.448,0,0,0,27.97-67.966,50.242,50.242,0,0,0-5.983-43.526C143.873,280.084,113.3,296.671,133.867,248Z" transform="translate(-99.704 -113.145)" opacity="0.6"/>
      <path id="Path_1305" data-name="Path 1305" d="M166.364,270.185l-5.474-5.445c0,.434,10.6,65.9,13.581,84.3a111.478,111.478,0,0,0,4.024-16.453C181.995,310.315,174.681,287.565,166.364,270.185Z" transform="translate(-82.917 -104.847)" opacity="0.4"/>
      <path id="Path_1306" data-name="Path 1306" d="M178.035,248s45.351,59.65,46.637,95.413c1.062,29.915-49.359,87.875-49.359,87.875l-14.658-9.483s29.511-41.163,36.945-74.787C194.727,313.693,134,248,134,248Z" transform="translate(-96.247 -113.145)" fill="#09bb8b"/>
      <path id="Path_1307" data-name="Path 1307" d="M178.035,248s45.351,59.65,46.637,95.413c1.062,29.915-49.359,87.875-49.359,87.875l-14.658-9.483s29.511-41.163,36.945-74.787C194.727,313.693,134,248,134,248Z" transform="translate(-96.247 -113.145)" opacity="0.6"/>
      <path id="Path_1308" data-name="Path 1308" d="M129.078,200.478c-4.846,1.152-9.5,18.772-9.5,18.772L138.531,231.9s6.312-13.94,4.1-20.043C140.341,205.5,135.166,199.027,129.078,200.478Z" transform="translate(-103.396 -136.806)" fill="#09bb8b"/>
      <path id="Path_1309" data-name="Path 1309" d="M128.846,208l-1.316,15.361,7.045,4.727a63.12,63.12,0,0,0,4.293-13.671Z" transform="translate(-99.455 -132.975)" opacity="0.2"/>
      <path id="Path_1310" data-name="Path 1310" d="M187.644,201.765s5.594,1.959-5.609,70.823H134.381c.808-19.445.823-31.411-8.451-71.167a141.021,141.021,0,0,1,20.237-2.662,151.312,151.312,0,0,1,21.643,0C177.114,199.611,187.644,201.765,187.644,201.765Z" transform="translate(-100.248 -137.749)" fill="#09bb8b"/>
      <path id="Path_1311" data-name="Path 1311" d="M174.188,209.6c1.077,2.992,2.214,6.207,3.41,9.3s2.333,6.282,3.545,9.423l3.665,9.393.927,2.348.479,1.167.224.583v.09a3.081,3.081,0,0,0-1.047-.927,4.263,4.263,0,0,0-1.944-.583,3.9,3.9,0,0,0-1.66.314c-.688.314-.688.449-.673.434a1.81,1.81,0,0,0,.329-.344,20.386,20.386,0,0,0,2.139-3.485c.7-1.376,1.376-2.842,2.049-4.323,1.316-2.991,2.528-6.088,3.739-9.214s2.363-6.282,3.485-9.468l3.41-9.543,5.759,1.5c-1.137,6.821-2.6,13.462-4.368,20.222-.853,3.365-1.855,6.7-2.991,10.066-.568,1.69-1.2,3.365-1.915,5.086A32.23,32.23,0,0,1,190,246.995a13.942,13.942,0,0,1-1.316,1.615,8.107,8.107,0,0,1-2.722,1.93,6.7,6.7,0,0,1-2.9.538,6.582,6.582,0,0,1-3.156-.942,8.047,8.047,0,0,1-2.722-2.827c-.224-.389-.419-.778-.553-1.062l-.284-.568-.568-1.167-1.137-2.318c-1.5-3.111-2.991-6.252-4.293-9.408s-2.677-6.357-3.964-9.573-2.438-6.432-3.53-9.9Z" transform="translate(-81.945 -134.576)" fill="#e58a7b"/>
      <path id="Path_1312" data-name="Path 1312" d="M171.815,200.789c5.729,1.361,12.175,18.293,12.175,18.293l-17.036,14.494s-11.024-18.457-8.795-24.545C160.477,202.688,164.336,199.009,171.815,200.789Z" transform="translate(-84.419 -136.772)" fill="#09bb8b"/>
      <path id="Path_1313" data-name="Path 1313" d="M187.92,202.846l5.983-5,4.158,6.477-3.066,5.4s-4.876,4.487-9.184,2.2h0a7.733,7.733,0,0,1,2.109-9.079Z" transform="translate(-70.894 -138.007)" fill="#e58a7b"/>
      <path id="Path_1314" data-name="Path 1314" d="M201.814,197.865l-.449,1.63-9.468,1.586-.927-3.231Z" transform="translate(-68.005 -138.007)" fill="#e58a7b"/>
      <path id="Path_1315" data-name="Path 1315" d="M168.061,376.473,150.98,365.435l3.066-5.325,19.19,11.8Z" transform="translate(-87.83 -57.568)" fill="#09bb8b"/>
      <path id="Path_1316" data-name="Path 1316" d="M144.458,377.857a10.29,10.29,0,0,1-4.218-1.5.269.269,0,0,1,0-.508c.464-.15,4.487-1.391,5.654-.434a.957.957,0,0,1,.329.912,1.586,1.586,0,0,1-.853,1.286,1.96,1.96,0,0,1-.912.239Zm-3.365-1.645c1.87.957,3.365,1.3,4.083.942a1.047,1.047,0,0,0,.538-.867c0-.239,0-.344-.135-.4-.628-.509-2.872-.12-4.517.329Z" transform="translate(-93.244 -50.157)" fill="#263238"/>
      <path id="Path_1317" data-name="Path 1317" d="M140.331,377.527a.3.3,0,0,1-.209-.09.284.284,0,0,1,0-.269c0-.135.972-3.38,2.5-4.113a1.5,1.5,0,0,1,1.241,0,.987.987,0,0,1,.688,1c-.1,1.346-2.842,3.2-4.1,3.515Zm2.9-4.083a1.017,1.017,0,0,0-.419.1c-.927.449-1.69,2.2-2.064,3.261,1.316-.553,3.126-2.019,3.186-2.842,0-.135,0-.3-.344-.449a1.106,1.106,0,0,0-.359-.12Z" transform="translate(-93.23 -51.218)" fill="#263238"/>
      <path id="Path_1318" data-name="Path 1318" d="M159.052,382.564c-1.69,0-4.039-2.169-5.325-3.5a.269.269,0,0,1,0-.314.314.314,0,0,1,.284-.15c.6,0,5.789.778,6.521,2.244a.853.853,0,0,1,0,.868,1.5,1.5,0,0,1-1.182.838Zm-4.338-3.291c1.885,1.825,3.545,2.842,4.487,2.722a1.017,1.017,0,0,0,.778-.553.314.314,0,0,0,0-.344c-.389-.808-3.156-1.5-5.265-1.825Z" transform="translate(-86.493 -48.402)" fill="#263238"/>
      <path id="Path_1319" data-name="Path 1319" d="M154.893,380.073a4.893,4.893,0,0,1-1-.075.269.269,0,0,1-.209-.164.314.314,0,0,1,0-.284c.09-.1,2.109-2.543,4.024-2.707a2.079,2.079,0,0,1,1.5.479c.583.509.553.957.4,1.241C159.23,379.579,156.643,380.073,154.893,380.073Zm-.389-.553c1.675.09,4.353-.464,4.7-1.2,0,0,.12-.239-.269-.568a1.5,1.5,0,0,0-1.137-.359,6.552,6.552,0,0,0-3.291,2.139Z" transform="translate(-86.508 -49.276)" fill="#263238"/>
      <path id="Path_1320" data-name="Path 1320" d="M146.56,376.123l-12.684-3.59a.927.927,0,0,0-1.122.523l-4.278,9.618a1.885,1.885,0,0,0,1.241,2.528c4.487,1.167,6.641,1.5,12.22,3.1,3.44.957,8.346,2.737,13.088,4.083s6.327-3.276,4.487-4.263c-8.316-4.4-8.974-7.479-11.248-10.769A3.081,3.081,0,0,0,146.56,376.123Z" transform="translate(-99.055 -51.429)" fill="#09bb8b"/>
      <path id="Path_1321" data-name="Path 1321" d="M160.469,380.278,149.64,372.8a.928.928,0,0,0-1.227.12l-7.18,7.718a1.87,1.87,0,0,0,.359,2.782c3.814,2.558,5.788,3.59,10.56,6.9,2.991,2.034,8.78,6.551,12.818,9.363s7.045-1.047,5.609-2.573c-6.432-6.865-7.838-11.173-8.9-15.077a3.1,3.1,0,0,0-1.212-1.75Z" transform="translate(-92.891 -51.366)" fill="#09bb8b"/>
      <path id="Path_1322" data-name="Path 1322" d="M154.539,373.412,135.02,363.7l2.019-5.295,20.851,10.231Z" transform="translate(-95.742 -58.411)" fill="#09bb8b"/>
      <path id="Path_1323" data-name="Path 1323" d="M131.658,246.225l-1.645,4.308c-.165.329.224.673.778.673H180.27c.434,0,.793-.209.823-.479l.419-4.278c0-.284-.344-.538-.808-.538H132.436a.912.912,0,0,0-.778.314Z" transform="translate(-98.243 -114.183)" fill="#09bb8b"/>
      <path id="Path_1324" data-name="Path 1324" d="M131.658,246.225l-1.645,4.308c-.165.329.224.673.778.673H180.27c.434,0,.793-.209.823-.479l.419-4.278c0-.284-.344-.538-.808-.538H132.436a.912.912,0,0,0-.778.314Z" transform="translate(-98.243 -114.183)" fill="#fff" opacity="0.4"/>
      <path id="Path_1325" data-name="Path 1325" d="M136.885,251.763h-1.3c-.254,0-.449-.135-.434-.3l.613-5.549c0-.15.239-.284.494-.284h1.3c.254,0,.449.135.434.284l-.613,5.549C137.364,251.628,137.14,251.763,136.885,251.763Z" transform="translate(-95.678 -114.32)" fill="#09bb8b"/>
      <path id="Path_1326" data-name="Path 1326" d="M157.28,251.763h-1.286c-.254,0-.449-.135-.434-.3l.6-5.549c0-.15.254-.284.509-.284h1.286c.254,0,.464.135.434.284l-.6,5.549A.523.523,0,0,1,157.28,251.763Z" transform="translate(-85.56 -114.32)" fill="#09bb8b"/>
      <ellipse id="Ellipse_1359" data-name="Ellipse 1359" cx="40.071" cy="2.902" rx="40.071" ry="2.902" transform="translate(0 384.943)" fill="#f5f5f5"/>
      <path id="Path_1327" data-name="Path 1327" d="M168.539,478.911c-7.09-2.064-14.957-4.712-19.714-7.479-.135-.09-.284-.135-.419-.209v-32.1h14.344a4.278,4.278,0,0,0,0-8.541H148.481V284.27h-8.615V430.583H125.611a4.278,4.278,0,1,0,0,8.541h14.254v32.054c-.135,0-.269.12-.4.209-4.831,2.812-12.639,5.459-19.729,7.479a2.094,2.094,0,0,0,.583,4.1h47.639a2.094,2.094,0,0,0,.583-4.053Z" transform="translate(-104.058 -95.165)" fill="#e0e0e0"/>
      <rect id="Rectangle_151" data-name="Rectangle 151" width="68.684" height="31.306" rx="5.18" transform="translate(5.744 174.208)" fill="#09bb8b"/>
      <path id="Path_1328" data-name="Path 1328" d="M117.45,295.25v2.722c0,2.244,2.438,4.068,5.43,4.068h43.376c2.992,0,5.43-1.825,5.43-4.068V295.25Z" transform="translate(-104.452 -89.722)" fill="#09bb8b"/>
      <path id="Path_1329" data-name="Path 1329" d="M117.45,295.25v2.722c0,2.244,2.438,4.068,5.43,4.068h43.376c2.992,0,5.43-1.825,5.43-4.068V295.25Z" transform="translate(-104.452 -89.722)" fill="#fff" opacity="0.3"/>
    </g>
  </g>
</svg>
