<svg xmlns="http://www.w3.org/2000/svg" width="240.204" height="240.204" viewBox="0 0 240.204 240.204">
  <g id="Group_42" data-name="Group 42" transform="translate(-3875.168 -3035.814)">
    <circle id="Ellipse_4" data-name="Ellipse 4" cx="84.925" cy="84.925" r="84.925" transform="translate(3875.168 3155.916) rotate(-45)" fill="#ecf3fe"/>
    <path id="Path_61" data-name="Path 61" d="M4162.028,3237.421v-.024a.857.857,0,0,0,0-.113c0-.043,0-.081,0-.124l-.006-.014c0-.019,0-.04,0-.06,0-.05-.006-.1-.012-.15,0-.014,0-.029,0-.043s0-.021,0-.026c-.006-.052-.01-.1-.018-.145,0-.025-.007-.057-.013-.082a.2.2,0,0,0-.013-.055.114.114,0,0,0,0-.013c0-.014,0-.03,0-.043l0-.01c0-.024-.013-.047-.018-.071a.953.953,0,0,0-.022-.1c-.012-.055-.024-.109-.041-.162-.005-.025-.013-.043-.018-.069s-.007-.029-.013-.043a2.172,2.172,0,0,1-.072-.209c-.022-.064-.048-.124-.073-.183,0-.013-.009-.026-.014-.039l-.079-.186h0l-.062-.147-.108-.256h0l-.089-.211h0l-24.445-57.854.143-.242,0,0c-.035-.056-.063-.1-.1-.15s-.083-.118-.132-.184a3.484,3.484,0,0,0-.292-.356l0-.01c-.043-.047-.084-.088-.126-.131-.016-.025-.031-.052-.049-.079l0,0c-.032-.052-.061-.094-.092-.141s-.081-.113-.128-.174a3.071,3.071,0,0,0-.282-.333l0-.01c-.067-.069-.133-.134-.2-.195a4.328,4.328,0,0,0-.781-.6c-.066-.042-.138-.083-.208-.119a4.464,4.464,0,0,0-.482-.226c-.052-.022-.109-.041-.161-.058-.077-.027-.147-.052-.222-.075-.012,0-.025-.006-.036-.007l-.294-.077a3.142,3.142,0,0,0-.4-.069,1.649,1.649,0,0,0-.232-.022,3.582,3.582,0,0,0-.433-.019c-.1,0-.2.01-.307.021a2.906,2.906,0,0,0-.327.04.316.316,0,0,0-.065.011c-.086.015-.178.032-.267.053a.291.291,0,0,0-.068.018,3.066,3.066,0,0,0-.3.089.127.127,0,0,0-.058.019c-.1.031-.2.07-.306.113l-.966.408h0l-103.5,43.729a4.552,4.552,0,0,0-2.112,1.808l-.145.263a.08.08,0,0,0-.02.03,4.557,4.557,0,0,0-.52,2.366,4.281,4.281,0,0,0,.115.812c.009.04.022.079.033.119,0,.056,0,.111,0,.167a4.785,4.785,0,0,0,.132.854l.274.067,24.786,58.662c.02.044.043.085.064.129.048.106.1.212.154.313.031.055.065.105.1.158.055.091.111.181.172.267.03.042.063.083.095.124.071.094.145.185.222.271.027.03.054.058.081.087q.133.142.278.272c.011.01.021.021.031.031.039.036.083.072.125.107l.072.059c.049.038.1.075.15.113.014.011.031.018.045.028a4.588,4.588,0,0,0,.555.339c.053.028.105.055.16.08.027.013.056.021.084.033.112.05.227.094.343.134.048.017.1.035.144.051a4.54,4.54,0,0,0,.491.125c.04.008.08.011.12.018.131.022.263.039.4.05.058,0,.116.006.174.008.131.005.262,0,.394,0,.028,0,.055,0,.083,0s.051-.005.077-.007a4.48,4.48,0,0,0,.684-.112c.051-.011.1-.024.152-.038a4.578,4.578,0,0,0,.523-.176c.016-.007.033-.01.049-.017l.236-.1v0l103.992-43.939h0l.231-.1c.074-.031.151-.069.223-.1.051-.022.1-.05.153-.076a.447.447,0,0,0,.04-.022l.021-.012a.554.554,0,0,0,.054-.031c.014-.006.025-.016.04-.022a.81.81,0,0,0,.082-.051l.01,0c.035-.021.067-.045.1-.063l.082-.051c.038-.027.08-.056.12-.089s.072-.057.109-.085c.071-.055.141-.111.208-.169.012-.011.026-.02.037-.031l.04-.033c.008-.009.02-.019.031-.03s.027-.032.043-.047a4.626,4.626,0,0,0,.439-.483v0c.021-.026.042-.056.063-.081a.472.472,0,0,0,.055-.078c.024-.032.048-.064.069-.094l.019-.033c.021-.032.041-.066.062-.1l.079-.122.011-.026c.016-.027.03-.056.046-.084s.045-.081.067-.123c.007-.014.016-.028.022-.042s.013-.021.013-.032c.018-.035.036-.07.049-.1a.414.414,0,0,0,.04-.087c.006-.013.01-.028.016-.041.021-.047.039-.095.057-.143s.033-.077.045-.117.025-.08.038-.119c.021-.065.04-.13.058-.2s.036-.126.054-.194c.009-.041.018-.081.025-.126v-.009c.013-.07.025-.144.038-.214.007-.035.007-.074.014-.109s.009-.07.014-.11.005-.078.008-.112a2.286,2.286,0,0,0,.009-.259C4162.025,3237.476,4162.028,3237.448,4162.028,3237.421Z" transform="translate(-96.774 -90.025)" fill="#3a7ec1" opacity="0.25" style="mix-blend-mode: multiply;isolation: isolate"/>
    <g id="Group_34" data-name="Group 34" transform="translate(3927.533 3077.492)">
      <g id="Group_30" data-name="Group 30" transform="translate(0 44.095)">
        <path id="Path_62" data-name="Path 62" d="M4099.288,3299.9l0,0a3.26,3.26,0,0,1-.379.727l-4.032,5.669-33.981,47.78-.236.1a4.487,4.487,0,0,1-1.3.333,1.807,1.807,0,0,1-.184.018,4.561,4.561,0,0,1-2.229-.415c-.067-.031-.131-.064-.2-.1a4.214,4.214,0,0,1-.56-.346c-.062-.044-.118-.086-.176-.133s-.117-.1-.17-.146a4.554,4.554,0,0,1-1.194-1.653l-24.982-59.126a4.395,4.395,0,0,1-.242-.742,4.27,4.27,0,0,1-.115-.812,4.557,4.557,0,0,1,.52-2.366.075.075,0,0,1,.02-.03l.145-.263a4.556,4.556,0,0,1,2.113-1.807l.966-.408,5.693.879,52.469,8.094,1.97.306,3.77.581a3.063,3.063,0,0,1,.783.23l0,0A2.945,2.945,0,0,1,4099.288,3299.9Z" transform="translate(-4028.159 -3285.043)" fill="#dbe2ef"/>
        <path id="Path_63" data-name="Path 63" d="M4056.718,3353.537a5.739,5.739,0,0,1-2.394-.532c-.083-.039-.162-.079-.249-.124a5.041,5.041,0,0,1-.7-.435c-.068-.047-.14-.1-.216-.162s-.157-.131-.225-.192a5.641,5.641,0,0,1-1.48-2.055l-24.983-59.126a5.6,5.6,0,0,1-.3-.936,5.441,5.441,0,0,1-.142-1.012,5.683,5.683,0,0,1,.652-2.947h0c.015-.028.031-.056.048-.084l.125-.227a5.712,5.712,0,0,1,2.667-2.307l.966-.408a1.125,1.125,0,0,1,.617-.076l63.9,9.859a4.188,4.188,0,0,1,1.067.311,1.083,1.083,0,0,1,.114.058,4.093,4.093,0,0,1,2.069,4.9,1.014,1.014,0,0,1-.038.119,4.382,4.382,0,0,1-.514.984l-38.017,53.454a1.137,1.137,0,0,1-.487.389l-.236.1a5.581,5.581,0,0,1-1.631.417,2.317,2.317,0,0,1-.239.022C4056.966,3353.534,4056.842,3353.537,4056.718,3353.537Zm-28.052-66.415a3.417,3.417,0,0,0-.367,1.73,3.412,3.412,0,0,0,.269,1.172l24.982,59.126a3.413,3.413,0,0,0,.9,1.24c.05.045.093.082.134.116s.072.055.115.086a3.078,3.078,0,0,0,.418.261c.067.035.114.06.165.083a3.428,3.428,0,0,0,1.672.313c.021,0,.128-.013.149-.014a3.351,3.351,0,0,0,.912-.224l37.825-53.184a2.057,2.057,0,0,0,.215-.4l.017-.053a1.816,1.816,0,0,0-.934-2.209.471.471,0,0,1-.046-.022,1.861,1.861,0,0,0-.424-.119l-63.595-9.811-.667.282a3.406,3.406,0,0,0-1.586,1.356l-.117.214A.489.489,0,0,1,4028.667,3287.123Z" transform="translate(-4026.015 -3282.899)" fill="#4d7393"/>
      </g>
      <g id="Group_31" data-name="Group 31" transform="translate(68.294)">
        <path id="Path_64" data-name="Path 64" d="M4271.017,3161.974,4296,3221.1c.029.069.061.143.087.219a.72.72,0,0,1,.034.106.784.784,0,0,1,.038.1c.006.013.007.03.013.043s.014.044.019.069c.017.053.029.107.042.162a1,1,0,0,1,.035.16l.009.023c0,.015.005.036.006.052a.256.256,0,0,1,.015.06c0,.025.007.057.012.082.009.046.012.093.018.145a.046.046,0,0,1,.005.025c.008.084.018.172.02.253l.006.014c0,.043,0,.081,0,.124a.959.959,0,0,1,0,.113l0,.033a3.137,3.137,0,0,1-.012.332c0,.033,0,.072-.008.112s-.011.076-.014.109-.006.074-.014.109c-.013.071-.024.147-.038.218-.008.047-.017.089-.026.131-.027.1-.051.2-.082.3-.018.073-.043.143-.067.213s-.052.136-.078.2a.566.566,0,0,1-.041.1.4.4,0,0,1-.04.087c-.013.033-.031.068-.049.1,0,.011-.013.021-.014.033-.041.083-.087.167-.135.247l-.011.026c-.04.06-.078.126-.122.188l-.038.065c-.02.031-.044.063-.069.095a.428.428,0,0,1-.054.078c-.022.025-.042.056-.064.081a3.85,3.85,0,0,1-.484.531c-.011.01-.023.021-.031.03l-.04.033a.862.862,0,0,1-.128.109,2.733,2.733,0,0,1-.226.177c-.04.033-.083.062-.12.089l-.082.051c-.03.018-.063.043-.1.063l-.009,0a.8.8,0,0,1-.082.051c-.014.006-.025.016-.04.022a.384.384,0,0,1-.07.04c-.014.006-.026.017-.044.025-.049.026-.1.054-.153.075-.072.036-.149.074-.223.1l-.231.1-57.946-8.938-6.875-1.06a2.959,2.959,0,0,1-.781-.237v0a2.925,2.925,0,0,1-1.531-3.624l0,0a2.777,2.777,0,0,1,.377-.72l2.2-3.1,1.159-1.628,30.77-43.264,3.338-4.695.966-.408c.1-.043.205-.081.306-.113a.127.127,0,0,1,.058-.019,3.077,3.077,0,0,1,.3-.089.332.332,0,0,1,.068-.018c.089-.021.181-.038.267-.052a.3.3,0,0,1,.066-.011,2.767,2.767,0,0,1,.326-.04c.1-.012.21-.018.307-.021a3.4,3.4,0,0,1,.433.019,1.648,1.648,0,0,1,.232.021,3.135,3.135,0,0,1,.405.069l.294.077c.011,0,.024.007.036.007.075.023.145.048.222.075.051.017.108.036.161.057a4.332,4.332,0,0,1,.482.226c.07.036.141.077.208.119a4.357,4.357,0,0,1,.78.6q.1.09.2.195l0,.009a3.07,3.07,0,0,1,.282.333c.048.062.087.116.129.175s.059.089.092.141l0,0c.03.047.059.089.085.138s.071.117.1.175.054.1.076.154C4270.954,3161.825,4270.985,3161.9,4271.017,3161.974Z" transform="translate(-4224.887 -3158.022)" fill="#dbe2ef"/>
        <path id="Path_65" data-name="Path 65" d="M4291.188,3226.208a1.162,1.162,0,0,1-.174-.013l-64.822-10a4.085,4.085,0,0,1-1.1-.333c-.024-.012-.048-.024-.072-.038a4.083,4.083,0,0,1-2.075-4.915c.007-.026.015-.052.024-.078a3.963,3.963,0,0,1,.53-1.018l3.356-4.725,34.107-47.958a1.14,1.14,0,0,1,.485-.389l.965-.408c.135-.057.272-.108.407-.151h0l.034-.011c.126-.045.257-.082.383-.114h0l.085-.022h0c.1-.025.211-.045.313-.063.029-.006.059-.012.09-.016a4.232,4.232,0,0,1,.453-.055c.083-.01.219-.018.343-.022a3.937,3.937,0,0,1,.54.02,2.616,2.616,0,0,1,.337.034,3.842,3.842,0,0,1,.481.082l.291.076a1.18,1.18,0,0,1,.121.031c.087.027.171.055.261.088.054.017.139.047.219.079a5.76,5.76,0,0,1,.6.283c.076.039.179.1.274.16a5.278,5.278,0,0,1,.955.734c.065.062.143.138.224.222.021.022.042.046.063.071a4.607,4.607,0,0,1,.316.38c.05.064.1.132.15.205.005.008.043.065.048.074l.075.115.008.014a2.323,2.323,0,0,1,.121.2c.011.013.061.1.1.179s.083.161.117.242c.015.024.054.114.091.2l.006.013,24.982,59.127c.045.109.082.2.112.284a.867.867,0,0,1,.039.113c.019.05.037.1.054.159h0l.009.031a1,1,0,0,1,.024.1,1.544,1.544,0,0,1,.048.179c.017.06.032.124.044.189a1.119,1.119,0,0,1,.026.131c0,.009,0,.018.006.026h0c.008.038.015.08.02.122a1.716,1.716,0,0,1,.025.187c0,.021,0,.041.007.062h0c.008.085.015.155.02.219a1.121,1.121,0,0,1,.011.119c0,.006,0,.074,0,.08,0,.026.006.111.006.2,0,.025,0,.084,0,.109a3,3,0,0,1-.02.4v0a.451.451,0,0,1-.005.094c0,.014-.009.067-.011.08a.876.876,0,0,1-.016.113.587.587,0,0,1-.013.11l-.042.231c0,.029-.018.095-.032.162-.039.151-.067.257-.1.357s-.057.189-.09.283a2.131,2.131,0,0,1-.076.2,1.274,1.274,0,0,1-.06.149,1.526,1.526,0,0,1-.068.151c-.014.03-.028.059-.042.089s-.017.037-.026.056c-.044.091-.095.185-.146.274a1.362,1.362,0,0,1-.067.12c-.048.075-.081.127-.112.171l-.018.031c-.043.067-.075.114-.1.153a1.651,1.651,0,0,1-.125.17c-.013.018-.028.037-.045.057a4.91,4.91,0,0,1-.61.668c-.017.016-.033.032-.051.048l-.03.026a2.027,2.027,0,0,1-.187.158c-.077.065-.157.127-.237.185-.046.037-.094.071-.139.1-.016.012-.047.033-.064.043s-.089.057-.094.059c-.042.029-.083.055-.124.079l-.008,0a1.024,1.024,0,0,1-.11.066,1.418,1.418,0,0,1-.133.075l-.029.016h0c-.077.041-.161.084-.239.117-.034.019-.131.066-.225.106l-.233.1A1.141,1.141,0,0,1,4291.188,3226.208Zm-65.061-12.38a1.857,1.857,0,0,0,.417.116l64.494,9.949c.033-.015.066-.031.1-.048l.124-.061h0l.034-.019c.026-.017.054-.032.081-.047l.011-.006.067-.043.028-.015.133-.088c.012-.01.054-.042.067-.051a1.386,1.386,0,0,0,.126-.1,1.1,1.1,0,0,1,.089-.071c.017-.016.038-.036.046-.042a.388.388,0,0,1,.036-.031l.036-.032a2.641,2.641,0,0,0,.32-.355c.016-.021.032-.041.049-.06a.285.285,0,0,1,.023-.033c.017-.027.036-.053.055-.079s.061-.1.084-.128l.05-.077a.665.665,0,0,1,.034-.062c.027-.046.054-.094.078-.142.01-.024.021-.047.033-.07s.03-.066.046-.1l0-.006c0-.01.012-.027.02-.045s.013-.036.02-.054l.044-.105c.028-.081.041-.113.049-.147s.016-.058.024-.086c.022-.066.038-.133.056-.2,0-.015.015-.076.018-.091l.034-.186c0-.009,0-.021,0-.035a.415.415,0,0,1,0-.044c0-.013,0-.026.005-.037-.076-.027-.028-.129.016-.278l0-.107c0-.005,0-.014,0-.024s0-.035,0-.052v-.043a.99.99,0,0,1-.008-.113c0-.036-.005-.073-.009-.109a.71.71,0,0,1-.011-.077c0-.019-.013-.087-.017-.126s-.015-.064-.02-.1-.015-.071-.02-.1-.036-.136-.052-.2q-.01-.033-.019-.067v0a.679.679,0,0,1-.046-.132c-.022-.06-.041-.1-.059-.146l-24.992-59.15,0-.011c-.021-.049-.042-.1-.065-.146l-.063-.129c-.018-.035-.041-.072-.061-.106l.9-.715-.952.625-.029-.046-.158-.226a1.959,1.959,0,0,0-.183-.22,1.094,1.094,0,0,1-.076-.082c-.035-.035-.069-.069-.1-.1a3.174,3.174,0,0,0-.584-.448c-.07-.045-.111-.066-.15-.087a3.432,3.432,0,0,0-.384-.181l-.083-.029-.156-.054-.04-.01-.294-.077a1.878,1.878,0,0,0-.227-.036l-.128-.016c-.025,0-.1,0-.124-.008a2.364,2.364,0,0,0-.291-.012c-.047,0-.123.006-.2.014a2.046,2.046,0,0,0-.246.029l-.037.006-.031.006c-.069.012-.135.023-.2.038l-.018,0-.035.009c-.062.017-.127.032-.19.055-.024.01-.049.018-.075.025l-.034.011c-.067.021-.137.047-.205.076l-.669.282-37.28,52.426a1.682,1.682,0,0,0-.208.377c-.007.023-.014.046-.021.069a1.785,1.785,0,0,0,.93,2.206C4226.081,3213.8,4226.1,3213.815,4226.127,3213.827Zm66.227,9.057v0Z" transform="translate(-4222.749 -3155.876)" fill="#4d7393"/>
      </g>
      <g id="Group_32" data-name="Group 32" transform="translate(25.098 50.111)">
        <path id="Path_66" data-name="Path 66" d="M4214.517,3314.749l.249.589a4.593,4.593,0,0,1-2.443,6.018l-104.46,44.137a4.592,4.592,0,0,1-6.018-2.442l-.249-.59,39.419-56.567a5.559,5.559,0,0,1,5.46-2.307Z" transform="translate(-4100.457 -3302.373)" fill="#fff"/>
        <path id="Path_67" data-name="Path 67" d="M4103.934,3364.854a5.745,5.745,0,0,1-5.281-3.5l-.249-.587a1.14,1.14,0,0,1,.114-1.1l39.42-56.566a6.719,6.719,0,0,1,6.579-2.781l68.042,11.164a1.142,1.142,0,0,1,.865.681l.248.589a5.731,5.731,0,0,1-3.048,7.509l-104.46,44.138A5.738,5.738,0,0,1,4103.934,3364.854Zm-3.186-4.4,0,.01a3.453,3.453,0,0,0,4.524,1.838l104.46-44.138a3.453,3.453,0,0,0,1.836-4.524l0-.01-67.42-11.061a4.436,4.436,0,0,0-4.34,1.834Z" transform="translate(-4098.314 -3300.23)" fill="#4d7393"/>
      </g>
      <path id="Path_68" data-name="Path 68" d="M4143.094,3163.44c-.043-.063-.083-.118-.132-.184a3.459,3.459,0,0,0-.292-.356l0-.009c-.069-.074-.137-.144-.2-.209a4.724,4.724,0,0,0-.8-.638c-.069-.047-.145-.086-.217-.126a4.735,4.735,0,0,0-.491-.245,1.349,1.349,0,0,0-.162-.062c-.079-.032-.151-.062-.226-.084-.011,0-.024-.006-.036-.006l-.3-.086a3.931,3.931,0,0,0-.416-.081,1.634,1.634,0,0,0-.233-.026,3.514,3.514,0,0,0-.437-.027c-.1,0-.209.006-.313.018a2.9,2.9,0,0,0-.329.035.321.321,0,0,0-.066.012c-.086.015-.179.027-.268.048a.282.282,0,0,0-.069.018,3.044,3.044,0,0,0-.305.09.134.134,0,0,0-.058.019c-.1.032-.2.07-.306.113L4032.476,3206a4.429,4.429,0,0,0-2.108,1.855l-.141.271a.081.081,0,0,0-.02.03,4.907,4.907,0,0,0-.352,3.319l.669.164,65.846,16.1,4.3,1.058a5.087,5.087,0,0,0,5.573-2.356l2.246-3.824,34.355-58.435.346-.587,0,0C4143.156,3163.534,4143.127,3163.491,4143.094,3163.44Z" transform="translate(-4028.428 -3159.417)" fill="#3a7ec1" opacity="0.25" style="mix-blend-mode: multiply;isolation: isolate"/>
      <g id="Group_33" data-name="Group 33">
        <path id="Path_69" data-name="Path 69" d="M4142.22,3161.282l0,0-35.276,56.988-2.287,3.69a5.253,5.253,0,0,1-5.546,2.343l-4.234-.934-65.458-14.431a4.275,4.275,0,0,1-.115-.812,4.556,4.556,0,0,1,.52-2.366.076.076,0,0,1,.02-.03l.145-.263a4.559,4.559,0,0,1,2.113-1.808l104.462-44.138c.1-.043.205-.081.306-.113a.127.127,0,0,1,.058-.019,3.068,3.068,0,0,1,.3-.089.341.341,0,0,1,.068-.018c.089-.021.181-.038.267-.052a.305.305,0,0,1,.066-.011,2.8,2.8,0,0,1,.327-.04c.1-.012.21-.018.307-.021a3.4,3.4,0,0,1,.433.019,1.649,1.649,0,0,1,.232.021,3.142,3.142,0,0,1,.4.069l.294.077c.011,0,.024.007.036.007.075.023.145.048.222.075.051.017.108.036.161.057a4.332,4.332,0,0,1,.482.226c.069.036.142.077.208.119a4.326,4.326,0,0,1,.781.6q.1.09.2.195l0,.009a3.016,3.016,0,0,1,.282.333c.048.062.087.116.128.175S4142.188,3161.231,4142.22,3161.282Z" transform="translate(-4028.159 -3158.022)" fill="#fff"/>
        <path id="Path_70" data-name="Path 70" d="M4098.048,3223.419a6.158,6.158,0,0,1-1.326-.144l-69.692-15.365a1.137,1.137,0,0,1-.862-.848,5.428,5.428,0,0,1-.146-1.027,5.683,5.683,0,0,1,.652-2.947h0c.015-.028.031-.056.048-.084l.125-.226a5.71,5.71,0,0,1,2.667-2.308l104.462-44.137c.134-.057.272-.108.406-.151h0l.033-.011c.127-.045.258-.082.384-.114h0l.085-.022h0c.1-.025.211-.045.313-.063.029-.006.06-.012.091-.016a3.974,3.974,0,0,1,.452-.055c.083-.01.219-.018.343-.022a3.94,3.94,0,0,1,.54.02,2.616,2.616,0,0,1,.337.034,3.827,3.827,0,0,1,.481.082l.29.076a1.127,1.127,0,0,1,.121.031c.087.027.172.055.261.088.053.017.139.046.218.079a5.767,5.767,0,0,1,.6.283c.076.039.179.1.274.16a5.275,5.275,0,0,1,.955.734c.065.062.144.138.224.222.022.022.043.046.063.071a4.511,4.511,0,0,1,.316.38c.05.064.1.132.15.205l.049.074.074.115a.857.857,0,0,1,.055.1l0,0a1.14,1.14,0,0,1-.05,1.109l-37.563,60.678A6.435,6.435,0,0,1,4098.048,3223.419Zm-69.752-17.563,68.918,15.193a4.106,4.106,0,0,0,4.33-1.828l2.289-3.692,34.86-56.316c-.034-.035-.068-.068-.1-.1a3.19,3.19,0,0,0-.584-.448c-.07-.045-.111-.066-.149-.087a3.52,3.52,0,0,0-.384-.181l-.083-.029-.157-.054-.04-.01-.293-.077a1.916,1.916,0,0,0-.228-.036l-.127-.016c-.025,0-.1,0-.124-.008a2.322,2.322,0,0,0-.291-.012c-.047,0-.124.006-.2.014a2.07,2.07,0,0,0-.247.029l-.037.006-.031.006c-.069.012-.135.023-.2.038l-.018,0-.035.009c-.061.017-.127.032-.189.055-.024.01-.05.018-.075.025l-.034.011c-.067.021-.137.047-.206.076L4030.4,3202.569a3.4,3.4,0,0,0-1.586,1.356l-.117.214a.447.447,0,0,1-.033.055A3.416,3.416,0,0,0,4028.3,3205.856Z" transform="translate(-4026.015 -3155.876)" fill="#4d7393"/>
      </g>
    </g>
    <path id="Path_71" data-name="Path 71" d="M4283.8,3302.215l-80.864-8.76a3.884,3.884,0,0,0-4.267,3.433l-10.875,100.392a3.884,3.884,0,0,0,3.433,4.267l80.864,8.76a3.885,3.885,0,0,0,4.268-3.433l10.875-100.393A3.884,3.884,0,0,0,4283.8,3302.215Z" transform="translate(-204.088 -168.189)" fill="#3a7ec1" opacity="0.25" style="mix-blend-mode: multiply;isolation: isolate"/>
    <g id="Group_36" data-name="Group 36" transform="translate(3986.63 3121.223)">
      <g id="Group_35" data-name="Group 35">
        <rect id="Rectangle_5" data-name="Rectangle 5" width="89.082" height="108.725" rx="11.156" transform="translate(12.454 0.744) rotate(6.183)" fill="#fff"/>
        <path id="Path_72" data-name="Path 72" d="M4282.135,3401.028a5.042,5.042,0,0,1-.543-.03h0l-80.864-8.76a5.022,5.022,0,0,1-4.443-5.523l10.875-100.392a5.021,5.021,0,0,1,5.522-4.443l80.864,8.759a5.023,5.023,0,0,1,4.443,5.524l-10.875,100.391A5.021,5.021,0,0,1,4282.135,3401.028Zm-.3-2.295a2.743,2.743,0,0,0,3.012-2.424l10.875-100.391a2.746,2.746,0,0,0-2.424-3.013l-80.863-8.759a2.751,2.751,0,0,0-3.012,2.423l-10.875,100.392a2.745,2.745,0,0,0,2.423,3.012Z" transform="translate(-4196.255 -3281.852)" fill="#4d7393"/>
      </g>
      <path id="Path_73" data-name="Path 73" d="M4282.2,3321.052l-24.313-2.634a2.558,2.558,0,0,1-2.262-2.811h0a2.559,2.559,0,0,1,2.811-2.261l24.314,2.634a2.559,2.559,0,0,1,2.262,2.811h0A2.56,2.56,0,0,1,4282.2,3321.052Z" transform="translate(-4235.005 -3302.404)" fill="#52d1bd"/>
      <path id="Path_74" data-name="Path 74" d="M4318.99,3358.474l-64.683-7.007a2.558,2.558,0,0,1-2.262-2.811h0a2.558,2.558,0,0,1,2.811-2.261l64.684,7.007a2.559,2.559,0,0,1,2.262,2.811h0A2.559,2.559,0,0,1,4318.99,3358.474Z" transform="translate(-4232.668 -3323.98)" fill="#e4ecf9"/>
      <path id="Path_75" data-name="Path 75" d="M4315.41,3391.523l-64.683-7.007a2.558,2.558,0,0,1-2.261-2.811h0a2.558,2.558,0,0,1,2.811-2.262l64.683,7.007a2.559,2.559,0,0,1,2.262,2.811h0A2.559,2.559,0,0,1,4315.41,3391.523Z" transform="translate(-4230.332 -3345.556)" fill="#e4ecf9"/>
      <path id="Path_76" data-name="Path 76" d="M4311.829,3424.573l-64.684-7.007a2.56,2.56,0,0,1-2.262-2.811h0a2.559,2.559,0,0,1,2.811-2.261l64.684,7.007a2.559,2.559,0,0,1,2.261,2.811h0A2.559,2.559,0,0,1,4311.829,3424.573Z" transform="translate(-4227.994 -3367.133)" fill="#e4ecf9"/>
      <path id="Path_77" data-name="Path 77" d="M4308.249,3457.622l-64.683-7.007a2.559,2.559,0,0,1-2.262-2.811h0a2.558,2.558,0,0,1,2.811-2.261l64.684,7.006a2.559,2.559,0,0,1,2.261,2.811h0A2.559,2.559,0,0,1,4308.249,3457.622Z" transform="translate(-4225.656 -3388.71)" fill="#e4ecf9"/>
      <path id="Path_78" data-name="Path 78" d="M4340.013,3494.5l-45.891-4.972a2.558,2.558,0,0,1-2.261-2.811h0a2.558,2.558,0,0,1,2.811-2.261l45.891,4.971a2.558,2.558,0,0,1,2.261,2.811h0A2.558,2.558,0,0,1,4340.013,3494.5Z" transform="translate(-4258.663 -3414.115)" fill="#e4ecf9"/>
      <path id="Path_79" data-name="Path 79" d="M4301.089,3523.72l-64.684-7.007a2.558,2.558,0,0,1-2.261-2.811h0a2.558,2.558,0,0,1,2.811-2.261l64.684,7.007a2.558,2.558,0,0,1,2.261,2.81h0A2.558,2.558,0,0,1,4301.089,3523.72Z" transform="translate(-4220.981 -3431.862)" fill="#e4ecf9"/>
      <path id="Path_80" data-name="Path 80" d="M4297.509,3556.769l-64.683-7.007a2.559,2.559,0,0,1-2.262-2.811h0a2.558,2.558,0,0,1,2.811-2.261l64.683,7.007a2.558,2.558,0,0,1,2.261,2.811h0A2.558,2.558,0,0,1,4297.509,3556.769Z" transform="translate(-4218.645 -3453.439)" fill="#e4ecf9"/>
    </g>
    <g id="Group_39" data-name="Group 39" transform="translate(3967.466 3167.986)">
      <path id="Path_81" data-name="Path 81" d="M4148.237,3476.239l22.038-17.692a19.651,19.651,0,1,0-6.163-7.677l-22.042,17.7a2.72,2.72,0,0,0-1,1.838,2.75,2.75,0,0,0,.582,2.012l2.738,3.4A2.736,2.736,0,0,0,4148.237,3476.239Z" transform="translate(-4141.051 -3420.845)" fill="#3a7ec1" opacity="0.25" style="mix-blend-mode: multiply;isolation: isolate"/>
      <g id="Group_37" data-name="Group 37" transform="translate(0.235 20.084)">
        <rect id="Rectangle_6" data-name="Rectangle 6" width="7.863" height="43.041" rx="3.931" transform="translate(33.843 0.279) rotate(51.242)" fill="#52d1bd"/>
        <path id="Path_82" data-name="Path 82" d="M4148.915,3507.449l30.833-24.753a2.809,2.809,0,0,0,.421-3.851l-2.729-3.408a2.749,2.749,0,0,0-3.851-.421l-30.841,24.759a2.724,2.724,0,0,0-1,1.838,2.752,2.752,0,0,0,.583,2.013l2.738,3.4A2.736,2.736,0,0,0,4148.915,3507.449Zm-2.3-1.658-2.737-3.409a.777.777,0,0,1,.116-1.064l30.833-24.753a.752.752,0,0,1,.561-.161.722.722,0,0,1,.5.277l2.738,3.4a.75.75,0,0,1,.16.56.721.721,0,0,1-.276.5l-30.842,24.76a.751.751,0,0,1-1.057-.116Z" transform="translate(-4141.728 -3474.417)" fill="#4d7393"/>
      </g>
      <path id="Path_83" data-name="Path 83" d="M4208.9,3491.271c-.268-.206-.536-.411-.794-.629s-.51-.438-.761-.664a19.929,19.929,0,0,1-2.01-2.161,20.428,20.428,0,0,1-1.667-2.429c-.174-.294-.333-.587-.484-.886s-.308-.607-.443-.912l10.68-8.574a2.749,2.749,0,0,1,3.851.421l2.73,3.408a2.808,2.808,0,0,1-.421,3.851Z" transform="translate(-4181.328 -3454.333)" fill="#232323" opacity="0.15"/>
      <g id="Group_38" data-name="Group 38" transform="translate(21.562 0)">
        <path id="Path_84" data-name="Path 84" d="M4242.822,3443.339a18.335,18.335,0,0,1-3.745,7.026,17.7,17.7,0,0,1-2.506,2.445,18.535,18.535,0,1,1-21.085-30.374,18.2,18.2,0,0,1,7.694-2.521,18.482,18.482,0,0,1,9.988,1.823,18.266,18.266,0,0,1,6.251,5.013,16.567,16.567,0,0,1,1.2,1.686,18.4,18.4,0,0,1,2.757,7.725A18.744,18.744,0,0,1,4242.822,3443.339Z" transform="translate(-4205.299 -3418.694)" fill="#fff"/>
        <path id="Path_85" data-name="Path 85" d="M4261.615,3448.154l-23.949-2.59a3.695,3.695,0,0,1,.4-7.368,3.643,3.643,0,0,1,.4.023l20.395,2.21A18.411,18.411,0,0,1,4261.615,3448.154Z" transform="translate(-4223.538 -3430.686)" fill="#e4ecf9"/>
        <path id="Path_86" data-name="Path 86" d="M4259.107,3482.7a18.341,18.341,0,0,1-3.746,7.026l-20.682-2.241a3.694,3.694,0,0,1,.387-7.367,3.591,3.591,0,0,1,.4.023Z" transform="translate(-4221.583 -3458.056)" fill="#e4ecf9"/>
        <path id="Path_87" data-name="Path 87" d="M4240.122,3438.114a17.392,17.392,0,1,0-6.4,11.67h0A17.277,17.277,0,0,0,4240.122,3438.114Zm-36.839-4.029a19.669,19.669,0,1,1,31.865,17.476h0a19.669,19.669,0,0,1-31.865-17.476Z" transform="translate(-4203.163 -3416.562)" fill="#4d7393"/>
      </g>
    </g>
    <circle id="Ellipse_5" data-name="Ellipse 5" cx="7.336" cy="7.336" r="7.336" transform="translate(4017.266 3059.385) rotate(-76.718)" fill="#bacce5"/>
    <circle id="Ellipse_6" data-name="Ellipse 6" cx="4.03" cy="4.03" r="4.03" transform="translate(3922.677 3176.654) rotate(-45)" fill="#52d1bd"/>
    <circle id="Ellipse_7" data-name="Ellipse 7" cx="4.03" cy="4.03" r="4.03" transform="matrix(0.23, -0.973, 0.973, 0.23, 4066.437, 3118.346)" fill="#52d1bd"/>
    <circle id="Ellipse_8" data-name="Ellipse 8" cx="6.568" cy="6.568" r="6.568" transform="translate(3901.922 3219.726) rotate(-45)" fill="#bacce5"/>
    <circle id="Ellipse_9" data-name="Ellipse 9" cx="6.568" cy="6.568" r="6.568" transform="matrix(0.23, -0.973, 0.973, 0.23, 4018.19, 3258.185)" fill="#52d1bd"/>
    <path id="Path_88" data-name="Path 88" d="M4002.373,3247.687a1.021,1.021,0,0,1-.157-2.034,24.35,24.35,0,0,0,5.071-1.236,1.022,1.022,0,0,1,.691,1.923,26.5,26.5,0,0,1-5.5,1.338C4002.446,3247.683,4002.41,3247.686,4002.373,3247.687Zm-5.433.095a1,1,0,0,1-.127,0,22.441,22.441,0,0,1-5.551-1.258,1.021,1.021,0,0,1,.705-1.917,20.424,20.424,0,0,0,5.047,1.141,1.021,1.021,0,0,1-.074,2.038Zm15.615-3.746a1.021,1.021,0,0,1-.563-1.89,26.677,26.677,0,0,0,4.162-3.18,1.021,1.021,0,1,1,1.393,1.494,28.742,28.742,0,0,1-4.48,3.424A1.017,1.017,0,0,1,4012.556,3244.036Zm-25.7-.028a1.019,1.019,0,0,1-.637-.2,17.856,17.856,0,0,1-3.99-4.141,1.021,1.021,0,1,1,1.679-1.163,15.8,15.8,0,0,0,3.536,3.67,1.021,1.021,0,0,1-.589,1.838Zm-6.16-8.774a1.021,1.021,0,0,1-1-.7,23.24,23.24,0,0,1-1.078-5.58,1.016,1.016,0,0,1,0-.185,1.019,1.019,0,0,1-1.475.639,26.417,26.417,0,0,1-4.663-3.2,1.021,1.021,0,1,1,1.333-1.547,24.4,24.4,0,0,0,4.3,2.955.749.749,0,1,0,1.444.251,1.009,1.009,0,0,1,1.091.946,21.223,21.223,0,0,0,.983,5.09,1.021,1.021,0,0,1-.653,1.289A1.043,1.043,0,0,1,3980.7,3235.234Zm7.344-2.69h-.069a23.154,23.154,0,0,1-5.6-.97,1.022,1.022,0,1,1,.583-1.958,21.1,21.1,0,0,0,5.107.887,1.021,1.021,0,0,1-.017,2.042Zm5.371-.688a1.021,1.021,0,0,1-.354-1.988,8.962,8.962,0,0,0,2.587-1.358,9.408,9.408,0,0,0,1.415-1.356,1.021,1.021,0,0,1,1.554,1.325,11.437,11.437,0,0,1-1.725,1.652,11,11,0,0,1-3.173,1.671A1.02,1.02,0,0,1,3993.416,3231.855Zm7.021-7.779a1.043,1.043,0,0,1-.317-.042,1.022,1.022,0,0,1-.688-1.271,10.731,10.731,0,0,0,.465-3.329,9.066,9.066,0,0,0-.175-1.561,1.022,1.022,0,1,1,2-.406,11.14,11.14,0,0,1,.214,1.915,12.8,12.8,0,0,1-.548,3.963A1.022,1.022,0,0,1,4000.437,3224.076Zm-20.53.391a1,1,0,0,1-.187-.013,1.02,1.02,0,0,1-.849-1.168,22.769,22.769,0,0,1,1.242-4.663c.091-.235.194-.5.308-.784a1.021,1.021,0,1,1,1.9.757c-.113.281-.212.538-.3.766a20.762,20.762,0,0,0-1.129,4.243A1.021,1.021,0,0,1,3979.907,3224.467Zm-10.364-2.052a1.021,1.021,0,0,1-.87-.444c-.231-.34-.453-.686-.66-1.038a18.445,18.445,0,0,1-1.811-4.141,1.022,1.022,0,0,1,1.958-.584,16.456,16.456,0,0,0,1.611,3.685q.28.473.591.926a1.021,1.021,0,0,1-.818,1.6Zm14.451-7.949a1.022,1.022,0,0,1-.833-1.645,10.393,10.393,0,0,1,4.731-3.6,1.021,1.021,0,1,1,.681,1.926,8.409,8.409,0,0,0-3.8,2.924A1.017,1.017,0,0,1,3983.994,3214.467Zm14.219-.508a1.023,1.023,0,0,1-.758-.309,9.856,9.856,0,0,0-4.16-2.544,1.021,1.021,0,1,1,.587-1.957,11.775,11.775,0,0,1,5.039,3.078,1.021,1.021,0,0,1-.707,1.733Zm-31.782-1.81h-.019a1.022,1.022,0,0,1-1.028-1.015,25.478,25.478,0,0,1,.622-5.628,1.021,1.021,0,1,1,1.995.439,23.428,23.428,0,0,0-.574,5.176A1.022,1.022,0,0,1,3966.43,3212.148Zm2.241-10.589a1.022,1.022,0,0,1-.969-1.41,39.231,39.231,0,0,1,2.5-5,1.021,1.021,0,1,1,1.759,1.038,37.317,37.317,0,0,0-2.37,4.74A1.022,1.022,0,0,1,3968.671,3201.56Zm5.514-9.36a1.021,1.021,0,0,1-.826-1.654,37.412,37.412,0,0,1,3.65-4.012l.133-.124a1.021,1.021,0,1,1,1.384,1.5l-.116.109a35.348,35.348,0,0,0-3.447,3.79A1.021,1.021,0,0,1,3974.185,3192.2Zm7.954-7.376a1.021,1.021,0,0,1-.585-1.875,34.413,34.413,0,0,1,4.929-2.676,1.022,1.022,0,1,1,.826,1.868,32.288,32.288,0,0,0-4.636,2.516A1.02,1.02,0,0,1,3982.139,3184.823Zm9.914-4.409a1.021,1.021,0,0,1-.292-2.006,39.6,39.6,0,0,1,5.486-1.077,1.021,1.021,0,0,1,.25,2.027,37.439,37.439,0,0,0-5.2,1.021A1.034,1.034,0,0,1,3992.052,3180.414Z" transform="translate(-58.898 -92.386)" fill="#3a7ec1" opacity="0.25" style="mix-blend-mode: multiply;isolation: isolate"/>
    <path id="Path_89" data-name="Path 89" d="M4000.509,3243.15a1.021,1.021,0,0,1-.156-2.033,24.394,24.394,0,0,0,5.071-1.236,1.022,1.022,0,0,1,.691,1.923,26.477,26.477,0,0,1-5.5,1.338A.988.988,0,0,1,4000.509,3243.15Zm-5.432.095a.928.928,0,0,1-.127,0,22.439,22.439,0,0,1-5.551-1.258,1.021,1.021,0,0,1,.705-1.917,20.426,20.426,0,0,0,5.046,1.142,1.021,1.021,0,0,1-.073,2.037Zm15.615-3.746a1.021,1.021,0,0,1-.563-1.89,26.675,26.675,0,0,0,4.161-3.18,1.021,1.021,0,1,1,1.393,1.494,28.731,28.731,0,0,1-4.481,3.424A1.014,1.014,0,0,1,4010.692,3239.5Zm-25.7-.027a1.019,1.019,0,0,1-.637-.2,17.876,17.876,0,0,1-3.99-4.141,1.021,1.021,0,1,1,1.679-1.163,15.79,15.79,0,0,0,3.536,3.669,1.022,1.022,0,0,1-.589,1.839Zm-6.16-8.775a1.022,1.022,0,0,1-1-.7,23.23,23.23,0,0,1-1.078-5.58,1.037,1.037,0,0,1,0-.185,1.013,1.013,0,0,1-.09.228,1.024,1.024,0,0,1-1.385.411,26.422,26.422,0,0,1-4.662-3.2,1.021,1.021,0,0,1,1.333-1.547,24.4,24.4,0,0,0,4.3,2.956.749.749,0,1,0,1.444.251,1.009,1.009,0,0,1,1.091.946,21.223,21.223,0,0,0,.983,5.089,1.021,1.021,0,0,1-.653,1.288A1.042,1.042,0,0,1,3978.837,3230.7Zm7.344-2.69h-.069a23.191,23.191,0,0,1-5.6-.97,1.022,1.022,0,0,1,.583-1.959,21.059,21.059,0,0,0,5.107.887,1.022,1.022,0,0,1-.018,2.042Zm5.371-.689a1.021,1.021,0,0,1-.354-1.988,8.949,8.949,0,0,0,2.587-1.358,9.374,9.374,0,0,0,1.415-1.356,1.021,1.021,0,0,1,1.554,1.325,11.451,11.451,0,0,1-1.725,1.652,11,11,0,0,1-3.173,1.671A1,1,0,0,1,3991.552,3227.318Zm7.021-7.779a1.034,1.034,0,0,1-.316-.042,1.021,1.021,0,0,1-.688-1.27,10.731,10.731,0,0,0,.465-3.329,9.04,9.04,0,0,0-.174-1.561,1.021,1.021,0,0,1,2-.406,11.137,11.137,0,0,1,.214,1.915,12.778,12.778,0,0,1-.548,3.963A1.022,1.022,0,0,1,3998.573,3219.539Zm-20.53.391a1,1,0,0,1-.187-.012,1.021,1.021,0,0,1-.849-1.169,22.729,22.729,0,0,1,1.242-4.662c.091-.235.194-.5.308-.785a1.021,1.021,0,1,1,1.9.758c-.113.28-.212.537-.3.765a20.726,20.726,0,0,0-1.129,4.244A1.022,1.022,0,0,1,3978.043,3219.93Zm-10.364-2.051a1.021,1.021,0,0,1-.869-.445c-.232-.34-.454-.686-.661-1.038a18.469,18.469,0,0,1-1.812-4.142,1.022,1.022,0,0,1,1.958-.584,16.44,16.44,0,0,0,1.611,3.685q.281.473.591.926a1.022,1.022,0,0,1-.818,1.6Zm14.451-7.949a1.022,1.022,0,0,1-.833-1.644,10.4,10.4,0,0,1,4.732-3.6,1.021,1.021,0,0,1,.681,1.926,8.41,8.41,0,0,0-3.8,2.924A1.016,1.016,0,0,1,3982.13,3209.93Zm14.218-.508a1.019,1.019,0,0,1-.758-.309,9.858,9.858,0,0,0-4.16-2.544,1.022,1.022,0,1,1,.587-1.957,11.766,11.766,0,0,1,5.038,3.078,1.021,1.021,0,0,1-.708,1.733Zm-31.782-1.81h-.02a1.022,1.022,0,0,1-1.028-1.015,25.487,25.487,0,0,1,.622-5.628,1.021,1.021,0,1,1,2,.439,23.394,23.394,0,0,0-.574,5.176A1.021,1.021,0,0,1,3964.567,3207.612Zm2.241-10.589a1.008,1.008,0,0,1-.413-.077,1.02,1.02,0,0,1-.556-1.333,39.122,39.122,0,0,1,2.5-5,1.021,1.021,0,1,1,1.759,1.038,37.215,37.215,0,0,0-2.37,4.74A1.023,1.023,0,0,1,3966.808,3197.023Zm5.513-9.36a1.021,1.021,0,0,1-.826-1.654,37.458,37.458,0,0,1,3.65-4.011l.134-.124a1.021,1.021,0,1,1,1.384,1.5l-.117.109a35.449,35.449,0,0,0-3.447,3.79A1.021,1.021,0,0,1,3972.321,3187.662Zm7.954-7.376a1.021,1.021,0,0,1-.586-1.875,34.393,34.393,0,0,1,4.929-2.676,1.022,1.022,0,1,1,.826,1.869,32.3,32.3,0,0,0-4.636,2.516A1.019,1.019,0,0,1,3980.275,3180.286Zm9.913-4.409a1.021,1.021,0,0,1-.292-2.007,39.579,39.579,0,0,1,5.486-1.076,1.021,1.021,0,1,1,.25,2.026,37.547,37.547,0,0,0-5.2,1.021A1,1,0,0,1,3990.188,3175.877Z" transform="translate(-57.681 -89.424)" fill="#52d1bd"/>
    <path id="Path_90" data-name="Path 90" d="M4040.825,3102.829a23.989,23.989,0,1,0,23.989,23.989A24.016,24.016,0,0,0,4040.825,3102.829Z" transform="translate(-92.49 -43.752)" fill="#3a7ec1" opacity="0.25" style="mix-blend-mode: multiply;isolation: isolate"/>
    <g id="Group_41" data-name="Group 41" transform="translate(3923.259 3053.16)">
      <g id="Group_40" data-name="Group 40" transform="translate(0 0)">
        <circle id="Ellipse_10" data-name="Ellipse 10" cx="22.85" cy="22.85" r="22.85" transform="translate(0 45.109) rotate(-80.783)" fill="#fff"/>
        <path id="Path_91" data-name="Path 91" d="M4044.1,3140.172a23.989,23.989,0,1,1,23.99-23.99A24.017,24.017,0,0,1,4044.1,3140.172Zm0-45.7a21.711,21.711,0,1,0,21.711,21.71A21.735,21.735,0,0,0,4044.1,3094.473Z" transform="translate(-4017.89 -3089.968)" fill="#4d7393"/>
      </g>
      <path id="Path_92" data-name="Path 92" d="M4068.885,3129.736l5.639-1.711a1.61,1.61,0,0,1,1.975,2.107l-2.071,5.516a1.611,1.611,0,0,0,.187,1.488l3.37,4.834a1.611,1.611,0,0,1-1.394,2.53l-5.887-.265a1.611,1.611,0,0,0-1.357.637l-3.556,4.7a1.611,1.611,0,0,1-2.837-.543l-1.567-5.681a1.608,1.608,0,0,0-1.025-1.094l-5.567-1.93a1.611,1.611,0,0,1-.36-2.866l4.918-3.245a1.611,1.611,0,0,0,.724-1.313l.115-5.891a1.611,1.611,0,0,1,2.615-1.228l4.606,3.675A1.612,1.612,0,0,0,4068.885,3129.736Z" transform="translate(-4039.823 -3111.663)" fill="#52d1bd"/>
    </g>
  </g>
</svg>
