<svg xmlns="http://www.w3.org/2000/svg" width="192" height="212.903" viewBox="0 0 192 212.903">
  <g id="Group_68" data-name="Group 68" transform="translate(-3935.873 -349.106)">
    <circle id="Ellipse_18" data-name="Ellipse 18" cx="82.39" cy="82.39" r="82.39" transform="translate(3935.873 369.419)" fill="#ecf3fe"/>
    <path id="Path_131" data-name="Path 131" d="M4101.238,601.745l-27.7-81.654a6.754,6.754,0,0,0-8.556-4.221L3995.628,539.4a6.755,6.755,0,0,0-4.221,8.556l27.7,81.655a6.754,6.754,0,0,0,8.556,4.221l69.351-23.529A6.755,6.755,0,0,0,4101.238,601.745Z" transform="translate(-36.839 -111.103)" fill="#3a7ec1" opacity="0.25" style="mix-blend-mode: multiply;isolation: isolate"/>
    <g id="Group_62" data-name="Group 62" transform="translate(3955.624 394.969)">
      <g id="Group_60" data-name="Group 60" transform="translate(0)">
        <path id="Path_132" data-name="Path 132" d="M4103.426,583.256l-69.351,23.529a5.469,5.469,0,0,1-6.936-3.422l-27.7-81.655a5.469,5.469,0,0,1,3.421-6.936l69.351-23.529a5.469,5.469,0,0,1,6.936,3.422l27.7,81.655A5.469,5.469,0,0,1,4103.426,583.256Z" transform="translate(-3997.869 -489.675)" fill="#fff"/>
        <path id="Path_133" data-name="Path 133" d="M4101.272,581.9l-69.351,23.529a6.754,6.754,0,0,1-8.556-4.221l-27.7-81.655a6.754,6.754,0,0,1,4.221-8.556l69.351-23.529a6.754,6.754,0,0,1,8.556,4.221l27.7,81.654A6.754,6.754,0,0,1,4101.272,581.9ZM4000.7,513.417a4.2,4.2,0,0,0-2.622,5.316l27.7,81.655a4.2,4.2,0,0,0,5.316,2.622l69.351-23.529a4.2,4.2,0,0,0,2.623-5.316l-27.7-81.654a4.2,4.2,0,0,0-5.316-2.622Z" transform="translate(-3995.304 -487.11)" fill="#4d7393"/>
      </g>
      <g id="Group_61" data-name="Group 61" transform="translate(12.332 26.287)">
        <path id="Path_134" data-name="Path 134" d="M4046.7,579.593l-4.925-7.349.536,8.838q.054,1.007.039,1.459a1.856,1.856,0,0,1-.286.9,1.593,1.593,0,0,1-.9.658,1.743,1.743,0,0,1-.9.094,1.524,1.524,0,0,1-.71-.354,3.527,3.527,0,0,1-.609-.707q-.29-.43-.528-.8l-5.327-8.321a5.589,5.589,0,0,1-.611-1.137,1.247,1.247,0,0,1,.068-1.008,1.322,1.322,0,0,1,.789-.668,1.092,1.092,0,0,1,1.166.138,5.74,5.74,0,0,1,.922,1.237l4.439,7.278-.522-8.042a12.534,12.534,0,0,1-.042-1.423,1.965,1.965,0,0,1,.312-.957,1.75,1.75,0,0,1,.967-.687,1.659,1.659,0,0,1,1.187-.028,1.945,1.945,0,0,1,.777.552q.281.346.839,1.172l4.5,6.694-.906-8.477a10.05,10.05,0,0,1-.084-1.049,1.634,1.634,0,0,1,.184-.76,1.175,1.175,0,0,1,.72-.552,1.34,1.34,0,0,1,1.027.047,1.24,1.24,0,0,1,.674.761,6.084,6.084,0,0,1,.207,1.275l.836,9.845q.082,1,.075,1.478a1.9,1.9,0,0,1-.261.925,1.581,1.581,0,0,1-.917.67,1.605,1.605,0,0,1-1.109.027,1.784,1.784,0,0,1-.764-.526Q4047.29,580.451,4046.7,579.593Z" transform="translate(-4032.412 -566.21)" fill="#52d1bd"/>
      </g>
      <path id="Path_135" data-name="Path 135" d="M4081.818,614.449l-26.81,9.1a1.908,1.908,0,0,1-2.413-1.19h0a1.908,1.908,0,0,1,1.19-2.412l26.81-9.1a1.908,1.908,0,0,1,2.413,1.19h0A1.908,1.908,0,0,1,4081.818,614.449Z" transform="translate(-4033.489 -569.658)" fill="#bacce5"/>
      <path id="Path_136" data-name="Path 136" d="M4120.116,611.169,4064.034,630.2a1.908,1.908,0,0,1-2.413-1.19h0a1.908,1.908,0,0,1,1.19-2.412l56.082-19.027a1.908,1.908,0,0,1,2.413,1.19h0A1.907,1.907,0,0,1,4120.116,611.169Z" transform="translate(-4039.515 -567.468)" fill="#e4ecf9"/>
      <path id="Path_137" data-name="Path 137" d="M4128.979,637.293,4072.9,656.32a1.908,1.908,0,0,1-2.413-1.19h0a1.908,1.908,0,0,1,1.19-2.412l56.082-19.027a1.907,1.907,0,0,1,2.412,1.19h0A1.908,1.908,0,0,1,4128.979,637.293Z" transform="translate(-4045.432 -584.91)" fill="#e4ecf9"/>
      <path id="Path_138" data-name="Path 138" d="M4137.842,663.416l-56.082,19.027a1.908,1.908,0,0,1-2.413-1.19h0a1.908,1.908,0,0,1,1.19-2.412l56.082-19.027a1.908,1.908,0,0,1,2.413,1.19h0A1.908,1.908,0,0,1,4137.842,663.416Z" transform="translate(-4051.35 -602.351)" fill="#e4ecf9"/>
      <path id="Path_139" data-name="Path 139" d="M4146.7,689.54l-56.082,19.027a1.907,1.907,0,0,1-2.412-1.19h0a1.908,1.908,0,0,1,1.19-2.413l56.082-19.027a1.907,1.907,0,0,1,2.412,1.19h0A1.907,1.907,0,0,1,4146.7,689.54Z" transform="translate(-4057.267 -619.793)" fill="#e4ecf9"/>
      <path id="Path_140" data-name="Path 140" d="M4155.567,715.663l-56.082,19.027a1.908,1.908,0,0,1-2.413-1.19h0a1.908,1.908,0,0,1,1.19-2.412l56.082-19.027a1.908,1.908,0,0,1,2.412,1.19h0A1.907,1.907,0,0,1,4155.567,715.663Z" transform="translate(-4063.185 -637.235)" fill="#e4ecf9"/>
      <path id="Path_141" data-name="Path 141" d="M4164.43,741.787l-56.082,19.027a1.907,1.907,0,0,1-2.412-1.19h0a1.907,1.907,0,0,1,1.19-2.412l56.082-19.027a1.908,1.908,0,0,1,2.413,1.19h0A1.908,1.908,0,0,1,4164.43,741.787Z" transform="translate(-4069.102 -654.677)" fill="#e4ecf9"/>
    </g>
    <path id="Path_142" data-name="Path 142" d="M4287.9,551.09l-72.679-9a6.754,6.754,0,0,0-7.524,5.866L4197.1,633.53a6.755,6.755,0,0,0,5.866,7.524l72.68,9a6.754,6.754,0,0,0,7.524-5.866l10.6-85.573A6.755,6.755,0,0,0,4287.9,551.09Z" transform="translate(-174.38 -128.815)" fill="#3a7ec1" opacity="0.25" style="mix-blend-mode: multiply;isolation: isolate"/>
    <g id="Group_64" data-name="Group 64" transform="translate(4027.025 409.714)">
      <g id="Group_63" data-name="Group 63" transform="translate(0 0)">
        <path id="Path_143" data-name="Path 143" d="M4291.471,640.79l-72.679-9a5.468,5.468,0,0,1-4.755-6.1l10.595-85.573a5.469,5.469,0,0,1,6.1-4.755l72.678,9a5.469,5.469,0,0,1,4.756,6.1l-10.595,85.573A5.469,5.469,0,0,1,4291.471,640.79Z" transform="translate(-4212.717 -534.044)" fill="#fff"/>
        <path id="Path_144" data-name="Path 144" d="M4288.749,639.491l-72.68-9a6.754,6.754,0,0,1-5.866-7.524L4220.8,537.4a6.753,6.753,0,0,1,7.524-5.866l72.679,9a6.753,6.753,0,0,1,5.866,7.524l-10.595,85.573A6.753,6.753,0,0,1,4288.749,639.491Zm-60.741-105.426a4.2,4.2,0,0,0-4.674,3.644l-10.6,85.573a4.2,4.2,0,0,0,3.645,4.675l72.68,9a4.2,4.2,0,0,0,4.674-3.644l10.595-85.573a4.2,4.2,0,0,0-3.645-4.674Z" transform="translate(-4210.151 -531.478)" fill="#4d7393"/>
      </g>
      <rect id="Rectangle_10" data-name="Rectangle 10" width="12.959" height="36.642" transform="translate(20.721 14.285) rotate(7.058)" fill="#bacce5"/>
      <rect id="Rectangle_11" data-name="Rectangle 11" width="12.959" height="25.937" transform="translate(36.513 27.026) rotate(7.058)" fill="#e4ecf9"/>
      <rect id="Rectangle_12" data-name="Rectangle 12" width="12.959" height="18.504" transform="translate(52.708 36.522) rotate(7.058)" fill="#52d1bd"/>
      <rect id="Rectangle_13" data-name="Rectangle 13" width="12.959" height="31.649" transform="translate(71.431 25.595) rotate(7.058)" fill="#e4ecf9"/>
      <path id="Path_145" data-name="Path 145" d="M4293.942,716.227l-37.009-4.582a1.833,1.833,0,0,1-1.593-2.044h0a1.832,1.832,0,0,1,2.043-1.593l37.009,4.582a1.832,1.832,0,0,1,1.593,2.044h0A1.832,1.832,0,0,1,4293.942,716.227Z" transform="translate(-4240.313 -649.332)" fill="#e4ecf9"/>
      <path id="Path_146" data-name="Path 146" d="M4314.382,744.17l-60.548-7.5a1.833,1.833,0,0,1-1.593-2.044h0a1.833,1.833,0,0,1,2.044-1.593l60.547,7.5a1.832,1.832,0,0,1,1.593,2.044h0A1.832,1.832,0,0,1,4314.382,744.17Z" transform="translate(-4238.244 -666.042)" fill="#e4ecf9"/>
      <path id="Path_147" data-name="Path 147" d="M4311.283,769.2l-60.547-7.5a1.833,1.833,0,0,1-1.593-2.044h0a1.833,1.833,0,0,1,2.043-1.593l60.547,7.5a1.832,1.832,0,0,1,1.593,2.043h0A1.832,1.832,0,0,1,4311.283,769.2Z" transform="translate(-4236.175 -682.753)" fill="#e4ecf9"/>
      <path id="Path_148" data-name="Path 148" d="M4308.185,794.228l-60.547-7.5a1.831,1.831,0,0,1-1.593-2.043h0a1.832,1.832,0,0,1,2.043-1.593l60.547,7.5a1.832,1.832,0,0,1,1.593,2.043h0A1.832,1.832,0,0,1,4308.185,794.228Z" transform="translate(-4234.106 -699.464)" fill="#e4ecf9"/>
    </g>
    <g id="Group_65" data-name="Group 65" transform="translate(3972.065 457.947)">
      <path id="Path_149" data-name="Path 149" d="M4201.975,752.686a29.374,29.374,0,0,0-37.491-28.234,36.622,36.622,0,0,0-71.705-14.915,36.619,36.619,0,1,0-8.237,72.5v.013h.528c.16,0,.317.012.478.012s.318-.01.478-.012h86.093c.16,0,.318.012.478.012s.318-.01.479-.012h.346v-.009A29.373,29.373,0,0,0,4201.975,752.686Z" transform="translate(-4047.546 -679.382)" fill="#fff"/>
      <path id="Path_150" data-name="Path 150" d="M4169.826,780.673c-.109,0-.218,0-.327-.008l-.175,0-86.22,0c-.217.008-.437.008-.653,0l-.678,0a1.417,1.417,0,0,1-.23-.019,38,38,0,0,1,1.235-75.972,38.272,38.272,0,0,1,6.191.506,38,38,0,0,1,74.45,14.659,30.753,30.753,0,1,1,7.422,60.813,1.392,1.392,0,0,1-.191.013l-.5,0C4170.044,780.67,4169.936,780.673,4169.826,780.673Zm-.479-2.771.247.007c.155.005.309.005.463,0l.442-.007c.037,0,.074-.007.112-.008a27.994,27.994,0,1,0-8.518-54.887,1.38,1.38,0,0,1-1.735-1.591,35.242,35.242,0,0,0-69-14.356,1.376,1.376,0,0,1-1.619,1.058,35.26,35.26,0,0,0-42.2,34.552,35.043,35.043,0,0,0,34.274,35.218,1.4,1.4,0,0,1,.152.012l.585.007c.153.006.308.006.462,0l.223-.007Z" transform="translate(-4044.776 -676.611)" fill="#4d7393"/>
    </g>
    <circle id="Ellipse_19" data-name="Ellipse 19" cx="25.803" cy="25.803" r="25.803" transform="translate(4037.813 352.802)" fill="#3a7ec1" opacity="0.25" style="mix-blend-mode: multiply;isolation: isolate"/>
    <g id="Group_66" data-name="Group 66" transform="translate(4040.368 349.106)">
      <circle id="Ellipse_20" data-name="Ellipse 20" cx="24.63" cy="24.63" r="24.63" transform="translate(1.173 1.173)" fill="#fff"/>
      <path id="Path_151" data-name="Path 151" d="M4276.1,400.712a25.8,25.8,0,1,1,25.8-25.8A25.832,25.832,0,0,1,4276.1,400.712Zm0-49.261a23.458,23.458,0,1,0,23.458,23.458A23.485,23.485,0,0,0,4276.1,351.451Z" transform="translate(-4250.301 -349.106)" fill="#4d7393"/>
    </g>
    <g id="Group_67" data-name="Group 67" transform="translate(4054.239 365.672)">
      <path id="Path_152" data-name="Path 152" d="M4314.789,402.995h-4.474l-.873-3.117a1.3,1.3,0,0,0-1.262-.924h-8.417a1.3,1.3,0,0,0-1.263.924l-.872,3.117h-4.474a1.09,1.09,0,0,0-1.116,1.063v12.307a1.09,1.09,0,0,0,1.116,1.063h21.634a1.09,1.09,0,0,0,1.115-1.063V404.058A1.091,1.091,0,0,0,4314.789,402.995Z" transform="translate(-4292.039 -398.954)" fill="#52d1bd"/>
      <circle id="Ellipse_21" data-name="Ellipse 21" cx="5.059" cy="5.059" r="5.059" transform="translate(6.873 5.812)" fill="#fff"/>
    </g>
    <circle id="Ellipse_22" data-name="Ellipse 22" cx="7.402" cy="7.402" r="7.402" transform="translate(3973.444 371.203)" fill="#52d1bd"/>
    <circle id="Ellipse_23" data-name="Ellipse 23" cx="4.506" cy="4.506" r="4.506" transform="translate(3941.309 531.317) rotate(-80.783)" fill="#bacce5"/>
    <circle id="Ellipse_24" data-name="Ellipse 24" cx="3.186" cy="3.186" r="3.186" transform="translate(4002.096 387.452)" fill="#bacce5"/>
    <path id="Path_153" data-name="Path 153" d="M4452.459,392.854a3.876,3.876,0,1,1-1.8-5.177A3.875,3.875,0,0,1,4452.459,392.854Z" transform="translate(-339.989 -25.494)" fill="#bacce5"/>
  </g>
</svg>
