<svg xmlns="http://www.w3.org/2000/svg" width="205.872" height="205.333" viewBox="0 0 205.872 205.333">
  <g id="Group_57" data-name="Group 57" transform="translate(-458.133 -2183.863)">
    <circle id="Ellipse_11" data-name="Ellipse 11" cx="91.307" cy="91.307" r="91.307" transform="translate(466.945 2185.322)" fill="#ecf3fe"/>
    <path id="Path_93" data-name="Path 93" d="M594.644,2399.884l-43.692-98.413a7.265,7.265,0,0,0-9.56-3.681l-78.958,35.055a7.265,7.265,0,0,0-3.681,9.559l43.693,98.413A7.264,7.264,0,0,0,512,2444.5l78.958-35.055A7.264,7.264,0,0,0,594.644,2399.884Z" transform="translate(0 -74.573)" fill="#3a7ec1" opacity="0.25" style="mix-blend-mode: multiply;isolation: isolate"/>
    <g id="Group_44" data-name="Group 44" transform="translate(459.087 2215.267)">
      <g id="Group_43" data-name="Group 43" transform="translate(0 0)">
        <path id="Path_94" data-name="Path 94" d="M597.347,2391.594l-78.958,35.055a7.265,7.265,0,0,1-9.56-3.681l-43.692-98.413a7.265,7.265,0,0,1,3.681-9.559l78.958-35.055a7.265,7.265,0,0,1,9.559,3.681l43.693,98.412A7.265,7.265,0,0,1,597.347,2391.594Z" transform="translate(-463.289 -2278.093)" fill="#fff"/>
        <path id="Path_95" data-name="Path 95" d="M513.105,2426.132a8.5,8.5,0,0,1-3.06-.573,8.411,8.411,0,0,1-4.7-4.458l-43.692-98.413a8.478,8.478,0,0,1,4.3-11.176l78.958-35.055a8.489,8.489,0,0,1,11.176,4.3l43.692,98.413a8.488,8.488,0,0,1-4.3,11.176L516.521,2425.4A8.4,8.4,0,0,1,513.105,2426.132Zm35.226-147.952a5.966,5.966,0,0,0-2.423.516L466.95,2313.75a6.027,6.027,0,0,0-3.059,7.943l43.693,98.412a6.04,6.04,0,0,0,7.943,3.059l78.958-35.055a6.04,6.04,0,0,0,3.058-7.943l-43.692-98.413a5.98,5.98,0,0,0-3.341-3.166A6.06,6.06,0,0,0,548.331,2278.18Z" transform="translate(-460.924 -2275.728)" fill="#4d7393"/>
      </g>
      <path id="Path_96" data-name="Path 96" d="M530.721,2370.634l-26.8,11.9a2.714,2.714,0,0,1-3.571-1.375h0a2.714,2.714,0,0,1,1.375-3.571l26.8-11.9a2.714,2.714,0,0,1,3.571,1.375h0A2.714,2.714,0,0,1,530.721,2370.634Z" transform="translate(-486.718 -2334.782)" fill="#52d1bd"/>
      <path id="Path_97" data-name="Path 97" d="M603.294,2354.214l-59.355,26.352a2.714,2.714,0,0,1-3.571-1.375h0a2.714,2.714,0,0,1,1.375-3.571l59.355-26.352a2.714,2.714,0,0,1,3.571,1.375h0A2.714,2.714,0,0,1,603.294,2354.214Z" transform="translate(-513.058 -2323.976)" fill="#e4ecf9"/>
      <path id="Path_98" data-name="Path 98" d="M602.77,2388.377l-67.505,29.97a2.714,2.714,0,0,1-3.571-1.375h0a2.714,2.714,0,0,1,1.375-3.571l67.505-29.97a2.714,2.714,0,0,1,3.571,1.375h0A2.714,2.714,0,0,1,602.77,2388.377Z" transform="translate(-507.348 -2346.46)" fill="#e4ecf9"/>
      <path id="Path_99" data-name="Path 99" d="M617.938,2422.541l-67.505,29.971a2.714,2.714,0,0,1-3.571-1.375h0a2.714,2.714,0,0,1,1.375-3.571l67.505-29.97a2.714,2.714,0,0,1,3.571,1.375h0A2.714,2.714,0,0,1,617.938,2422.541Z" transform="translate(-517.331 -2368.945)" fill="#e4ecf9"/>
      <path id="Path_100" data-name="Path 100" d="M633.105,2456.7l-67.505,29.97a2.714,2.714,0,0,1-3.571-1.375h0a2.714,2.714,0,0,1,1.375-3.571l67.506-29.971a2.714,2.714,0,0,1,3.571,1.375h0A2.714,2.714,0,0,1,633.105,2456.7Z" transform="translate(-527.313 -2391.429)" fill="#e4ecf9"/>
      <path id="Path_101" data-name="Path 101" d="M648.273,2490.867l-67.505,29.97a2.714,2.714,0,0,1-3.571-1.375h0a2.714,2.714,0,0,1,1.375-3.571l67.505-29.97a2.714,2.714,0,0,1,3.571,1.375h0A2.714,2.714,0,0,1,648.273,2490.867Z" transform="translate(-537.296 -2413.913)" fill="#e4ecf9"/>
      <path id="Path_102" data-name="Path 102" d="M663.44,2525.031,595.935,2555a2.714,2.714,0,0,1-3.571-1.375h0a2.714,2.714,0,0,1,1.375-3.571l67.506-29.97a2.714,2.714,0,0,1,3.571,1.375h0A2.714,2.714,0,0,1,663.44,2525.031Z" transform="translate(-547.278 -2436.398)" fill="#e4ecf9"/>
      <path id="Path_103" data-name="Path 103" d="M678.608,2559.194l-67.506,29.97a2.713,2.713,0,0,1-3.571-1.375h0a2.714,2.714,0,0,1,1.375-3.571l67.505-29.971a2.715,2.715,0,0,1,3.571,1.375h0A2.715,2.715,0,0,1,678.608,2559.194Z" transform="translate(-557.261 -2458.882)" fill="#e4ecf9"/>
    </g>
    <path id="Path_104" data-name="Path 104" d="M717.078,2381.948l0-67.958c0-.084,0-.172-.008-.256a1.372,1.372,0,0,0-.012-.184,1.915,1.915,0,0,0-.024-.216c-.008-.06-.016-.12-.028-.18s-.02-.116-.032-.176c-.016-.075-.032-.148-.052-.224a4.528,4.528,0,0,0-.14-.451s0-.008,0-.011c-.036-.092-.072-.184-.111-.272a4.616,4.616,0,0,0-.523-.918c-.048-.068-.1-.135-.156-.2a4.374,4.374,0,0,0-.383-.423c-.044-.044-.088-.088-.136-.127-.06-.056-.12-.112-.187-.164a.217.217,0,0,0-.032-.024l-.255-.2s0,0,0,0l-7.222-5.482v-11.091l-7.805-7.806-4.262-4.26-11.265-11.265v0l0,0h-22.01l-8.113-6.158a4.988,4.988,0,0,0-6.038,0l-8.112,6.158h-38.5a8.485,8.485,0,0,0-8.46,8.46v27.193l-5.6,4.254-.255.2a.218.218,0,0,0-.032.024,4.912,4.912,0,0,0-1.8,3.8l0,67.959h0v.246h0v.686c0,.128,0,.251.016.375,0,.029.005.058.007.086s0,.043.005.065,0,.025,0,.037h0c0,.013,0,.025.006.037.007.074.018.151.029.225,0,.012,0,.028.008.04.005.029.012.058.018.086s.013.061.019.091.006.031.01.048l.01.043c.019.081.04.162.062.243.005.016.011.032.016.049.011.034.022.067.033.1s.022.074.035.109c.032.084.064.172.1.252l0,.009c.024.056.052.11.077.164.011.024.019.05.03.074.032.072.072.144.108.215l.018.032.027.045c.024.042.047.085.075.127.011.017.024.032.035.049.047.074.093.149.143.22.011.015.019.031.03.046.05.071.1.138.158.2.027.034.054.068.082.1s.079.094.119.137c.016.018.036.033.052.051q.117.125.242.241l.079.073c.034.03.066.062.1.091a4.891,4.891,0,0,0,.431.326c.025.017.052.032.077.049s.074.049.112.072l.18.108c.041.022.084.04.125.061s.094.047.142.069.091.044.138.065c.076.033.153.061.23.09l.037.015c.029.01.057.025.086.036l.117.037.059.019.011,0c.1.032.2.056.3.08a.559.559,0,0,0,.08.02l.04.007.056.01c.062.012.124.026.187.034h.014l.047.007.054.008c.038.007.076.009.113.013l.051.006.04,0,.184.012c.088,0,.176.008.264.008h.271l121.439,0c.088,0,.175,0,.263-.008l.184-.012c.02,0,.036,0,.052,0l.088-.012c.016,0,.032,0,.048,0l.1-.012s.008,0,.016,0l.124-.024a.844.844,0,0,0,.1-.016l.019,0h0l.135-.031c.1-.024.2-.048.3-.08l.011,0,.071-.023.09-.029.052-.016c.016,0,.028-.012.044-.016s.047-.023.071-.033a4.776,4.776,0,0,0,.616-.284l.016-.007c.032-.016.064-.036.1-.056a.638.638,0,0,0,.088-.052c.036-.02.072-.044.108-.068l.047-.032.047-.032.165-.115a.115.115,0,0,1,.024-.02c.036-.027.07-.057.1-.085s.065-.051.1-.078l.034-.028c.008-.008.02-.016.028-.024.032-.028.064-.056.092-.084a.606.606,0,0,0,.076-.068l.058-.058.063-.065c.041-.042.083-.083.122-.128s.08-.09.119-.137l.066-.08c.06-.072.116-.146.174-.22.02-.034.043-.066.066-.1l.041-.062c.034-.052.069-.1.1-.157.024-.032.04-.068.06-.1s.04-.068.06-.1.04-.075.056-.108c.056-.1.1-.216.152-.323a.178.178,0,0,1,.012-.032c.012-.036.028-.072.044-.112s.032-.084.048-.127a.016.016,0,0,0,0-.012c.013-.036.024-.073.036-.11s.022-.066.032-.1c.005-.017.011-.032.016-.049a.072.072,0,0,0,.008-.028c.012-.048.028-.1.04-.152a.633.633,0,0,0,.02-.084.153.153,0,0,0,.009-.048c0-.018.01-.036.014-.054s0-.012.005-.018,0-.02,0-.028c.012-.056.024-.116.032-.171s.02-.12.024-.18c0-.024.008-.048.012-.076s0-.031,0-.047c0-.04.008-.08.008-.116s.008-.08.008-.12c0-.088.008-.172.008-.255v-.932Z" transform="translate(-83.831 -52.01)" fill="#3a7ec1" opacity="0.25" style="mix-blend-mode: multiply;isolation: isolate"/>
    <path id="Path_105" data-name="Path 105" d="M731.169,2388.295l0,68.891c0,.084,0,.167-.008.255a1.167,1.167,0,0,1-.008.12c0,.036,0,.076-.008.116,0,.016,0,.032,0,.047s-.008.052-.012.076c0,.06-.016.12-.024.18s-.02.115-.032.171a.644.644,0,0,1-.02.084.175.175,0,0,1-.012.064.612.612,0,0,1-.02.084c-.012.052-.028.1-.04.152a.077.077,0,0,1-.008.028c-.028.088-.052.176-.084.26a.016.016,0,0,1,0,.012c-.016.043-.032.088-.048.128s-.032.075-.044.112a.181.181,0,0,0-.012.032c-.048.108-.1.219-.151.323-.016.032-.036.072-.056.108s-.04.068-.06.1-.036.068-.06.1c-.04.068-.084.135-.128.2-.028.044-.056.08-.08.12-.068.088-.132.176-.2.26q-.078.1-.156.179c-.052.06-.108.116-.163.171-.024.028-.052.052-.08.08a.62.62,0,0,1-.076.068c-.028.028-.06.056-.092.084-.008.008-.02.016-.028.024-.076.068-.156.132-.235.191a.1.1,0,0,0-.024.02c-.064.044-.128.092-.2.136-.024.016-.044.032-.064.044-.036.024-.072.048-.108.068a.612.612,0,0,1-.088.052,1.076,1.076,0,0,1-.1.056,4.456,4.456,0,0,1-.7.323c-.016,0-.028.012-.044.016l-.052.016c-.056.02-.112.04-.172.056-.1.032-.2.056-.3.08l-.156.036a.845.845,0,0,1-.1.016l-.124.024c-.008,0-.012,0-.016,0l-.1.012c-.016,0-.032,0-.048,0l-.088.012c-.016,0-.032,0-.052,0l-.184.012c-.088,0-.176.008-.264.008l-121.71,0c-.088,0-.176,0-.264-.008l-.184-.012a1.859,1.859,0,0,1-.2-.024.974.974,0,0,1-.116-.016c-.1-.012-.191-.032-.283-.052a.565.565,0,0,1-.08-.02c-.1-.024-.2-.048-.3-.08-.06-.02-.116-.036-.172-.056a5.313,5.313,0,0,1-.774-.339l-.18-.108c-.068-.04-.136-.084-.2-.128a4.965,4.965,0,0,1-1.049-.954q-.108-.126-.2-.263a4.726,4.726,0,0,1-.547-.981c-.032-.08-.064-.168-.1-.252s-.056-.171-.084-.259-.048-.176-.068-.264-.036-.164-.052-.247c0-.011,0-.028-.008-.04-.012-.08-.024-.164-.032-.243,0,0,0-.012,0-.02-.008-.064-.012-.124-.016-.188-.012-.123-.016-.247-.016-.375l0-68.891a4.909,4.909,0,0,1,1.8-3.8.254.254,0,0,1,.032-.024l.255-.2a4.892,4.892,0,0,1,2.846-.906l121.71,0a3.4,3.4,0,0,1,.351.016.165.165,0,0,1,.064,0c.112.008.228.02.335.036l.076.012c.1.016.191.036.283.06a.446.446,0,0,1,.072.016c.116.028.227.06.339.1s.212.072.311.112a3.986,3.986,0,0,1,.419.2,2.362,2.362,0,0,1,.223.12,3.175,3.175,0,0,1,.367.24s0,0,0,0l.255.2a.215.215,0,0,1,.032.024c.068.052.128.108.188.164.047.04.092.084.135.127a4.3,4.3,0,0,1,.383.423c.056.068.108.135.156.2a4.627,4.627,0,0,1,.523.918c.04.088.076.18.112.271,0,0,0,.008,0,.012a4.588,4.588,0,0,1,.139.451c.02.076.036.148.052.224.012.06.024.115.032.176s.02.12.028.179a2,2,0,0,1,.024.215,1.452,1.452,0,0,1,.012.184C731.165,2388.123,731.169,2388.211,731.169,2388.295Z" transform="translate(-93.106 -131.302)" fill="#5b97ef"/>
    <g id="Group_45" data-name="Group 45" transform="translate(505.564 2204.669)">
      <path id="Path_106" data-name="Path 106" d="M731.442,2297.717l-130.978,0a4.929,4.929,0,0,1,1.5-2.119.212.212,0,0,1,.032-.024l.255-.2,60.68-46.065a4.987,4.987,0,0,1,6.038,0l60.679,46.062s0,0,0,0l.255.2a.24.24,0,0,1,.032.024c.068.052.128.108.188.164.047.04.092.084.135.127a4.26,4.26,0,0,1,.383.423c.056.068.108.135.156.2a4.625,4.625,0,0,1,.523.918c.04.088.076.18.112.271C731.438,2297.709,731.442,2297.713,731.442,2297.717Z" transform="translate(-599.239 -2247.078)" fill="#fff"/>
      <path id="Path_107" data-name="Path 107" d="M598.105,2296.6a1.225,1.225,0,0,1-1.151-1.644,6.155,6.155,0,0,1,1.873-2.646h0a1.61,1.61,0,0,1,.13-.1l.19-.149,60.685-46.067a6.229,6.229,0,0,1,7.521,0L727.962,2292a1.252,1.252,0,0,1,.112.082l.222.169.031.025h0c.094.072.179.148.263.225.042.033.112.1.183.173a5.468,5.468,0,0,1,.478.529c.061.074.133.168.2.262a5.767,5.767,0,0,1,.645,1.137c.038.085.082.2.125.306.008.021.016.041.023.063a1.259,1.259,0,0,1,.066.4,1.226,1.226,0,0,1-1.225,1.226Zm65.487-49.418a3.753,3.753,0,0,0-2.277.765l-60.862,46.2,126.283,0-.124-.094c-.021-.014-.041-.028-.062-.044l-60.679-46.061A3.763,3.763,0,0,0,663.593,2247.177Z" transform="translate(-596.88 -2244.728)" fill="#4d7393"/>
    </g>
    <g id="Group_48" data-name="Group 48" transform="translate(512.956 2211.841)">
      <g id="Group_46" data-name="Group 46" transform="translate(0 0)">
        <path id="Path_108" data-name="Path 108" d="M736.658,2292.621v67.6a4.6,4.6,0,0,1-4.591,4.591H626.677a4.6,4.6,0,0,1-4.591-4.591v-82.467a8.485,8.485,0,0,1,8.46-8.46h82.777l7.507,7.507,8.022,8.018Z" transform="translate(-620.861 -2268.066)" fill="#fff"/>
        <path id="Path_109" data-name="Path 109" d="M729.709,2363.676H624.319a5.823,5.823,0,0,1-5.816-5.817v-82.467a9.7,9.7,0,0,1,9.685-9.686h82.778a1.226,1.226,0,0,1,.866.359l23.334,23.33a1.226,1.226,0,0,1,.359.866v67.6A5.823,5.823,0,0,1,729.709,2363.676Zm-101.521-95.519a7.243,7.243,0,0,0-7.235,7.235v82.467a3.371,3.371,0,0,0,3.366,3.367h105.39a3.371,3.371,0,0,0,3.366-3.367v-67.09l-22.616-22.613Z" transform="translate(-618.503 -2265.707)" fill="#4d7393"/>
      </g>
      <path id="Path_110" data-name="Path 110" d="M890.651,2334.314c.387.533,1.04,4.2,21.518,6.061V2336.4Z" transform="translate(-797.616 -2310.86)" fill="#3a7ec1" opacity="0.25" style="mix-blend-mode: multiply;isolation: isolate"/>
      <g id="Group_47" data-name="Group 47" transform="translate(91.24 0)">
        <path id="Path_111" data-name="Path 111" d="M888.983,2288.031a4.6,4.6,0,0,0,4.59,4.591h18.741l-23.331-23.331Z" transform="translate(-887.758 -2268.066)" fill="#dbe2ef"/>
        <path id="Path_112" data-name="Path 112" d="M909.956,2291.488h-18.74a5.821,5.821,0,0,1-5.815-5.815v-18.741a1.225,1.225,0,0,1,2.091-.866l23.33,23.331a1.225,1.225,0,0,1-.866,2.091Zm-22.105-21.6v15.784a3.369,3.369,0,0,0,3.365,3.365H907Z" transform="translate(-885.401 -2265.707)" fill="#4d7393"/>
      </g>
    </g>
    <g id="Group_49" data-name="Group 49" transform="translate(547.499 2228.099)">
      <circle id="Ellipse_12" data-name="Ellipse 12" cx="19.04" cy="19.04" r="19.04" transform="translate(0 36.238) rotate(-72.109)" fill="#52d1bd"/>
      <path id="Path_113" data-name="Path 113" d="M775.534,2355.752a.241.241,0,0,0-.306-.151l-.145.049a19.85,19.85,0,0,0-2.986,1.342c-.935.494-1.793,1.048-2.644,1.608a35.653,35.653,0,0,0-4.607,3.741c-.714.666-1.389,1.361-2.039,2.076s-1.278,1.446-1.877,2.2c-.441.551-.864,1.116-1.278,1.688l-.729-.336-.768-.319a29.818,29.818,0,0,0-3.2-1.118,20.319,20.319,0,0,0-3.531-.718l-.152-.015a.242.242,0,0,0-.181.423l2.412,2.088c.8.7,1.612,1.386,2.426,2.07l2.437,2.056c.811.687,1.637,1.356,2.454,2.036l.011.009a.5.5,0,0,0,.7-.086l0,0,3.559-4.554,3.516-4.587c1.178-1.525,2.317-3.079,3.477-4.617s2.279-3.108,3.421-4.661A.244.244,0,0,0,775.534,2355.752Z" transform="translate(-740.251 -2341.12)" fill="#fff"/>
    </g>
    <g id="Group_50" data-name="Group 50" transform="translate(505.269 2250.842)">
      <path id="Path_114" data-name="Path 114" d="M665.388,2424.6v0a3.226,3.226,0,0,1-.679.559L604.8,2462.125h-.271a4.816,4.816,0,0,1-1.429-.211l-.188-.06a4.889,4.889,0,0,1-2.032-1.345c-.052-.056-.1-.116-.156-.18a4.579,4.579,0,0,1-.411-.578c-.044-.068-.08-.136-.12-.2s-.076-.144-.108-.215a4.9,4.9,0,0,1-.487-2.135l0-68.891a4.909,4.909,0,0,1,1.8-3.8.255.255,0,0,1,.032-.024l.255-.2a4.891,4.891,0,0,1,2.846-.906h1.125l5.26,3.245,48.491,29.918,1.824,1.125,3.48,2.147a3.233,3.233,0,0,1,.679.559v0A3.153,3.153,0,0,1,665.388,2424.6Z" transform="translate(-598.376 -2382.152)" fill="#dbe2ef"/>
      <path id="Path_115" data-name="Path 115" d="M602.444,2460.992h-.271a6.017,6.017,0,0,1-1.793-.267l-.211-.067a6.124,6.124,0,0,1-2.554-1.687c-.057-.061-.127-.141-.2-.226a5.758,5.758,0,0,1-.506-.713c-.026-.039-.064-.1-.1-.169-.011-.02-.061-.106-.07-.126-.065-.126-.1-.2-.132-.265a6.059,6.059,0,0,1-.592-2.633l0-68.89a6.13,6.13,0,0,1,2.243-4.75h0a1.617,1.617,0,0,1,.13-.1l.19-.149a6.134,6.134,0,0,1,3.59-1.158H603.3a1.218,1.218,0,0,1,.643.183l59.055,36.435a4.411,4.411,0,0,1,.935.77c.023.025.045.051.066.078a4.387,4.387,0,0,1,0,5.738.947.947,0,0,1-.067.078,4.469,4.469,0,0,1-.935.77l-59.905,36.964A1.224,1.224,0,0,1,602.444,2460.992Zm-3.529-4.386.072.122a3.489,3.489,0,0,0,.319.454c.049.06.083.1.117.137a3.68,3.68,0,0,0,1.533,1.02l.15.047a3.563,3.563,0,0,0,.992.156l59.609-36.781a2.024,2.024,0,0,0,.38-.3l.038-.044a1.918,1.918,0,0,0,0-2.57c-.013-.014-.026-.029-.038-.044a1.986,1.986,0,0,0-.376-.3l-58.761-36.253h-.778a3.664,3.664,0,0,0-2.136.68l-.22.17-.017.013a3.681,3.681,0,0,0-1.331,2.842l0,68.89a3.676,3.676,0,0,0,.365,1.6l.054.111Z" transform="translate(-596.017 -2379.794)" fill="#4d7393"/>
    </g>
    <g id="Group_51" data-name="Group 51" transform="translate(570.248 2250.838)">
      <path id="Path_116" data-name="Path 116" d="M856.256,2388.295l0,68.891c0,.084,0,.167-.008.255a1.184,1.184,0,0,1-.008.12c0,.036,0,.076-.008.116,0,.016,0,.032,0,.047s-.008.052-.012.076c0,.06-.016.12-.024.18s-.02.115-.032.171c0,.008,0,.02,0,.028a.407.407,0,0,1-.016.056.176.176,0,0,1-.012.064.6.6,0,0,1-.02.084c-.012.052-.024.1-.04.152a.075.075,0,0,1-.008.028,2.7,2.7,0,0,1-.084.26.016.016,0,0,1,0,.012c-.016.043-.028.084-.048.128s-.028.072-.044.112a.329.329,0,0,0-.012.032c-.048.108-.1.219-.151.323-.016.032-.036.072-.056.108s-.04.068-.06.1-.036.068-.06.1c-.04.068-.084.135-.128.2-.028.044-.056.08-.08.12-.068.092-.136.176-.2.26q-.078.1-.156.179c-.052.06-.108.116-.163.171-.024.028-.052.052-.08.08a.606.606,0,0,1-.076.068c-.028.028-.06.056-.092.084-.008.008-.02.016-.028.024-.076.068-.156.132-.235.191a.1.1,0,0,0-.024.02c-.064.044-.128.092-.2.136-.024.016-.044.032-.064.044-.036.024-.072.048-.108.068a.6.6,0,0,1-.088.052,1.1,1.1,0,0,1-.1.056,4.457,4.457,0,0,1-.7.323c-.016,0-.032.012-.044.016l-.052.016c-.056.02-.112.04-.172.056-.1.032-.2.056-.3.08l-.156.036a.841.841,0,0,1-.1.016l-.124.024h-.012c-.036,0-.072.012-.1.016-.016,0-.032,0-.048,0l-.087.012c-.016,0-.032,0-.052,0l-.184.012c-.088,0-.176.008-.264.008h-.271l-59.909-36.962a3.118,3.118,0,0,1-.674-.559v0a3.144,3.144,0,0,1,0-4.223v0a3.1,3.1,0,0,1,.674-.559l3.476-2.147,1.824-1.125,48.493-29.922,5.26-3.245h1.125a3.4,3.4,0,0,1,.351.016.165.165,0,0,1,.064,0c.112.008.228.02.335.036l.076.012c.1.016.191.036.283.06a.447.447,0,0,1,.072.016c.116.028.227.06.339.1s.212.072.311.112a3.987,3.987,0,0,1,.419.2,2.368,2.368,0,0,1,.223.12,3.175,3.175,0,0,1,.367.24s0,0,0,0l.255.2a.218.218,0,0,1,.032.024c.068.052.128.108.188.164.048.04.092.084.135.127a4.294,4.294,0,0,1,.383.423c.056.068.108.135.156.2a4.633,4.633,0,0,1,.523.918c.04.088.076.18.112.271,0,0,0,.008,0,.012a4.6,4.6,0,0,1,.14.451c.02.076.036.148.052.224.012.06.024.115.032.176s.02.12.028.179a1.985,1.985,0,0,1,.024.215,1.429,1.429,0,0,1,.012.184C856.252,2388.123,856.256,2388.211,856.256,2388.295Z" transform="translate(-788.442 -2382.141)" fill="#dbe2ef"/>
      <path id="Path_117" data-name="Path 117" d="M848.982,2460.981h-.271a1.222,1.222,0,0,1-.644-.183l-59.909-36.961a4.347,4.347,0,0,1-.939-.78c-.019-.022-.038-.044-.055-.066a4.386,4.386,0,0,1,0-5.739c.018-.024.038-.047.058-.069a4.341,4.341,0,0,1,.939-.779l59.052-36.438a1.218,1.218,0,0,1,.643-.183h1.125c.149,0,.293.005.438.019.03,0,.059,0,.087.006.132.01.269.026.4.043l.107.017c.129.022.25.048.367.077l.073.018h0c.145.035.285.074.425.119.123.038.263.09.393.141a5.414,5.414,0,0,1,.537.25c.064.03.176.089.285.154a4.136,4.136,0,0,1,.389.25,1.318,1.318,0,0,1,.126.092l.222.169.031.025h0c.094.072.179.148.263.226.042.034.112.1.183.172a5.471,5.471,0,0,1,.478.53c.061.074.133.167.2.262a5.757,5.757,0,0,1,.645,1.137c.038.085.082.2.125.306.006.016.013.032.018.049.066.179.121.365.169.549.026.1.046.188.067.287s.036.184.047.263c0,.008.016.093.028.179.011.067.022.164.029.265a2.6,2.6,0,0,1,.017.3c0,.046.008.153.008.256l0,68.891c0,.1,0,.2-.009.3,0,.028,0,.087-.009.152,0,.049-.006.1-.011.15l0,.023c0,.029,0,.058-.009.086l-.009.053c-.005.052-.013.1-.021.158-.015.106-.03.185-.045.256a1.065,1.065,0,0,1-.022.113l-.011.046c-.012.065-.029.132-.047.2,0,.019-.02.087-.043.163a.052.052,0,0,1,0,.01c-.032.117-.069.234-.111.347a.048.048,0,0,0-.005.013h0c-.022.061-.039.109-.059.158l-.037.1-.007.015c-.01.027-.02.054-.031.078-.071.161-.129.289-.194.41l-.064.122c-.006.01-.044.078-.051.089-.041.074-.074.128-.1.175-.049.082-.1.162-.154.239l-1.065-.611,1.017.681c-.01.016-.045.069-.056.084-.079.107-.157.2-.236.3s-.14.167-.21.242c-.043.051-.119.128-.2.2h0l-.083.083c-.044.044-.088.084-.135.124l-.061.057-.041.035-.011.009c-.092.082-.189.16-.286.235-.029.024-.059.047-.09.069-.11.077-.166.117-.224.155l-.1.065c-.01.008-.043.03-.084.054s-.092.057-.141.083-.1.058-.149.083a5.39,5.39,0,0,1-.834.38l-.1.036h0c-.092.032-.174.061-.263.084-.072.024-.2.056-.33.087l-.166.038a2.054,2.054,0,0,1-.215.037c-.045.009-.1.018-.16.025v0l-.092.014-.061.005-.07.01c-.025,0-.049.006-.073.008-.044,0-.1.006-.132.006l-.1.01C849.194,2460.976,849.088,2460.981,848.982,2460.981Zm.748-1.546.065.253-.067-.451Zm-60.653-37.977a1.934,1.934,0,0,0,.369.295l59.61,36.777.133-.005.158-.011h0l.091-.01h0l.038,0,.105-.016.032,0v0c.029-.006.058-.01.088-.014l.132-.03c.06-.014.131-.03.2-.052l.13-.042.058-.02c.031-.012.066-.023.1-.034a3.349,3.349,0,0,0,.446-.213l.117-.066c.026-.018.053-.033.08-.049s.056-.038.073-.047l.154-.11.025-.018h0c.054-.04.108-.083.159-.129h0c.024-.021.048-.042.069-.059s.053-.051.081-.074l.043-.042c.063-.064.1-.1.132-.136.062-.068.1-.107.131-.15.05-.061.1-.123.15-.189l.04-.06c.062-.092.09-.135.116-.178.011-.019.024-.038.036-.058l.091-.163c.061-.115.09-.184.12-.251l.013-.029h0c.012-.038.042-.11.06-.152.009-.027.017-.054.028-.081.018-.047.033-.1.047-.145,0-.01.005-.018.008-.028s.007-.025.011-.038.021-.085.029-.116c0-.005,0-.011,0-.017.007-.044.017-.087.028-.129,0-.006,0-.012,0-.018l.03-.088,0-.006,0,.006,1.218.046-1.207-.128v-.026l-.007,0c0-.015.01-.083.012-.1h0s0-.007,0-.01a.331.331,0,0,1,0-.034c0-.041,0-.075.008-.115.007-.128.01-.191.01-.253l0-68.891h0c0-.064,0-.133-.006-.2,0-.03-.01-.142-.012-.173a.717.717,0,0,0-.009-.082l-.021-.141,1.174-.39-1.2.242c-.015-.073-.026-.125-.041-.18a3.263,3.263,0,0,0-.1-.329.179.179,0,0,0-.009-.025c-.025-.065-.05-.128-.077-.19a3.407,3.407,0,0,0-.394-.694c-.047-.067-.079-.11-.114-.152a3.215,3.215,0,0,0-.29-.322l-.069-.067c-.084-.077-.113-.1-.146-.13a.476.476,0,0,1-.039-.031l-.187-.143c-.021-.014-.041-.028-.06-.043a1.9,1.9,0,0,0-.227-.147,1.452,1.452,0,0,0-.148-.081,3.128,3.128,0,0,0-.338-.16c-.08-.033-.155-.061-.227-.083-.1-.03-.18-.055-.266-.076l-.019,0c-.026,0-.053-.011-.075-.017-.06-.015-.122-.028-.185-.039l-.1-.017h0c-.014,0-.1-.01-.182-.015a.379.379,0,0,1-.111-.007,1.985,1.985,0,0,0-.217-.01H848.2l-58.757,36.257a1.943,1.943,0,0,0-.37.3l-.043.05a1.917,1.917,0,0,0,0,2.569C789.048,2421.421,789.063,2421.439,789.078,2421.458Zm61.776,36.57h0Zm.084-.051-.038.02Zm.571-.442,0,0Zm.1-.081c-.015.01-.03.021-.044.033C851.58,2457.475,851.595,2457.464,851.61,2457.454Zm.966-1.719c0,.011,0,.022-.005.033C852.572,2455.756,852.574,2455.745,852.576,2455.734Zm.075-.294h0Z" transform="translate(-786.094 -2379.782)" fill="#4d7393"/>
    </g>
    <path id="Path_118" data-name="Path 118" d="M731.165,2512.5v.738a5.124,5.124,0,0,1-4.928,5.3l-121.711,0a5.123,5.123,0,0,1-4.929-5.3v-.738l62.6-42.417a5.615,5.615,0,0,1,6.362,0Z" transform="translate(-93.104 -187.726)" fill="#3a7ec1" opacity="0.25" style="mix-blend-mode: multiply;isolation: isolate"/>
    <g id="Group_52" data-name="Group 52" transform="translate(505.272 2283.604)">
      <path id="Path_119" data-name="Path 119" d="M731.175,2519.566v.687a4.929,4.929,0,0,1-4.929,4.929l-121.711,0a4.929,4.929,0,0,1-4.929-4.929v-.686l62.6-39.46a5.965,5.965,0,0,1,6.362,0Z" transform="translate(-598.382 -2477.973)" fill="#fff"/>
      <path id="Path_120" data-name="Path 120" d="M602.176,2524.064a6.154,6.154,0,0,1-6.152-6.154v-.686a1.226,1.226,0,0,1,.572-1.036l62.6-39.46a7.222,7.222,0,0,1,7.668,0l62.606,39.456a1.224,1.224,0,0,1,.572,1.036v.686a6.161,6.161,0,0,1-6.153,6.154l-121.711,0Zm-3.7-6.164v.01a3.7,3.7,0,0,0,3.7,3.7h0l121.711,0a3.708,3.708,0,0,0,3.7-3.7v-.01l-62.034-39.1a4.763,4.763,0,0,0-5.055,0Z" transform="translate(-596.024 -2475.628)" fill="#4d7393"/>
    </g>
    <path id="Path_121" data-name="Path 121" d="M831.475,2461.784l-.5-.328a4.745,4.745,0,0,0-7.451-4.9l-.514-.337a2.407,2.407,0,0,0-3.277.707l-1.75,2.651a2.407,2.407,0,0,0,.709,3.28l.239.157-.421.641a2.969,2.969,0,0,0-3.862,1.016l-44.873,68.4a3.014,3.014,0,0,0-.02,3.225l.3,4.612a3.646,3.646,0,0,0,3.623,3.4,3.645,3.645,0,0,0,1.237-.218l4.311-1.549a3,3,0,0,0,.454.037,3.077,3.077,0,0,0,.637-.067,2.987,2.987,0,0,0,1.9-1.3L825.13,2475.8l1.934-2.957a2.984,2.984,0,0,0-.592-3.979l.415-.633.241.158h0a2.356,2.356,0,0,0,1.294.389,2.427,2.427,0,0,0,.509-.055,2.338,2.338,0,0,0,1.457-.973l1.727-2.637a2.394,2.394,0,0,0-.64-3.328Z" transform="translate(-204.793 -178.858)" fill="#3a7ec1" opacity="0.25" style="mix-blend-mode: multiply;isolation: isolate"/>
    <g id="Group_56" data-name="Group 56" transform="translate(563.646 2275.171)">
      <g id="Group_53" data-name="Group 53" transform="translate(0.352 77.731)">
        <path id="Path_122" data-name="Path 122" d="M775.027,2690.3l5.9-2.12-9.53-6.25.406,6.256A2.413,2.413,0,0,0,775.027,2690.3Z" transform="translate(-770.172 -2680.701)" fill="#52d1bd"/>
        <path id="Path_123" data-name="Path 123" d="M771.845,2689.306a3.645,3.645,0,0,1-3.623-3.4l-.407-6.255a1.225,1.225,0,0,1,1.894-1.1l9.53,6.25a1.225,1.225,0,0,1-.258,2.177l-5.9,2.119A3.651,3.651,0,0,1,771.845,2689.306Zm-1.425-7.368.247,3.8a1.187,1.187,0,0,0,1.586,1.042h0l3.589-1.289Z" transform="translate(-767.812 -2678.341)" fill="#4d7393"/>
      </g>
      <rect id="Rectangle_7" data-name="Rectangle 7" width="9.511" height="6.575" rx="3.255" transform="translate(51.363 4.762) rotate(33.258)" fill="#305975"/>
      <path id="Path_124" data-name="Path 124" d="M919.747,2460.827h0a4.769,4.769,0,0,1-1.369-6.584l.747-1.139a4.77,4.77,0,0,1,6.585-1.369h0a4.77,4.77,0,0,1,1.369,6.585l-.747,1.139A4.77,4.77,0,0,1,919.747,2460.827Z" transform="translate(-866.045 -2450.959)" fill="#305975"/>
      <path id="Path_125" data-name="Path 125" d="M778.557,2553.593l-7.4-4.858a1.8,1.8,0,0,1-.521-2.473l44.87-68.4a1.774,1.774,0,0,1,2.453-.513l7.416,4.85a1.785,1.785,0,0,1,.5,2.481l-1.94,2.966-39.479,60.184-3.432,5.241A1.8,1.8,0,0,1,778.557,2553.593Z" transform="translate(-769.131 -2468.137)" fill="#fff"/>
      <path id="Path_126" data-name="Path 126" d="M801.641,2562.068l-4.45-2.91a1.622,1.622,0,0,1-.459-2.269l37.67-57.457a1.651,1.651,0,0,1,2.288-.468l4.43,2.918Z" transform="translate(-786.31 -2482.375)" fill="#bacce5"/>
      <g id="Group_54" data-name="Group 54" transform="translate(28.772 16.84)">
        <path id="Rectangle_8" data-name="Rectangle 8" d="M2.169,0H28.1a2.169,2.169,0,0,1,2.169,2.169v0A2.168,2.168,0,0,1,28.1,4.337H2.169A2.169,2.169,0,0,1,0,2.169v0A2.169,2.169,0,0,1,2.169,0Z" transform="translate(0.702 26.019) rotate(-56.742)" fill="#52d1bd"/>
        <path id="Path_127" data-name="Path 127" d="M854.876,2529.321a2.544,2.544,0,0,1-1.4-.42l-1.368-.9a2.583,2.583,0,0,1-.737-3.572l15.116-23.048a2.575,2.575,0,0,1,3.565-.741l1.369.9a2.576,2.576,0,0,1,.741,3.565l-15.115,23.047a2.6,2.6,0,0,1-2.17,1.169Zm13.771-26.647a.137.137,0,0,0-.111.052l-15.116,23.047a.137.137,0,0,0,.031.181l1.369.9a.144.144,0,0,0,.179-.045l15.115-23.047h0a.126.126,0,0,0-.037-.172l-1.37-.9A.107.107,0,0,0,868.647,2502.674Z" transform="translate(-850.947 -2500.22)" fill="#4d7393"/>
      </g>
      <rect id="Rectangle_9" data-name="Rectangle 9" width="1.985" height="4.337" transform="translate(43.081 22.11) rotate(-56.743)" fill="#305975"/>
      <g id="Group_55" data-name="Group 55" transform="translate(48.323 0.235)">
        <path id="Path_128" data-name="Path 128" d="M920.673,2465.512l-8.434-5.531a1.178,1.178,0,0,1-.344-1.6l1.736-2.629a1.178,1.178,0,0,1,1.6-.344l8.442,5.55a1.1,1.1,0,0,1,.5,1.081,1.082,1.082,0,0,1-.179.511l-1.642,2.521-.073.1A1.158,1.158,0,0,1,920.673,2465.512Z" transform="translate(-910.493 -2454.002)" fill="#52d1bd"/>
        <path id="Path_129" data-name="Path 129" d="M918.941,2464.569a2.355,2.355,0,0,1-1.294-.388h0l-8.434-5.531a2.408,2.408,0,0,1-.709-3.28l1.75-2.651a2.408,2.408,0,0,1,3.277-.707l8.465,5.565a2.393,2.393,0,0,1,.64,3.328l-1.727,2.637a2.337,2.337,0,0,1-1.457.973A2.412,2.412,0,0,1,918.941,2464.569Zm-.041-2.431,0,0Zm-8.3-5.505,8.328,5.46.08-.111,1.565-2.408-8.309-5.463Zm10.061,3,0,0Zm-.053-.111,0,0Zm-10.049-2.826Zm1.644-2.625h0Z" transform="translate(-908.138 -2451.646)" fill="#4d7393"/>
      </g>
      <path id="Path_130" data-name="Path 130" d="M777.17,2552.744a2.979,2.979,0,0,1-1.631-.485l0,0-7.4-4.858a3.036,3.036,0,0,1-.875-4.165l44.873-68.4a3,3,0,0,1,4.145-.868l7.418,4.852a3.01,3.01,0,0,1,.85,4.186l-1.934,2.957-42.911,65.426a2.985,2.985,0,0,1-1.9,1.295A3.094,3.094,0,0,1,777.17,2552.744Zm-.292-2.536a.575.575,0,0,0,.775-.165l3.435-5.245,41.419-63.149a.567.567,0,0,0,.088-.435.538.538,0,0,0-.233-.348l-7.419-4.853a.56.56,0,0,0-.413-.077.541.541,0,0,0-.343.234l-44.873,68.4a.567.567,0,0,0,.178.782Z" transform="translate(-766.783 -2465.777)" fill="#4d7393"/>
    </g>
    <circle id="Ellipse_13" data-name="Ellipse 13" cx="6.563" cy="6.563" r="6.563" transform="translate(469.855 2196.553) rotate(-75.189)" fill="#52d1bd"/>
    <circle id="Ellipse_14" data-name="Ellipse 14" cx="6.563" cy="6.563" r="6.563" transform="translate(532.096 2386.684) rotate(-78.967)" fill="#52d1bd"/>
    <circle id="Ellipse_15" data-name="Ellipse 15" cx="5.185" cy="5.185" r="5.185" transform="translate(538.251 2200.819) rotate(-45)" fill="#bacce5"/>
    <circle id="Ellipse_16" data-name="Ellipse 16" cx="4.641" cy="4.641" r="4.641" transform="translate(654.724 2301.45)" fill="#bacce5"/>
    <circle id="Ellipse_17" data-name="Ellipse 17" cx="3.282" cy="3.282" r="3.282" transform="translate(462.93 2230.341) rotate(-75.093)" fill="#bacce5"/>
  </g>
</svg>
