<svg id="Group_621" data-name="Group 621" xmlns="http://www.w3.org/2000/svg" xmlns:xlink="http://www.w3.org/1999/xlink" width="537.543" height="569" viewBox="0 0 537.543 569">
  <defs>
    <clipPath id="clip-path">
      <rect id="Rectangle_71" data-name="Rectangle 71" width="537.543" height="569" fill="none"/>
    </clipPath>
    <clipPath id="clip-path-3">
      <rect id="Rectangle_66" data-name="Rectangle 66" width="400.831" height="346.766" fill="none"/>
    </clipPath>
    <clipPath id="clip-path-4">
      <rect id="Rectangle_67" data-name="Rectangle 67" width="370.539" height="321.971" fill="none"/>
    </clipPath>
    <clipPath id="clip-path-5">
      <rect id="Rectangle_68" data-name="Rectangle 68" width="151.098" height="186.14" fill="none"/>
    </clipPath>
    <clipPath id="clip-path-6">
      <rect id="Rectangle_69" data-name="Rectangle 69" width="140.738" height="140.738" fill="none"/>
    </clipPath>
  </defs>
  <g id="Group_325" data-name="Group 325" clip-path="url(#clip-path)">
    <g id="Group_324" data-name="Group 324">
      <g id="Group_323" data-name="Group 323" clip-path="url(#clip-path)">
        <path id="Path_1052" data-name="Path 1052" d="M548.334,334.577c0,125.187-101.485,226.672-226.672,226.672S94.99,459.764,94.99,334.577,196.474,107.9,321.662,107.9,548.334,209.389,548.334,334.577" transform="translate(-10.791 -12.259)" fill="#a8fff1" opacity="0.31"/>
        <g id="Group_313" data-name="Group 313" transform="translate(51.884 170.797)" opacity="0.25" style="mix-blend-mode: multiply;isolation: isolate">
          <g id="Group_312" data-name="Group 312">
            <g id="Group_311" data-name="Group 311" clip-path="url(#clip-path-3)">
              <path id="Path_1053" data-name="Path 1053" d="M459.316,461.025,441.638,228.934a16.8,16.8,0,0,0-19.973-15.21l-14.629,2.861-2.749-14.051a12.524,12.524,0,0,0-14.876-9.6L188.254,232.279a12.813,12.813,0,0,1-11.786-3.65l-20.792-21.757a12.9,12.9,0,0,0-11.786-3.65l-69.078,13.51a12.555,12.555,0,0,0-10.2,14.5l17.612,90.046-10.115,1.978a16.8,16.8,0,0,0-12.771,21.615L118,527.783a16.8,16.8,0,0,0,19.22,11.356l308.576-60.353a16.8,16.8,0,0,0,13.525-17.761" transform="translate(-58.533 -192.688)" fill="#3a7ec1"/>
            </g>
          </g>
        </g>
        <path id="Path_1054" data-name="Path 1054" d="M413.591,190.847,463.375,445.39a12.5,12.5,0,0,1-10.17,14.461l-307.49,60.14a12.526,12.526,0,0,1-14.9-9.558L73.92,219.547a12.556,12.556,0,0,1,10.2-14.5l69.077-13.51a12.9,12.9,0,0,1,11.786,3.651l20.791,21.756a12.818,12.818,0,0,0,11.785,3.651l201.158-39.344a12.525,12.525,0,0,1,14.875,9.6" transform="translate(-8.373 -20.563)" fill="#dbe2ef"/>
        <path id="Path_1055" data-name="Path 1055" d="M142.776,522.8a15.353,15.353,0,0,1-15.223-12.182L70.66,219.735a14.862,14.862,0,0,1,2.5-11.49,15.9,15.9,0,0,1,10.02-6.458l69.076-13.51a15.885,15.885,0,0,1,14.478,4.508l20.788,21.749a9.941,9.941,0,0,0,9.1,2.8l201.159-39.344a15.876,15.876,0,0,1,11.7,2.215,14.87,14.87,0,0,1,6.618,9.7l49.786,254.544a15.462,15.462,0,0,1-12.488,17.91L145.9,522.5a16.223,16.223,0,0,1-3.128.3m12.559-328.95a10.186,10.186,0,0,0-1.954.188l-69.077,13.51a10.058,10.058,0,0,0-6.343,4.072,9.04,9.04,0,0,0-1.537,6.983l56.893,290.886c.986,5.035,6.139,8.278,11.457,7.24l307.489-60.139a9.587,9.587,0,0,0,7.853-11.015L410.331,191.034a9.047,9.047,0,0,0-4.04-5.895,10.008,10.008,0,0,0-7.387-1.385L197.744,223.1a15.873,15.873,0,0,1-14.485-4.518l-20.78-21.742a9.881,9.881,0,0,0-7.143-2.985" transform="translate(-7.996 -20.186)" fill="#4d7393"/>
        <path id="Path_1056" data-name="Path 1056" d="M392.462,451.749,107.937,390.785a8.238,8.238,0,0,1-6.33-9.781l53.46-249.5a8.24,8.24,0,0,1,9.781-6.331l284.524,60.965a8.237,8.237,0,0,1,6.329,9.781l-53.459,249.5a8.239,8.239,0,0,1-9.781,6.33" transform="translate(-11.522 -14.199)" fill="#52d1bd"/>
        <path id="Path_1057" data-name="Path 1057" d="M393.8,454.584a11.278,11.278,0,0,1-2.367-.251L106.909,393.37a11.3,11.3,0,0,1-8.665-13.393l53.46-249.5A11.282,11.282,0,0,1,165.1,121.81l284.524,60.963a11.294,11.294,0,0,1,8.665,13.393l-53.461,249.5a11.3,11.3,0,0,1-11.024,8.917m-1.091-6.2a5.2,5.2,0,0,0,6.169-3.993l53.459-249.5a5.2,5.2,0,0,0-3.993-6.171L163.822,127.756a5.2,5.2,0,0,0-6.171,3.993l-53.459,249.5a5.2,5.2,0,0,0,3.993,6.171Z" transform="translate(-11.133 -13.81)" fill="#4d7393"/>
        <path id="Path_1058" data-name="Path 1058" d="M418.977,441.3H127.994a8.238,8.238,0,0,1-8.238-8.238V177.892a8.237,8.237,0,0,1,8.238-8.237H418.977a8.237,8.237,0,0,1,8.238,8.237V433.057a8.238,8.238,0,0,1-8.238,8.238" transform="translate(-13.605 -19.274)" fill="#fff"/>
        <path id="Path_1059" data-name="Path 1059" d="M418.6,443.857H127.617a11.188,11.188,0,0,1-11.176-11.176V177.516a11.187,11.187,0,0,1,11.176-11.176H418.6a11.187,11.187,0,0,1,11.176,11.176V432.682A11.188,11.188,0,0,1,418.6,443.857M127.617,172.216a5.306,5.306,0,0,0-5.3,5.3V432.682a5.306,5.306,0,0,0,5.3,5.3H418.6a5.306,5.306,0,0,0,5.3-5.3V177.516a5.306,5.306,0,0,0-5.3-5.3Z" transform="translate(-13.228 -18.897)" fill="#4d7393"/>
        <path id="Path_1060" data-name="Path 1060" d="M159.887,367.1h0a7.794,7.794,0,0,1-7.771-7.771V216.067a7.771,7.771,0,1,1,15.542,0V359.33a7.794,7.794,0,0,1-7.771,7.771" transform="translate(-17.281 -23.664)" fill="#52d1bd"/>
        <path id="Path_1061" data-name="Path 1061" d="M207.345,367.1h0a7.794,7.794,0,0,1-7.771-7.771V216.067a7.771,7.771,0,1,1,15.542,0V359.33a7.794,7.794,0,0,1-7.771,7.771" transform="translate(-22.673 -23.664)" fill="#e4ecf9"/>
        <path id="Path_1062" data-name="Path 1062" d="M254.8,367.1h0a7.794,7.794,0,0,1-7.771-7.771V216.067a7.771,7.771,0,1,1,15.542,0V359.33A7.794,7.794,0,0,1,254.8,367.1" transform="translate(-28.064 -23.664)" fill="#e4ecf9"/>
        <path id="Path_1063" data-name="Path 1063" d="M302.261,367.1h0a7.794,7.794,0,0,1-7.771-7.771V216.067a7.771,7.771,0,1,1,15.542,0V359.33a7.794,7.794,0,0,1-7.771,7.771" transform="translate(-33.456 -23.664)" fill="#e4ecf9"/>
        <path id="Path_1064" data-name="Path 1064" d="M349.718,367.1h0a7.794,7.794,0,0,1-7.771-7.771V216.067a7.771,7.771,0,1,1,15.542,0V359.33a7.794,7.794,0,0,1-7.771,7.771" transform="translate(-38.847 -23.664)" fill="#e4ecf9"/>
        <path id="Path_1065" data-name="Path 1065" d="M397.176,367.1h0a7.794,7.794,0,0,1-7.771-7.771V216.067a7.771,7.771,0,1,1,15.542,0V359.33a7.794,7.794,0,0,1-7.771,7.771" transform="translate(-44.239 -23.664)" fill="#e4ecf9"/>
        <g id="Group_316" data-name="Group 316" transform="translate(81.863 177.709)" opacity="0.25" style="mix-blend-mode: multiply;isolation: isolate">
          <g id="Group_315" data-name="Group 315">
            <g id="Group_314" data-name="Group 314" clip-path="url(#clip-path-4)">
              <path id="Path_1066" data-name="Path 1066" d="M417.162,200.485l44.161,225.792,1.52,19.954a16.718,16.718,0,0,1-8.97,16.119L147.835,522.206a12.526,12.526,0,0,1-14.9-9.559L92.355,305.18l53.824-10.527a16.812,16.812,0,0,0,13.2-12.918l4.649-21.371A16.743,16.743,0,0,1,177.2,247.418Z" transform="translate(-92.355 -200.485)" fill="#3a7ec1"/>
            </g>
          </g>
        </g>
        <path id="Path_1067" data-name="Path 1067" d="M450.191,219.9l17.678,232.092a16.8,16.8,0,0,1-13.526,17.761L145.768,530.107a16.8,16.8,0,0,1-19.22-11.356L67.9,335.841a16.8,16.8,0,0,1,12.771-21.615l70.565-13.8A16.8,16.8,0,0,0,164.424,287.5l4.636-21.382a16.8,16.8,0,0,1,13.191-12.926l247.967-48.5a16.8,16.8,0,0,1,19.973,15.21" transform="translate(-7.621 -23.218)" fill="#fff"/>
        <path id="Path_1068" data-name="Path 1068" d="M142.157,532.984a19.747,19.747,0,0,1-18.782-13.712L64.721,336.363a19.735,19.735,0,0,1,15-25.394l70.566-13.8A13.846,13.846,0,0,0,161.176,286.5l4.637-21.383a19.722,19.722,0,0,1,15.5-15.187l247.967-48.5A19.734,19.734,0,0,1,452.744,219.3l17.677,232.091a19.741,19.741,0,0,1-15.889,20.867L145.956,532.615a19.766,19.766,0,0,1-3.8.37M433.063,206.943a13.876,13.876,0,0,0-2.656.257L182.439,255.7a13.853,13.853,0,0,0-10.885,10.665l-4.636,21.383a19.71,19.71,0,0,1-15.5,15.187l-70.566,13.8A13.861,13.861,0,0,0,70.316,334.57L128.97,517.479a13.879,13.879,0,0,0,15.858,9.371L453.4,466.5a13.869,13.869,0,0,0,11.162-14.656L446.888,219.751a13.863,13.863,0,0,0-13.825-12.808" transform="translate(-7.246 -22.843)" fill="#4d7393"/>
        <path id="Path_1069" data-name="Path 1069" d="M419.467,60.429a18.246,18.246,0,1,1-18.246-18.246,18.246,18.246,0,0,1,18.246,18.246" transform="translate(-43.509 -4.792)" fill="#a8fff1"/>
        <path id="Path_1070" data-name="Path 1070" d="M567.451,462.23A11.049,11.049,0,1,1,556.4,451.181a11.049,11.049,0,0,1,11.049,11.049" transform="translate(-61.956 -51.257)" fill="#a8fff1"/>
        <path id="Path_1071" data-name="Path 1071" d="M256.665,628.046A11.049,11.049,0,1,1,245.616,617a11.049,11.049,0,0,1,11.049,11.049" transform="translate(-26.648 -70.095)" fill="#a8fff1"/>
        <path id="Path_1072" data-name="Path 1072" d="M232.159,10.417A10.417,10.417,0,1,1,221.742,0a10.417,10.417,0,0,1,10.417,10.417" transform="translate(-24.008)" fill="#52d1bd"/>
        <path id="Path_1073" data-name="Path 1073" d="M36.491,301.5a18.246,18.246,0,1,1-18.246-18.246A18.246,18.246,0,0,1,36.491,301.5" transform="translate(0 -32.18)" fill="#52d1bd"/>
        <g id="Group_319" data-name="Group 319" transform="translate(369.069 203.109)" opacity="0.25" style="mix-blend-mode: multiply;isolation: isolate">
          <g id="Group_318" data-name="Group 318">
            <g id="Group_317" data-name="Group 317" clip-path="url(#clip-path-5)">
              <path id="Path_1074" data-name="Path 1074" d="M453.686,412.569a70.657,70.657,0,0,1-13.937-5.8,2.726,2.726,0,1,1,2.618-4.783,65.063,65.063,0,0,0,12.859,5.358,2.726,2.726,0,0,1-1.255,5.3c-.1-.018-.19-.041-.286-.068m12.341-.27a2.73,2.73,0,0,1,2.878-2.566,54.512,54.512,0,0,0,13.78-.92,2.726,2.726,0,0,1,1.066,5.347,59.959,59.959,0,0,1-15.158,1.018,2.8,2.8,0,0,1-.337-.042,2.726,2.726,0,0,1-2.229-2.837m-38.68-14.117a76.723,76.723,0,0,1-10.4-10.882,2.727,2.727,0,0,1,4.292-3.364,71.219,71.219,0,0,0,9.656,10.108,2.727,2.727,0,0,1-3.552,4.138m67.127,9.772a2.727,2.727,0,0,1,1.131-3.687,42.2,42.2,0,0,0,10.842-8.212,2.726,2.726,0,1,1,3.946,3.762,47.61,47.61,0,0,1-12.234,9.267,2.727,2.727,0,0,1-3.686-1.13m21.044-19.436a2.726,2.726,0,0,1-1.189-3.668,56.6,56.6,0,0,0,4.7-13.013,2.7,2.7,0,0,1,3.268-2.043,2.726,2.726,0,0,1,2.1,2.379,2.73,2.73,0,0,1,1.812-2.443,65.23,65.23,0,0,0,12.571-6.011,2.725,2.725,0,1,1,2.875,4.63,70.526,70.526,0,0,1-13.62,6.519,2.732,2.732,0,0,1-3.482-1.657,2.771,2.771,0,0,1-.144-.638,2.753,2.753,0,0,1-.068.488,61.955,61.955,0,0,1-5.153,14.266,2.727,2.727,0,0,1-2.915,1.443,2.8,2.8,0,0,1-.753-.254M495.8,375.649a2.726,2.726,0,0,1,3.017-2.4,56.3,56.3,0,0,0,13.834-.226,2.727,2.727,0,0,1,.726,5.405,61.864,61.864,0,0,1-15.177.238c-.061-.007-.122-.016-.182-.027a2.727,2.727,0,0,1-2.218-2.99m-12.438-1.317a29.348,29.348,0,0,1-7.675-5.72,30.519,30.519,0,0,1-3.865-5.069,2.725,2.725,0,1,1,4.645-2.852,25.1,25.1,0,0,0,3.17,4.162,23.909,23.909,0,0,0,6.26,4.653,2.725,2.725,0,1,1-2.533,4.826m-16.728-25.469a34.125,34.125,0,0,1,.195-10.677,29.761,29.761,0,0,1,1.357-4.96,2.726,2.726,0,1,1,5.112,1.9,24.1,24.1,0,0,0-1.105,4.045,28.621,28.621,0,0,0-.153,8.969,2.727,2.727,0,0,1-5.405.726m53.953,9.172a55.408,55.408,0,0,0-1.22-11.657c-.139-.639-.3-1.358-.477-2.144a2.726,2.726,0,0,1,5.317-1.212c.182.8.343,1.537.487,2.2a60.727,60.727,0,0,1,1.345,12.808,2.726,2.726,0,1,1-5.451.009m29.03.862a2.73,2.73,0,0,1-.116-3.855q1.007-1.066,1.939-2.2a43.832,43.832,0,0,0,5.773-9.05,2.726,2.726,0,0,1,4.92,2.35,49.225,49.225,0,0,1-6.49,10.171c-.692.841-1.42,1.663-2.172,2.463a2.73,2.73,0,0,1-3.855.117m-35.339-27.619a22.428,22.428,0,0,0-8.8-9.281,2.726,2.726,0,0,1,2.593-4.8,27.74,27.74,0,0,1,10.984,11.458,2.725,2.725,0,1,1-4.78,2.618m-37.069-6.9a2.728,2.728,0,0,1,.543-3.818,31.425,31.425,0,0,1,14.56-6.029,2.726,2.726,0,1,1,.737,5.4,26.3,26.3,0,0,0-12.023,4.987,2.728,2.728,0,0,1-3.818-.543m84.043,6.306a62.453,62.453,0,0,0,.629-13.885,2.726,2.726,0,1,1,5.442-.332,68.013,68.013,0,0,1-.689,15.1,2.728,2.728,0,0,1-3.132,2.251l-.051-.009a2.728,2.728,0,0,1-2.2-3.122m-1.49-27.775a99.625,99.625,0,0,0-4.286-13.478,2.725,2.725,0,1,1,5.067-2.01,104.632,104.632,0,0,1,4.522,14.221,2.723,2.723,0,0,1-2.017,3.284,2.694,2.694,0,0,1-1.12.032,2.729,2.729,0,0,1-2.165-2.049m-10.389-26.261a94.419,94.419,0,0,0-7.52-11.42l-.262-.336a2.726,2.726,0,1,1,4.272-3.387l.3.383a100.009,100.009,0,0,1,7.964,12.089,2.726,2.726,0,1,1-4.753,2.672M532.01,254.593a86.158,86.158,0,0,0-11.184-8.552,2.727,2.727,0,0,1,2.953-4.585,91.8,91.8,0,0,1,11.889,9.1,2.726,2.726,0,1,1-3.658,4.042m-23.6-15.263a99.968,99.968,0,0,0-13.292-4.843,2.726,2.726,0,0,1,1.5-5.241,105.556,105.556,0,0,1,14.021,5.109,2.726,2.726,0,0,1-1.6,5.17,2.8,2.8,0,0,1-.627-.2" transform="translate(-416.371 -229.141)" fill="#3a7ec1"/>
            </g>
          </g>
        </g>
        <path id="Path_1075" data-name="Path 1075" d="M456.347,408.185a70.649,70.649,0,0,1-13.937-5.8,2.726,2.726,0,0,1,2.618-4.783,65.08,65.08,0,0,0,12.859,5.358,2.726,2.726,0,0,1-1.255,5.3c-.1-.018-.19-.041-.285-.068m12.341-.27a2.729,2.729,0,0,1,2.878-2.566,54.519,54.519,0,0,0,13.78-.92,2.726,2.726,0,1,1,1.065,5.347,59.905,59.905,0,0,1-15.157,1.019,2.819,2.819,0,0,1-.337-.042,2.726,2.726,0,0,1-2.229-2.837M430.009,393.8a76.71,76.71,0,0,1-10.4-10.882,2.726,2.726,0,1,1,4.291-3.363,71.212,71.212,0,0,0,9.657,10.107,2.727,2.727,0,0,1-3.552,4.139m67.127,9.772a2.727,2.727,0,0,1,1.131-3.686,42.156,42.156,0,0,0,10.842-8.212,2.726,2.726,0,0,1,3.946,3.762,47.61,47.61,0,0,1-12.234,9.267,2.727,2.727,0,0,1-3.686-1.13m21.044-19.436a2.726,2.726,0,0,1-1.189-3.668,56.61,56.61,0,0,0,4.7-13.013,2.7,2.7,0,0,1,3.268-2.043,2.726,2.726,0,0,1,2.1,2.379,2.729,2.729,0,0,1,1.812-2.443,65.232,65.232,0,0,0,12.571-6.012,2.726,2.726,0,1,1,2.875,4.631,70.537,70.537,0,0,1-13.62,6.519,2.732,2.732,0,0,1-3.482-1.657,2.781,2.781,0,0,1-.144-.638,2.667,2.667,0,0,1-.068.488,61.968,61.968,0,0,1-5.153,14.267,2.727,2.727,0,0,1-2.915,1.442,2.8,2.8,0,0,1-.753-.253m-19.716-12.869a2.726,2.726,0,0,1,3.017-2.4,56.264,56.264,0,0,0,13.834-.226,2.727,2.727,0,0,1,.726,5.405,61.875,61.875,0,0,1-15.177.238c-.061-.007-.122-.016-.182-.028a2.727,2.727,0,0,1-2.218-2.99m-12.438-1.317a29.345,29.345,0,0,1-7.675-5.719,30.557,30.557,0,0,1-3.866-5.07,2.725,2.725,0,1,1,4.645-2.852,25.1,25.1,0,0,0,3.17,4.162,23.91,23.91,0,0,0,6.26,4.653,2.725,2.725,0,1,1-2.533,4.826M469.3,344.479a34.133,34.133,0,0,1,.2-10.677,29.775,29.775,0,0,1,1.357-4.96,2.726,2.726,0,0,1,5.112,1.9,24.079,24.079,0,0,0-1.105,4.045,28.645,28.645,0,0,0-.154,8.969,2.726,2.726,0,0,1-5.4.725m53.953,9.172a55.351,55.351,0,0,0-1.22-11.657c-.139-.639-.3-1.358-.477-2.143a2.727,2.727,0,1,1,5.317-1.213c.182.8.343,1.538.487,2.2a60.644,60.644,0,0,1,1.344,12.808,2.726,2.726,0,1,1-5.451.009m29.031.862a2.729,2.729,0,0,1-.117-3.855q1.007-1.066,1.939-2.2a43.833,43.833,0,0,0,5.773-9.05,2.726,2.726,0,1,1,4.92,2.35,49.219,49.219,0,0,1-6.49,10.171c-.692.841-1.42,1.663-2.172,2.464a2.729,2.729,0,0,1-3.854.116m-35.34-27.619a22.427,22.427,0,0,0-8.8-9.281,2.726,2.726,0,1,1,2.593-4.8,27.741,27.741,0,0,1,10.984,11.458,2.725,2.725,0,1,1-4.78,2.618M479.875,320a2.728,2.728,0,0,1,.542-3.818,31.427,31.427,0,0,1,14.56-6.029,2.726,2.726,0,1,1,.737,5.4,26.311,26.311,0,0,0-12.023,4.987,2.725,2.725,0,0,1-3.817-.543m84.043,6.306a62.461,62.461,0,0,0,.629-13.885,2.726,2.726,0,1,1,5.442-.332,68,68,0,0,1-.689,15.1,2.728,2.728,0,0,1-3.132,2.25l-.051-.009a2.728,2.728,0,0,1-2.2-3.122m-1.49-27.775a99.477,99.477,0,0,0-4.288-13.477,2.726,2.726,0,0,1,5.068-2.011,104.67,104.67,0,0,1,4.522,14.221,2.723,2.723,0,0,1-2.017,3.284,2.7,2.7,0,0,1-1.12.032,2.729,2.729,0,0,1-2.164-2.049m-10.39-26.261a94.32,94.32,0,0,0-7.519-11.42l-.262-.336a2.726,2.726,0,1,1,4.271-3.387l.3.383a100.009,100.009,0,0,1,7.963,12.089,2.727,2.727,0,0,1-4.754,2.672M534.671,250.21a86.116,86.116,0,0,0-11.184-8.553,2.727,2.727,0,0,1,2.953-4.585,91.82,91.82,0,0,1,11.889,9.1,2.726,2.726,0,1,1-3.658,4.043m-23.6-15.264a99.962,99.962,0,0,0-13.292-4.843,2.726,2.726,0,0,1,1.5-5.241,105.659,105.659,0,0,1,14.021,5.109,2.726,2.726,0,0,1-1.6,5.17,2.792,2.792,0,0,1-.627-.2" transform="translate(-47.605 -25.534)" fill="#4d7393"/>
        <g id="Group_322" data-name="Group 322" transform="translate(353.708 110.789)" opacity="0.25" style="mix-blend-mode: multiply;isolation: isolate">
          <g id="Group_321" data-name="Group 321">
            <g id="Group_320" data-name="Group 320" clip-path="url(#clip-path-6)">
              <path id="Path_1076" data-name="Path 1076" d="M539.065,185.413a70.36,70.36,0,1,0-59.709,79.6,70.359,70.359,0,0,0,59.709-79.6" transform="translate(-399.042 -124.988)" fill="#3a7ec1"/>
            </g>
          </g>
        </g>
        <path id="Path_1077" data-name="Path 1077" d="M551.479,168.33a70.36,70.36,0,1,1-79.6-59.71,70.361,70.361,0,0,1,79.6,59.71" transform="translate(-46.744 -12.259)" fill="#fff"/>
        <path id="Path_1078" data-name="Path 1078" d="M481.28,251.3a73.591,73.591,0,1,1,10.529-.75,74.709,74.709,0,0,1-10.529.75m.3-140.746a68.273,68.273,0,0,0-9.655.689,67.052,67.052,0,1,0,9.655-.689" transform="translate(-46.354 -11.87)" fill="#4d7393"/>
        <path id="Path_1079" data-name="Path 1079" d="M491.863,138.354a22.24,22.24,0,0,0-12.4,28.868l12.643,31.666,6.919-2.763L486.388,164.46a14.765,14.765,0,0,1,27.424-10.95l1.61,4.034,6.92-2.763-1.611-4.034a22.24,22.24,0,0,0-28.869-12.394" transform="translate(-54.291 -15.538)" fill="#52d1bd"/>
        <path id="Path_1080" data-name="Path 1080" d="M449.626,199.131a32.274,32.274,0,1,0,56-22.369,4.517,4.517,0,0,0-4.995-1.163l-48.183,19.237a4.524,4.524,0,0,0-2.819,4.3" transform="translate(-51.08 -19.913)" fill="#52d1bd"/>
        <path id="Path_1081" data-name="Path 1081" d="M491.855,200.647a6.219,6.219,0,1,0-6.29,8.5l2.425,6.075a2.773,2.773,0,1,0,5.152-2.056l-2.425-6.075a6.216,6.216,0,0,0,1.138-6.442" transform="translate(-54.515 -22.35)" fill="#fff"/>
      </g>
    </g>
  </g>
</svg>
