<svg xmlns="http://www.w3.org/2000/svg" width="44" height="44" viewBox="0 0 44 44">
  <g id="vuesax_outline_shield-tick" data-name="vuesax/outline/shield-tick" transform="translate(-300 -188)">
    <g id="shield-tick" transform="translate(300 188)">
      <path id="Vector" d="M17.142,39.431a9.332,9.332,0,0,1-5.537-1.742L3.722,31.8A10.273,10.273,0,0,1,0,24.4V10.757a7.716,7.716,0,0,1,4.73-6.82L13.878.509a10.6,10.6,0,0,1,6.49,0l9.148,3.428a7.716,7.716,0,0,1,4.73,6.82V24.379a10.24,10.24,0,0,1-3.722,7.407l-7.883,5.885A9.038,9.038,0,0,1,17.142,39.431ZM14.85,3.094,5.7,6.522a5.023,5.023,0,0,0-2.933,4.253V24.4a7.58,7.58,0,0,0,2.6,5.207l7.883,5.885a7.009,7.009,0,0,0,7.792,0L28.93,29.6a7.543,7.543,0,0,0,2.6-5.207V10.757A5.071,5.071,0,0,0,28.6,6.5L19.452,3.075A8.025,8.025,0,0,0,14.85,3.094Z" transform="translate(4.858 2.296)" fill="#a8fff1"/>
      <path id="Vector-2" data-name="Vector" d="M4.322,10.629a1.36,1.36,0,0,1-.972-.4L.4,7.274A1.374,1.374,0,0,1,2.342,5.33l1.98,1.98L11.234.4a1.374,1.374,0,0,1,1.943,1.943L5.294,10.225A1.36,1.36,0,0,1,4.322,10.629Z" transform="translate(15.221 15.46)" fill="#a8fff1"/>
      <path id="Vector-3" data-name="Vector" d="M0,0H44V44H0Z" fill="none" opacity="0"/>
    </g>
  </g>
</svg>
