<svg id="vuesax_outline_folder-open" data-name="vuesax/outline/folder-open" xmlns="http://www.w3.org/2000/svg" width="25.208" height="25.208" viewBox="0 0 25.208 25.208">
  <g id="folder-open" transform="translate(0 0)">
    <path id="Vector" d="M17.569,13.129H4.355c-3.571,0-3.76-1.964-3.918-3.55L.017,4.317A3.983,3.983,0,0,1,.868,1.46,3.928,3.928,0,0,1,3.935,0H17.989A3.924,3.924,0,0,1,21,1.407l.179.242a3.873,3.873,0,0,1,.725,2.678l-.42,5.241C21.329,11.165,21.14,13.129,17.569,13.129ZM3.935,1.576a2.338,2.338,0,0,0-1.817.861l-.074.074a2.36,2.36,0,0,0-.452,1.67l.42,5.262c.147,1.534.21,2.111,2.342,2.111H17.569c2.143,0,2.2-.578,2.342-2.122l.42-5.262a2.29,2.29,0,0,0-.525-1.723L19.7,2.321a2.339,2.339,0,0,0-1.723-.746Z" transform="translate(1.642 10.766)" fill="#444"/>
    <path id="Vector-2" data-name="Vector" d="M18.644,11.491a.794.794,0,0,1-.788-.788V8.823c0-3.13-.546-3.676-3.676-3.676H11.5A2.154,2.154,0,0,1,9.453,4.128L8.1,2.332a1.39,1.39,0,0,0-1.513-.756H5.252c-3.13,0-3.676.546-3.676,3.676v5.409a.794.794,0,0,1-.788.788A.794.794,0,0,1,0,10.661V5.252C0,1.229,1.229,0,5.252,0H6.6A2.86,2.86,0,0,1,9.369,1.386l1.344,1.786c.284.378.3.4.8.4H14.19c4.023,0,5.252,1.229,5.252,5.252V10.7A.81.81,0,0,1,18.644,11.491Z" transform="translate(2.888 1.344)" fill="#444"/>
    <path id="Vector-3" data-name="Vector" d="M6.187,1.576H.788A.794.794,0,0,1,0,.788.794.794,0,0,1,.788,0h5.4a.788.788,0,1,1,0,1.576Z" transform="translate(9.117 17.068)" fill="#444"/>
    <path id="Vector-4" data-name="Vector" d="M0,0H25.208V25.208H0Z" fill="none" opacity="0"/>
  </g>
</svg>
