<svg id="vuesax_outline_user-octagon" data-name="vuesax/outline/user-octagon" xmlns="http://www.w3.org/2000/svg" width="29.555" height="29.555" viewBox="0 0 29.555 29.555">
  <g id="user-octagon" transform="translate(0 0)">
    <path id="Vector" d="M12.117,26.482a4.775,4.775,0,0,1-2.4-.64L2.4,21.618A4.835,4.835,0,0,1,0,17.456V9.033A4.835,4.835,0,0,1,2.4,4.87L9.716.647a4.783,4.783,0,0,1,4.8,0L21.834,4.87a4.835,4.835,0,0,1,2.4,4.162v8.423a4.835,4.835,0,0,1-2.4,4.162l-7.315,4.224A4.775,4.775,0,0,1,12.117,26.482Zm0-24.629a3.018,3.018,0,0,0-1.478.394L3.325,6.471A2.963,2.963,0,0,0,1.847,9.033v8.423a2.978,2.978,0,0,0,1.478,2.561l7.315,4.224a2.948,2.948,0,0,0,2.955,0l7.315-4.224a2.963,2.963,0,0,0,1.478-2.561V9.033A2.978,2.978,0,0,0,20.91,6.471L13.6,2.247A3.018,3.018,0,0,0,12.117,1.853Z" transform="translate(2.66 1.533)" fill="#292d32"/>
    <path id="Vector-2" data-name="Vector" d="M3.793,7.586A3.793,3.793,0,1,1,7.586,3.793,3.795,3.795,0,0,1,3.793,7.586Zm0-5.739A1.946,1.946,0,1,0,5.739,3.793,1.95,1.95,0,0,0,3.793,1.847Z" transform="translate(10.984 6.884)" fill="#292d32"/>
    <path id="Vector-3" data-name="Vector" d="M10.775,5.862a.93.93,0,0,1-.924-.924c0-1.7-1.8-3.091-4-3.091s-4,1.391-4,3.091a.93.93,0,0,1-.924.924A.93.93,0,0,1,0,4.938C0,2.217,2.623,0,5.849,0S11.7,2.217,11.7,4.938A.93.93,0,0,1,10.775,5.862Z" transform="translate(8.928 15.578)" fill="#292d32"/>
    <path id="Vector-4" data-name="Vector" d="M0,0H29.555V29.555H0Z" fill="none" opacity="0"/>
  </g>
</svg>
