<svg id="vuesax_outline_people" data-name="vuesax/outline/people" xmlns="http://www.w3.org/2000/svg" width="29.555" height="29.555" viewBox="0 0 29.555 29.555">
  <g id="people" transform="translate(0 0)">
    <path id="Vector" d="M4.224,8.189h-.16a3.794,3.794,0,1,1,.172.012C4.236,8.189,4.236,8.189,4.224,8.189ZM4.1,1.835a2.254,2.254,0,0,0-.086,4.507.6.6,0,0,1,.222,0A2.255,2.255,0,0,0,4.1,1.835Z" transform="translate(17.942 1.552)" fill="#292d32"/>
    <path id="Vector-2" data-name="Vector" d="M2.243,8.037A8.131,8.131,0,0,1,.8,7.914a.925.925,0,1,1,.32-1.823,6,6,0,0,0,4.187-.739A1.689,1.689,0,0,0,6.2,4.01a1.7,1.7,0,0,0-.887-1.33,6.025,6.025,0,0,0-4.224-.727A.915.915,0,0,1,.014,1.2.924.924,0,0,1,.765.131a7.793,7.793,0,0,1,5.566,1.01A3.507,3.507,0,0,1,8.043,4.01,3.531,3.531,0,0,1,6.331,6.892,7.494,7.494,0,0,1,2.243,8.037Z" transform="translate(19.936 10.779)" fill="#292d32"/>
    <path id="Vector-3" data-name="Vector" d="M3.99,8.2H3.965a4.095,4.095,0,1,1,.283,0L3.99,7.278l.086.924Zm.123-1.847a1.2,1.2,0,0,1,.209.012,2.291,2.291,0,1,0-.32,0A.243.243,0,0,1,4.113,6.354Z" transform="translate(3.362 1.539)" fill="#292d32"/>
    <path id="Vector-4" data-name="Vector" d="M5.8,8.037A7.494,7.494,0,0,1,1.712,6.892,3.527,3.527,0,0,1,0,4.01,3.524,3.524,0,0,1,1.712,1.141,7.793,7.793,0,0,1,7.278.131.924.924,0,0,1,8.029,1.2a.915.915,0,0,1-1.071.751,6.037,6.037,0,0,0-4.224.727,1.671,1.671,0,0,0-.887,1.33,1.719,1.719,0,0,0,.887,1.342,6,6,0,0,0,4.187.739.925.925,0,1,1,.32,1.823A8.131,8.131,0,0,1,5.8,8.037Z" transform="translate(1.539 10.779)" fill="#292d32"/>
    <path id="Vector-5" data-name="Vector" d="M4.224,8.189h-.16a3.794,3.794,0,1,1,.172.012C4.236,8.189,4.236,8.189,4.224,8.189ZM4.1,1.835a2.254,2.254,0,0,0-.086,4.507.6.6,0,0,1,.222,0A2.255,2.255,0,0,0,4.1,1.835Z" transform="translate(10.553 10.751)" fill="#292d32"/>
    <path id="Vector-6" data-name="Vector" d="M5.812,8.054A7.385,7.385,0,0,1,1.712,6.9,3.507,3.507,0,0,1,0,4.027,3.514,3.514,0,0,1,1.712,1.145a7.914,7.914,0,0,1,8.2,0,3.507,3.507,0,0,1,1.712,2.869A3.514,3.514,0,0,1,9.913,6.9,7.487,7.487,0,0,1,5.812,8.054ZM2.734,2.7a1.689,1.689,0,0,0-.887,1.342,1.7,1.7,0,0,0,.887,1.33,6.036,6.036,0,0,0,6.145,0,1.689,1.689,0,0,0,.887-1.342A1.7,1.7,0,0,0,8.879,2.7,6.065,6.065,0,0,0,2.734,2.7Z" transform="translate(8.965 19.974)" fill="#292d32"/>
    <path id="Vector-7" data-name="Vector" d="M0,0H29.555V29.555H0Z" fill="none" opacity="0"/>
  </g>
</svg>
