<svg xmlns="http://www.w3.org/2000/svg" width="29.555" height="29.555" viewBox="0 0 29.555 29.555">
  <g id="vuesax_outline_global-search" data-name="vuesax/outline/global-search" transform="translate(0 0)">
    <g id="global-search" transform="translate(0 0)">
      <path id="Vector" d="M13.238,26.476A13.238,13.238,0,1,1,26.476,13.238a.924.924,0,0,1-1.847,0A11.391,11.391,0,1,0,13.238,24.629a.924.924,0,0,1,0,1.847Z" transform="translate(1.539 1.539)" fill="#292d32"/>
      <path id="Vector-2" data-name="Vector" d="M2.706,24.013H1.475a.93.93,0,0,1-.924-.924.917.917,0,0,1,.9-.924,36.315,36.315,0,0,1,0-20.319A.924.924,0,0,1,1.475,0H2.706a.945.945,0,0,1,.751.382.925.925,0,0,1,.123.837,34.417,34.417,0,0,0,0,21.587.925.925,0,0,1-.123.837A.9.9,0,0,1,2.706,24.013Z" transform="translate(8.377 2.771)" fill="#292d32"/>
      <path id="Vector-3" data-name="Vector" d="M2.72,12.928A.93.93,0,0,1,1.8,12,34.181,34.181,0,0,0,.047,1.217.923.923,0,1,1,1.8.626,36.042,36.042,0,0,1,3.643,12,.93.93,0,0,1,2.72,12.928Z" transform="translate(17.55 2.773)" fill="#292d32"/>
      <path id="Vector-4" data-name="Vector" d="M12.007,3.646A35.877,35.877,0,0,1,1.847,2.181.924.924,0,0,1,0,2.156V.925A.945.945,0,0,1,.382.173.925.925,0,0,1,1.219.05,34.181,34.181,0,0,0,12.007,1.8a.924.924,0,1,1,0,1.847Z" transform="translate(2.771 17.547)" fill="#292d32"/>
      <path id="Vector-5" data-name="Vector" d="M23.1,3.636a.828.828,0,0,1-.3-.049,34.417,34.417,0,0,0-21.587,0A.923.923,0,0,1,.626,1.838a36.1,36.1,0,0,1,22.745,0,.927.927,0,0,1,.579,1.17A.872.872,0,0,1,23.1,3.636Z" transform="translate(2.761 8.371)" fill="#292d32"/>
      <path id="Vector-6" data-name="Vector" d="M4.864,9.728A4.864,4.864,0,1,1,9.728,4.864,4.867,4.867,0,0,1,4.864,9.728Zm0-7.881A3.017,3.017,0,1,0,7.881,4.864,3.022,3.022,0,0,0,4.864,1.847Z" transform="translate(17.548 17.548)" fill="#292d32"/>
      <path id="Vector-7" data-name="Vector" d="M2.152,3.076A.913.913,0,0,1,1.5,2.8L.268,1.573A.923.923,0,0,1,1.573.268L2.8,1.5A.929.929,0,0,1,2.8,2.8.913.913,0,0,1,2.152,3.076Z" transform="translate(24.94 24.94)" fill="#292d32"/>
      <path id="Vector-8" data-name="Vector" d="M0,0H29.555V29.555H0Z" transform="translate(29.555 29.555) rotate(180)" fill="none" opacity="0"/>
    </g>
  </g>
</svg>
