<svg id="vuesax_outline_building-3" data-name="vuesax/outline/building-3" xmlns="http://www.w3.org/2000/svg" width="29.555" height="29.555" viewBox="0 0 29.555 29.555">
  <g id="building-3" transform="translate(0 0)">
    <path id="Vector" d="M25.553,1.847H.924A.93.93,0,0,1,0,.924.93.93,0,0,1,.924,0H25.553a.93.93,0,0,1,.924.924A.93.93,0,0,1,25.553,1.847Z" transform="translate(1.539 26.168)" fill="#292d32"/>
    <path id="Vector-2" data-name="Vector" d="M.936,25.99a.925.925,0,0,1-.924-.924L0,6.668A3.394,3.394,0,0,1,1.5,3.861L6.428.573a3.366,3.366,0,0,1,3.756,0L15.11,3.861a3.348,3.348,0,0,1,1.5,2.808l.012,18.373a.922.922,0,0,1-.924.924ZM8.312,1.841a1.529,1.529,0,0,0-.85.259L2.537,5.388a1.53,1.53,0,0,0-.69,1.281l.012,17.474,12.93-.025-.012-17.45A1.511,1.511,0,0,0,14.1,5.4L9.174,2.112A1.488,1.488,0,0,0,8.312,1.841Z" transform="translate(2.771 2.038)" fill="#292d32"/>
    <path id="Vector-3" data-name="Vector" d="M.924,6.785A.93.93,0,0,1,0,5.862V.924A.93.93,0,0,1,.924,0a.93.93,0,0,1,.924.924V5.862A.922.922,0,0,1,.924,6.785Z" transform="translate(23.681 21.242)" fill="#292d32"/>
    <path id="Vector-4" data-name="Vector" d="M3.386,9.236A3.385,3.385,0,0,1,0,5.849V3.386a3.386,3.386,0,1,1,6.773,0V5.849A3.385,3.385,0,0,1,3.386,9.236Zm0-7.389A1.54,1.54,0,0,0,1.847,3.386V5.849a1.539,1.539,0,1,0,3.079,0V3.386A1.54,1.54,0,0,0,3.386,1.847Z" transform="translate(21.242 13.854)" fill="#292d32"/>
    <path id="Vector-5" data-name="Vector" d="M15.7,1.847H.924A.93.93,0,0,1,0,.924.93.93,0,0,1,.924,0H15.7a.93.93,0,0,1,.924.924A.93.93,0,0,1,15.7,1.847Z" transform="translate(2.771 16.317)" fill="#292d32"/>
    <path id="Vector-6" data-name="Vector" d="M.924,6.465A.93.93,0,0,1,0,5.542V.924A.93.93,0,0,1,.924,0a.93.93,0,0,1,.924.924V5.542A.93.93,0,0,1,.924,6.465Z" transform="translate(10.159 21.55)" fill="#292d32"/>
    <path id="Vector-7" data-name="Vector" d="M2.771,5.542A2.771,2.771,0,1,1,5.542,2.771,2.775,2.775,0,0,1,2.771,5.542Zm0-3.694a.924.924,0,1,0,.924.924A.93.93,0,0,0,2.771,1.847Z" transform="translate(8.312 8.312)" fill="#292d32"/>
    <path id="Vector-8" data-name="Vector" d="M0,0H29.555V29.555H0Z" fill="none" opacity="0"/>
  </g>
</svg>
