<svg xmlns="http://www.w3.org/2000/svg" width="28" height="28" viewBox="0 0 28 28">
  <g id="vuesax_twotone_global-search" data-name="vuesax/twotone/global-search" transform="translate(-684 -188)">
    <g id="global-search" transform="translate(684 188)">
      <g id="Group" transform="translate(2.333 2.333)">
        <path id="Vector" d="M23.333,11.667A11.667,11.667,0,1,0,11.667,23.333" fill="none" stroke="#5d5d5d" stroke-linecap="round" stroke-linejoin="round" stroke-width="1.5"/>
        <g id="Group_515" data-name="Group 515" transform="translate(1.167 1.167)" opacity="0.4">
          <path id="Vector-2" data-name="Vector" d="M.54,0H1.706a33.161,33.161,0,0,0,0,21H.54" transform="translate(5.293)" fill="none" stroke="#09bb8b" stroke-linecap="round" stroke-linejoin="round" stroke-width="1.5"/>
          <path id="Vector-3" data-name="Vector" d="M0,0A33.314,33.314,0,0,1,1.7,10.5" transform="translate(14)" fill="none" stroke="#09bb8b" stroke-linecap="round" stroke-linejoin="round" stroke-width="1.5"/>
          <path id="Vector-4" data-name="Vector" d="M0,1.167V0A33.314,33.314,0,0,0,10.5,1.7" transform="translate(0 14)" fill="none" stroke="#09bb8b" stroke-linecap="round" stroke-linejoin="round" stroke-width="1.5"/>
          <path id="Vector-5" data-name="Vector" d="M0,1.706a33.161,33.161,0,0,1,21,0" transform="translate(0 5.294)" fill="none" stroke="#09bb8b" stroke-linecap="round" stroke-linejoin="round" stroke-width="1.5"/>
        </g>
      </g>
      <path id="Vector-6" data-name="Vector" d="M7.467,3.733A3.733,3.733,0,1,1,3.733,0,3.733,3.733,0,0,1,7.467,3.733Z" transform="translate(17.5 17.5)" fill="none" stroke="#5d5d5d" stroke-linecap="round" stroke-linejoin="round" stroke-width="1.5"/>
      <path id="Vector-7" data-name="Vector" d="M1.167,1.167,0,0" transform="translate(24.5 24.5)" fill="none" stroke="#5d5d5d" stroke-linecap="round" stroke-linejoin="round" stroke-width="1.5"/>
      <path id="Vector-8" data-name="Vector" d="M0,0H28V28H0Z" transform="translate(28 28) rotate(180)" fill="none" opacity="0"/>
    </g>
  </g>
</svg>
