<svg xmlns="http://www.w3.org/2000/svg" width="30" height="30" viewBox="0 0 30 30">
  <g id="vuesax_twotone_building-3" data-name="vuesax/twotone/building-3" transform="translate(-556 -188)">
    <g id="building-3" transform="translate(556 188)">
      <path id="Vector" d="M0,0H25" transform="translate(2.5 27.5)" fill="none" stroke="#5d5d5d" stroke-linecap="round" stroke-linejoin="round" stroke-width="1.5"/>
      <path id="Vector-2" data-name="Vector" d="M15.013,24.484l-15,.025L0,5.834A2.506,2.506,0,0,1,1.113,3.759l5-3.337a2.493,2.493,0,0,1,2.775,0l5,3.337A2.476,2.476,0,0,1,15,5.834Z" transform="translate(3.75 3.003)" fill="none" stroke="#5d5d5d" stroke-linecap="round" stroke-linejoin="round" stroke-width="1.5"/>
      <path id="Vector-3" data-name="Vector" d="M0,5.013V0" transform="translate(24.975 22.5)" fill="none" stroke="#09bb8b" stroke-linecap="round" stroke-linejoin="round" stroke-width="1.5" opacity="0.4"/>
      <path id="Vector-4" data-name="Vector" d="M2.5,0A2.507,2.507,0,0,0,0,2.5V5A2.5,2.5,0,0,0,5,5V2.5A2.507,2.507,0,0,0,2.5,0Z" transform="translate(22.5 15)" fill="none" stroke="#5d5d5d" stroke-linecap="round" stroke-linejoin="round" stroke-width="1.5"/>
      <path id="Vector-5" data-name="Vector" d="M0,0H15" transform="translate(3.75 17.5)" fill="none" stroke="#5d5d5d" stroke-linecap="round" stroke-linejoin="round" stroke-width="1.5"/>
      <path id="Vector-6" data-name="Vector" d="M0,4.688V0" transform="translate(11.25 22.813)" fill="none" stroke="#09bb8b" stroke-linecap="round" stroke-linejoin="round" stroke-width="1.5" opacity="0.4"/>
      <path id="Vector-7" data-name="Vector" d="M3.75,1.875A1.875,1.875,0,1,1,1.875,0,1.875,1.875,0,0,1,3.75,1.875Z" transform="translate(9.375 9.375)" fill="none" stroke="#09bb8b" stroke-linecap="round" stroke-linejoin="round" stroke-width="1.5" opacity="0.4"/>
      <path id="Vector-8" data-name="Vector" d="M0,0H30V30H0Z" fill="none" opacity="0"/>
    </g>
  </g>
</svg>
